<svg xmlns="http://www.w3.org/2000/svg" width="669.69" height="674.634" viewBox="0 0 669.69 674.634"><defs><style>.a,.b{fill:#ebebeb;}.b,.g,.k{opacity:0.5;}.c{fill:#69a82c;}.d{opacity:0.1;}.e{fill:#5e9728;}.f{fill:#ffc727;}.h{fill:#37474f;}.i{fill:#455a64;}.j{fill:#263238;}.l,.n,.o,.p,.r{fill:none;}.l,.n,.o,.p{stroke:#263238;}.l{stroke-linecap:round;stroke-linejoin:round;}.m{fill:#b55d2c;}.n,.o,.p{stroke-miterlimit:10;}.n{stroke-width:0.75px;}.p{stroke-width:0.5px;}.q{fill:#fff;}.r{stroke:#707070;}</style></defs><g transform="translate(-155.878 -224.366)"><g transform="translate(156.878 224.366)"><g transform="translate(16.495 0)"><path class="a" d="M293.17,90.029H437.775s-14.337-39.162-36.4-39.162S372.394,77.9,372.394,77.9s-14.888-14.687-27.117-14.687S322.414,82.62,322.414,82.62,305.133,72.184,293.17,90.029Z" transform="translate(-204.462 -50.867)"/><path class="a" d="M138.395,246.489H283s-14.338-39.162-36.4-39.162-28.978,27.03-28.978,27.03-14.888-14.686-27.117-14.686-22.863,19.407-22.863,19.407S150.357,228.643,138.395,246.489Z" transform="translate(182.58 27.469)"/><path class="b" d="M403.61,170.946h67.578s-15.1-21.878-27-21.878-15.413,14.585-15.413,14.585-8.395-6.806-16.174-5.592S403.61,170.946,403.61,170.946Z" transform="translate(-403.61 -1.7)"/><path class="b" d="M278.643,198.042h67.578s-15.1-21.878-27-21.878-15.412,14.585-15.412,14.585-8.4-6.807-16.174-5.592S278.643,198.042,278.643,198.042Z" transform="translate(-91.108 11.866)"/><path class="a" d="M37.717,204.77h131.63s-18.025-40.244-37.308-42.76-28.507,29.9-28.507,29.9S91.1,180.456,81.315,180.456s-17.327,15.091-17.327,15.091S44.425,185.207,37.717,204.77Z" transform="translate(447.319 4.71)"/><path class="b" d="M127.323,128.705h88.918S200.967,99.549,184.4,99.124s-25.279,22.066-25.279,22.066S133.342,100.5,127.323,128.705Z" transform="translate(265.955 -26.709)"/></g><g transform="translate(36.183 326.704)"><g transform="translate(443.034 156.011)"><rect class="c" width="113.785" height="113.025"/><rect class="d" width="33.532" height="113.025" transform="translate(80.253)"/></g><g transform="translate(295.356 104.007)"><path class="c" d="M113.785,0H0V165.029H113.785Z"/><rect class="d" width="33.532" height="165.029" transform="translate(80.253)"/></g><g transform="translate(147.678 52.004)"><path class="c" d="M113.785,0H0V217.032H113.785Z"/><rect class="d" width="33.532" height="217.032" transform="translate(80.253)"/></g><rect class="c" width="113.785" height="269.036"/><rect class="d" width="33.532" height="269.036" transform="translate(80.253)"/></g><g transform="translate(36.025 105.744)"><g transform="translate(0 0)"><path class="e" d="M607.374,347.208c-2.779,0-5.953-.075-8.971-.153-3.069-.105-6.133-.188-9.219-.342q-9.234-.387-18.514-1.035c-12.363-.8-24.729-1.958-37.085-3.253q-37.063-4.02-73.857-10.707-36.748-6.695-72.972-16.1-36.151-9.538-71.455-22.043a734.486,734.486,0,0,1-69.184-28.514,627.313,627.313,0,0,1-65.8-35.793l-15.819-10.091L149.135,208.4c-5.2-3.5-10.083-7.413-15.035-11.246l-7.425-5.76-3.716-2.881-3.567-3.055-14.264-12.259c-2.433-1.99-4.622-4.235-6.908-6.384l-6.8-6.5-6.81-6.51c-2.254-2.186-4.32-4.553-6.49-6.822L65.224,133.21l-.852.719,12.253,14.408c2.068,2.38,4.034,4.859,6.19,7.161l6.522,6.86,6.528,6.867c2.2,2.271,4.3,4.64,6.645,6.756l13.775,13.033,3.453,3.256,3.6,3.082,7.211,6.168c4.814,4.107,9.567,8.3,14.644,12.086l15.016,11.651,15.519,10.977a637.22,637.22,0,0,0,65.021,39.505,747.786,747.786,0,0,0,68.974,32.365q35.287,14.431,71.719,25.941,36.428,11.354,73.664,19.985,37.2,8.635,75.026,14.567c12.609,1.936,25.247,3.731,37.963,5.168q9.533,1.112,19.125,1.99c3.192.312,6.412.555,9.627.819,3.267.239,6.381.467,9.892.638Z" transform="translate(-50.239 -115.384)"/><path class="e" d="M424.08,157.054l7.382-13.855,15.1-4.3L413.8,121.331Z" transform="translate(-413.796 -121.331)"/></g></g><g transform="translate(47.863 110.906)"><g transform="translate(0 0)"><g transform="translate(0)"><path class="f" d="M423.014,332.07h21.5s1.666-4.84-4.556-23.507-10.026-36.3-1.729-54.62,13.71-41.08,4.747-64.049c-10.119-25.935-12.918-25.563.26-62.458,1.153-3.226.065-3.359-1.55-1.285s-11.293,26.5-12.444,33.187c0,0-9.45-15.672-12.907-15.9s-2.263.383,0,3c16.2,18.71,25.121,49.09,25.582,64.07s-7.374,31.112-7.374,31.112-10.6-16.132-17.516-22.816-11.522-16.823-7.835-25.812-11.6,4.379-1.306,19.129c0,0-15.518-3-19.206,3.226s10.14-7.376,23.738,4.84a63.4,63.4,0,0,1,17.746,26.733s-13.242,30.141-8.989,47.015C428.085,321.354,423.014,332.07,423.014,332.07Z" transform="translate(-388.071 -124.771)"/><path class="g" d="M423.014,332.07h21.5s1.666-4.84-4.556-23.507-10.026-36.3-1.729-54.62,13.71-41.08,4.747-64.049c-10.119-25.935-12.918-25.563.26-62.458,1.153-3.226.065-3.359-1.55-1.285s-11.293,26.5-12.444,33.187c0,0-9.45-15.672-12.907-15.9s-2.263.383,0,3c16.2,18.71,25.121,49.09,25.582,64.07s-7.374,31.112-7.374,31.112-10.6-16.132-17.516-22.816-11.522-16.823-7.835-25.812-11.6,4.379-1.306,19.129c0,0-15.518-3-19.206,3.226s10.14-7.376,23.738,4.84a63.4,63.4,0,0,1,17.746,26.733s-13.242,30.141-8.989,47.015C428.085,321.354,423.014,332.07,423.014,332.07Z" transform="translate(-388.071 -124.771)"/><path class="h" d="M431.4,203.9s-19.29-5.333-29.751,13.554C401.649,217.45,421.315,221.059,431.4,203.9Z" transform="translate(-392.247 -85.502)"/><path class="h" d="M402.106,135.738s-17.682-9.375-31.976,6.807C370.13,142.545,388.552,150.317,402.106,135.738Z" transform="translate(-315.654 -120.632)"/><path class="h" d="M427.381,201.942s-9.6-9.951-22.459-2.4C404.922,199.547,415.35,208.605,427.381,201.942Z" transform="translate(-393.14 -88.75)"/><path class="h" d="M415.426,141.026s-1.511-13.743-16.308-15.625C399.118,125.4,401.833,138.945,415.426,141.026Z" transform="translate(-372.475 -124.455)"/><path class="h" d="M393.043,167.259s-13.532-2.836-19.923,10.641C373.12,177.9,386.838,179.532,393.043,167.259Z" transform="translate(-311.077 -103.622)"/><g transform="translate(16.325 151.423)"><g transform="translate(3.927 5.804)"><path class="i" d="M430.9,229.541,429.68,244l-3.736,44.108H385.933L382.2,244l-1.219-14.462Z" transform="translate(-380.979 -229.541)"/><path class="j" d="M430.9,229.541,429.68,244H382.2l-1.219-14.462Z" transform="translate(-380.979 -229.541)"/></g><rect class="i" width="57.773" height="13.875" transform="translate(0 0)"/></g></g><g transform="translate(138.125 120.449)"><g transform="translate(0)"><g transform="translate(15.051 2.967)"><path class="f" d="M342,339h-24.85s15.861-22.1,19.447-33.957c5.311-17.543-3.96-34.5-16.582-43.878-5.731-4.256-11.62,1.972-19.922-.037-10.217-2.473-9.986-11.02-9.585-11.867s1.84,7.464,6.731,9.106c11.221,3.765,15.035-4.736,25.088-1.3a57.975,57.975,0,0,1-.161-10.752c.462-5.943-5.806-23.48-22.536-21.686-2.161.231-.849-1.235,3.087-1.544a20.013,20.013,0,0,1,8.1,1.466,16.706,16.706,0,0,1-3.858-8.72c-.387-4.862-3.319-7.871-3.01-8.644s2.778.926,3.858,6.021c0,0,2.47,7.948,5.4,10.5s9.01,9.588,10.554,16.456c0,0,.437-4.316,1.177-12.6.542-6.069,4.244-10.959,5.171-10.574s-3.551,5.712-3.782,11.423.861,11.882-.261,16.626c-1.793,7.581.107,15.864,3.734,20.031s13.042,12.679,13.5,27.961S338.143,332.675,342,339Z" transform="translate(-290.37 -207.011)"/></g><g class="k" transform="translate(15.051 2.967)"><path d="M342,339h-24.85s15.861-22.1,19.447-33.957c5.311-17.543-3.96-34.5-16.582-43.878-5.731-4.256-11.62,1.972-19.922-.037-10.217-2.473-9.986-11.02-9.585-11.867s1.84,7.464,6.731,9.106c11.221,3.765,15.035-4.736,25.088-1.3a57.975,57.975,0,0,1-.161-10.752c.462-5.943-5.806-23.48-22.536-21.686-2.161.231-.849-1.235,3.087-1.544a20.013,20.013,0,0,1,8.1,1.466,16.706,16.706,0,0,1-3.858-8.72c-.387-4.862-3.319-7.871-3.01-8.644s2.778.926,3.858,6.021c0,0,2.47,7.948,5.4,10.5s9.01,9.588,10.554,16.456c0,0,.437-4.316,1.177-12.6.542-6.069,4.244-10.959,5.171-10.574s-3.551,5.712-3.782,11.423.861,11.882-.261,16.626c-1.793,7.581.107,15.864,3.734,20.031s13.042,12.679,13.5,27.961S338.143,332.675,342,339Z" transform="translate(-290.37 -207.011)"/></g><path class="h" d="M285.085,243.472s17.081,2.742,24.266-14.482C309.351,228.99,292.113,227.766,285.085,243.472Z" transform="translate(-233.399 -193.051)"/><path class="h" d="M288.183,241.551s6.366,10.116,18.581,5.992C306.764,247.543,299.539,238.037,288.183,241.551Z" transform="translate(-235.461 -187.141)"/><path class="h" d="M323.9,250.091s11.542,3.1,17.709-8.218C341.605,241.873,329.846,239.8,323.9,250.091Z" transform="translate(-323.896 -186.675)"/><path class="h" d="M303.09,219.657s11.818-1.778,12.934-14.623C316.024,205.034,304.421,207.845,303.09,219.657Z" transform="translate(-267.092 -205.034)"/></g><g transform="translate(23.836 83.178)"><g transform="translate(3.927 5.804)"><path class="i" d="M333.852,264.328l-1.219,14.462L328.9,322.9H288.886l-3.735-44.109-1.219-14.462Z" transform="translate(-283.932 -264.328)"/><path class="j" d="M333.852,264.328l-1.219,14.462H285.151l-1.219-14.462Z" transform="translate(-283.932 -264.328)"/></g><rect class="i" width="57.773" height="13.875" transform="translate(0 0)"/></g></g><g transform="translate(299.328 179.363)"><g transform="translate(0)"><g transform="translate(16.698 17.188)"><path class="f" d="M230.384,362.7H210.248s12.852-17.912,15.759-27.516c4.3-14.216-3.208-27.959-13.437-35.556-4.645-3.449-9.415,1.6-16.143-.03-8.279-2-8.092-8.929-7.766-9.616s1.49,6.049,5.453,7.379c9.093,3.051,12.184-3.837,20.328-1.053a66.759,66.759,0,0,0-.129-8.713c-.822-10.238-9.193-17.634-9.193-17.634a13.55,13.55,0,0,1-3.127-7.068c-.312-3.939-2.688-6.378-2.439-7s2.251.75,3.127,4.879c0,0,2,6.441,4.378,8.5s7.3,7.771,8.551,13.337c0,0,1.955,16.806,4.894,20.183s10.569,10.275,10.944,22.657S227.259,357.573,230.384,362.7Z" transform="translate(-188.547 -255.745)"/><g class="k"><path d="M230.384,362.7H210.248s12.852-17.912,15.759-27.516c4.3-14.216-3.208-27.959-13.437-35.556-4.645-3.449-9.415,1.6-16.143-.03-8.279-2-8.092-8.929-7.766-9.616s1.49,6.049,5.453,7.379c9.093,3.051,12.184-3.837,20.328-1.053a66.759,66.759,0,0,0-.129-8.713c-.822-10.238-9.193-17.634-9.193-17.634a13.55,13.55,0,0,1-3.127-7.068c-.312-3.939-2.688-6.378-2.439-7s2.251.75,3.127,4.879c0,0,2,6.441,4.378,8.5s7.3,7.771,8.551,13.337c0,0,1.955,16.806,4.894,20.183s10.569,10.275,10.944,22.657S227.259,357.573,230.384,362.7Z" transform="translate(-188.547 -255.745)"/></g></g><path class="h" d="M187.658,281.3s11.951,0,14.963-12.538C202.621,268.762,190.728,269.817,187.658,281.3Z" transform="translate(-141.665 -232.04)"/><path class="h" d="M217.15,272.981s3.861,11.311,16.7,10.115C233.848,283.1,229.01,272.181,217.15,272.981Z" transform="translate(-217.15 -229.949)"/><path class="h" d="M203.106,261.931s10.859-4.99,8.365-17.639C211.47,244.292,201.1,250.214,203.106,261.931Z" transform="translate(-173.683 -244.292)"/></g><g transform="translate(20.634 76.067)"><g transform="translate(3.927 5.804)"><path class="i" d="M228.566,298.848l-1.219,14.463-3.736,44.109H183.6l-3.735-44.109-1.219-14.463Z" transform="translate(-178.646 -298.848)"/><path class="j" d="M228.566,298.848l-1.219,14.463H179.865l-1.219-14.463Z" transform="translate(-178.646 -298.848)"/></g><rect class="i" width="57.773" height="13.875" transform="translate(0 0)"/></g></g><g transform="translate(459.36 271.839)"><g transform="translate(2.244)"><path class="f" d="M130.6,371.151H114.689s10.158-14.157,12.456-21.748c3.4-11.236-3.86-23.751-10.04-27.659-3.864-2.442-8.023.819-13.34-.467-6.543-1.583-6.4-7.056-6.139-7.6s1.178,4.781,4.311,5.833c7.187,2.412,9.628-3.034,16.066-.833,0,0-.242-8.671,6.463-12.681,1.2-.716-2.76,3.414-3.812,8.282-.824,3.81-.2,6.771,2.14,9.522,2.29,2.7,8.353,8.122,8.648,17.908S128.133,367.1,130.6,371.151Z" transform="translate(-97.536 -305.915)"/><g class="k"><path d="M130.6,371.151H114.689s10.158-14.157,12.456-21.748c3.4-11.236-3.86-23.751-10.04-27.659-3.864-2.442-8.023.819-13.34-.467-6.543-1.583-6.4-7.056-6.139-7.6s1.178,4.781,4.311,5.833c7.187,2.412,9.628-3.034,16.066-.833,0,0-.242-8.671,6.463-12.681,1.2-.716-2.76,3.414-3.812,8.282-.824,3.81-.2,6.771,2.14,9.522,2.29,2.7,8.353,8.122,8.648,17.908S128.133,367.1,130.6,371.151Z" transform="translate(-97.536 -305.915)"/></g></g><g transform="translate(0 35.595)"><g transform="translate(3.927 5.804)"><path class="i" d="M135.676,333.5l-1.219,14.462-3.736,44.109H90.71l-3.735-44.109L85.756,333.5Z" transform="translate(-85.756 -333.501)"/><path class="j" d="M135.676,333.5l-1.219,14.462H86.975L85.756,333.5Z" transform="translate(-85.756 -333.501)"/></g><rect class="i" width="57.773" height="13.875" transform="translate(0 0)"/></g></g></g></g><g transform="translate(0 595.74)"><line class="l" x1="629.185"/></g><g transform="translate(108.897 4.517)"><g transform="translate(0)"><path class="j" d="M233.083,118.1c0,.15-.225.132-.23-.014-.206-7.089-7.185-11.809-6.95-19.027a16.877,16.877,0,0,1,3.153-8.828,47.494,47.494,0,0,1,4.032-4.748c.191-.261.383-.522.57-.782a34.2,34.2,0,0,0,3.268-5.194,20.034,20.034,0,0,0,1.7-6.734c.452-4.441.609-8.962,3.714-12.481a19.408,19.408,0,0,1,10.089-5.563c8.494-2.068,18.6-.575,24.23,6.7A15.772,15.772,0,0,1,279,65.659a18.724,18.724,0,0,1,6.435,9.387c1.313,5.1-2.09,9.276-1.777,11.818.275,2.241,1.643,4.155,2.551,6.178a38.792,38.792,0,0,1,2.517,5.287,13.736,13.736,0,0,1,.2,7.93,14.981,14.981,0,0,1-3.189,6.477,12.23,12.23,0,0,1-5.854,3.447c-.534.159-1.068.3-1.6.444l-.041.024c-1.873,1.031-3.9,1.795-5.683,2.983a9.671,9.671,0,0,0-3.948,5.56c-.612,2.1-.815,4.289-1.286,6.42a15.712,15.712,0,0,1-2.338,5.56,18.314,18.314,0,0,1-9.535,6.893,27.772,27.772,0,0,1-13.818.492c-4.091-.8-7.951-2.581-10.244-6.205a13.129,13.129,0,0,1-1.535-10.646,35.353,35.353,0,0,1,3-5.988,10.551,10.551,0,0,0,1.327-6.361c-.945-7.308-7.988-12.961-6.13-20.786a18,18,0,0,1,2.551-5.563,17.887,17.887,0,0,0-4.1,8.895c-.477,3.68.867,6.921,2.674,10.047S233.137,114.335,233.083,118.1Zm46.448-2.193a12.007,12.007,0,0,0,7.29-5.569,16.251,16.251,0,0,0,1.99-10.157,18.452,18.452,0,0,0-1.729-4.757c-.02-.042-.039-.084-.059-.125a17.33,17.33,0,0,1,.588,3.267,19.621,19.621,0,0,1-2.018,10.317,18.087,18.087,0,0,1-6.2,7.065C279.439,115.936,279.486,115.923,279.531,115.908Z" transform="translate(-47.543 -53.877)"/><g transform="translate(0 50.904)"><g transform="translate(0 0.45)"><g transform="translate(123.646)"><path class="m" d="M334.951,102.668C329.069,132.3,314.088,158.3,305.3,160.306c-12.61,2.886-46.245-.96-61.525-5.485-4.489-1.33,6.561-36.058,11.362-34.643,5.8,1.711,39.486,9.567,40.094,9.556,1.3-.021,21.544-26.915,26.391-33.872C330.51,83.1,338.15,86.552,334.951,102.668Z" transform="translate(-242.723 -88.098)"/></g><g transform="translate(0 9.287)"><path class="m" d="M298.447,141.961c6.385,3.872,22.539,6.684,26.7,5.863s9.852-28.123,7.028-31.43-25.327-14.68-32.881-13.692S291.833,137.949,298.447,141.961Z" transform="translate(-192.587 -90.103)"/><path class="h" d="M372.985,112.924l2.889,13.358-11.337,6.88Z" transform="translate(-342.062 -84.955)"/><path class="i" d="M371.8,131.291l8.458,17.437-40.482-24.081,2.767-4.38Z" transform="translate(-309.282 -81.278)"/><path class="i" d="M310.055,124s6.962-25.16,13.724-26.664,19.961,38.645,7.529,51.221c-3.978,4.041-11.911,2.5-11.911,2.5Zm18.976,21.221c9.681-9.79-.236-43.361-5.5-42.193S312.491,126.1,312.491,126.1l7.272,21.064S325.934,148.362,329.031,145.22Z" transform="translate(-220.872 -92.781)"/><path class="h" d="M320.434,171.235l44.685-8.376-19.684-64.79-28.623,5.624Z" transform="translate(-259.688 -92.392)"/><path class="i" d="M360.521,99.963l3.678-5.677-36.722,6.478,4.42,4.823Z" transform="translate(-274.773 -94.286)"/><g transform="translate(0 25.521)"><path class="i" d="M375.477,115.738s-3.9-5.207-5.179-2.988S375.477,115.738,375.477,115.738Z" transform="translate(-350.058 -110.839)"/><path class="i" d="M376.686,121.033s-4.717-4.478-5.607-2.074S376.686,121.033,376.686,121.033Z" transform="translate(-352.567 -107.81)"/><path class="i" d="M382.1,116.782s-5.907-2.725-5.976-.164S382.1,116.782,382.1,116.782Z" transform="translate(-365.664 -109.176)"/><path class="i" d="M384.291,120.954s-6.117-2.215-5.97.344S384.291,120.954,384.291,120.954Z" transform="translate(-371.161 -106.901)"/><path class="i" d="M384.092,113.4s-5.315-3.749-5.848-1.243S384.092,113.4,384.092,113.4Z" transform="translate(-370.801 -111.293)"/><path class="i" d="M389.055,116.426s-6.211-1.934-5.947.614S389.055,116.426,389.055,116.426Z" transform="translate(-383.1 -109.075)"/><path class="i" d="M378.267,126s-6.435.954-5.09,3.135S378.267,126,378.267,126Z" transform="translate(-357.143 -103.927)"/><path class="i" d="M385.338,133.2s-4.906,4.271-2.6,5.384S385.338,133.2,385.338,133.2Z" transform="translate(-377.917 -100.323)"/><path class="i" d="M381.268,130.475s-5.635,3.249-3.585,4.786S381.268,130.475,381.268,130.475Z" transform="translate(-366.51 -101.689)"/><path class="i" d="M380.381,123.663s-6.418-1.056-5.8,1.432S380.381,123.663,380.381,123.663Z" transform="translate(-361.572 -105.211)"/><path class="i" d="M384.643,127.046s-6.066,2.346-4.275,4.178S384.643,127.046,384.643,127.046Z" transform="translate(-374.091 -103.406)"/></g><g transform="translate(90.449 8.377)"><path class="m" d="M332.395,104.906c1.832,3.506-3.348,3.659-3.348,3.659s7.511,1.577,8,5.922c.462,4.19-5.8,4.154-6.252,4.157.4.087,7.26,1.717,7.3,6.133.044,4.592-6.24,3.476-6.645,3.4.348.2,4.915,2.916,4.185,6.28-1.256,5.779-13.123-.846-17.672.651,0,0,1.66,8,1.658,8.24,0,0-11.419-6.073-13.1-12.321a4.13,4.13,0,0,1,2.011-4.768s-3.9-1.552-4.044-5.027c-.069-1.784,2.724-3.485,2.724-3.485s-3.069-1.372-3-4.474c.044-2.473,2.838-3.794,2.838-3.794s-2.335-2.685-1.471-5.2C307.32,99.211,328.464,97.4,332.395,104.906Z" transform="translate(-304.217 -99.868)"/><g transform="translate(2.824 7.258)"><path class="j" d="M310.029,106.785a.055.055,0,0,1-.03-.107,36.81,36.81,0,0,1,21.89-.573c.227.071.21.468-.054.438A75.366,75.366,0,0,0,310.029,106.785Z" transform="translate(-309.604 -104.705)"/><path class="j" d="M308.845,112.389c-.081.014-.105-.122-.021-.149,7.028-2.325,16.258-2.557,23.918.858.263.117.381.486.069.374C327.545,111.587,315.6,111.221,308.845,112.389Z" transform="translate(-308.772 -101.798)"/><path class="j" d="M331.4,120.327c-7.472-2.989-15.151-3.285-23.082-2.452-.1.011-.108-.137-.024-.17,3.77-1.465,8.88-1.468,12.856-1.133a21.239,21.239,0,0,1,10.355,3.494C331.625,120.148,331.556,120.392,331.4,120.327Z" transform="translate(-306.529 -98.854)"/></g><path class="j" d="M314.736,105.663a24.1,24.1,0,0,1,4.089,1.684,8.11,8.11,0,0,1,3.219,2.743,2.66,2.66,0,0,1,.342,1.879,3.876,3.876,0,0,1-.866,1.763,4.723,4.723,0,0,1-3.606,1.351l-3.243-.06,3.025,1.184a13.308,13.308,0,0,1,3.716,2.164,4.75,4.75,0,0,1,1.913,3.377,2.713,2.713,0,0,1-1.918,2.823,8.187,8.187,0,0,1-4.109.083l-3.768-.759,3.3,1.942a12.569,12.569,0,0,1,2.517,1.948,5.149,5.149,0,0,1,1.5,2.557,2.447,2.447,0,0,1-.909,2.409,5.4,5.4,0,0,1-2.947.671,42.652,42.652,0,0,1-6.612-.819c-1.109-.188-2.222-.375-3.346-.51a8.022,8.022,0,0,0-3.371.119,8.658,8.658,0,0,1,3.324.189c1.1.218,2.187.489,3.277.759a36.324,36.324,0,0,0,6.711,1.19,6.305,6.305,0,0,0,3.56-.692,3.466,3.466,0,0,0,1.478-3.5,6.283,6.283,0,0,0-1.777-3.223,13.64,13.64,0,0,0-2.77-2.212l-.47,1.183a9.433,9.433,0,0,0,4.855-.05,3.932,3.932,0,0,0,2.128-1.6,4.452,4.452,0,0,0,.65-2.547,5.987,5.987,0,0,0-2.421-4.275,14.412,14.412,0,0,0-4.124-2.316l-.218,1.124a5.646,5.646,0,0,0,4.37-1.907,4.748,4.748,0,0,0,.956-2.235,3.429,3.429,0,0,0-.537-2.377A8.3,8.3,0,0,0,319,107,19.879,19.879,0,0,0,314.736,105.663Z" transform="translate(-289.906 -96.967)"/></g><g transform="translate(106.865 6.805)"><path class="m" d="M324.951,115.695s-18.433-25.762-24.971-13.623c-1.943,3.606-5.618,20.739-2.192,21.544,4.426,1.038,7.293-5.826,8.41-10.421,0,0,5.036,9.645,12.8,8.141A7.851,7.851,0,0,0,324.951,115.695Z" transform="translate(-295.725 -98.82)"/><path class="j" d="M306.368,100.337a16.561,16.561,0,0,0-2.167,4.314,35.888,35.888,0,0,0-1.335,4.66,55.653,55.653,0,0,0-1.354,9.621,9.125,9.125,0,0,0,.236,2.565,3.392,3.392,0,0,0,.651,1.319,2.4,2.4,0,0,0,.6.542,2.509,2.509,0,0,0,.746.3,4.076,4.076,0,0,0,2.8-.4,7.62,7.62,0,0,0,2.047-1.675,14.642,14.642,0,0,0,2.5-4.335,33.1,33.1,0,0,0,1.433-4.681l-1.046.114a19.581,19.581,0,0,0,2.135,3.042,18.147,18.147,0,0,0,2.649,2.566,12.443,12.443,0,0,0,3.207,1.8,9.478,9.478,0,0,0,3.573.636,10.712,10.712,0,0,1-3.42-.995,13.006,13.006,0,0,1-2.908-1.99,17.354,17.354,0,0,1-2.386-2.592,18.714,18.714,0,0,1-1.846-2.97l-.632-1.294-.414,1.409a35.178,35.178,0,0,1-1.522,4.463,14.247,14.247,0,0,1-2.325,3.936c-.957,1.082-2.317,1.954-3.519,1.657-1.079-.168-1.291-1.916-1.288-3.419a45.922,45.922,0,0,1,.306-4.726c.161-1.586.341-3.171.6-4.741C304.271,106.358,304.841,103.169,306.368,100.337Z" transform="translate(-301.507 -98.061)"/></g></g></g><g transform="translate(159.172)"><path class="e" d="M245,126.1l-2.43,36.72s24.189,3.264,30.867-2.281,22.089-32.752,25.854-54.3-4-24.835-16.625-6.54-22.684,29.553-23.292,29.521S245,126.1,245,126.1Z" transform="translate(-242.57 -87.798)"/><g transform="translate(7.227 41.159)"><path class="j" d="M276.614,115.306c.014-.119.21-.1.212.015a297.343,297.343,0,0,1-1.718,32.359c-.012.119-.21.105-.21-.015A297.68,297.68,0,0,1,276.614,115.306Z" transform="translate(-274.897 -115.225)"/></g><path class="d" d="M242.571,163.6c4.594-.332,8.771-1.207,11.01-3.063,6.672-5.55,22.089-32.745,25.851-54.305,2.727-15.576-.569-21.6-7.376-16.839Z" transform="translate(-222.717 -87.797)"/></g></g><g transform="translate(115.959 114.2)"><g transform="translate(90.77)"><g transform="translate(28.486 220.732)"><path class="m" d="M175.845,371.956c2.883.333,79.886-16.078,82.417-18.566.978-.929-.759-12.289-3.252-25.954-.027-.143-.056-.284-.083-.428-.507-2.817-14.067-49.944-14.067-49.944l-50.19,11.822,14.462,48.155.2.84s-26.664,19.464-29.163,22.494C173.693,363.392,172.963,371.635,175.845,371.956Z" transform="translate(-173.975 -277.064)"/><path class="j" d="M256.225,315.158c1.8,10.47,2.856,18.386,2.036,19.159-2.535,2.491-79.53,18.9-82.417,18.566s-2.152-8.563.329-11.584c1.52-1.84,12.013-9.789,19.988-15.727-5.344,4.323-13.027,14.672,19.929,4.082C236.425,323.121,249.13,318.167,256.225,315.158Z" transform="translate(-173.977 -257.991)"/></g><g transform="translate(0)"><path class="h" d="M178.6,129.976s-4.3,36.809,3.3,45.193c0,0,11.681,83.4,16.492,107.822,6.352,32.235,32.027,114.313,32.027,114.313l54.91-13.283s-34.69-104.555-34.96-106.656c-1.529-11.923-10.512-94.654-9.787-96.7,9.348-26.38-3.111-50.691-3.111-50.691Z" transform="translate(-177.384 -129.976)"/><g transform="translate(53.97 241.425)"><path class="j" d="M183.158,301.988c7.647-2.113,5.416-1.648,13.092-3.648,3.758-.979,28.454-7.382,32.164-7.487.081,0,.125.17.051.206-3.333,1.636-28.168,7.472-31.949,8.356-7.726,1.805-5.533,1.177-13.286,2.869C183.084,302.315,183.014,302.029,183.158,301.988Z" transform="translate(-183.079 -290.853)"/></g><path class="n" d="M250.145,371.926s-22.561-76.851-24.308-84.836S210.071,167.811,209.6,166.567s0-33.552,0-33.552" transform="translate(-190.226 -128.454)"/></g><path class="j" d="M213.784,175.165s4.592,32.79,9.2,63.254L269.354,129.98H210.482S206.19,166.777,213.784,175.165Z" transform="translate(-209.271 -129.974)"/></g><g transform="translate(0)"><g transform="translate(0 187.903)"><path class="m" d="M253.848,327.486c2.757.906,81.485.288,84.466-1.64,1.145-.713-7.319-70.658-7.319-70.658l-50.309,2.17,8.889,42.667s-30.03,13.715-33.085,16.182C253.458,318.664,251.09,326.593,253.848,327.486Z" transform="translate(-252.628 -255.188)"/><path class="j" d="M253.781,310.542c1.214.4,17.088.5,34.768.332,1.161-.015,2.335-.029,3.51-.042,3.016-.024,6.063-.072,9.081-.123,1.175-.027,2.352-.056,3.512-.071l.054,0c1.162-.029,2.323-.059,3.458-.075,1.762-.029,3.483-.072,5.165-.12,1.094-.033,2.175-.068,3.227-.09l.041,0c1.053-.038,2.092-.075,3.09-.1l.041,0c1.517-.045,2.967-.094,4.35-.164.929-.03,1.846-.063,2.722-.111,1.711-.072,3.271-.156,4.657-.251.7-.035,1.357-.084,1.96-.138,1.51-.113,2.718-.234,3.546-.368a4.2,4.2,0,0,0,1.292-.333c.4-.246.143-8.764-.347-19.834-7.6,1.78-21.5,4.568-42.768,7.626-34.961,5.03-24.542-4.373-18.605-7.563.059-.037.114-.06.171-.1-.366.167-.747.345-1.114.524a.991.991,0,0,0-.183.083q-1.018.482-2.032.965c-.734.345-1.481.7-2.215,1.061-1.228.584-2.455,1.166-3.629,1.754-1.184.56-2.314,1.122-3.389,1.661-.636.324-1.259.636-1.852.923-.3.143-.579.3-.863.444-.381.192-.764.384-1.118.578q-1.189.615-2.083,1.126a3.759,3.759,0,0,0-.411.231,12.572,12.572,0,0,0-1.385.885C253.4,301.715,251.034,309.642,253.781,310.542Z" transform="translate(-252.566 -238.244)"/></g><g transform="translate(16.224)"><path class="h" d="M222.511,343.125l52.711.638s-13.056-95.59-11.7-100.116c.53-1.769,64.468-59.758,64.468-59.758,22.93-22.6,15.035-53.912,15.035-53.912H284.158s-.791,9.193-3.887,12.667c-17.705,19.865-62.832,60.955-69.744,79.209C201.852,244.763,222.511,343.125,222.511,343.125Z" transform="translate(-208.4 -129.976)"/><g transform="translate(14.45 4.561)"><path class="o" d="M259.037,143.495c0,9.681-4.466,21.523-14.873,33.624s-34.781,31.363-34.781,31.363" transform="translate(-139.022 -127.768)"/><path class="n" d="M314.343,133.015s.431,5.611-1.277,9.6-70.181,74.584-72.82,83.09c-4.491,14.471,9.481,96.314,9.481,96.314" transform="translate(-239.356 -133.015)"/><g transform="translate(3.669 195.572)"><path class="j" d="M258.056,263.832c7.368-.216,5.252-.3,12.622-.4,3.608-.048,27.309-.341,30.678.449.074.017.074.194,0,.212-3.37.788-27.071.5-30.678.447-7.37-.1-5.254-.185-12.622-.4C257.918,264.132,257.918,263.837,258.056,263.832Z" transform="translate(-257.952 -263.337)"/></g></g></g></g></g><g transform="translate(185.46 0.141)"><g transform="translate(11.071 50.452)"><path class="e" d="M217.523,141.933l2.922,9.265s39.732,4.22,59.056,0c0,0-13.632-47.223-35.977-60.272C232.348,84.4,222.716,88.1,218.4,96.39c-1.094,2.1-9.016,22.254-9.016,30.713C209.383,136.113,217.523,141.933,217.523,141.933Z" transform="translate(-209.383 -87.59)"/><g transform="translate(8.49 47.449)"><path class="e" d="M232.707,119.209a65.089,65.089,0,0,1,9.472,1.643c1.541.41,3.054.888,4.564,1.4.753.255,1.51.485,2.271.71a10.285,10.285,0,0,0,2.44.483.057.057,0,0,1,0,.114,17.35,17.35,0,0,1-2.353-.065,17.043,17.043,0,0,1-2.241-.443c-1.567-.4-3.115-.873-4.678-1.289-3.154-.84-6.307-1.679-9.514-2.29C232.516,119.445,232.555,119.193,232.707,119.209Z" transform="translate(-224.678 -119.209)"/><path class="e" d="M239.906,121.157a70.265,70.265,0,0,1,7.928-.311c1.325.027,2.637.132,3.954.27.629.066,1.258.144,1.883.23.69.095,1.367.281,2.057.365.072.009.071.122,0,.114-.653-.059-1.319-.01-1.975-.032s-1.318-.048-1.976-.071c-1.321-.044-2.64-.072-3.959-.129-2.641-.113-5.272-.2-7.915-.219C239.757,121.373,239.771,121.171,239.906,121.157Z" transform="translate(-239.799 -118.395)"/></g></g><g transform="translate(24.559 51.977)"><g transform="translate(0 0.275)"><path class="m" d="M207.848,91.73c27.108,15.9,52.063,36.231,52.447,45.84.518,12.925-12.231,40.707-20.183,54.518-2.337,4.056-33.546-14.762-31.054-19.1,3.012-5.245,19.03-32.134,19.162-32.727.281-1.271-20.714-30.705-25.9-37.616C193.662,91.1,195.817,84.676,207.848,91.73Z" transform="translate(-185.186 -88.789)"/><g transform="translate(0 80.705)"><path class="m" d="M210.986,184.947c2.347,3.088,6.126,1.73,6.126,1.73a8.276,8.276,0,0,0,2.4,5.087c2.524,2.289,7.22-.668,7.22-.668a10.2,10.2,0,0,0,3.384,4.964c2.638,1.946,7.8-.36,7.8-.36a8.95,8.95,0,0,0,5.725,2.49c5.745.078,10.5-7.3,13.563-11.954s7.406-20.741,8.543-23.723l-29.722-19.945s-19.7,16.971-22.528,22.959C211.113,170.572,208.35,181.482,210.986,184.947Z" transform="translate(-209.914 -142.568)"/><g transform="translate(6.855 26.843)"><path class="j" d="M237.866,177.195c1.247-5.971,4.193-11.249,6.833-16.683a.1.1,0,0,1,.188.093c-2.689,5.374-4.275,11.213-6.746,16.685A.147.147,0,0,1,237.866,177.195Z" transform="translate(-237.863 -160.455)"/><path class="j" d="M230.242,179.728a15.868,15.868,0,0,1,1.747-3.774q1.065-1.938,2.193-3.839,2.258-3.809,4.7-7.5c.072-.11.257-.026.186.093-1.495,2.533-2.952,5.087-4.338,7.68q-1.042,1.945-2.053,3.909a18.854,18.854,0,0,1-2.075,3.608A.21.21,0,0,1,230.242,179.728Z" transform="translate(-220.606 -158.398)"/><path class="j" d="M222.982,182.489a11.1,11.1,0,0,1,1.753-3.313q1.065-1.713,2.11-3.438c1.394-2.3,2.785-4.6,4.1-6.947.066-.117.252-.026.188.093-1.322,2.391-2.61,4.8-3.953,7.179q-.988,1.754-2,3.5a10.406,10.406,0,0,1-2.086,3.006A.074.074,0,0,1,222.982,182.489Z" transform="translate(-201.776 -156.309)"/></g></g></g><g transform="translate(11.182)"><path class="e" d="M220.14,153.689l35.074,14.768s8.32-25.3,5.258-33.423-27.965-30.735-47.1-41.327-21.485-4.068-8.314,13.836,22.452,32.1,22.225,32.668S220.14,153.689,220.14,153.689Z" transform="translate(-196.764 -88.606)"/><g transform="translate(9.435 20.498)"><path class="j" d="M200.39,127.606c-.107-.053-.027-.233.086-.194a297.473,297.473,0,0,1,29.916,12.453c.108.051.027.234-.084.192A297.208,297.208,0,0,1,200.39,127.606Z" transform="translate(-180.859 -89.677)"/><g transform="translate(0)"><path class="n" d="M233.275,146.85l7.139-13.478s-17.586-26.235-21.08-31.108" transform="translate(-219.334 -102.265)"/><path class="p" d="M235.055,108.894s-3.677-3.261-5.017-4.786" transform="translate(-230.038 -101.342)"/></g></g></g></g><g transform="translate(0)"><g transform="translate(16.735 30.499)"><path class="m" d="M258.43,96c-.144,1.318-5.248,10.38-11.138,10.818-1.918.14-3.147-10.3-3.147-10.3l-.267-.75-3.728-10.5L251.837,75.6l1.7-1.3s.83,2.94,1.828,6.61c.047.171.095.341.141.524.063.206.123.4.173.594.156.546.312,1.106.458,1.666.111.425.222.839.324,1.289s.213.89.327,1.34A71.969,71.969,0,0,1,258.43,96Z" transform="translate(-240.15 -74.294)"/><path class="j" d="M257.41,80.9a22.35,22.35,0,0,1-11.489,14.867l-3.728-10.5L253.88,75.6l1.7-1.3S256.412,77.234,257.41,80.9Z" transform="translate(-242.193 -74.294)"/></g><path class="m" d="M239.895,76.381c-3.012,19.32,8.219,23.307,12.385,23.952,3.783.585,16.737,2.1,21.73-16.806s-3.036-26.413-11.617-28.211S242.908,57.061,239.895,76.381Z" transform="translate(-239.388 -53.504)"/><g transform="translate(2.483 16.073)"><path class="j" d="M258.995,66.588a12.674,12.674,0,0,0,1.349-.071,2.184,2.184,0,0,0,1.361-.335.7.7,0,0,0,.131-.839,1.727,1.727,0,0,0-1.618-.662,2.539,2.539,0,0,0-1.711.639A.742.742,0,0,0,258.995,66.588Z" transform="translate(-256.587 -64.681)"/><path class="j" d="M254.334,69.111a12.628,12.628,0,0,1-1.348-.1,2.185,2.185,0,0,1-1.355-.362.7.7,0,0,1-.114-.84,1.723,1.723,0,0,1,1.63-.63,2.53,2.53,0,0,1,1.7.672A.742.742,0,0,1,254.334,69.111Z" transform="translate(-239.451 -63.431)"/><g transform="translate(11.041 8.397)"><g transform="translate(0)"><path class="j" d="M254.033,71.056c.02-.048.092.08.08.134-.278,1.3-.378,2.841.729,3.491.035.02.018.086-.024.071C253.407,74.285,253.56,72.244,254.033,71.056Z" transform="translate(-253.699 -69.893)"/><path class="j" d="M254.057,70.283c2.137.221,1.538,4.477-.441,4.271C251.668,74.353,252.267,70.1,254.057,70.283Z" transform="translate(-252.306 -70.277)"/></g><path class="j" d="M251.377,70.521c.338.293.642.77,1.085.876.51.125.965-.266,1.364-.647.042-.039.074,0,.066.059-.1.818-.534,1.61-1.426,1.609-.813,0-1.285-.8-1.372-1.652C251.078,70.608,251.241,70.4,251.377,70.521Z" transform="translate(-248.821 -70.173)"/></g><g transform="translate(0 6.062)"><g transform="translate(1.178 0.452)"><path class="j" d="M260.938,70.07c0-.051-.111.049-.117.1-.134,1.325-.509,2.821-1.762,3.1-.038.009-.043.075,0,.075C260.545,73.338,261.023,71.347,260.938,70.07Z" transform="translate(-257.922 -68.504)"/><path class="j" d="M261.052,69.054c-2.1-.443-2.833,3.792-.887,4.2C262.082,73.659,262.813,69.424,261.052,69.054Z" transform="translate(-259.031 -69.021)"/></g><path class="j" d="M262.463,69.331c-.374.167-.774.516-1.179.474-.468-.05-.731-.567-.951-1.058-.022-.051-.063-.021-.073.035-.162.806-.041,1.7.71,1.985.686.264,1.327-.341,1.658-1.113C262.689,69.511,262.613,69.263,262.463,69.331Z" transform="translate(-260.195 -68.721)"/></g><path class="j" d="M257.833,77.994c-.347.281-.7.677-1.189.672a3.5,3.5,0,0,1-1.393-.468.046.046,0,0,0-.064.062,1.794,1.794,0,0,0,1.615.879,1.42,1.42,0,0,0,1.154-1.073C257.983,77.991,257.884,77.953,257.833,77.994Z" transform="translate(-247.982 -58.024)"/><g transform="translate(2.813 1.633)"><path class="j" d="M257.779,78.508s-.572,1.924-.714,2.851c-.012.087.206.162.518.228.014.007.021.015.036.007a4.459,4.459,0,0,0,4.532-.993c.078-.081-.026-.194-.119-.149a6.731,6.731,0,0,1-4.2.539c-.027-.267,1.089-3.264.944-3.3a8.194,8.194,0,0,0-2.179.156c1.074-4.043,2.79-7.88,3.8-11.923a.127.127,0,0,0-.233-.1A67.673,67.673,0,0,0,255.525,78.5C255.369,79.014,257.385,78.609,257.779,78.508Z" transform="translate(-255.517 -65.769)"/></g></g><path class="j" d="M269.977,85.5c-3.335-.119-3.309-7.136-3.309-7.136s-6.721-.74-7.844-10.65a14.985,14.985,0,0,0,2.069,8.324s-11.7-2.6-15.568-13.074c0,0,1.418,5.275,3.081,7.281,0,0-4.813-1.948-6.779-6.256,0,0-2.721,5.486-4.5,6.887,0,0,2.833-20.67,21.785-16.294,0,0,11.932,2.159,15.173,12.164S269.977,85.5,269.977,85.5Z" transform="translate(-235.367 -53.971)"/><g transform="translate(29.513 26.021)"><g transform="translate(0)"><path class="m" d="M238.8,76.013s4.39-6.016,7.127-4.439-.648,10.358-3.923,11.5a3.306,3.306,0,0,1-4.394-1.865Z" transform="translate(-237.607 -71.31)"/><path class="j" d="M244.434,73.147c.053,0,.06.071.015.089-2.3.876-3.54,2.965-4.424,5.14a1.824,1.824,0,0,1,2.74-.443c.059.042,0,.135-.065.12a2.034,2.034,0,0,0-2.252.665,9.855,9.855,0,0,0-1.108,1.789c-.111.2-.477.084-.395-.149l.021-.053C238.967,77.4,241.308,73.377,244.434,73.147Z" transform="translate(-237.15 -70.391)"/></g></g><g transform="translate(19.319 49.05)"><path class="q" d="M239.45,90.525l4.421,8.215,9.469-12.083,3.42,3.153s-8.516,18.466-8.669,17.693l-4.377-7.019-4.54,5.733-1.038-13Z" transform="translate(-238.037 -86.656)"/><path class="j" d="M238.617,98.482c-.1-2.152-.26-4.316-.26-6.469,0-.077.116-.125.144-.037.659,2.015.995,10.247,1.223,12.2l.021-.026c.188-.246,4.235-5.071,4.287-5.008.9,1.091,4.107,6.2,4.341,6.671,1.345-2.932,6.564-13.629,8.23-16.446a.074.074,0,0,1,.137.059c-1.136,3.066-8.015,17.454-8.149,17.43a83.956,83.956,0,0,1-4.586-7.424c-.662,1.026-4.688,6.411-4.739,6.094A67.558,67.558,0,0,1,238.617,98.482Z" transform="translate(-238.357 -85.318)"/></g></g></g></g></g></g><rect class="q" width="654" height="134" transform="translate(156 765)"/><path class="r" d="M60,1063.411H729.69" transform="translate(95.878 -298.411)"/></g></svg>