<svg xmlns="http://www.w3.org/2000/svg" width="387.438" height="364.98" viewBox="0 0 387.438 364.98"><defs><style>.a,.o{fill:#72b74c;}.a{opacity:0.31;}.b,.d,.j,.l{fill:none;}.b,.c,.d,.e,.h,.k,.l,.m,.n,.o,.p,.q,.r{stroke:#263238;}.b,.c,.d,.e,.j{stroke-miterlimit:10;}.b{stroke-width:0.508px;}.c,.f{fill:#92e3a9;}.c,.e,.h,.j,.k,.l,.m,.n,.o,.p,.q,.r{stroke-width:0.254px;}.d{stroke-width:0.127px;}.e,.g,.h{fill:#263238;}.h,.k,.l,.m,.n,.o,.p,.q,.r{stroke-linecap:round;stroke-linejoin:round;}.i{opacity:0.2;}.j{stroke:#000;}.k{fill:#fff;}.m{fill:#757575;}.n{fill:#b55d2c;}.p{fill:#b2b2b2;}.q{fill:#d9d9d9;}.r{fill:#525252;}</style></defs><g transform="translate(-699.325 -202.35)"><g transform="translate(699.325 202.35)"><path class="a" d="M1064.8,360.74s-52.756-128.684-149.2-153.533S778.715,258.341,763.937,311.042s-69.24,122.469-64.3,170.394c4.7,45.545,44.621,67.09,81.9,76.334,47.386,11.747,101.235,12.639,148.8,2.847a308.989,308.989,0,0,0,33.435-9.053c22.352-7.289,44.284-12.934,66.922-18.971,43.058-11.488,60.122-57.739,55.262-102C1083.227,405.692,1074.1,383.4,1064.8,360.74Z" transform="translate(-699.325 -202.35)"/></g><g transform="translate(706.591 318.387)"><g transform="translate(0 36.649)"><line class="b" x2="15.203" y2="145.678" transform="translate(16.669 14.415)"/><g transform="translate(9.85 117.779)"><line class="b" x1="6.892" y1="7.28" transform="translate(12.68 7.155)"/><path class="c" d="M719.379,295.1a7.807,7.807,0,0,0-2.743-5.849c-1.771-1.579-11.083-5.5-11.964-2.218C703.712,290.6,713.241,297.611,719.379,295.1Z" transform="translate(-704.604 -285.767)"/><line class="d" x1="8.864" y1="5.524" transform="translate(5.91 3.813)"/></g><g transform="translate(11.578 134.347)"><line class="b" x1="6.892" y1="7.28" transform="translate(12.68 7.154)"/><path class="c" d="M719.911,300.211a7.8,7.8,0,0,0-2.743-5.846c-1.771-1.579-11.079-5.5-11.964-2.218C704.245,295.714,713.774,302.721,719.911,300.211Z" transform="translate(-705.137 -290.877)"/><line class="d" x1="8.864" y1="5.524" transform="translate(5.911 3.812)"/></g><g transform="translate(5.632 77.351)"><line class="b" x1="6.892" y1="7.28" transform="translate(12.679 7.154)"/><path class="c" d="M718.075,282.635a7.8,7.8,0,0,0-2.743-5.846c-1.767-1.582-11.079-5.5-11.961-2.218C702.408,278.134,711.937,285.141,718.075,282.635Z" transform="translate(-703.303 -273.298)"/><line class="d" x1="8.864" y1="5.524" transform="translate(5.909 3.811)"/></g><g transform="translate(7.36 93.918)"><line class="b" x1="6.892" y1="7.28" transform="translate(12.679 7.154)"/><path class="c" d="M718.611,287.742a7.816,7.816,0,0,0-2.743-5.846c-1.77-1.579-11.082-5.5-11.964-2.218C702.944,283.245,712.473,290.252,718.611,287.742Z" transform="translate(-703.836 -278.408)"/><line class="d" x1="8.864" y1="5.524" transform="translate(5.91 3.812)"/></g><g transform="translate(2.821 50.439)"><line class="b" x1="6.892" y1="7.28" transform="translate(12.681 7.153)"/><path class="c" d="M717.211,274.332a7.8,7.8,0,0,0-2.743-5.846c-1.77-1.579-11.079-5.5-11.964-2.218C701.544,269.835,711.073,276.839,717.211,274.332Z" transform="translate(-702.436 -264.998)"/><line class="d" x1="8.864" y1="5.524" transform="translate(5.911 3.811)"/></g><g transform="translate(0 23.408)"><line class="b" x1="6.892" y1="7.28" transform="translate(12.681 7.154)"/><path class="c" d="M716.341,266a7.8,7.8,0,0,0-2.743-5.846c-1.77-1.579-11.079-5.5-11.964-2.218C700.674,261.5,710.2,268.5,716.341,266Z" transform="translate(-701.566 -256.661)"/><line class="d" x1="8.864" y1="5.524" transform="translate(5.911 3.811)"/></g><g transform="translate(28.263 104.642)"><line class="b" y1="8.546" x2="5.241" transform="translate(0 9.223)"/><path class="c" d="M711.514,293.506a7.8,7.8,0,0,1,1.475-6.287c1.4-1.913,9.707-7.668,11.248-4.64C725.913,285.87,718.034,294.69,711.514,293.506Z" transform="translate(-707.87 -281.715)"/><line class="d" y1="7.628" x2="7.981" transform="translate(3.642 4.161)"/></g><g transform="translate(23.713 61.044)"><line class="b" y1="8.546" x2="5.241" transform="translate(0 9.222)"/><path class="c" d="M710.109,280.058a7.811,7.811,0,0,1,1.479-6.287c1.4-1.91,9.7-7.665,11.248-4.64C724.511,272.422,716.632,281.245,710.109,280.058Z" transform="translate(-706.468 -268.269)"/><line class="d" y1="7.628" x2="7.981" transform="translate(3.642 4.16)"/></g><g transform="translate(21.714 41.884)"><line class="b" y1="8.546" x2="5.241" transform="translate(0 9.223)"/><path class="c" d="M709.494,274.15a7.8,7.8,0,0,1,1.475-6.287c1.4-1.913,9.708-7.668,11.248-4.64C723.893,266.514,716.014,275.333,709.494,274.15Z" transform="translate(-705.85 -262.359)"/><line class="d" y1="7.629" x2="7.981" transform="translate(3.642 4.161)"/></g><g transform="translate(6.422)"><line class="b" y1="8.546" x2="5.241" transform="translate(12.361 23.018)"/><path class="c" d="M708.588,265.487a7.81,7.81,0,0,1,1.478-6.287c1.4-1.913,9.708-7.668,11.248-4.64C722.99,257.851,715.111,266.671,708.588,265.487Z" transform="translate(-692.586 -239.901)"/><line class="d" y1="7.629" x2="7.981" transform="translate(16.003 17.956)"/><path class="c" d="M706.775,261.791a7.8,7.8,0,0,1,1.475-6.287c1.407-1.91,9.708-7.665,11.248-4.64C721.174,254.155,713.3,262.978,706.775,261.791Z" transform="translate(-696.655 -248.185)"/><line class="d" y1="7.628" x2="7.981" transform="translate(10.119 5.977)"/><path class="c" d="M714.127,263.375a7.8,7.8,0,0,1-6.1-2.127c-1.754-1.6-6.6-10.456-3.434-11.672C708.044,248.253,715.991,257.013,714.127,263.375Z" transform="translate(-703.547 -249.442)"/><line class="d" x1="6.749" y1="8.737" transform="translate(3.832 5.197)"/></g></g><g transform="translate(28.389 55.234)"><line class="b" x1="15.117" y2="145.686" transform="translate(13.262 15.892)"/><g transform="translate(0 116.032)"><line class="b" x1="5.246" y1="8.543" transform="translate(11.359 9.218)"/><path class="c" d="M723.282,302.745a7.8,7.8,0,0,0-1.482-6.287c-1.407-1.91-9.711-7.662-11.251-4.633C708.876,295.116,716.758,303.932,723.282,302.745Z" transform="translate(-710.322 -290.96)"/><line class="d" x1="7.536" y1="7.23" transform="translate(5.422 4.553)"/></g><g transform="translate(4.195 75.602)"><line class="b" x1="5.246" y1="8.543" transform="translate(11.359 9.217)"/><path class="c" d="M724.576,290.274a7.8,7.8,0,0,0-1.482-6.287c-1.407-1.91-9.711-7.658-11.251-4.633C710.17,282.648,718.053,291.464,724.576,290.274Z" transform="translate(-711.616 -278.491)"/><line class="d" x1="7.537" y1="7.23" transform="translate(5.422 4.552)"/></g><g transform="translate(2.476 92.17)"><line class="b" x1="5.246" y1="8.543" transform="translate(11.358 9.218)"/><path class="c" d="M724.043,295.384a7.81,7.81,0,0,0-1.479-6.287c-1.407-1.91-9.711-7.658-11.25-4.633C709.637,287.758,717.523,296.574,724.043,295.384Z" transform="translate(-711.085 -283.601)"/><line class="d" x1="7.537" y1="7.23" transform="translate(5.422 4.553)"/></g><g transform="translate(6.987 48.686)"><line class="b" x1="5.246" y1="8.543" transform="translate(11.36 9.218)"/><path class="c" d="M725.437,281.974a7.806,7.806,0,0,0-1.482-6.287c-1.4-1.91-9.711-7.662-11.251-4.633C711.031,274.345,718.913,283.164,725.437,281.974Z" transform="translate(-712.477 -270.189)"/><line class="d" x1="7.537" y1="7.23" transform="translate(5.423 4.554)"/></g><g transform="translate(9.794 21.655)"><line class="b" x1="5.246" y1="8.543" transform="translate(11.358 9.217)"/><path class="c" d="M726.3,273.634a7.8,7.8,0,0,0-1.482-6.284c-1.4-1.91-9.711-7.662-11.248-4.633C711.895,266.008,719.777,274.824,726.3,273.634Z" transform="translate(-713.343 -261.852)"/><line class="d" x1="7.536" y1="7.23" transform="translate(5.422 4.553)"/></g><g transform="translate(17.489 109.518)"><line class="b" y1="7.284" x2="6.888" transform="translate(0 7.159)"/><path class="c" d="M717.2,298.295a7.8,7.8,0,0,1,2.74-5.849c1.767-1.582,11.076-5.5,11.961-2.224C732.86,293.788,723.335,300.8,717.2,298.295Z" transform="translate(-712.401 -288.951)"/><line class="d" y1="5.822" x2="9.381" transform="translate(4.795 3.52)"/></g><g transform="translate(22.014 65.916)"><line class="b" y1="7.284" x2="6.888" transform="translate(0 7.161)"/><path class="c" d="M718.592,284.846a7.813,7.813,0,0,1,2.74-5.849c1.767-1.579,11.076-5.5,11.961-2.224C734.255,280.339,724.733,287.349,718.592,284.846Z" transform="translate(-713.797 -275.503)"/><line class="d" y1="5.822" x2="9.381" transform="translate(4.795 3.521)"/></g><g transform="translate(24.002 46.757)"><line class="b" y1="7.284" x2="6.888" transform="translate(0 7.159)"/><path class="c" d="M719.2,278.934a7.806,7.806,0,0,1,2.74-5.846c1.77-1.582,11.079-5.5,11.964-2.224C734.872,274.431,725.346,281.441,719.2,278.934Z" transform="translate(-714.411 -269.594)"/><line class="d" y1="5.822" x2="9.381" transform="translate(4.795 3.52)"/></g><g transform="translate(20.769)"><line class="b" y1="7.284" x2="6.888" transform="translate(6.148 25.826)"/><path class="c" d="M720.1,270.273a7.816,7.816,0,0,1,2.74-5.849c1.77-1.579,11.079-5.5,11.964-2.224C735.771,265.766,726.245,272.776,720.1,270.273Z" transform="translate(-709.162 -242.265)"/><line class="d" y1="5.822" x2="9.381" transform="translate(10.943 22.186)"/><path class="c" d="M719.089,266.284a7.814,7.814,0,0,1,2.74-5.849c1.77-1.579,11.079-5.5,11.964-2.224C734.756,261.777,725.23,268.787,719.089,266.284Z" transform="translate(-711.438 -251.209)"/><line class="d" y1="5.822" x2="9.381" transform="translate(7.652 9.252)"/><path class="c" d="M724.764,270.663a7.805,7.805,0,0,1-5.528-3.336c-1.387-1.923-4.312-11.591-.956-12.13C721.924,254.614,727.9,264.824,724.764,270.663Z" transform="translate(-716.727 -255.174)"/><line class="d" x1="4.806" y1="9.94" transform="translate(3.231 5.552)"/></g></g><line class="b" y2="184.23" transform="translate(39.444 11.802)"/><g transform="translate(21.423)"><g transform="translate(0 152.167)"><line class="b" x1="6.099" y1="7.956" transform="translate(12.068 8.209)"/><path class="c" d="M722.1,295.666a7.8,7.8,0,0,0-2.12-6.1c-1.6-1.757-10.45-6.618-11.669-3.45C706.982,289.567,715.733,297.521,722.1,295.666Z" transform="translate(-708.173 -285.07)"/><line class="d" x1="8.242" y1="6.414" transform="translate(5.682 4.182)"/></g><g transform="translate(0 117.545)"><line class="b" x1="6.099" y1="7.956" transform="translate(12.068 8.209)"/><path class="c" d="M722.1,284.988a7.8,7.8,0,0,0-2.12-6.1c-1.6-1.754-10.45-6.614-11.669-3.447C706.982,278.886,715.733,286.843,722.1,284.988Z" transform="translate(-708.173 -274.392)"/><line class="d" x1="8.242" y1="6.414" transform="translate(5.682 4.182)"/></g><g transform="translate(0 76.898)"><line class="b" x1="6.099" y1="7.956" transform="translate(12.068 8.208)"/><path class="c" d="M722.1,272.45a7.8,7.8,0,0,0-2.12-6.1c-1.6-1.754-10.45-6.618-11.669-3.447C706.982,266.351,715.733,274.308,722.1,272.45Z" transform="translate(-708.173 -261.855)"/><line class="d" x1="8.242" y1="6.414" transform="translate(5.682 4.181)"/></g><g transform="translate(0 49.838)"><line class="b" x1="6.099" y1="7.956" transform="translate(12.068 8.209)"/><path class="c" d="M722.1,264.1a7.8,7.8,0,0,0-2.12-6.1c-1.6-1.754-10.45-6.618-11.669-3.447C706.982,258.005,715.733,265.962,722.1,264.1Z" transform="translate(-708.173 -253.509)"/><line class="d" x1="8.242" y1="6.414" transform="translate(5.682 4.182)"/></g><g transform="translate(0 22.661)"><line class="b" x1="6.099" y1="7.956" transform="translate(12.068 8.209)"/><path class="c" d="M722.1,255.722a7.8,7.8,0,0,0-2.12-6.1c-1.6-1.754-10.45-6.618-11.669-3.447C706.982,249.623,715.733,257.58,722.1,255.722Z" transform="translate(-708.173 -245.127)"/><line class="d" x1="8.242" y1="6.414" transform="translate(5.682 4.182)"/></g><g transform="translate(18.033 162.739)"><line class="b" y1="7.956" x2="6.099" transform="translate(0 8.209)"/><path class="c" d="M715.074,298.925a7.8,7.8,0,0,1,2.12-6.1c1.6-1.754,10.45-6.618,11.669-3.447C730.19,292.826,721.439,300.783,715.074,298.925Z" transform="translate(-710.831 -288.33)"/><line class="d" y1="6.759" x2="8.73" transform="translate(4.243 3.837)"/></g><g transform="translate(18.033 107.674)"><line class="b" y1="7.956" x2="6.099" transform="translate(0 8.209)"/><path class="c" d="M715.074,281.945a7.805,7.805,0,0,1,2.12-6.1c1.6-1.754,10.45-6.618,11.669-3.447C730.19,275.843,721.439,283.8,715.074,281.945Z" transform="translate(-710.831 -271.347)"/><line class="d" y1="6.759" x2="8.73" transform="translate(4.243 3.837)"/></g><g transform="translate(18.033 80.497)"><line class="b" y1="7.956" x2="6.099" transform="translate(0 8.209)"/><path class="c" d="M715.074,273.56a7.8,7.8,0,0,1,2.12-6.1c1.6-1.754,10.45-6.617,11.669-3.447C730.19,267.461,721.439,275.418,715.074,273.56Z" transform="translate(-710.831 -262.965)"/><line class="d" y1="6.759" x2="8.73" transform="translate(4.243 3.837)"/></g><g transform="translate(18.033 44.577)"><line class="b" y1="7.956" x2="6.099" transform="translate(0 8.208)"/><path class="c" d="M715.074,262.483a7.805,7.805,0,0,1,2.12-6.1c1.6-1.754,10.45-6.614,11.669-3.447C730.19,256.381,721.439,264.338,715.074,262.483Z" transform="translate(-710.831 -251.887)"/><line class="d" y1="6.759" x2="8.73" transform="translate(4.243 3.836)"/></g><g transform="translate(8.772)"><line class="b" y1="7.956" x2="6.099" transform="translate(9.261 24.544)"/><path class="c" d="M715.074,253.771a7.8,7.8,0,0,1,2.12-6.1c1.6-1.754,10.45-6.618,11.669-3.447C730.19,247.672,721.439,255.629,715.074,253.771Z" transform="translate(-701.569 -226.841)"/><line class="d" y1="6.759" x2="8.73" transform="translate(13.504 20.172)"/><path class="c" d="M713.653,249.908a7.8,7.8,0,0,1,2.12-6.1c1.6-1.754,10.45-6.618,11.669-3.447C728.769,243.809,720.018,251.766,713.653,249.908Z" transform="translate(-704.756 -235.504)"/><line class="d" y1="6.759" x2="8.73" transform="translate(8.896 7.647)"/><path class="c" d="M720.2,252.919a7.8,7.8,0,0,1-5.843-2.75c-1.579-1.77-5.486-11.086-2.2-11.964C715.72,237.249,722.714,246.784,720.2,252.919Z" transform="translate(-710.879 -238.138)"/><line class="d" x1="5.806" y1="9.391" transform="translate(3.516 5.39)"/></g></g><path class="e" d="M731.249,347.413H711.738L709.3,298.138h24.389Z" transform="translate(-684.226 -103.6)"/><g transform="translate(268.506 121.976)"><path class="f" d="M790.776,282.907a11.032,11.032,0,0,1,1.242-4.562c1.141-1.868,5.292-3.216,7.467-2.283a29.63,29.63,0,0,1,3.217,1.556,24.372,24.372,0,0,0-6.118,2.9A15.381,15.381,0,0,1,790.776,282.907Z" transform="translate(-770.035 -275.758)"/><path class="f" d="M791.628,284.185a10.672,10.672,0,0,0,2.905-5.706c.415-3.317-3.113,1.391-3.113,1.391s-1.76-6.679-2.8-2.944S791.628,284.185,791.628,284.185Z" transform="translate(-775.245 -275.687)"/><path class="f" d="M795.993,282.9s.623-3.113-.519-5.288-4.147-1.971-7.156-1.038a16.868,16.868,0,0,1-3.939.934,44.821,44.821,0,0,0,6.533,3.628A40.286,40.286,0,0,0,795.993,282.9Z" transform="translate(-784.379 -275.437)"/><g transform="translate(16.088 3.267)"><path class="g" d="M789.61,292.131a.268.268,0,0,0,.269-.266v-14.83a.269.269,0,0,0-.538,0v14.83A.268.268,0,0,0,789.61,292.131Z" transform="translate(-789.341 -276.766)"/></g><g transform="translate(9.349 4.202)"><path class="g" d="M793.026,291.485l.036,0a.266.266,0,0,0,.23-.3c-.052-.37-1.3-9.156-5.561-14.036a.268.268,0,1,0-.4.353c4.147,4.756,5.418,13.666,5.431,13.757A.268.268,0,0,0,793.026,291.485Z" transform="translate(-787.262 -277.054)"/></g><g transform="translate(17.333 5.135)"><path class="g" d="M789.994,290.632h0a.265.265,0,0,0,.263-.269c0-.088-.039-8.527,4.983-12.544a.269.269,0,1,0-.337-.418c-5.227,4.183-5.184,12.613-5.181,12.969A.265.265,0,0,0,789.994,290.632Z" transform="translate(-789.725 -277.342)"/></g><g transform="translate(5.392 10.785)"><path class="g" d="M790.362,285.221a.551.551,0,0,0,.071-.006.27.27,0,0,0,.188-.331,17.309,17.309,0,0,0-2.425-5.064.269.269,0,0,0-.376-.058.265.265,0,0,0-.059.373,17.119,17.119,0,0,1,2.344,4.889A.263.263,0,0,0,790.362,285.221Z" transform="translate(-782.302 -277.685)"/><path class="f" d="M792.472,282.5s.1-2.905-1.141-3.32-2.383.622-3.317,1.245a3.348,3.348,0,0,0-1.971,3.109,34.979,34.979,0,0,0,.726,5.291s1.038-3.216,2.8-4.669A7.315,7.315,0,0,1,792.472,282.5Z" transform="translate(-786.042 -279.085)"/></g><g transform="translate(19.201 11.057)"><path class="g" d="M790.567,284.68a.265.265,0,0,0,.256-.185,9.534,9.534,0,0,1,2.71-4.02.268.268,0,1,0-.331-.422,9.865,9.865,0,0,0-2.889,4.277.268.268,0,0,0,.172.337A.249.249,0,0,0,790.567,284.68Z" transform="translate(-790.301 -277.312)"/><path class="f" d="M790.833,283.245a4.3,4.3,0,0,1,.622-3.216c1.034-1.349,3.524-1.037,4.77.415s3.006,5.807,3.006,5.807a9.856,9.856,0,0,0-5.392-1.971C790.936,284.28,790.833,283.245,790.833,283.245Z" transform="translate(-789.293 -279.169)"/></g><path class="h" d="M791.089,295.811h8.277l4.138-13.688H786.951Z" transform="translate(-778.612 -261.488)"/><rect class="h" width="16.646" height="2.27" transform="translate(24.938 20.634) rotate(180)"/></g></g><g transform="translate(743.469 214.871)"><g class="i" transform="translate(254.144 199.328)"><path d="M791.957,271.379a.776.776,0,0,1-.58-1.05l.045-.11a.776.776,0,0,1,1.073-.47,9.32,9.32,0,0,1,1.9,1.005,9.3,9.3,0,0,1-.357-2.192.784.784,0,0,1,.8-.872h.113a.783.783,0,0,1,.8.872,9.29,9.29,0,0,1-.356,2.192,9.858,9.858,0,0,1,1.9-1.005.774.774,0,0,1,1.073.49l.02.068a.764.764,0,0,1-.558,1.073,9.136,9.136,0,0,1-2.123.311,9.358,9.358,0,0,1,1.588,1.5.8.8,0,0,1-.136,1.164l-.087.068a.781.781,0,0,1-1.187-.224,9.954,9.954,0,0,1-.982-1.945A11.112,11.112,0,0,1,793.9,274.2a.78.78,0,0,1-1.186.224l-.088-.068a.783.783,0,0,1-.133-1.164,10.226,10.226,0,0,1,1.585-1.518A8.437,8.437,0,0,1,791.957,271.379Z" transform="translate(-791.323 -267.689)"/><path d="M794.535,271.379a.776.776,0,0,1-.58-1.05l.046-.11a.776.776,0,0,1,1.073-.47,9.407,9.407,0,0,1,1.9,1.005,9.141,9.141,0,0,1-.36-2.192.784.784,0,0,1,.8-.872h.113a.783.783,0,0,1,.8.872,9.3,9.3,0,0,1-.357,2.192,9.859,9.859,0,0,1,1.9-1.005.774.774,0,0,1,1.073.49l.023.068a.766.766,0,0,1-.561,1.073,9.14,9.14,0,0,1-2.124.311,9.362,9.362,0,0,1,1.589,1.5.8.8,0,0,1-.136,1.164l-.088.068a.78.78,0,0,1-1.187-.224,9.967,9.967,0,0,1-.982-1.945,11.113,11.113,0,0,1-1.005,1.945.781.781,0,0,1-1.187.224l-.087-.068a.783.783,0,0,1-.133-1.164,10.216,10.216,0,0,1,1.585-1.518A8.438,8.438,0,0,1,794.535,271.379Z" transform="translate(-785.543 -267.689)"/><path d="M797.114,271.379a.774.774,0,0,1-.58-1.05l.042-.11a.778.778,0,0,1,1.073-.47,9.24,9.24,0,0,1,1.9,1.005,9.292,9.292,0,0,1-.357-2.192.784.784,0,0,1,.8-.872h.114a.783.783,0,0,1,.8.872,9.273,9.273,0,0,1-.357,2.192,9.866,9.866,0,0,1,1.9-1.005.774.774,0,0,1,1.073.49l.019.068a.764.764,0,0,1-.557,1.073,9.142,9.142,0,0,1-2.124.311,9.466,9.466,0,0,1,1.589,1.5.8.8,0,0,1-.136,1.164l-.087.068a.781.781,0,0,1-1.187-.224,9.981,9.981,0,0,1-.982-1.945,11.38,11.38,0,0,1-1,1.945.781.781,0,0,1-1.187.224l-.088-.068a.786.786,0,0,1-.136-1.164,10.4,10.4,0,0,1,1.589-1.518A8.437,8.437,0,0,1,797.114,271.379Z" transform="translate(-779.763 -267.689)"/><path d="M799.692,271.379a.774.774,0,0,1-.58-1.05l.042-.11a.778.778,0,0,1,1.073-.47,9.247,9.247,0,0,1,1.9,1.005,9.281,9.281,0,0,1-.357-2.192.784.784,0,0,1,.8-.872h.113a.783.783,0,0,1,.8.872,9.279,9.279,0,0,1-.357,2.192,9.856,9.856,0,0,1,1.9-1.005.77.77,0,0,1,1.07.49l.023.068a.764.764,0,0,1-.558,1.073,9.168,9.168,0,0,1-2.123.311,9.5,9.5,0,0,1,1.589,1.5.8.8,0,0,1-.136,1.164l-.088.068a.78.78,0,0,1-1.187-.224,9.793,9.793,0,0,1-.982-1.945,11.369,11.369,0,0,1-1.005,1.945.781.781,0,0,1-1.187.224l-.087-.068a.785.785,0,0,1-.136-1.164,10.243,10.243,0,0,1,1.589-1.518A8.416,8.416,0,0,1,799.692,271.379Z" transform="translate(-773.982 -267.689)"/><path d="M802.271,271.379a.774.774,0,0,1-.581-1.05l.042-.11a.778.778,0,0,1,1.073-.47,9.232,9.232,0,0,1,1.9,1.005,9.292,9.292,0,0,1-.357-2.192.784.784,0,0,1,.8-.872h.114a.784.784,0,0,1,.8.872,9.281,9.281,0,0,1-.357,2.192,9.938,9.938,0,0,1,1.9-1.005.776.776,0,0,1,1.076.49l.02.068a.766.766,0,0,1-.558,1.073,9.167,9.167,0,0,1-2.124.311,9.33,9.33,0,0,1,1.586,1.5.8.8,0,0,1-.133,1.164l-.088.068a.78.78,0,0,1-1.186-.224,9.807,9.807,0,0,1-.982-1.945,11.345,11.345,0,0,1-1,1.945.781.781,0,0,1-1.187.224l-.087-.068a.786.786,0,0,1-.137-1.164,10.263,10.263,0,0,1,1.589-1.518A8.413,8.413,0,0,1,802.271,271.379Z" transform="translate(-768.201 -267.689)"/><path d="M804.849,271.379a.772.772,0,0,1-.58-1.05l.042-.11a.777.777,0,0,1,1.073-.47,9.242,9.242,0,0,1,1.9,1.005,9.294,9.294,0,0,1-.357-2.192.784.784,0,0,1,.8-.872h.114a.783.783,0,0,1,.8.872,9.272,9.272,0,0,1-.356,2.192,9.933,9.933,0,0,1,1.9-1.005.776.776,0,0,1,1.076.49l.019.068a.766.766,0,0,1-.558,1.073,9.165,9.165,0,0,1-2.123.311,9.333,9.333,0,0,1,1.586,1.5.8.8,0,0,1-.133,1.164l-.087.068a.781.781,0,0,1-1.187-.224,9.8,9.8,0,0,1-.983-1.945,11.371,11.371,0,0,1-1,1.945.78.78,0,0,1-1.187.224l-.088-.068a.783.783,0,0,1-.136-1.164,10.267,10.267,0,0,1,1.589-1.518A8.418,8.418,0,0,1,804.849,271.379Z" transform="translate(-762.421 -267.689)"/><path d="M807.427,271.379a.772.772,0,0,1-.581-1.05l.042-.11a.777.777,0,0,1,1.073-.47,9.231,9.231,0,0,1,1.9,1.005,9.292,9.292,0,0,1-.357-2.192.784.784,0,0,1,.8-.872h.114a.784.784,0,0,1,.8.872,9.292,9.292,0,0,1-.357,2.192,9.921,9.921,0,0,1,1.9-1.005.772.772,0,0,1,1.073.49l.022.068a.766.766,0,0,1-.558,1.073,9.171,9.171,0,0,1-2.124.311,9.328,9.328,0,0,1,1.585,1.5.8.8,0,0,1-.133,1.164l-.088.068a.781.781,0,0,1-1.187-.224,9.846,9.846,0,0,1-.982-1.945,11.309,11.309,0,0,1-1.005,1.945.78.78,0,0,1-1.187.224l-.088-.068a.783.783,0,0,1-.136-1.164,10.256,10.256,0,0,1,1.589-1.518A8.417,8.417,0,0,1,807.427,271.379Z" transform="translate(-756.64 -267.689)"/><path d="M810.006,271.379a.776.776,0,0,1-.584-1.05l.045-.11a.777.777,0,0,1,1.073-.47,9.252,9.252,0,0,1,1.9,1.005,9.3,9.3,0,0,1-.357-2.192.782.782,0,0,1,.8-.872H813a.784.784,0,0,1,.807.872,9.308,9.308,0,0,1-.36,2.192,9.944,9.944,0,0,1,1.9-1.005.772.772,0,0,1,1.073.49l.022.068a.766.766,0,0,1-.557,1.073,9.2,9.2,0,0,1-2.124.311,9.313,9.313,0,0,1,1.585,1.5.8.8,0,0,1-.133,1.164l-.091.068a.777.777,0,0,1-1.183-.224,9.644,9.644,0,0,1-.983-1.945,11.068,11.068,0,0,1-1.008,1.945.776.776,0,0,1-1.183.224l-.091-.068a.783.783,0,0,1-.133-1.164,10.116,10.116,0,0,1,1.589-1.518A8.413,8.413,0,0,1,810.006,271.379Z" transform="translate(-750.861 -267.689)"/></g><g class="i" transform="translate(89.721 14.273)"><path d="M741.247,214.3a.775.775,0,0,1-.58-1.051l.042-.113a.78.78,0,0,1,1.073-.47,9.433,9.433,0,0,1,1.9,1.008,9.321,9.321,0,0,1-.357-2.192.784.784,0,0,1,.8-.872h.113a.784.784,0,0,1,.8.872,9.32,9.32,0,0,1-.357,2.192,10.076,10.076,0,0,1,1.9-1.008.771.771,0,0,1,1.07.493l.023.068a.766.766,0,0,1-.558,1.073,9.376,9.376,0,0,1-2.124.311,9.481,9.481,0,0,1,1.589,1.5.8.8,0,0,1-.136,1.164l-.091.065a.775.775,0,0,1-1.183-.224,9.764,9.764,0,0,1-.982-1.942,11.3,11.3,0,0,1-1.005,1.942.778.778,0,0,1-1.187.224l-.087-.065a.786.786,0,0,1-.136-1.164,10.409,10.409,0,0,1,1.589-1.521A8.429,8.429,0,0,1,741.247,214.3Z" transform="translate(-740.612 -210.614)"/><path d="M743.826,214.3a.773.773,0,0,1-.58-1.051l.042-.113a.78.78,0,0,1,1.073-.47,9.437,9.437,0,0,1,1.9,1.008,9.308,9.308,0,0,1-.357-2.192.784.784,0,0,1,.8-.872h.113a.784.784,0,0,1,.8.872,9.168,9.168,0,0,1-.36,2.192,10.193,10.193,0,0,1,1.9-1.008.771.771,0,0,1,1.07.493l.022.068a.766.766,0,0,1-.558,1.073,9.376,9.376,0,0,1-2.124.311,9.489,9.489,0,0,1,1.589,1.5.8.8,0,0,1-.136,1.164l-.091.065a.775.775,0,0,1-1.183-.224,9.765,9.765,0,0,1-.982-1.942,11.327,11.327,0,0,1-1.005,1.942.779.779,0,0,1-1.187.224l-.087-.065a.786.786,0,0,1-.136-1.164,10.416,10.416,0,0,1,1.589-1.521A8.427,8.427,0,0,1,743.826,214.3Z" transform="translate(-734.831 -210.614)"/><path d="M746.4,214.3a.773.773,0,0,1-.58-1.051l.042-.113a.779.779,0,0,1,1.073-.47,9.43,9.43,0,0,1,1.9,1.008,9.32,9.32,0,0,1-.357-2.192.782.782,0,0,1,.8-.872h.113a.784.784,0,0,1,.8.872,9.343,9.343,0,0,1-.36,2.192,10.17,10.17,0,0,1,1.9-1.008.774.774,0,0,1,1.073.493l.022.068a.768.768,0,0,1-.558,1.073,9.375,9.375,0,0,1-2.124.311,9.332,9.332,0,0,1,1.586,1.5.8.8,0,0,1-.133,1.164l-.091.065a.775.775,0,0,1-1.183-.224,9.758,9.758,0,0,1-.982-1.942,11.092,11.092,0,0,1-1.008,1.942.775.775,0,0,1-1.184.224l-.088-.065a.784.784,0,0,1-.136-1.164,10.409,10.409,0,0,1,1.589-1.521A8.429,8.429,0,0,1,746.4,214.3Z" transform="translate(-729.051 -210.614)"/><path d="M748.983,214.3a.777.777,0,0,1-.584-1.051l.045-.113a.778.778,0,0,1,1.073-.47,9.428,9.428,0,0,1,1.9,1.008,9.308,9.308,0,0,1-.357-2.192.782.782,0,0,1,.8-.872h.11a.784.784,0,0,1,.807.872,9.337,9.337,0,0,1-.36,2.192,10.166,10.166,0,0,1,1.9-1.008.774.774,0,0,1,1.073.493l.023.068a.768.768,0,0,1-.558,1.073,9.374,9.374,0,0,1-2.124.311,9.331,9.331,0,0,1,1.585,1.5.8.8,0,0,1-.133,1.164l-.091.065a.775.775,0,0,1-1.183-.224,9.591,9.591,0,0,1-.982-1.942,11.075,11.075,0,0,1-1.008,1.942.775.775,0,0,1-1.183.224l-.091-.065a.784.784,0,0,1-.133-1.164,10.281,10.281,0,0,1,1.589-1.521A8.425,8.425,0,0,1,748.983,214.3Z" transform="translate(-723.271 -210.614)"/><path d="M751.561,214.3a.777.777,0,0,1-.584-1.051l.045-.113a.778.778,0,0,1,1.073-.47,9.424,9.424,0,0,1,1.9,1.008,9.314,9.314,0,0,1-.357-2.192.782.782,0,0,1,.8-.872h.11a.784.784,0,0,1,.807.872,9.349,9.349,0,0,1-.36,2.192,10.159,10.159,0,0,1,1.9-1.008.774.774,0,0,1,1.073.493l.022.068a.768.768,0,0,1-.558,1.073,9.376,9.376,0,0,1-2.124.311,9.339,9.339,0,0,1,1.586,1.5.8.8,0,0,1-.133,1.164l-.091.065a.775.775,0,0,1-1.183-.224,9.6,9.6,0,0,1-.982-1.942,11.091,11.091,0,0,1-1.009,1.942.775.775,0,0,1-1.183.224l-.091-.065a.783.783,0,0,1-.133-1.164,10.276,10.276,0,0,1,1.589-1.521A8.427,8.427,0,0,1,751.561,214.3Z" transform="translate(-717.49 -210.614)"/><path d="M754.139,214.3a.777.777,0,0,1-.583-1.051l.045-.113a.778.778,0,0,1,1.073-.47,9.429,9.429,0,0,1,1.9,1.008,9.327,9.327,0,0,1-.357-2.192.782.782,0,0,1,.8-.872h.11a.784.784,0,0,1,.807.872,9.337,9.337,0,0,1-.36,2.192,10.174,10.174,0,0,1,1.9-1.008.774.774,0,0,1,1.073.493l.023.068a.768.768,0,0,1-.558,1.073,9.375,9.375,0,0,1-2.124.311,9.325,9.325,0,0,1,1.585,1.5.8.8,0,0,1-.133,1.164l-.091.065a.775.775,0,0,1-1.184-.224,9.623,9.623,0,0,1-.982-1.942,11.059,11.059,0,0,1-1.008,1.942.775.775,0,0,1-1.183.224l-.091-.065a.783.783,0,0,1-.133-1.164,10.264,10.264,0,0,1,1.589-1.521A8.428,8.428,0,0,1,754.139,214.3Z" transform="translate(-711.71 -210.614)"/><path d="M756.717,214.3a.777.777,0,0,1-.583-1.051l.045-.113a.778.778,0,0,1,1.073-.47,9.427,9.427,0,0,1,1.9,1.008,9.32,9.32,0,0,1-.357-2.192.782.782,0,0,1,.8-.872h.11a.784.784,0,0,1,.807.872,9.325,9.325,0,0,1-.36,2.192,10.182,10.182,0,0,1,1.9-1.008.774.774,0,0,1,1.073.493l.023.068a.768.768,0,0,1-.557,1.073,9.378,9.378,0,0,1-2.124.311,9.331,9.331,0,0,1,1.585,1.5.8.8,0,0,1-.133,1.164l-.091.065a.775.775,0,0,1-1.183-.224,9.6,9.6,0,0,1-.983-1.942,11.051,11.051,0,0,1-1.008,1.942.775.775,0,0,1-1.183.224l-.091-.065a.783.783,0,0,1-.133-1.164,10.276,10.276,0,0,1,1.589-1.521A8.429,8.429,0,0,1,756.717,214.3Z" transform="translate(-705.929 -210.614)"/><path d="M759.292,214.3a.776.776,0,0,1-.58-1.051l.045-.113a.778.778,0,0,1,1.073-.47,9.515,9.515,0,0,1,1.9,1.008,9.338,9.338,0,0,1-.36-2.192.784.784,0,0,1,.807-.872h.11a.782.782,0,0,1,.8.872,9.309,9.309,0,0,1-.357,2.192,10.073,10.073,0,0,1,1.9-1.008.774.774,0,0,1,1.073.493l.023.068a.768.768,0,0,1-.557,1.073,9.379,9.379,0,0,1-2.127.311,9.222,9.222,0,0,1,1.589,1.5.8.8,0,0,1-.133,1.164l-.091.065a.775.775,0,0,1-1.183-.224,9.75,9.75,0,0,1-.986-1.942,10.868,10.868,0,0,1-1.005,1.942.775.775,0,0,1-1.183.224l-.091-.065a.783.783,0,0,1-.133-1.164,10.388,10.388,0,0,1,1.586-1.521A8.469,8.469,0,0,1,759.292,214.3Z" transform="translate(-700.148 -210.614)"/></g><g class="i" transform="translate(159.684 275.24)"><path d="M762.825,294.792a.774.774,0,0,1-.58-1.051l.045-.113a.776.776,0,0,1,1.07-.47,9.441,9.441,0,0,1,1.9,1.008,9.313,9.313,0,0,1-.357-2.192.784.784,0,0,1,.8-.872h.113a.784.784,0,0,1,.8.872,9.318,9.318,0,0,1-.357,2.192,10.082,10.082,0,0,1,1.9-1.008.775.775,0,0,1,1.073.493l.02.068a.765.765,0,0,1-.558,1.073,9.314,9.314,0,0,1-2.124.311,9.5,9.5,0,0,1,1.589,1.5.8.8,0,0,1-.136,1.164l-.088.065a.778.778,0,0,1-1.187-.224,9.922,9.922,0,0,1-.982-1.942,11.332,11.332,0,0,1-1.005,1.942.779.779,0,0,1-1.187.224l-.087-.065a.786.786,0,0,1-.136-1.164,10.577,10.577,0,0,1,1.589-1.521A8.426,8.426,0,0,1,762.825,294.792Z" transform="translate(-762.19 -291.102)"/><path d="M765.4,294.792a.774.774,0,0,1-.58-1.051l.042-.113a.78.78,0,0,1,1.073-.47,9.432,9.432,0,0,1,1.9,1.008,9.313,9.313,0,0,1-.357-2.192.784.784,0,0,1,.8-.872h.113a.784.784,0,0,1,.8.872,9.313,9.313,0,0,1-.357,2.192,10.078,10.078,0,0,1,1.9-1.008.776.776,0,0,1,1.073.493l.019.068a.765.765,0,0,1-.558,1.073,9.315,9.315,0,0,1-2.124.311,9.486,9.486,0,0,1,1.589,1.5.8.8,0,0,1-.136,1.164l-.087.065a.778.778,0,0,1-1.187-.224,9.935,9.935,0,0,1-.982-1.942,11.324,11.324,0,0,1-1.005,1.942.778.778,0,0,1-1.187.224l-.088-.065a.786.786,0,0,1-.136-1.164,10.562,10.562,0,0,1,1.589-1.521A8.426,8.426,0,0,1,765.4,294.792Z" transform="translate(-756.409 -291.102)"/><path d="M767.981,294.792a.774.774,0,0,1-.58-1.051l.042-.113a.78.78,0,0,1,1.073-.47,9.436,9.436,0,0,1,1.9,1.008,9.3,9.3,0,0,1-.357-2.192.784.784,0,0,1,.8-.872h.113a.784.784,0,0,1,.8.872,9.312,9.312,0,0,1-.357,2.192,10.075,10.075,0,0,1,1.9-1.008.771.771,0,0,1,1.07.493l.023.068a.765.765,0,0,1-.558,1.073,9.34,9.34,0,0,1-2.124.311,9.5,9.5,0,0,1,1.589,1.5.8.8,0,0,1-.136,1.164l-.088.065a.778.778,0,0,1-1.187-.224,9.776,9.776,0,0,1-.982-1.942,11.316,11.316,0,0,1-1.005,1.942.779.779,0,0,1-1.187.224l-.087-.065a.786.786,0,0,1-.136-1.164,10.419,10.419,0,0,1,1.589-1.521A8.426,8.426,0,0,1,767.981,294.792Z" transform="translate(-750.628 -291.102)"/><path d="M770.56,294.792a.772.772,0,0,1-.58-1.051l.042-.113a.779.779,0,0,1,1.073-.47,9.433,9.433,0,0,1,1.9,1.008,9.326,9.326,0,0,1-.357-2.192.782.782,0,0,1,.8-.872h.114a.784.784,0,0,1,.8.872,9.34,9.34,0,0,1-.36,2.192,10.172,10.172,0,0,1,1.9-1.008.773.773,0,0,1,1.073.493l.023.068a.767.767,0,0,1-.558,1.073,9.367,9.367,0,0,1-2.123.311,9.343,9.343,0,0,1,1.586,1.5.8.8,0,0,1-.133,1.164l-.091.065a.775.775,0,0,1-1.183-.224,9.756,9.756,0,0,1-.982-1.942,11.332,11.332,0,0,1-1.005,1.942.778.778,0,0,1-1.187.224l-.088-.065a.784.784,0,0,1-.136-1.164,10.43,10.43,0,0,1,1.589-1.521A8.427,8.427,0,0,1,770.56,294.792Z" transform="translate(-744.848 -291.102)"/><path d="M773.138,294.792a.772.772,0,0,1-.58-1.051l.042-.113a.779.779,0,0,1,1.073-.47,9.437,9.437,0,0,1,1.9,1.008,9.325,9.325,0,0,1-.357-2.192.784.784,0,0,1,.8-.872h.114a.784.784,0,0,1,.8.872,9.323,9.323,0,0,1-.36,2.192,10.183,10.183,0,0,1,1.9-1.008.774.774,0,0,1,1.073.493l.022.068a.767.767,0,0,1-.558,1.073,9.368,9.368,0,0,1-2.123.311,9.321,9.321,0,0,1,1.585,1.5.8.8,0,0,1-.133,1.164l-.091.065a.775.775,0,0,1-1.184-.224,9.775,9.775,0,0,1-.983-1.942,11.281,11.281,0,0,1-1.005,1.942.778.778,0,0,1-1.187.224l-.091-.065a.786.786,0,0,1-.133-1.164,10.407,10.407,0,0,1,1.589-1.521A8.429,8.429,0,0,1,773.138,294.792Z" transform="translate(-739.068 -291.102)"/><path d="M775.717,294.792a.776.776,0,0,1-.584-1.051l.045-.113a.779.779,0,0,1,1.073-.47,9.43,9.43,0,0,1,1.9,1.008,9.324,9.324,0,0,1-.356-2.192.783.783,0,0,1,.8-.872h.114a.784.784,0,0,1,.8.872,9.335,9.335,0,0,1-.36,2.192,10.174,10.174,0,0,1,1.9-1.008.774.774,0,0,1,1.074.493l.022.068a.767.767,0,0,1-.557,1.073,9.371,9.371,0,0,1-2.124.311,9.318,9.318,0,0,1,1.585,1.5.8.8,0,0,1-.133,1.164l-.091.065a.775.775,0,0,1-1.183-.224,9.775,9.775,0,0,1-.983-1.942,11.273,11.273,0,0,1-1,1.942.778.778,0,0,1-1.187.224l-.091-.065a.785.785,0,0,1-.133-1.164,10.385,10.385,0,0,1,1.589-1.521A8.425,8.425,0,0,1,775.717,294.792Z" transform="translate(-733.288 -291.102)"/><path d="M778.295,294.792a.776.776,0,0,1-.583-1.051l.045-.113a.779.779,0,0,1,1.073-.47,9.425,9.425,0,0,1,1.9,1.008,9.325,9.325,0,0,1-.357-2.192.784.784,0,0,1,.8-.872h.114a.784.784,0,0,1,.8.872,9.336,9.336,0,0,1-.36,2.192,10.179,10.179,0,0,1,1.9-1.008.773.773,0,0,1,1.073.493l.023.068a.767.767,0,0,1-.557,1.073,9.371,9.371,0,0,1-2.124.311,9.329,9.329,0,0,1,1.585,1.5.8.8,0,0,1-.133,1.164l-.091.065a.775.775,0,0,1-1.183-.224,9.769,9.769,0,0,1-.983-1.942,11.289,11.289,0,0,1-1.005,1.942.778.778,0,0,1-1.187.224l-.091-.065a.783.783,0,0,1-.133-1.164,10.412,10.412,0,0,1,1.589-1.521A8.428,8.428,0,0,1,778.295,294.792Z" transform="translate(-727.507 -291.102)"/><path d="M780.873,294.792a.776.776,0,0,1-.584-1.051l.045-.113a.778.778,0,0,1,1.073-.47,9.422,9.422,0,0,1,1.9,1.008,9.312,9.312,0,0,1-.357-2.192.782.782,0,0,1,.8-.872h.11a.784.784,0,0,1,.807.872,9.318,9.318,0,0,1-.36,2.192,10.18,10.18,0,0,1,1.9-1.008.774.774,0,0,1,1.073.493l.023.068a.767.767,0,0,1-.558,1.073,9.369,9.369,0,0,1-2.124.311,9.327,9.327,0,0,1,1.585,1.5.8.8,0,0,1-.133,1.164l-.091.065a.775.775,0,0,1-1.183-.224,9.6,9.6,0,0,1-.983-1.942,11.049,11.049,0,0,1-1.008,1.942.775.775,0,0,1-1.183.224l-.091-.065a.783.783,0,0,1-.133-1.164A10.288,10.288,0,0,1,783,295.08,8.426,8.426,0,0,1,780.873,294.792Z" transform="translate(-721.726 -291.102)"/></g><g class="i" transform="translate(0 39.187)"><g transform="translate(0.992)"><path class="j" d="M715.918,233.342v-5.865a6.705,6.705,0,0,1,13.407,0V233.3H732v-5.826a9.377,9.377,0,0,0-18.75,0v5.865Z" transform="translate(-713.246 -218.298)"/></g><rect class="j" width="20.468" height="16.932" transform="translate(0 15.06)"/><path class="j" d="M719.836,226.62a2.23,2.23,0,0,0-4.458,0,2.17,2.17,0,0,0,1.171,1.919l-.373,3.849h2.866l-.376-3.849A2.171,2.171,0,0,0,719.836,226.62Z" transform="translate(-707.474 -204.53)"/></g><g class="i" transform="translate(256.792)"><g transform="translate(0.651)"><path class="j" d="M794.1,216.085v-3.849a4.4,4.4,0,0,1,8.8,0v3.823h1.755v-3.823a6.154,6.154,0,0,0-12.3,0v3.849Z" transform="translate(-792.341 -206.212)"/></g><rect class="j" width="13.431" height="11.111" transform="translate(0 9.883)"/><path class="j" d="M796.664,211.672a1.463,1.463,0,1,0-2.156,1.261l-.246,2.522h1.881l-.246-2.522A1.431,1.431,0,0,0,796.664,211.672Z" transform="translate(-788.553 -197.175)"/></g></g><g transform="translate(756.009 367.372)"><g transform="translate(0 0)"><g transform="translate(7.113 49.114)"><path class="k" d="M734.118,330.067h2.847a.73.73,0,0,0,.73-.694l2.256-23.523h-8.819l2.256,23.523A.73.73,0,0,0,734.118,330.067Z" transform="translate(-691.802 -184.406)"/><path class="k" d="M725.646,330.067h2.847a.73.73,0,0,0,.73-.694l2.257-23.523h-8.822l2.26,23.523A.73.73,0,0,0,725.646,330.067Z" transform="translate(-710.805 -184.406)"/><path class="k" d="M739.46,330.067h2.847a.73.73,0,0,0,.729-.694l2.257-23.523H736.47l2.257,23.523A.735.735,0,0,0,739.46,330.067Z" transform="translate(-679.832 -184.406)"/><path class="k" d="M748.272,330.067h2.847a.73.73,0,0,0,.729-.694l2.257-23.523h-8.822l2.26,23.523A.73.73,0,0,0,748.272,330.067Z" transform="translate(-660.071 -184.406)"/><path class="k" d="M765.611,390.8h56.481s5.778-19.292,10.268-37.906,9.63-42.04,4.173-46.852-19.895,3.528-30.808,5.775-13.157-.321-20.537-8.022-13.8-20.219-26.314-28.24-21.824-9.309-30.488-3.852a29.921,29.921,0,0,0-9.309,19.9c-.642,12.515,2.889,28.24,7.383,36.9S765.611,390.8,765.611,390.8Z" transform="translate(-719.002 -268.394)"/></g><g transform="translate(37.212)"><path class="l" d="M730.93,321.1h60.995s10.991-10.988,12.639-37.365" transform="translate(-722.354 -184.885)"/><path class="m" d="M751.113,262.359l-6.906,4.222s4.8,26.289,3.644,40.1-6.906,27.054-6.906,27.054h18.611s6.906-16.5,9.977-28.014-2.3-38.567-2.3-38.567Z" transform="translate(-699.897 -232.813)"/><g transform="translate(109.334 94.399)"><path class="n" d="M767.7,284.831a33.429,33.429,0,0,1,5.032-1.248c1.06,0,4.513,2.711,4.513,2.711s.139.992-.642,1.2-3.46-1.644-3.46-1.644l-4.465,1.323Z" transform="translate(-749.245 -279.621)"/><path class="n" d="M767.941,283.189a33.857,33.857,0,0,1,5.065,1.109c.947.473,2.847,4.429,2.847,4.429s-.318.95-1.109.791-2.373-3.006-2.373-3.006l-4.588-.791Z" transform="translate(-749.054 -280.504)"/><path class="n" d="M767.482,282.8l5.22,1.268,3.323,2.214,1.9,4.588a1.746,1.746,0,0,1-1.427.477c-.791-.159-4.114-3.8-4.114-3.8l-4.746-3.006-1.582-1.741Z" transform="translate(-752.924 -281.377)"/><path class="n" d="M765.17,282.361s8.07.318,9.808.318,6.332,3.638,7.123,3.956,4.115,5.065,4.115,5.065.156,0-.95.315-2.85-.791-2.85-.791l-2.215-2.691-5.379-.947s3.956,2.056,4.906,2.373,1.582,1.423,1.265,2.056-5.09-1.414-5.09-1.414a4.3,4.3,0,0,1-3.686,0c-1.9-.95-2.147-.973-4.164-1.9s-6.047-3.33-6.047-3.33Z" transform="translate(-762.006 -282.361)"/></g><path class="o" d="M758.7,265.157s3.07.577,3.836,2.3,5.758,40.87,5.758,40.87l32.965,12.052-.629,11.549s-39.054-4.8-41.738-4.221-9.211,1.345-11.9-.765S754.5,316,756.359,307.881c4.4-19.233,3.845-32.423,3.845-32.423S754.861,262.855,758.7,265.157Z" transform="translate(-687.336 -227.168)"/><path class="o" d="M763.938,288.96s-4.8,19.188-6.909,24.369-6.333,13.815-6.333,13.815l-4.6.765s9.594-20.722,11.322-28.973-2.111-29.165-2.3-29.93,1.342-5.567,4.218-4.607" transform="translate(-688.353 -228.521)"/><path class="k" d="M756.9,274.742l-5.564,14.007-5.948-14.966,7.1-5.564Z" transform="translate(-689.945 -219.675)"/><g transform="translate(45.461)"><path class="k" d="M754.125,266.738l2.111,16.309-9.018-6.907Z" transform="translate(-731.293 -222.992)"/><g transform="translate(3.644)"><g transform="translate(0 5.638)"><path class="n" d="M787.752,264.076s-.194,10.833-1.073,12.331-2.746,3.82-2.824,5.885,2.383,6.533.9,7.976a3.634,3.634,0,0,1-3.518.73s-4.828,5.784-7.516,7.107-9.882-2.454-9.882-2.454l-7.175,7.422L743.43,279.088l7.581-5.1s2.924-15.08,12.314-18.251S786.293,260.276,787.752,264.076Z" transform="translate(-743.43 -254.985)"/><path class="l" d="M749.93,262s-2.905,6.06-.412,9.9" transform="translate(-732.045 -239.258)"/><path class="g" d="M754.837,263.4c-.366.824-.35,1.631.039,1.8s1-.357,1.365-1.177.347-1.631-.039-1.8S755.2,262.575,754.837,263.4Z" transform="translate(-718.445 -238.832)"/><path class="l" d="M756.114,268.249s-2.9-.58-2.9-2.9" transform="translate(-721.489 -231.744)"/><line class="l" x2="2.125" y2="1.932" transform="translate(34.432 25.299)"/><path class="l" d="M759.128,262.935s-.1-2.847-4.714-1.676" transform="translate(-718.8 -241.552)"/></g><path class="h" d="M782.6,264.366c-2.023.224,2.578,2.249,1.9.9,0,0,.419-.574.258-.9-.516-1.031-2.793-4.584-6.162-5.034s3.3,1.294,2.176,1.517c0,0,1.259.074.643,0-.517.282-7.568-7.7-11.826-7.027s-5.859-.184-6.1.721c-7.367-.062-11.906,2.937-15.155,8.952-3.567,6.6-1.384,14.924-1.384,14.924s-3.359,2.607-.671,3.375,10.975.366,10.975.366l-.875-.389c-.879-.389-2.3-3.333.6-7.5s4.87-.564,5.123,1.229.408,3.33,1.462,3.8,1.774-.681,2.046-2.237,3.45-1.618,5.807-2.668.117-3.1-1.832-6.274,3-3.917,7.6-1.031c2.652,1.663,4.04,2.552,5.353,2.717l.055.039s-.089.875,1.538-1.1.034,1.385.623-2.009S784.622,264.139,782.6,264.366Z" transform="translate(-739.372 -253.782)"/></g><path class="k" d="M746.719,262l12.665,24.561-8.061,8.443s-6.906-18.611-7.675-23.218-1.342-7.866-1.342-7.866Z" transform="translate(-742.306 -233.609)"/></g><path class="h" d="M767.442,284.037s37.092-1.926,41.764,0,5.768,6.867,5.22,11.815-3.3,34.067-4.4,42.312-1.65,18.407-.823,20.333,3.294,5.22,2.471,7.143-2.2,2.746-2.2,3.57a5.245,5.245,0,0,0,1.1,2.2s10.168,4.4,13.738,5.771,3.849,2.474,3.022,3.022-17.859,0-20.881,0-8.793-1.923-8.793-1.923v1.375h-7.418v-5.22a44.326,44.326,0,0,1,.276-4.948s-1.375-3.57-1.1-4.944,1.923-4.4,2.474-7.143,0-6.595-.276-9.617a23.433,23.433,0,0,1,.276-6.595c.276-1.65-1.65-31.6-1.65-31.6s-21.7,6.592-23.9,6.867-20.057,6.87-27.475,4.945,3.022-25.277,11.264-33.244S767.442,284.037,767.442,284.037Z" transform="translate(-710.234 -186.288)"/><path class="h" d="M764.543,283.118s24.454,1.923,27.2,4.672,1.926,8.242,1.926,11.815-3.3,51.105-3.573,53.852,2.746,5.5,1.647,7.419a12.7,12.7,0,0,0-1.647,4.944c0,.827,7.418,6.87,10.44,8.518s11.539,3.573,12.914,4.948,1.1,2.471-1.375,3.3-23.079,0-23.079,0-3.022,0-4.121-.827a7.639,7.639,0,0,0-1.923-1.1l-.275,1.838H771.962a77.593,77.593,0,0,1-1.1-8.981,44.569,44.569,0,0,1,.824-6.867,8.623,8.623,0,0,1-1.372-4.948c.272-2.471,2.2-3.57,2.2-5.22s-1.65-6.595-1.375-9.617.548-6.595.548-6.595l-2.471-24.178s-16.487,9.069-24.454,8.242-10.168-1.923-12.366-5.768-2.2-20.057,1.375-26.376S757.125,280.1,764.543,283.118Z" transform="translate(-722.448 -188.119)"/><path class="o" d="M773.746,262.6s5.755,14.389,6.332,23.024-.195,28.782-2.305,34.541-3.067,9.4-3.067,9.4-19.188,2.879-21.685,3.839-7.674,8.443-8.634,14.775c-.276,1.822-.473,3.79-.613,5.671a47.155,47.155,0,0,0,.963,12.83c.162.788.195,1.443-.046,1.683-.768.769-11.05-3.875-14.5-15.771s-1.725-25.9,1.346-32.426S746.5,274.683,751.678,269.5,773.746,262.6,773.746,262.6Z" transform="translate(-728.285 -232.281)"/><g transform="translate(19.633 40.421)"><path class="n" d="M762.327,283.917s7.25.934,9.121,1.4a6.429,6.429,0,0,1,3.135,2.169l-.7.655-5.243-1.988Z" transform="translate(-671.584 -224.894)"/><path class="n" d="M763.242,284.272s4.426.272,4.971.814,2.892,4.52,2.892,4.52l-1.086.723-2.983-2.8-3.794-2.078Z" transform="translate(-669.532 -224.098)"/><path class="n" d="M761.7,283.768s8.216.7,9.853,1.634,3.709,5.146,3.709,5.146l-1.17.467-3.975-3.975L760.3,285.4Z" transform="translate(-676.132 -225.228)"/><path class="n" d="M760.621,286.244a11.026,11.026,0,0,0,3.437,1.174,28,28,0,0,0,4.879-1.265,44.607,44.607,0,0,0-4.429-1.628C763.785,284.434,760.621,286.244,760.621,286.244Z" transform="translate(-675.41 -223.537)"/><path class="n" d="M759.247,282.614s9.821,2.338,10.992,3.038,6.783,3.508,7.483,3.975,2.808,4.212,2.808,4.212-1.4,1.634-1.871.467a15.65,15.65,0,0,0-2.574-3.275l-4.208-1.4a12.421,12.421,0,0,1-4.912,1.17c-2.571,0-5.337-2.536-5.337-2.536l-4.718,1.131Z" transform="translate(-683.733 -227.816)"/><path class="o" d="M751.741,265.713s5.827,5.084,6.31,10.823.405,8.051.454,9.007,3.463,26.165,3.463,26.165l48.985,7.937-.94,10.885-55.823-1.076s-3.8.772-5.865-2.007-13.984-44.909-13.984-44.909" transform="translate(-734.34 -265.713)"/><path class="l" d="M740.921,281.081a9.95,9.95,0,0,0-1.479,1.573" transform="translate(-722.897 -231.253)"/><path class="l" d="M747.425,280.162a15.183,15.183,0,0,0-6.932,1.673" transform="translate(-720.543 -233.317)"/><path class="l" d="M745.543,280.8s-4.721,1.586-5.707,4.9" transform="translate(-722.014 -231.872)"/></g></g><path class="k" d="M770.53,388.928s-.963-34.375-9.627-56.838-13.8-25.352-17.33-24.392-8.663,7.062-11.873,2.889-8.025-15.725-6.1-25.994,5.778-12.194,7.7-14.762-8.346,3.531-12.836,10.268-4.494,23.108-1.926,40.117,8.984,65.18,11.231,67.106,7.7,1.926,7.7,1.926H767Z" transform="translate(-716.808 -217.403)"/></g></g><g transform="translate(894.426 442.045)"><rect class="k" width="75.421" height="3.297" transform="translate(0 29.47)"/><rect class="p" width="36.529" height="3.297" transform="translate(38.892 29.47)"/><path class="q" d="M818.532,276.277H782l-10.509,29.468h36.529Z" transform="translate(-732.602 -276.277)"/></g><g transform="translate(875.358 474.904)"><g transform="translate(0 0)"><g transform="translate(64.545 1.945)"><path class="r" d="M.658,0H4.124a.658.658,0,0,1,.658.658V85.35a0,0,0,0,1,0,0H0a0,0,0,0,1,0,0V.658A.658.658,0,0,1,.658,0Z" transform="translate(4.782 85.35) rotate(180)"/></g><g transform="translate(73.24 1.945)"><path class="r" d="M.658,0H4.124a.658.658,0,0,1,.658.658V85.35a0,0,0,0,1,0,0H0a0,0,0,0,1,0,0V.658A.658.658,0,0,1,.658,0Z" transform="translate(4.782 85.35) rotate(180)"/></g><g transform="translate(5.572 1.945)"><path class="r" d="M.658,0H4.124a.658.658,0,0,1,.658.658V85.35a0,0,0,0,1,0,0H0a0,0,0,0,1,0,0V.658A.658.658,0,0,1,.658,0Z" transform="translate(4.782 85.35) rotate(180)"/></g><g transform="translate(124.652 1.945)"><path class="r" d="M.658,0H4.124a.658.658,0,0,1,.658.658V85.35a0,0,0,0,1,0,0H0a0,0,0,0,1,0,0V.658A.658.658,0,0,1,.658,0Z" transform="translate(4.782 85.35) rotate(180)"/></g><rect class="k" width="133.938" height="3.89" transform="translate(133.938 3.89) rotate(180)"/><rect class="k" width="133.938" height="3.89" transform="translate(133.938 45.135) rotate(180)"/><g transform="translate(23.887 37.279)"><rect class="k" width="34.974" height="3.9"/><rect class="k" width="15.709" height="3.9" transform="translate(19.265)"/></g><g transform="translate(76.987 37.279)"><rect class="k" width="34.974" height="3.9"/><rect class="k" width="15.709" height="3.9" transform="translate(19.265)"/></g><g transform="translate(20.997 33.197)"><rect class="k" width="34.974" height="3.9"/><rect class="k" width="15.709" height="3.9" transform="translate(19.265)"/></g></g></g><g transform="translate(713.903 562.2)"><line class="l" x2="361.032"/></g></g></svg>