<svg xmlns="http://www.w3.org/2000/svg" width="710.308" height="627.983" viewBox="0 0 710.308 627.983"><defs><style>.a{fill:#ebebeb;}.b,.d,.e,.k,.m,.p,.y,.z{fill:none;}.b{stroke:#dbdbdb;}.b,.d,.e,.p,.y,.z{stroke-miterlimit:10;}.c{fill:#dbdbdb;}.d,.p{stroke:#ebebeb;}.e{stroke:#c7c7c7;}.f{fill:#a6a6a6;}.g{fill:#217409;}.h{fill:#ffc727;}.i,.r{fill:#fff;}.j{fill:#f8f8f8;}.k,.y,.z{stroke:#263238;}.k{stroke-linecap:round;stroke-linejoin:round;}.l{fill:#263238;}.n{fill:#629d52;}.o{fill:#c7c7c7;}.p,.z{stroke-width:0.5px;}.q{fill:#69a82c;}.r{font-size:10px;font-family:Poppins-Regular, Poppins;}.s{fill:#f7a9a0;}.t{fill:#b55d2c;}.u{fill:#37474f;}.v{fill:#455a64;}.w{fill:#72b74c;}.x{opacity:0.1;}.y{stroke-width:0.75px;}.aa{fill:#ff9bbc;}</style></defs><g transform="translate(-40.841 -55.778)"><g transform="translate(41.341 0)"><g transform="translate(394.169 435.196)"><path class="a" d="M317.968,417.191h186.59l6-118.4H311.966Z" transform="translate(-311.966 -298.793)"/><g transform="translate(13.095 13.822)"><path class="b" d="M320.956,308.283H488.641l-2.546,39.648H323.139Z" transform="translate(-320.956 -308.283)"/><path class="b" d="M324.483,343.5l1.774,35.647h156l2.227-35.647Z" transform="translate(-319.346 -292.208)"/><path class="b" d="M401.787,327.1H368.232l-1.091-8.457h35.738Z" transform="translate(-299.872 -303.551)"/><path class="b" d="M401.787,361.286H368.232l-1.091-8.457h35.738Z" transform="translate(-299.872 -287.947)"/></g><g transform="translate(19.296 118.397)"><path class="a" d="M337.8,380.081l-1.811,12.9L332.34,418.9h-7.126V380.081Z" transform="translate(-325.214 -380.081)"/><path class="c" d="M337.8,380.081l-1.811,12.9H325.214v-12.9Z" transform="translate(-325.214 -380.081)"/></g><g transform="translate(166.715 118.397)"><path class="a" d="M426.428,380.081l1.811,12.9,3.645,25.917h7.126V380.081Z" transform="translate(-426.428 -380.081)"/><path class="c" d="M426.428,380.081l1.811,12.9h10.77v-12.9Z" transform="translate(-426.428 -380.081)"/></g></g><g transform="translate(0 81.997)"><rect class="d" width="38.569" height="16.298" transform="translate(21.515 378.066)"/><rect class="d" width="38.569" height="16.298" transform="translate(0 398.618)"/><rect class="d" width="38.569" height="16.298" transform="translate(493.294 196.638)"/><rect class="d" width="38.569" height="16.298" transform="translate(471.779 217.19)"/><rect class="d" width="38.569" height="16.298" transform="translate(450.348 196.638)"/><rect class="d" width="38.569" height="16.298" transform="translate(569.26 398.618)"/><rect class="d" width="38.569" height="16.298" transform="translate(547.745)"/><rect class="d" width="38.569" height="16.298" transform="translate(569.26 20.551)"/><rect class="d" width="38.569" height="16.298" transform="translate(21.515)"/></g><g transform="translate(621.154 55.778)"><line class="e" y1="127.65" transform="translate(44.325)"/><g transform="translate(0 123.204)"><path class="a" d="M399.837,124.506l3.565,7.837h81.53l3.555-7.837L453.776,100.48H434.547Z" transform="translate(-399.837 -77.333)"/><path class="c" d="M422.014,84.588l2.409,23.148h19.229l2.409-23.148Z" transform="translate(-389.712 -84.588)"/><path class="c" d="M399.839,116.978l3.565,7.837h81.53l3.554-7.837Z" transform="translate(-399.835 -69.801)"/></g></g><g transform="translate(525.98 55.778)"><line class="e" y1="102.366" transform="translate(44.325)"/><g transform="translate(0 97.92)"><path class="a" d="M334.493,107.147l3.565,7.837h81.53l3.555-7.837-34.71-24.025H369.2Z" transform="translate(-334.493 -59.974)"/><path class="c" d="M356.67,67.229l2.409,23.148h19.229l2.409-23.148Z" transform="translate(-324.369 -67.229)"/><path class="c" d="M334.5,99.619l3.565,7.837h81.53l3.554-7.837Z" transform="translate(-334.492 -52.442)"/></g></g><g transform="translate(392.084 237.938)"><path class="c" d="M512.662,173.978,512.955,287a11.438,11.438,0,0,1-11.4,11.474l-179.268.465a11.439,11.439,0,0,1-11.46-11.415L310.534,174.5a10.643,10.643,0,0,1,10.617-10.672l180.84-.469A10.643,10.643,0,0,1,512.662,173.978Z" transform="translate(-310.534 -163.361)"/><g transform="translate(13.616 19.44)"><path class="f" d="M436.076,240.656a10.522,10.522,0,1,1-10.55-10.5A10.522,10.522,0,0,1,436.076,240.656Z" transform="translate(-276.445 -152.306)"/><path class="g" d="M444.97,240.633a10.522,10.522,0,1,1-10.548-10.5A10.52,10.52,0,0,1,444.97,240.633Z" transform="translate(-272.385 -152.317)"/><rect class="h" width="37.942" height="26.221" rx="4.202" transform="translate(3.392 0.42) rotate(-0.149)"/><path class="i" d="M440.946,191.091l-17.167.044a7.19,7.19,0,0,1-7.21-7.172h0a7.19,7.19,0,0,1,7.172-7.21l17.167-.045a7.191,7.191,0,0,1,7.21,7.173h0A7.193,7.193,0,0,1,440.946,191.091Z" transform="translate(-275.743 -176.708)"/><g transform="translate(0 49.012)"><path class="j" d="M322.011,211.75l-1.554.916a.39.39,0,0,1-.189.063.38.38,0,0,1-.331-.188.363.363,0,0,1,.14-.519l2.121-1.295a.4.4,0,0,1,.519.14.458.458,0,0,1,.048.284l.026,10.11a.373.373,0,0,1-.376.379.383.383,0,0,1-.379-.377Z" transform="translate(-319.882 -210.21)"/><path class="j" d="M323.77,220.976l5.13-4.652a2.857,2.857,0,0,0,.938-2.109A2.838,2.838,0,0,0,327,211.409a2.86,2.86,0,0,0-1.917.728l-.533.488a.378.378,0,0,1-.52-.549l.533-.5a3.68,3.68,0,0,1,2.434-.934,3.615,3.615,0,0,1,3.595,3.576,3.614,3.614,0,0,1-1.172,2.676l-4.391,3.989,5.2-.013a.385.385,0,0,1,0,.77l-6.132.016h-.063a.355.355,0,0,1-.284-.111A.412.412,0,0,1,323.77,220.976Z" transform="translate(-318.162 -210.23)"/><path class="j" d="M336.644,211.306l-2.837,2.932a3.723,3.723,0,0,1,1.888,6.285,3.745,3.745,0,0,1-2.639,1.108,3.673,3.673,0,0,1-2.629-1.1.389.389,0,0,1,.549-.551,2.957,2.957,0,0,0,2.077.843,2.989,2.989,0,0,0,2.089-.855,2.938,2.938,0,0,0,.861-2.093,2.952,2.952,0,0,0-2.949-2.932.405.405,0,0,1-.313-.157h-.016a.4.4,0,0,1,0-.567l2.728-2.821-4.214.01a.393.393,0,1,1,0-.787l5.141-.012a.39.39,0,0,1,.395.392.317.317,0,0,1-.048.173A.347.347,0,0,1,336.644,211.306Z" transform="translate(-315.123 -210.24)"/><path class="j" d="M343.018,219.327l-5.96.016h-.047a.332.332,0,0,1-.236-.079.363.363,0,0,1-.05-.535l6.349-7.941.015-.016a.365.365,0,0,1,.536-.048.485.485,0,0,1,.125.188c0,.031.016.047.016.063v.047l.019,7.548h.74a.378.378,0,1,1,0,.754l-.738,0,0,1.886a.385.385,0,0,1-.77,0Zm0-.754L343,212.126l-5.188,6.46Z" transform="translate(-312.236 -210.234)"/><path class="j" d="M350.527,220.5a.379.379,0,0,1,0-.551.4.4,0,0,1,.565,0,2.951,2.951,0,0,0,2.08.843,2.951,2.951,0,0,0,2.932-2.947,2.936,2.936,0,0,0-5.022-2.064.378.378,0,0,1-.549,0,.233.233,0,0,1-.095-.125v-.016a.056.056,0,0,1-.016-.047.306.306,0,0,1-.016-.127c0-.015.014-.047.014-.077l.523-4.437a.332.332,0,0,1,.157-.283.351.351,0,0,1,.251-.095l5.127-.015a.391.391,0,0,1,.395.393.381.381,0,0,1-.393.393l-4.795.013-.385,3.271a3.7,3.7,0,0,1,1.869-.508,3.7,3.7,0,0,1,3.721,3.717,3.693,3.693,0,0,1-1.078,2.645,3.824,3.824,0,0,1-2.639,1.091A3.719,3.719,0,0,1,350.527,220.5Z" transform="translate(-305.949 -210.265)"/><path class="j" d="M358,212.959a4.465,4.465,0,0,1,3.847-2.4.38.38,0,0,1,.393.36.411.411,0,0,1-.376.411,3.726,3.726,0,0,0-3.2,2,7.244,7.244,0,0,0-.781,2.2,3.618,3.618,0,1,1-.9,2.518,5.594,5.594,0,0,1-.033-.724A9.072,9.072,0,0,1,358,212.959Zm-.253,5.032a.777.777,0,0,0,.032.2.231.231,0,0,1-.016.111,2.935,2.935,0,1,0-.016-.377Z" transform="translate(-302.963 -210.266)"/><path class="j" d="M365.235,221l4.048-9.665-5.315.013a.377.377,0,1,1,0-.753l5.819-.016a.4.4,0,0,1,.234.015.435.435,0,0,1,.207.236.4.4,0,0,1,.032.125.317.317,0,0,1-.064.205l-4.234,10.137a.392.392,0,0,1-.345.236.291.291,0,0,1-.157-.031A.417.417,0,0,1,365.235,221Z" transform="translate(-299.93 -210.264)"/><path class="j" d="M373.279,210.518a2.285,2.285,0,0,1,1.365,4.131,3.563,3.563,0,1,1-2.721.007A2.324,2.324,0,0,1,371,212.8,2.272,2.272,0,0,1,373.279,210.518Zm.028,10.251a2.815,2.815,0,1,0-2.821-2.807A2.8,2.8,0,0,0,373.306,220.769Zm-.016-6.416a1.567,1.567,0,0,0,1.537-1.56,1.534,1.534,0,0,0-3.067.009A1.553,1.553,0,0,0,373.29,214.353Z" transform="translate(-297.127 -210.285)"/><path class="j" d="M386.732,210.483a3.616,3.616,0,0,1,3.625,3.2c.016.032.016.047.032.079.017.3.034.612.034.942a9.118,9.118,0,0,1-1.042,4.39,4.554,4.554,0,0,1-3.847,2.4h-.016a.373.373,0,0,1-.393-.361.4.4,0,0,1,.376-.409,3.73,3.73,0,0,0,3.2-2.006,6.945,6.945,0,0,0,.781-2.2,3.637,3.637,0,1,1-2.753-6.031Zm2.888,3.608a2.869,2.869,0,1,0-2.871,2.871A2.852,2.852,0,0,0,389.62,214.091Z" transform="translate(-291.018 -210.301)"/><path class="j" d="M390.029,215.978a7,7,0,0,1,1.044-3.855,3.117,3.117,0,0,1,5.5-.015,7.164,7.164,0,0,1,1.079,3.85A7.064,7.064,0,0,1,396.6,219.8a3.106,3.106,0,0,1-5.5.013A6.923,6.923,0,0,1,390.029,215.978Zm.771,0a6.245,6.245,0,0,0,.936,3.41,2.341,2.341,0,0,0,4.214-.01,6.639,6.639,0,0,0-.018-6.824,2.34,2.34,0,0,0-4.214.01A6.248,6.248,0,0,0,390.8,215.975Z" transform="translate(-287.86 -210.31)"/><path class="j" d="M399.417,211.549l-1.554.918a.394.394,0,0,1-.189.061.382.382,0,0,1-.331-.186.364.364,0,0,1,.14-.52l2.121-1.295a.4.4,0,0,1,.519.14.459.459,0,0,1,.048.284l.026,10.111a.371.371,0,0,1-.376.377.384.384,0,0,1-.38-.376Z" transform="translate(-284.545 -210.301)"/><path class="j" d="M401.176,220.777l5.13-4.654a2.854,2.854,0,0,0,.938-2.108,2.838,2.838,0,0,0-2.837-2.808,2.864,2.864,0,0,0-1.917.728l-.533.489a.379.379,0,0,1-.521-.549l.535-.505a3.692,3.692,0,0,1,2.434-.934A3.615,3.615,0,0,1,408,214.013a3.62,3.62,0,0,1-1.172,2.676l-4.391,3.989,5.2-.013a.385.385,0,0,1,.377.393.381.381,0,0,1-.376.377l-6.132.016h-.063a.357.357,0,0,1-.284-.109A.412.412,0,0,1,401.176,220.777Z" transform="translate(-282.825 -210.322)"/><path class="j" d="M420.523,211.09l-2.839,2.93a3.693,3.693,0,0,1,2.983,3.641,3.679,3.679,0,0,1-1.1,2.644,3.741,3.741,0,0,1-2.638,1.108,3.665,3.665,0,0,1-2.629-1.1.388.388,0,1,1,.548-.551,2.949,2.949,0,0,0,5.028-2.1,2.952,2.952,0,0,0-2.949-2.932.411.411,0,0,1-.315-.157H416.6a.4.4,0,0,1,0-.565l2.728-2.823-4.214.012a.393.393,0,0,1,0-.787l5.141-.013a.39.39,0,0,1,.395.392.316.316,0,0,1-.047.173A.352.352,0,0,1,420.523,211.09Z" transform="translate(-276.831 -210.34)"/><path class="j" d="M426.9,219.109l-5.959.016h-.047a.332.332,0,0,1-.236-.079.36.36,0,0,1-.048-.533l6.346-7.942.016-.016a.364.364,0,0,1,.535-.048.488.488,0,0,1,.127.188.234.234,0,0,0,.016.063v.048l.019,7.548.738,0a.378.378,0,1,1,0,.756h-.74l.006,1.888a.385.385,0,0,1-.771,0Zm0-.754-.016-6.447-5.188,6.46Z" transform="translate(-273.944 -210.334)"/><path class="j" d="M427.931,220.3a.38.38,0,0,1,0-.551.4.4,0,0,1,.565,0,2.95,2.95,0,0,0,2.078.843,2.951,2.951,0,0,0,2.933-2.947,2.936,2.936,0,0,0-5.022-2.064.377.377,0,0,1-.549,0,.245.245,0,0,1-.1-.124v-.016a.061.061,0,0,1-.015-.047.309.309,0,0,1-.016-.127c0-.016.015-.048.015-.079l.523-4.435a.332.332,0,0,1,.156-.284.363.363,0,0,1,.252-.095l5.127-.013a.387.387,0,0,1,.393.392.382.382,0,0,1-.392.395l-4.795.012-.386,3.271a3.719,3.719,0,0,1,1.87-.508,3.7,3.7,0,0,1,3.721,3.717,3.691,3.691,0,0,1-1.078,2.645,3.82,3.82,0,0,1-2.639,1.091A3.725,3.725,0,0,1,427.931,220.3Z" transform="translate(-270.612 -210.356)"/><path class="j" d="M435.407,212.758a4.467,4.467,0,0,1,3.845-2.4.381.381,0,0,1,.395.36.412.412,0,0,1-.376.411,3.726,3.726,0,0,0-3.2,2,7.2,7.2,0,0,0-.781,2.2,3.618,3.618,0,1,1-.906,2.518,5.593,5.593,0,0,1-.032-.722A9.077,9.077,0,0,1,435.407,212.758Zm-.255,5.032a.756.756,0,0,0,.033.2.232.232,0,0,1-.016.111,2.924,2.924,0,1,0-.017-.377Z" transform="translate(-267.626 -210.358)"/></g><rect class="f" width="95.987" height="4.717" transform="matrix(1, -0.003, 0.003, 1, 3.597, 79.319)"/><rect class="f" width="67.955" height="4.717" transform="matrix(1, -0.003, 0.003, 1, 3.624, 89.795)"/><rect class="f" width="47.873" height="4.717" transform="translate(86.333 0.205) rotate(-0.149)"/></g></g><g transform="translate(23.361 103.616)"><rect class="a" width="82.542" height="82.542"/><g transform="translate(24.631 13.252)"><path class="i" d="M92.3,80.238a2.786,2.786,0,0,1,2.807,2.807v1.435a23.769,23.769,0,0,1,10.113,3.589,3.5,3.5,0,0,1,1.958,3.133,3.594,3.594,0,0,1-3.654,3.589,3.78,3.78,0,0,1-1.958-.588,23.7,23.7,0,0,0-6.72-2.871V103.86C104.763,106.339,109,110.319,109,117.3c0,7.176-5.61,11.941-13.9,12.724v3.915a2.786,2.786,0,0,1-2.807,2.805,2.842,2.842,0,0,1-2.872-2.805v-4.046a28.23,28.23,0,0,1-13.377-5.089,3.589,3.589,0,0,1-1.761-3.133,3.588,3.588,0,0,1,5.742-2.871,23.1,23.1,0,0,0,9.658,4.371V110.319c-9.527-2.479-13.964-6.068-13.964-13.442,0-6.981,5.545-11.811,13.7-12.463V83.045A2.842,2.842,0,0,1,92.3,80.238Zm-2.61,22.251V90.94c-4.176.39-6.264,2.609-6.264,5.481C83.426,99.161,84.667,100.858,89.691,102.489Zm5.155,9.07v11.876c4.176-.457,6.46-2.545,6.46-5.677C101.3,114.887,99.869,113.125,94.845,111.559Z" transform="translate(-74.291 -80.238)"/></g></g><g transform="translate(78.522 214.694)"><rect class="a" width="73.819" height="73.819"/><g transform="translate(22.028 11.851)"><path class="i" d="M126.482,155.539a2.491,2.491,0,0,1,2.51,2.51v1.285a21.23,21.23,0,0,1,9.045,3.209,3.126,3.126,0,0,1,1.751,2.8,3.213,3.213,0,0,1-3.268,3.21,3.374,3.374,0,0,1-1.751-.526,21.18,21.18,0,0,0-6.01-2.566v11.2c8.869,2.218,12.663,5.777,12.663,12.022,0,6.419-5.019,10.679-12.43,11.378v3.5a2.49,2.49,0,0,1-2.51,2.51,2.541,2.541,0,0,1-2.568-2.51v-3.618a25.221,25.221,0,0,1-11.962-4.552,3.2,3.2,0,0,1-1.576-2.8,3.21,3.21,0,0,1,5.134-2.568,20.675,20.675,0,0,0,8.637,3.911v-11.5c-8.519-2.217-12.487-5.426-12.487-12.021,0-6.244,4.959-10.563,12.254-11.145v-1.226A2.542,2.542,0,0,1,126.482,155.539Zm-2.335,19.9V165.11c-3.735.351-5.6,2.335-5.6,4.9C118.546,172.462,119.655,173.98,124.147,175.439Zm4.611,8.111v10.621c3.734-.409,5.777-2.277,5.777-5.077C134.535,186.526,133.251,184.952,128.759,183.551Z" transform="translate(-110.376 -155.539)"/></g></g></g><g transform="translate(56.409 624.281)"><path class="a" d="M629.381,458.352c0,16.425-129.321,29.741-288.847,29.741S51.686,474.777,51.686,458.352s129.321-29.739,288.847-29.739S629.381,441.927,629.381,458.352Z" transform="translate(-51.686 -428.613)"/></g><g transform="translate(41.558 591.993)"><line class="k" x2="607.397"/></g><g transform="translate(197.216 76.744)"><path class="l" d="M419.5,52.69H173.266A25.138,25.138,0,0,0,148.36,78.063V584.944a25.157,25.157,0,0,0,24.906,25.373H419.5a25.181,25.181,0,0,0,24.936-25.373V78.063A25.162,25.162,0,0,0,419.5,52.69Zm9.351,516.582c0,13.342-9.992,24.134-22.314,24.134H186.259c-12.351,0-22.343-10.793-22.343-24.134v-472c0-27.179,9.992-28.5,22.343-28.5h44.132c2.563,0,4.661,2.913,4.661,6.525v1.558c0,8.462,4.632,8.491,10.312,8.491H347.407c5.739,0,10.341-.029,10.341-8.491V75.3c0-3.612,2.068-6.525,4.675-6.525h44.118c12.322,0,22.314,3.612,22.314,28.5Z" transform="translate(-148.36 -52.69)"/><line class="m" x1="0.83" transform="translate(14.733 486.666)"/><g transform="translate(15.556 16.08)"><path class="i" d="M423.98,92.234v472c0,13.342-9.992,24.134-22.314,24.134H181.383c-12.351,0-22.343-10.793-22.343-24.134v-472c0-27.179,9.992-28.5,22.343-28.5h44.132c2.563,0,4.661,2.913,4.661,6.525v1.558c0,8.462,4.632,8.491,10.312,8.491H342.532c5.739,0,10.341-.029,10.341-8.491V70.255c0-3.612,2.068-6.525,4.675-6.525h44.118C413.988,63.73,423.98,67.342,423.98,92.234Z" transform="translate(-159.04 -63.73)"/><path class="n" d="M423.98,92.234V145.39H159.04V92.234c0-27.179,9.992-28.5,22.343-28.5h44.132c2.563,0,4.661,2.913,4.661,6.525v1.558c0,8.462,4.632,8.491,10.312,8.491H342.532c5.739,0,10.341-.029,10.341-8.491V70.255c0-3.612,2.068-6.525,4.675-6.525h44.118C413.988,63.73,423.98,67.342,423.98,92.234Z" transform="translate(-159.04 -63.73)"/><g transform="translate(17.282 8.616)"><g transform="translate(32.023)"><path class="n" d="M202.441,71.631l-.427.422-.24.243a5.8,5.8,0,0,0-8.221,0c-.076-.079-.151-.16-.23-.24-.14-.141-.28-.283-.421-.422l-.012-.007v-.01l.031-.026c.179-.16.354-.325.539-.478a6.667,6.667,0,0,1,2.9-1.35c.272-.05.549-.076.826-.109.093-.012.7-.013.722-.012.188.013.376.022.562.042a6.375,6.375,0,0,1,1.516.361,6.641,6.641,0,0,1,1.025.481,6.515,6.515,0,0,1,.979.685c.153.131.3.271.45.406Z" transform="translate(-192.891 -69.646)"/><path class="n" d="M194.486,73.043l-.674-.669A4.752,4.752,0,0,1,196.553,71a4.809,4.809,0,0,1,4.123,1.366l-.677.674a3.9,3.9,0,0,0-5.513,0Z" transform="translate(-192.471 -69.051)"/><path class="n" d="M198.9,73.119l-.67.67a1.99,1.99,0,0,0-2.824,0l-.67-.67A2.927,2.927,0,0,1,198.9,73.119Z" transform="translate(-192.047 -68.456)"/><path class="n" d="M196.963,73.914a.605.605,0,1,1-.6-.6A.605.605,0,0,1,196.963,73.914Z" transform="translate(-191.584 -67.973)"/></g><g transform="translate(0 1.518)"><path class="n" d="M170.905,72.443A1.756,1.756,0,1,1,172.66,74.2,1.754,1.754,0,0,1,170.905,72.443Z" transform="translate(-170.905 -70.688)"/><path class="n" d="M174.7,72.443a1.756,1.756,0,1,1,1.755,1.757A1.754,1.754,0,0,1,174.7,72.443Z" transform="translate(-169.172 -70.688)"/><path class="n" d="M178.5,72.443a1.756,1.756,0,1,1,1.755,1.757A1.754,1.754,0,0,1,178.5,72.443Z" transform="translate(-167.438 -70.688)"/><path class="n" d="M182.3,72.443a1.756,1.756,0,1,1,1.755,1.757A1.755,1.755,0,0,1,182.3,72.443Z" transform="translate(-165.705 -70.688)"/><path class="n" d="M186.093,72.443a1.756,1.756,0,1,1,1.755,1.757A1.755,1.755,0,0,1,186.093,72.443Z" transform="translate(-163.971 -70.688)"/></g><g transform="translate(213.495 0.485)"><path class="n" d="M331.778,76.6H317.484V69.979h14.294Zm-13.566-.728H331.05V70.707H318.212Z" transform="translate(-317.484 -69.979)"/><rect class="n" width="9.214" height="4.372" transform="translate(1.186 1.124)"/><rect class="n" width="1.271" height="3.542" transform="translate(14.303 1.539)"/></g></g><g transform="translate(16.325 52.063)"><path class="n" d="M178.076,114.142l-7.827-7.334,7.827-7.333,1.215,1.293-6.446,6.04,6.446,6.041Z" transform="translate(-170.248 -99.475)"/><g transform="translate(223.277)"><path class="n" d="M324.758,99.475l7.827,7.334-7.827,7.333-1.215-1.293,6.446-6.04-6.446-6.041Z" transform="translate(-323.543 -99.475)"/></g></g><path class="i" d="M268.814,68.93H240.98a1.719,1.719,0,0,1-1.72-1.719h0a1.719,1.719,0,0,1,1.72-1.719h27.834a1.719,1.719,0,0,1,1.72,1.719h0A1.719,1.719,0,0,1,268.814,68.93Z" transform="translate(-122.418 -62.925)"/><g transform="translate(35.914 51.987)"><g transform="translate(1.061 109.844)"><path class="l" d="M184.426,181.417V175.4a.553.553,0,0,1,.561-.561h3.337a.566.566,0,0,1,.561.561.576.576,0,0,1-.561.572h-2.764v1.866h2.376a.567.567,0,0,1,0,1.133h-2.376v1.876h2.764a.567.567,0,0,1,0,1.133h-3.306c-.02,0-.02-.01-.02-.01l-.01.01A.56.56,0,0,1,184.426,181.417Z" transform="translate(-184.426 -174.838)"/><path class="l" d="M192.765,178.35v2.45a.545.545,0,0,1-.542.54.56.56,0,0,1-.551-.54v-2.45a1.041,1.041,0,0,0-2.081.031V180.8c0,.019-.01.051-.01.07v.031c-.01.022-.01.042-.031.061v.051a.6.6,0,0,1-.51.328c-.041,0-.071-.01-.1-.01a.555.555,0,0,1-.438-.53v-4.01a.54.54,0,0,1,.54-.551.517.517,0,0,1,.489.306,2.149,2.149,0,0,1,1.091-.306,2.117,2.117,0,0,1,1.6.7,2.1,2.1,0,0,1,1.6-.7,2.131,2.131,0,0,1,2.122,2.141V180.8a.544.544,0,0,1-.54.54.554.554,0,0,1-.552-.54V178.38a1.045,1.045,0,0,0-1.03-1.05A1.057,1.057,0,0,0,192.765,178.35Z" transform="translate(-182.566 -174.198)"/><path class="l" d="M199.641,178.8v2a.544.544,0,0,1-.54.54.556.556,0,0,1-.53-.44,2.317,2.317,0,0,1-1.356.44,2.371,2.371,0,0,1-1.735-.746,2.6,2.6,0,0,1-.693-1.794,2.57,2.57,0,0,1,.693-1.8,2.349,2.349,0,0,1,1.735-.765,2.324,2.324,0,0,1,1.356.449.554.554,0,0,1,.53-.449.546.546,0,0,1,.54.551Zm-1.081,0a1.506,1.506,0,0,0-.4-1.052,1.263,1.263,0,0,0-.948-.418,1.23,1.23,0,0,0-.95.418,1.5,1.5,0,0,0-.387,1.052,1.529,1.529,0,0,0,.387,1.05,1.285,1.285,0,0,0,.95.4,1.32,1.32,0,0,0,.948-.4A1.536,1.536,0,0,0,198.56,178.8Z" transform="translate(-179.697 -174.198)"/><path class="l" d="M200.6,175.6a.551.551,0,0,1-.551.561.557.557,0,0,1-.551-.561v-.214a.548.548,0,0,1,.551-.551.542.542,0,0,1,.551.551Zm0,1.847v3.978a.542.542,0,0,1-.551.552.549.549,0,0,1-.551-.552V177.45a.544.544,0,0,1,.551-.561A.538.538,0,0,1,200.6,177.45Z" transform="translate(-177.546 -174.838)"/><path class="l" d="M201.92,174.838a.569.569,0,0,1,.572.561v6.018a.567.567,0,0,1-1.133,0V175.4A.566.566,0,0,1,201.92,174.838Z" transform="translate(-176.696 -174.838)"/></g><g transform="translate(0 124.245)"><rect class="a" width="193.111" height="17.106"/><g transform="translate(4.961 4.781)"><path class="o" d="M187.1,191.959a2.525,2.525,0,0,1,2.489-2.55,2.439,2.439,0,0,1,2.459,2.367v.051a.282.282,0,0,1-.01.092.492.492,0,0,1-.532.408h-3.244a1.339,1.339,0,0,0,.348.673,1.577,1.577,0,0,0,.979.459,1.666,1.666,0,0,0,1.06-.255.577.577,0,0,1,.765-.031.465.465,0,0,1,0,.663,2.569,2.569,0,0,1-1.825.674A2.532,2.532,0,0,1,187.1,191.959Zm1.111-.5H191.1a1.671,1.671,0,0,0-1.51-1.081A1.426,1.426,0,0,0,188.215,191.458Z" transform="translate(-187.104 -187.368)"/><path class="o" d="M195.877,191.52v2.448a.545.545,0,0,1-.542.542.561.561,0,0,1-.551-.542V191.52a1.04,1.04,0,0,0-2.08.031v2.418c0,.02-.012.052-.012.071v.031c-.009.02-.009.042-.031.061v.051a.6.6,0,0,1-.51.328c-.039,0-.07-.01-.1-.01a.555.555,0,0,1-.44-.532V189.96a.54.54,0,0,1,.54-.551.519.519,0,0,1,.491.306,2.145,2.145,0,0,1,1.091-.306,2.116,2.116,0,0,1,1.6.7,2.105,2.105,0,0,1,1.6-.7,2.13,2.13,0,0,1,2.122,2.141v2.418a.544.544,0,0,1-.54.542.553.553,0,0,1-.551-.542V191.55a1.046,1.046,0,0,0-1.031-1.05A1.058,1.058,0,0,0,195.877,191.52Z" transform="translate(-185.046 -187.368)"/><path class="o" d="M202.753,191.97v2a.544.544,0,0,1-.54.542.556.556,0,0,1-.53-.44,2.317,2.317,0,0,1-1.356.44,2.371,2.371,0,0,1-1.735-.746,2.61,2.61,0,0,1-.693-1.794,2.576,2.576,0,0,1,.693-1.8,2.349,2.349,0,0,1,1.735-.765,2.324,2.324,0,0,1,1.356.449.554.554,0,0,1,.53-.449.546.546,0,0,1,.54.551Zm-1.081,0a1.505,1.505,0,0,0-.4-1.052,1.26,1.26,0,0,0-.948-.418,1.225,1.225,0,0,0-.948.418,1.494,1.494,0,0,0-.389,1.052,1.523,1.523,0,0,0,.389,1.05,1.279,1.279,0,0,0,.948.4,1.318,1.318,0,0,0,.948-.4A1.536,1.536,0,0,0,201.672,191.97Z" transform="translate(-182.176 -187.368)"/><path class="o" d="M203.71,188.773a.55.55,0,0,1-.551.561.557.557,0,0,1-.551-.561v-.214a.548.548,0,0,1,.551-.551.541.541,0,0,1,.551.551Zm0,1.847V194.6a.541.541,0,0,1-.551.552.549.549,0,0,1-.551-.552V190.62a.544.544,0,0,1,.551-.561A.538.538,0,0,1,203.71,190.62Z" transform="translate(-180.026 -188.008)"/><path class="o" d="M205.032,188.008a.568.568,0,0,1,.571.561v6.018a.566.566,0,0,1-1.132,0v-6.018A.566.566,0,0,1,205.032,188.008Z" transform="translate(-179.176 -188.008)"/><path class="o" d="M210.649,191.97v2a.544.544,0,0,1-.54.542.556.556,0,0,1-.53-.44,2.317,2.317,0,0,1-1.356.44,2.37,2.37,0,0,1-1.735-.746,2.609,2.609,0,0,1-.693-1.794,2.576,2.576,0,0,1,.693-1.8,2.349,2.349,0,0,1,1.735-.765,2.324,2.324,0,0,1,1.356.449.554.554,0,0,1,.53-.449.546.546,0,0,1,.54.551Zm-1.081,0a1.506,1.506,0,0,0-.4-1.052,1.26,1.26,0,0,0-.948-.418,1.227,1.227,0,0,0-.948.418,1.494,1.494,0,0,0-.389,1.052,1.523,1.523,0,0,0,.389,1.05,1.282,1.282,0,0,0,.948.4,1.318,1.318,0,0,0,.948-.4A1.536,1.536,0,0,0,209.568,191.97Z" transform="translate(-178.572 -187.368)"/><path class="o" d="M215.224,194.6a.556.556,0,0,1-.551.552.55.55,0,0,1-.54-.44,2.482,2.482,0,0,1-1.388.44,2.551,2.551,0,0,1,0-5.1,2.421,2.421,0,0,1,1.368.428v-1.918a.556.556,0,0,1,1.111,0V194.6Zm-2.479-3.437a1.32,1.32,0,0,0-.958.418,1.451,1.451,0,0,0-.408,1.031,1.434,1.434,0,0,0,.408,1.009,1.32,1.32,0,0,0,.958.418,1.3,1.3,0,0,0,.958-.418,1.43,1.43,0,0,0,.409-1.009,1.446,1.446,0,0,0-.409-1.031A1.3,1.3,0,0,0,212.745,191.16Z" transform="translate(-176.53 -188.008)"/><path class="o" d="M218.258,189.946a.543.543,0,0,1-.539.54.978.978,0,0,0-.613.194,1.526,1.526,0,0,0-.469.491,3.146,3.146,0,0,0-.418.855v1.939a.555.555,0,0,1-.561.542.544.544,0,0,1-.54-.542v-4.019a.535.535,0,0,1,.54-.53.547.547,0,0,1,.561.53v.071a1.341,1.341,0,0,1,.214-.2,2.237,2.237,0,0,1,1.286-.4A.528.528,0,0,1,218.258,189.946Z" transform="translate(-174.315 -187.365)"/><path class="o" d="M217.6,191.959a2.524,2.524,0,0,1,2.489-2.55,2.439,2.439,0,0,1,2.457,2.367v.051a.283.283,0,0,1-.01.092.49.49,0,0,1-.53.408h-3.244a1.337,1.337,0,0,0,.347.673,1.581,1.581,0,0,0,.98.459,1.668,1.668,0,0,0,1.06-.255.579.579,0,0,1,.766-.031.467.467,0,0,1,0,.663,2.577,2.577,0,0,1-1.826.674A2.531,2.531,0,0,1,217.6,191.959Zm1.111-.5h2.887a1.667,1.667,0,0,0-1.509-1.081A1.425,1.425,0,0,0,218.707,191.458Z" transform="translate(-173.184 -187.368)"/><path class="o" d="M221.972,193.05a.532.532,0,0,1,.766-.082,1.871,1.871,0,0,0,1.122.449,1.356,1.356,0,0,0,.693-.194.413.413,0,0,0,.184-.306.152.152,0,0,0-.031-.1c-.009-.031-.051-.071-.131-.122a2.386,2.386,0,0,0-.817-.285h-.01a3.894,3.894,0,0,1-.887-.265,1.691,1.691,0,0,1-.7-.593,1.232,1.232,0,0,1-.173-.642,1.436,1.436,0,0,1,.6-1.122,2.2,2.2,0,0,1,1.256-.377,2.626,2.626,0,0,1,1.531.561.566.566,0,0,1,.163.754.541.541,0,0,1-.756.143,1.742,1.742,0,0,0-.938-.377,1.038,1.038,0,0,0-.612.184.311.311,0,0,0-.163.234.11.11,0,0,0,.02.082.278.278,0,0,0,.111.1,2.1,2.1,0,0,0,.746.245l.01.01h.01a3.786,3.786,0,0,1,.948.3,1.593,1.593,0,0,1,.725.6,1.32,1.32,0,0,1,.194.673,1.471,1.471,0,0,1-.642,1.183,2.315,2.315,0,0,1-1.327.409,2.97,2.97,0,0,1-1.816-.7A.545.545,0,0,1,221.972,193.05Z" transform="translate(-171.24 -187.368)"/><path class="o" d="M225.348,193.05a.53.53,0,0,1,.765-.082,1.871,1.871,0,0,0,1.121.449,1.356,1.356,0,0,0,.693-.194.413.413,0,0,0,.184-.306.152.152,0,0,0-.031-.1c-.009-.031-.051-.071-.131-.122a2.386,2.386,0,0,0-.817-.285h-.01a3.894,3.894,0,0,1-.887-.265,1.692,1.692,0,0,1-.7-.593,1.232,1.232,0,0,1-.173-.642,1.432,1.432,0,0,1,.6-1.122,2.2,2.2,0,0,1,1.255-.377,2.626,2.626,0,0,1,1.531.561.565.565,0,0,1,.163.754.541.541,0,0,1-.756.143,1.742,1.742,0,0,0-.938-.377,1.038,1.038,0,0,0-.612.184.311.311,0,0,0-.163.234.11.11,0,0,0,.02.082.278.278,0,0,0,.111.1,2.1,2.1,0,0,0,.746.245l.01.01h.01a3.785,3.785,0,0,1,.948.3,1.592,1.592,0,0,1,.725.6,1.321,1.321,0,0,1,.194.673,1.471,1.471,0,0,1-.642,1.183,2.315,2.315,0,0,1-1.327.409,2.97,2.97,0,0,1-1.816-.7A.544.544,0,0,1,225.348,193.05Z" transform="translate(-169.7 -187.368)"/><path class="o" d="M235.772,191.568a3.45,3.45,0,0,1-.4,1.643v.01a3.3,3.3,0,0,1-.256.357,1.664,1.664,0,0,1-.8.489,1.187,1.187,0,0,1-.267.031.932.932,0,0,1-.775-.377.868.868,0,0,1-.162-.306,1.98,1.98,0,0,1-.919.224,1.919,1.919,0,0,1-1.408-.612,2.149,2.149,0,0,1-.561-1.459,2.116,2.116,0,0,1,.561-1.438,1.928,1.928,0,0,1,1.408-.622,1.951,1.951,0,0,1,1.419.622,2.108,2.108,0,0,1,.559,1.438V192.9c.022-.02.042-.031.073-.061a1.012,1.012,0,0,0,.133-.163,2.482,2.482,0,0,0,.255-1.113,2.433,2.433,0,1,0-2.438,2.438,2.963,2.963,0,0,0,.612-.061.558.558,0,0,1,.685.4.576.576,0,0,1-.409.693,3.57,3.57,0,1,1,2.683-3.468Zm-2.724,0a1.008,1.008,0,0,0-.255-.673.851.851,0,0,0-.591-.255.833.833,0,0,0-.583.255,1.034,1.034,0,0,0,0,1.356.789.789,0,0,0,.583.256.806.806,0,0,0,.591-.256A1.012,1.012,0,0,0,233.048,191.568Z" transform="translate(-168.141 -188.008)"/><path class="o" d="M240.046,191.52v2.448a.544.544,0,0,1-.54.542.561.561,0,0,1-.552-.542V191.52a1.041,1.041,0,0,0-2.081.031v2.418c0,.02-.01.052-.01.071v.031c-.009.02-.009.042-.029.061v.051a.6.6,0,0,1-.511.328c-.041,0-.071-.01-.1-.01a.555.555,0,0,1-.438-.532V189.96a.54.54,0,0,1,.54-.551.515.515,0,0,1,.489.306,2.154,2.154,0,0,1,1.092-.306,2.119,2.119,0,0,1,1.6.7,2.1,2.1,0,0,1,1.6-.7,2.131,2.131,0,0,1,2.122,2.141v2.418a.545.545,0,0,1-.542.542.553.553,0,0,1-.551-.542V191.55a1.044,1.044,0,0,0-1.03-1.05A1.058,1.058,0,0,0,240.046,191.52Z" transform="translate(-164.882 -187.368)"/><path class="o" d="M246.923,191.97v2a.544.544,0,0,1-.54.542.556.556,0,0,1-.53-.44,2.324,2.324,0,0,1-1.357.44,2.37,2.37,0,0,1-1.733-.746,2.6,2.6,0,0,1-.695-1.794,2.571,2.571,0,0,1,.695-1.8,2.317,2.317,0,0,1,3.091-.316.554.554,0,0,1,.53-.449.546.546,0,0,1,.54.551Zm-1.082,0a1.5,1.5,0,0,0-.4-1.052,1.263,1.263,0,0,0-.95-.418,1.229,1.229,0,0,0-.948.418,1.5,1.5,0,0,0-.389,1.052,1.53,1.53,0,0,0,.389,1.05,1.284,1.284,0,0,0,.948.4,1.321,1.321,0,0,0,.95-.4A1.535,1.535,0,0,0,245.841,191.97Z" transform="translate(-162.013 -187.368)"/><path class="o" d="M247.881,188.773a.551.551,0,0,1-.552.561.557.557,0,0,1-.551-.561v-.214a.548.548,0,0,1,.551-.551.542.542,0,0,1,.552.551Zm0,1.847V194.6a.543.543,0,0,1-.552.552.549.549,0,0,1-.551-.552V190.62a.544.544,0,0,1,.551-.561A.539.539,0,0,1,247.881,190.62Z" transform="translate(-159.862 -188.008)"/><path class="o" d="M249.2,188.008a.568.568,0,0,1,.571.561v6.018a.566.566,0,0,1-1.132,0v-6.018A.565.565,0,0,1,249.2,188.008Z" transform="translate(-159.011 -188.008)"/><path class="o" d="M251.011,191.916a.772.772,0,0,1,.766.765.762.762,0,0,1-.766.754.752.752,0,0,1-.754-.754A.762.762,0,0,1,251.011,191.916Z" transform="translate(-158.274 -186.224)"/><path class="o" d="M251.56,191.97a2.594,2.594,0,0,1,2.591-2.561,2.687,2.687,0,0,1,1.621.561.559.559,0,0,1,.112.754.543.543,0,0,1-.765.1,1.63,1.63,0,0,0-.969-.326,1.465,1.465,0,1,0,0,2.928,1.654,1.654,0,0,0,.969-.326.556.556,0,0,1,.765.112.562.562,0,0,1-.112.754,2.81,2.81,0,0,1-1.621.542A2.585,2.585,0,0,1,251.56,191.97Z" transform="translate(-157.679 -187.368)"/><path class="o" d="M256.24,193.764a2.539,2.539,0,0,1-.7-1.794,2.626,2.626,0,0,1,.7-1.786,2.381,2.381,0,0,1,1.754-.775,2.26,2.26,0,0,1,1.7.775,2.548,2.548,0,0,1,.714,1.786,2.467,2.467,0,0,1-.714,1.794,2.256,2.256,0,0,1-1.7.776A2.377,2.377,0,0,1,256.24,193.764Zm.408-1.794a1.649,1.649,0,0,0,.367,1.081,1.38,1.38,0,0,0,.979.377,1.335,1.335,0,0,0,.938-.377,1.561,1.561,0,0,0,.4-1.081,1.529,1.529,0,0,0-.4-1.062,1.441,1.441,0,0,0-.938-.387,1.483,1.483,0,0,0-.979.387A1.614,1.614,0,0,0,256.648,191.97Z" transform="translate(-155.864 -187.368)"/><path class="o" d="M264.336,191.52v2.448a.544.544,0,0,1-.54.542.561.561,0,0,1-.552-.542V191.52a1.041,1.041,0,0,0-2.081.031v2.418c0,.02-.01.052-.01.071v.031c-.009.02-.009.042-.029.061v.051a.6.6,0,0,1-.511.328c-.041,0-.07-.01-.1-.01a.555.555,0,0,1-.438-.532V189.96a.54.54,0,0,1,.54-.551.514.514,0,0,1,.489.306,2.154,2.154,0,0,1,1.092-.306,2.119,2.119,0,0,1,1.6.7,2.1,2.1,0,0,1,1.6-.7,2.131,2.131,0,0,1,2.122,2.141v2.418a.545.545,0,0,1-.542.542.552.552,0,0,1-.549-.542V191.55a1.046,1.046,0,0,0-1.031-1.05A1.058,1.058,0,0,0,264.336,191.52Z" transform="translate(-153.793 -187.368)"/></g></g><g transform="translate(1.061 151.124)"><path class="l" d="M186.813,207.545h-1.254v2.214a.567.567,0,0,1-1.133,0v-6.018a.559.559,0,0,1,.561-.561h1.826a2.183,2.183,0,1,1,0,4.365Zm-1.254-1.132h1.254a1.05,1.05,0,1,0,0-2.1h-1.254Z" transform="translate(-184.426 -203.18)"/><path class="l" d="M192.915,207.14v2a.545.545,0,0,1-.542.542.556.556,0,0,1-.53-.44,2.317,2.317,0,0,1-1.356.44,2.37,2.37,0,0,1-1.735-.746,2.61,2.61,0,0,1-.693-1.8,2.573,2.573,0,0,1,.693-1.794,2.349,2.349,0,0,1,1.735-.765,2.324,2.324,0,0,1,1.356.449.554.554,0,0,1,.53-.449.546.546,0,0,1,.542.551Zm-1.082,0a1.5,1.5,0,0,0-.4-1.05,1.26,1.26,0,0,0-.948-.418,1.227,1.227,0,0,0-.948.418,1.487,1.487,0,0,0-.387,1.05,1.526,1.526,0,0,0,.387,1.052,1.282,1.282,0,0,0,.948.4,1.318,1.318,0,0,0,.948-.4A1.54,1.54,0,0,0,191.833,207.14Z" transform="translate(-182.767 -202.54)"/><path class="l" d="M192.633,208.222a.53.53,0,0,1,.765-.082,1.875,1.875,0,0,0,1.123.449,1.36,1.36,0,0,0,.693-.194.417.417,0,0,0,.184-.306.152.152,0,0,0-.031-.1c-.01-.031-.051-.071-.133-.122a2.364,2.364,0,0,0-.816-.285h-.01a3.913,3.913,0,0,1-.887-.265,1.692,1.692,0,0,1-.7-.593,1.236,1.236,0,0,1-.173-.642,1.432,1.432,0,0,1,.6-1.122,2.2,2.2,0,0,1,1.256-.377,2.612,2.612,0,0,1,1.529.561.565.565,0,0,1,.165.754.542.542,0,0,1-.756.143,1.747,1.747,0,0,0-.938-.377,1.043,1.043,0,0,0-.613.184.312.312,0,0,0-.162.234.116.116,0,0,0,.019.082.3.3,0,0,0,.112.1,2.078,2.078,0,0,0,.746.245l.01.01h.01a3.726,3.726,0,0,1,.948.3,1.6,1.6,0,0,1,.724.6,1.322,1.322,0,0,1,.2.673,1.472,1.472,0,0,1-.644,1.183,2.321,2.321,0,0,1-1.325.409,2.966,2.966,0,0,1-1.816-.7A.544.544,0,0,1,192.633,208.222Z" transform="translate(-180.734 -202.54)"/><path class="l" d="M196.006,208.222a.53.53,0,0,1,.765-.082,1.871,1.871,0,0,0,1.122.449,1.366,1.366,0,0,0,.695-.194.417.417,0,0,0,.184-.306.152.152,0,0,0-.031-.1c-.01-.031-.052-.071-.134-.122a2.352,2.352,0,0,0-.816-.285h-.01a3.913,3.913,0,0,1-.887-.265,1.7,1.7,0,0,1-.7-.593,1.236,1.236,0,0,1-.173-.642,1.432,1.432,0,0,1,.6-1.122,2.193,2.193,0,0,1,1.254-.377,2.616,2.616,0,0,1,1.531.561.563.563,0,0,1,.163.754.541.541,0,0,1-.756.143,1.743,1.743,0,0,0-.938-.377,1.038,1.038,0,0,0-.612.184.311.311,0,0,0-.163.234.11.11,0,0,0,.02.082.275.275,0,0,0,.112.1,2.079,2.079,0,0,0,.744.245l.01.01h.01a3.737,3.737,0,0,1,.95.3,1.6,1.6,0,0,1,.724.6,1.32,1.32,0,0,1,.194.673,1.471,1.471,0,0,1-.642,1.183,2.326,2.326,0,0,1-1.327.409,2.962,2.962,0,0,1-1.815-.7A.544.544,0,0,1,196.006,208.222Z" transform="translate(-179.194 -202.54)"/><path class="l" d="M206.122,205.374l-1.682,3.957a.469.469,0,0,1-.041.082.01.01,0,0,1-.01.01.27.27,0,0,1-.051.061.032.032,0,0,1-.02.01.27.27,0,0,1-.061.051c0,.012-.01.012-.01.022a.293.293,0,0,1-.092.051s-.01,0-.01.009a.273.273,0,0,0-.082.022h-.02a.32.32,0,0,1-.1.01.283.283,0,0,1-.092-.01h-.019a.139.139,0,0,0-.073-.022l-.009-.009h-.01a.277.277,0,0,1-.093-.061v-.012c-.031-.01-.041-.031-.061-.051,0,0-.019,0-.019-.01a.245.245,0,0,1-.052-.061.009.009,0,0,1-.009-.01.489.489,0,0,1-.042-.082l-.744-1.764-.724,1.764a.641.641,0,0,1-.051.082v.01l-.061.061a.01.01,0,0,1-.01.01l-.061.063a.4.4,0,0,1-.092.061h-.02s-.01,0-.01.009a.1.1,0,0,0-.061.022h-.02a.383.383,0,0,1-.1.01.315.315,0,0,1-.1-.01h-.031a.136.136,0,0,0-.061-.022c-.012-.009-.012-.009-.02-.009a.193.193,0,0,1-.092-.061c-.01,0-.01,0-.01-.012a.473.473,0,0,0-.061-.051l-.02-.01c-.01-.02-.031-.041-.041-.061-.012,0-.012,0-.012-.01a.8.8,0,0,0-.051-.082l-1.672-3.957a.528.528,0,0,1,.3-.7.505.505,0,0,1,.673.306l1.2,2.744.714-1.7a.544.544,0,0,1,.5-.326.524.524,0,0,1,.5.326l.724,1.7,1.2-2.744a.51.51,0,0,1,.683-.306A.536.536,0,0,1,206.122,205.374Z" transform="translate(-177.643 -202.518)"/><path class="l" d="M205.871,208.936a2.547,2.547,0,0,1-.7-1.8,2.632,2.632,0,0,1,.7-1.784,2.381,2.381,0,0,1,1.754-.775,2.255,2.255,0,0,1,1.7.775,2.547,2.547,0,0,1,.714,1.784,2.468,2.468,0,0,1-.714,1.8,2.257,2.257,0,0,1-1.7.776A2.383,2.383,0,0,1,205.871,208.936Zm.408-1.8a1.65,1.65,0,0,0,.367,1.082,1.38,1.38,0,0,0,.979.377,1.336,1.336,0,0,0,.939-.377,1.568,1.568,0,0,0,.4-1.082,1.533,1.533,0,0,0-.4-1.06,1.441,1.441,0,0,0-.939-.387,1.482,1.482,0,0,0-.979.387A1.612,1.612,0,0,0,206.279,207.14Z" transform="translate(-174.958 -202.54)"/><path class="l" d="M212.7,205.119a.544.544,0,0,1-.54.54.974.974,0,0,0-.612.194,1.526,1.526,0,0,0-.47.489,3.149,3.149,0,0,0-.418.856v1.939a.556.556,0,0,1-.561.542.545.545,0,0,1-.54-.542v-4.019a.536.536,0,0,1,.54-.532.547.547,0,0,1,.561.532v.071a1.34,1.34,0,0,1,.214-.2,2.252,2.252,0,0,1,1.286-.4A.529.529,0,0,1,212.7,205.119Z" transform="translate(-172.951 -202.538)"/><path class="l" d="M217.188,209.769a.552.552,0,0,1-1.092.112,2.489,2.489,0,0,1-1.387.44,2.551,2.551,0,0,1,0-5.1,2.413,2.413,0,0,1,1.366.428v-1.918a.556.556,0,0,1,1.113,0v6.039Zm-2.479-3.437a1.323,1.323,0,0,0-.96.418,1.48,1.48,0,0,0,0,2.041,1.323,1.323,0,0,0,.96.418,1.3,1.3,0,0,0,.958-.418,1.48,1.48,0,0,0,0-2.041A1.3,1.3,0,0,0,214.709,206.332Z" transform="translate(-171.733 -203.18)"/></g><g transform="translate(0 165.526)"><rect class="a" width="193.111" height="17.106"/><g transform="translate(5.145 4.709)"><path class="o" d="M188.587,218.372l-.766.561a.451.451,0,0,1-.255.1.348.348,0,0,1-.336-.347.37.37,0,0,1,.234-.316l.9-.387-.9-.4a.354.354,0,0,1-.234-.316.349.349,0,0,1,.347-.338.361.361,0,0,1,.245.1l.766.561-.1-.909a.322.322,0,0,1,.318-.387.314.314,0,0,1,.316.377l-.1.919.765-.561a.385.385,0,0,1,.255-.1.34.34,0,0,1,.336.338.343.343,0,0,1-.234.316l-.9.4.9.387a.357.357,0,0,1,.234.326.348.348,0,0,1-.347.336.452.452,0,0,1-.245-.1l-.765-.561.1.907a.322.322,0,0,1-.316.387.314.314,0,0,1-.318-.376Z" transform="translate(-187.23 -216.301)"/><path class="o" d="M191.6,218.372l-.765.561a.451.451,0,0,1-.255.1.348.348,0,0,1-.336-.347.37.37,0,0,1,.234-.316l.9-.387-.9-.4a.354.354,0,0,1-.234-.316.349.349,0,0,1,.347-.338.361.361,0,0,1,.245.1l.765.561-.1-.909a.322.322,0,0,1,.316-.387.315.315,0,0,1,.318.377l-.1.919.766-.561a.384.384,0,0,1,.255-.1.34.34,0,0,1,.336.338.343.343,0,0,1-.235.316l-.9.4.9.387a.357.357,0,0,1,.235.326.348.348,0,0,1-.347.336.452.452,0,0,1-.245-.1l-.766-.561.1.907a.323.323,0,0,1-.318.387.313.313,0,0,1-.316-.376Z" transform="translate(-185.856 -216.301)"/><path class="o" d="M194.607,218.372l-.766.561a.451.451,0,0,1-.255.1.348.348,0,0,1-.336-.347.37.37,0,0,1,.235-.316l.9-.387-.9-.4a.354.354,0,0,1-.235-.316.349.349,0,0,1,.347-.338.361.361,0,0,1,.245.1l.766.561-.1-.909a.322.322,0,0,1,.318-.387.314.314,0,0,1,.316.377l-.1.919.765-.561a.384.384,0,0,1,.255-.1.34.34,0,0,1,.336.338.343.343,0,0,1-.234.316l-.9.4.9.387a.357.357,0,0,1,.234.326.348.348,0,0,1-.347.336.452.452,0,0,1-.245-.1l-.765-.561.1.907a.322.322,0,0,1-.316.387.314.314,0,0,1-.318-.376Z" transform="translate(-184.482 -216.301)"/><path class="o" d="M197.616,218.372l-.765.561a.451.451,0,0,1-.255.1.348.348,0,0,1-.336-.347.37.37,0,0,1,.235-.316l.9-.387-.9-.4a.354.354,0,0,1-.235-.316.349.349,0,0,1,.347-.338.361.361,0,0,1,.245.1l.765.561-.1-.909a.322.322,0,0,1,.316-.387.315.315,0,0,1,.318.377l-.1.919.766-.561a.384.384,0,0,1,.255-.1.34.34,0,0,1,.336.338.343.343,0,0,1-.235.316l-.9.4.9.387a.357.357,0,0,1,.235.326.348.348,0,0,1-.347.336.452.452,0,0,1-.245-.1l-.766-.561.1.907a.323.323,0,0,1-.318.387.313.313,0,0,1-.316-.376Z" transform="translate(-183.108 -216.301)"/><path class="o" d="M200.626,218.372l-.765.561a.452.452,0,0,1-.256.1.348.348,0,0,1-.336-.347.369.369,0,0,1,.236-.316l.9-.387-.9-.4a.356.356,0,0,1-.236-.316.35.35,0,0,1,.348-.338.361.361,0,0,1,.245.1l.765.561-.1-.909a.322.322,0,0,1,.316-.387.314.314,0,0,1,.316.377l-.1.919.765-.561a.388.388,0,0,1,.256-.1.34.34,0,0,1,.336.338.343.343,0,0,1-.234.316l-.9.4.9.387a.357.357,0,0,1,.234.326.35.35,0,0,1-.348.336.456.456,0,0,1-.245-.1l-.765-.561.1.907a.322.322,0,0,1-.316.387.313.313,0,0,1-.316-.376Z" transform="translate(-181.734 -216.301)"/><path class="o" d="M203.636,218.372l-.765.561a.451.451,0,0,1-.255.1.348.348,0,0,1-.336-.347.37.37,0,0,1,.235-.316l.9-.387-.9-.4a.354.354,0,0,1-.235-.316.349.349,0,0,1,.347-.338.361.361,0,0,1,.245.1l.765.561-.1-.909a.322.322,0,0,1,.316-.387.315.315,0,0,1,.318.377l-.1.919.766-.561a.384.384,0,0,1,.255-.1.34.34,0,0,1,.336.338.343.343,0,0,1-.234.316l-.9.4.9.387a.357.357,0,0,1,.234.326.348.348,0,0,1-.347.336.452.452,0,0,1-.245-.1l-.766-.561.1.907a.323.323,0,0,1-.318.387.313.313,0,0,1-.316-.376Z" transform="translate(-180.359 -216.301)"/><path class="o" d="M206.646,218.372l-.765.561a.452.452,0,0,1-.256.1.347.347,0,0,1-.335-.347.368.368,0,0,1,.235-.316l.9-.387-.9-.4a.354.354,0,0,1-.235-.316.349.349,0,0,1,.347-.338.361.361,0,0,1,.245.1l.765.561-.1-.909a.322.322,0,0,1,.316-.387.314.314,0,0,1,.316.377l-.1.919.765-.561a.388.388,0,0,1,.256-.1.34.34,0,0,1,.336.338.343.343,0,0,1-.235.316l-.9.4.9.387a.357.357,0,0,1,.235.326.349.349,0,0,1-.348.336.456.456,0,0,1-.245-.1l-.765-.561.1.907a.322.322,0,0,1-.316.387.313.313,0,0,1-.316-.376Z" transform="translate(-178.985 -216.301)"/><path class="o" d="M209.656,218.372l-.765.561a.451.451,0,0,1-.255.1.348.348,0,0,1-.336-.347.37.37,0,0,1,.234-.316l.9-.387-.9-.4a.354.354,0,0,1-.234-.316.349.349,0,0,1,.347-.338.361.361,0,0,1,.245.1l.765.561-.1-.909a.322.322,0,0,1,.316-.387.314.314,0,0,1,.318.377l-.1.919.766-.561a.385.385,0,0,1,.255-.1.34.34,0,0,1,.336.338.343.343,0,0,1-.234.316l-.9.4.9.387a.357.357,0,0,1,.234.326.348.348,0,0,1-.347.336.452.452,0,0,1-.245-.1l-.766-.561.1.907a.322.322,0,0,1-.318.387.313.313,0,0,1-.316-.376Z" transform="translate(-177.611 -216.301)"/><path class="o" d="M212.666,218.372l-.765.561a.452.452,0,0,1-.256.1.348.348,0,0,1-.335-.347.37.37,0,0,1,.234-.316l.9-.387-.9-.4a.354.354,0,0,1-.234-.316.349.349,0,0,1,.347-.338.361.361,0,0,1,.245.1l.765.561-.1-.909a.322.322,0,0,1,.316-.387.314.314,0,0,1,.316.377l-.1.919.765-.561a.388.388,0,0,1,.256-.1.34.34,0,0,1,.336.338.343.343,0,0,1-.234.316l-.9.4.9.387a.357.357,0,0,1,.234.326.35.35,0,0,1-.348.336.456.456,0,0,1-.245-.1l-.765-.561.1.907a.322.322,0,0,1-.316.387.313.313,0,0,1-.316-.376Z" transform="translate(-176.237 -216.301)"/><path class="o" d="M215.676,218.372l-.765.561a.451.451,0,0,1-.256.1.348.348,0,0,1-.336-.347.37.37,0,0,1,.234-.316l.9-.387-.9-.4a.354.354,0,0,1-.234-.316.35.35,0,0,1,.348-.338.361.361,0,0,1,.245.1l.765.561-.1-.909a.322.322,0,0,1,.316-.387.314.314,0,0,1,.316.377l-.1.919.765-.561a.388.388,0,0,1,.256-.1.34.34,0,0,1,.336.338.345.345,0,0,1-.236.316l-.9.4.9.387a.358.358,0,0,1,.236.326.35.35,0,0,1-.348.336.456.456,0,0,1-.245-.1l-.765-.561.1.907a.322.322,0,0,1-.316.387.313.313,0,0,1-.316-.376Z" transform="translate(-174.863 -216.301)"/><path class="o" d="M218.686,218.372l-.765.561a.452.452,0,0,1-.256.1.348.348,0,0,1-.335-.347.37.37,0,0,1,.234-.316l.9-.387-.9-.4a.352.352,0,0,1-.234-.316.347.347,0,0,1,.345-.338.362.362,0,0,1,.246.1l.765.561-.1-.909a.323.323,0,0,1,.316-.387.314.314,0,0,1,.316.377l-.1.919.765-.561a.382.382,0,0,1,.255-.1.338.338,0,0,1,.335.338.342.342,0,0,1-.233.316l-.9.4.9.387a.356.356,0,0,1,.233.326.347.347,0,0,1-.345.336.448.448,0,0,1-.245-.1l-.765-.561.1.907a.322.322,0,0,1-.316.387.314.314,0,0,1-.316-.376Z" transform="translate(-173.489 -216.301)"/><path class="o" d="M221.7,218.372l-.765.561a.451.451,0,0,1-.255.1.348.348,0,0,1-.336-.347.37.37,0,0,1,.235-.316l.9-.387-.9-.4a.354.354,0,0,1-.235-.316.349.349,0,0,1,.347-.338.361.361,0,0,1,.245.1l.765.561-.1-.909a.323.323,0,0,1,.318-.387.315.315,0,0,1,.316.377l-.1.919.766-.561a.384.384,0,0,1,.255-.1.34.34,0,0,1,.336.338.343.343,0,0,1-.234.316l-.9.4.9.387a.357.357,0,0,1,.234.326.348.348,0,0,1-.347.336.452.452,0,0,1-.245-.1l-.766-.561.1.907a.322.322,0,0,1-.316.387.314.314,0,0,1-.318-.376Z" transform="translate(-172.115 -216.301)"/><path class="o" d="M224.706,218.372l-.765.561a.455.455,0,0,1-.255.1.348.348,0,0,1-.336-.347.37.37,0,0,1,.234-.316l.9-.387-.9-.4a.354.354,0,0,1-.234-.316.349.349,0,0,1,.347-.338.367.367,0,0,1,.245.1l.765.561-.1-.909a.322.322,0,0,1,.318-.387.314.314,0,0,1,.315.377l-.1.919.766-.561a.384.384,0,0,1,.253-.1.335.335,0,0,1,.1.654l-.9.4.9.387a.357.357,0,0,1,.235.326.349.349,0,0,1-.347.336.452.452,0,0,1-.245-.1l-.766-.561.1.907a.321.321,0,0,1-.315.387.314.314,0,0,1-.318-.376Z" transform="translate(-170.741 -216.301)"/></g></g><line class="p" x2="193.111" transform="translate(0 197.677)"/><line class="p" x2="193.111" transform="translate(0 336.494)"/><g transform="translate(53.647 0)"><rect class="q" width="84.24" height="23.461" transform="translate(0 212.722)"/><text class="r" transform="translate(24.992 227.968)"><tspan x="0" y="0">Log in</tspan></text><text class="r" transform="translate(19.992 10.968)"><tspan x="0" y="0">DIYLaw</tspan></text></g></g></g></g><g transform="translate(47.623 188.488)"><g transform="translate(428.589)"><path class="l" d="M340.493,129.439s-.218.044-.583.146a.349.349,0,0,1,.1-.175h.015C340.318,129.439,340.493,129.439,340.493,129.439Z" transform="translate(-339.91 -129.41)"/></g><path class="s" d="M351.9,418.38a1.6,1.6,0,0,0-.262.029v-.189A2.543,2.543,0,0,1,351.9,418.38Z" transform="translate(94.033 2.436)"/><g transform="translate(0 83.47)"><g transform="translate(0 134.939)"><g transform="translate(143.766 102.498)"><path class="c" d="M144.359,349.735l3.457,20.728,23.415,126.453h3.774L157.979,370.463l-2.516-20.728Z" transform="translate(-144.359 -349.735)"/><path class="f" d="M155.462,349.735h-11.1l3.457,20.728h10.163Z" transform="translate(-144.359 -349.735)"/></g><g transform="translate(70.234 102.498)"><path class="c" d="M93.874,496.915h3.774l23.415-126.453,3.457-20.728h-11.1L110.9,370.463Z" transform="translate(-93.874 -349.735)"/><path class="f" d="M108.081,349.735l-2.516,20.728h10.163l3.457-20.728Z" transform="translate(-88.538 -349.735)"/></g><g transform="translate(0 102.498)"><path class="c" d="M45.654,496.915h3.774L72.843,370.463,76.3,349.735H65.2l-2.516,20.728Z" transform="translate(-45.654 -349.735)"/><path class="f" d="M57.344,370.463H67.507l3.457-20.728H59.86Z" transform="translate(-40.317 -349.735)"/></g><path class="c" d="M49.764,391.6h171.58v-18.08H157.113l-21.587-94.158H56.305Z" transform="translate(-43.778 -279.363)"/><path class="f" d="M49.764,391.6h9.353l6.1-112.237H56.305Z" transform="translate(-43.778 -279.363)"/></g><g transform="translate(11.788)"><g transform="translate(23.966 152.867)"><g transform="translate(120.645 116.938)"><path class="t" d="M274.712,455.612c-3,1.755-95.421,21.074-99.412,19.584-1.516-.556-5.114-13.853-9.006-30.042-.842-3.5-1.688-7.111-2.529-10.787-5.479-23.861-10.735-49.306-10.735-49.306l61.784-13.1,9.035,49.667,1.993,10.9s38.692,8.429,42.893,10.533C272.918,445.168,277.716,453.856,274.712,455.612Z" transform="translate(-153.032 -371.958)"/><path class="a" d="M271.525,440.406c-3,1.762-95.416,21.076-99.407,19.59-1.515-.553-5.112-13.851-9-30.048-.845-3.5-1.69-7.108-2.534-10.778-.2-.859-.393-1.719-.583-2.578l60.445-11.332.218,1.165,2,10.895s38.7,8.433,42.894,10.531S274.54,438.658,271.525,440.406Z" transform="translate(-149.851 -356.755)"/><g transform="translate(12.475 41.602)"><path class="u" d="M271.315,437.048c-3.037,1.777-96.515,21.182-100.539,19.66-1.54-.551-5.158-13.988-9.061-30.349l-.118-.514,60.167-13.19.189,1.027s39.1,8.553,43.349,10.691C269.523,426.505,274.356,435.285,271.315,437.048Z" transform="translate(-161.597 -394.982)"/><g transform="translate(12.942)"><path class="l" d="M265.449,427.071c-15.838,2.884-79.444,16.011-94.882,20.065-.125.034-.106.119.022.1,15.759-2.517,79.258-16.159,94.914-19.906C265.832,427.249,265.783,427.01,265.449,427.071Z" transform="translate(-170.483 -388.405)"/><path class="l" d="M213.083,411.815c-6.439.131-13.827,2.655-17.649,8.052-.149.208.152.415.339.31a89.115,89.115,0,0,1,17.448-7.575A.4.4,0,0,0,213.083,411.815Z" transform="translate(-159.11 -395.365)"/><path class="l" d="M216.54,413.026c-6.441.131-13.827,2.657-17.649,8.052-.149.208.152.417.339.31a89.16,89.16,0,0,1,17.448-7.574A.4.4,0,0,0,216.54,413.026Z" transform="translate(-157.532 -394.812)"/><path class="l" d="M220,414.237c-6.441.133-13.827,2.657-17.649,8.053-.149.208.15.415.338.31a89.15,89.15,0,0,1,17.448-7.575A.4.4,0,0,0,220,414.237Z" transform="translate(-155.954 -394.259)"/><g transform="translate(20.402)"><path class="l" d="M216.2,401.791c-3.133-2.846-7.357-.4-9.5,2.313a33.774,33.774,0,0,0-6.605,16.167.169.169,0,0,0,.192.192.785.785,0,0,0,1.133.571c4.728-2.957,10.148-5.532,13.827-9.848C217.4,408.666,219.16,404.483,216.2,401.791Zm-8.525,13.3c-2.29,1.51-4.639,2.9-6.872,4.495a100.934,100.934,0,0,1,4.065-9.358,36.381,36.381,0,0,1,2.55-4.227c1.5-2.06,8.059-7.143,8.376-.122C215.968,409.747,210.4,413.289,207.673,415.089Z" transform="translate(-177.366 -400.521)"/><path class="l" d="M191.127,418.71c5.561,1.114,11.413-.216,16.958-.819a.785.785,0,0,0,.535-1.149.169.169,0,0,0,.032-.271,33.766,33.766,0,0,0-15.2-8.611c-3.356-.805-8.191-.117-8.889,4.056C183.9,415.864,187.879,418.059,191.127,418.71Zm-3.717-3.835c-4.1-5.71,4.2-5.778,6.656-5.086a36.634,36.634,0,0,1,4.62,1.743,101.1,101.1,0,0,1,8.988,4.834c-2.741.128-5.447.491-8.181.721C196.235,417.363,189.671,418.024,187.41,414.875Z" transform="translate(-184.49 -397.305)"/></g></g></g></g><g transform="translate(0.583 2.833)"><g transform="translate(57.356 143.834)"><path class="s" d="M211.518,490.666c-3.351.932-97.642-3.938-101.12-6.4-.759-.53.109-13.2,1.175-24.6.794-8.483,21.395-67.3,21.395-67.3l63.085,3.075-25.908,60.445s35.267,18.011,38.793,21.117C212.443,480.111,214.868,489.734,211.518,490.666Z" transform="translate(-109.921 -392.369)"/><path class="a" d="M211.511,476.112c-3.35.932-97.63-3.947-101.111-6.394-.757-.539.1-13.211,1.18-24.615.262-2.8,2.665-11.04,5.768-20.843l57.926,5.127-5.127,11.943s35.262,18.017,38.787,21.119S214.861,475.18,211.511,476.112Z" transform="translate(-109.92 -377.81)"/><g transform="translate(0 47.749)"><path class="u" d="M212.765,473.172c-3.394.925-98.7-4.681-102.189-7.2-1.2-.835-.4-10.228.8-25.364.133-1.688,1.809-7.856,1.816-8.033l58.089,4.139-.086,1.04s35.521,18.44,39.07,21.612C213.78,462.526,216.16,472.261,212.765,473.172Z" transform="translate(-109.981 -421.763)"/><g transform="translate(4.991)"><path class="u" d="M210.339,459.543c-16.042-1.339-80.873-5.227-96.832-5.334-.13,0-.135.087-.006.1,15.872,1.673,80.73,5.037,96.823,5.494C210.664,459.815,210.677,459.57,210.339,459.543Z" transform="translate(-113.407 -411.887)"/><path class="u" d="M162.779,436.066c-6.253-1.55-14.042-1.036-19.137,3.178-.2.163.038.441.246.389a89.122,89.122,0,0,1,18.818-2.77A.4.4,0,0,0,162.779,436.066Z" transform="translate(-99.639 -420.536)"/><path class="l" d="M165.8,438.136c-6.253-1.55-14.042-1.036-19.137,3.178-.2.163.038.441.246.389a89.133,89.133,0,0,1,18.818-2.77A.4.4,0,0,0,165.8,438.136Z" transform="translate(-98.259 -419.591)"/><path class="l" d="M168.823,440.206c-6.253-1.55-14.042-1.036-19.137,3.178-.2.163.038.441.246.389A89.232,89.232,0,0,1,168.75,441,.4.4,0,0,0,168.823,440.206Z" transform="translate(-96.88 -418.646)"/><g transform="translate(30.823)"><path class="l" d="M169.342,427.4c-2.284-3.563-7-2.3-9.769-.237a33.742,33.742,0,0,0-10.587,13.888.168.168,0,0,0,.135.236c-.01.482.392,1.015.945.848,5.334-1.624,11.238-2.7,15.914-5.909C168.71,434.348,171.5,430.767,169.342,427.4Zm-11.693,10.621c-2.6.862-5.235,1.592-7.805,2.549a101.01,101.01,0,0,1,6.362-7.976,36.378,36.378,0,0,1,3.563-3.417c1.981-1.6,9.641-4.8,8.12,2.062C167.049,435.02,160.753,436.989,157.649,438.017Z" transform="translate(-127.995 -425.152)"/><path class="l" d="M139.589,437.78c5.08,2.524,11.077,2.763,16.585,3.625.572.09.894-.5.817-.97a.168.168,0,0,0,.1-.253,33.778,33.778,0,0,0-12.433-12.273c-3.031-1.652-7.878-2.244-9.639,1.6C133.355,433.149,136.624,436.306,139.589,437.78ZM137,433.11c-2.47-6.582,5.564-4.485,7.75-3.178a36.549,36.549,0,0,1,4.008,2.885,101.293,101.293,0,0,1,7.418,7.009c-2.68-.59-5.386-.944-8.087-1.433C144.874,437.809,138.361,436.738,137,433.11Z" transform="translate(-134.57 -424.477)"/></g></g></g></g><path class="u" d="M82.655,352.156c18.793,20.936,81.936,4.4,85.712,12.731,3.325,7.347-39.764,125.342-39.764,125.342l68.953,7.434S257.077,367.349,235.8,329.7c-11.492-20.336-62.132-12.227-92.693-15.949-9.218-1.123-13.547-20.133-13.547-20.133H74.953S61.174,328.228,82.655,352.156Z" transform="translate(-70.601 -293.617)"/><path class="l" d="M216.632,318.031l-57.9,44.309c-19.23-.406-61.318,6.254-76.071-10.188-21.488-23.931-7.709-58.532-7.709-58.532h54.608s4.33,19.009,13.544,20.132C164.553,316.355,195.873,313.148,216.632,318.031Z" transform="translate(-70.601 -293.616)"/><path class="l" d="M178.715,425.082c-1.905-.6-19.784-2.59-23.727-3.015-7.893-.852-32.742-3.174-37.245-3.162a.107.107,0,0,0-.022.21c3.911.82,19.769,2.671,23.712,3.076,7.9.813,35.052,3.446,37.246,3.228A.172.172,0,0,0,178.715,425.082Z" transform="translate(-49.126 -236.421)"/><path class="l" d="M174.015,356.676c-4.434-2.205-38.041-1.114-62.155-3.372-7.858-.736-15.738-2.412-21.736-7.561A35.94,35.94,0,0,1,79.39,328.066c-2.317-8.24-2.077-16.831-1.682-25.272.1-2.077.242-4.152.373-6.228.007-.118-.207-.143-.221-.022-1.834,15.116-3.236,32.005,6.6,45.107a31.577,31.577,0,0,0,17.579,11.53c14.545,3.828,69.224,2.878,71.154,4.354,2.3,1.758-33.053,109.383-33.755,111.432-.131.386.545.645.706.264C143.625,460.968,177.874,358.6,174.015,356.676Z" transform="translate(-67.887 -292.317)"/><path class="l" d="M194.345,325.7c-3.251-8.253-10.666-13.39-21.575-15.358-.184-.032-.17.236.007.288,9.518,2.783,16.323,6.611,20.066,14.645,1.748,3.751,2.654,9.022,3.107,16.087,2.26,35.236-28.488,115.228-29.113,116.62a.107.107,0,0,0,.186.1C171.357,450.8,207.768,359.768,194.345,325.7Z" transform="translate(-26.673 -285.981)"/></g><path class="u" d="M263.385,455.116l-52.21,11.1s41.192-122.937,21.845-138.8c-5.363-4.4-17.054-5.932-30.949.068-20.744,8.958-44.756,27.23-67.393,33.909-21.2,6.257-46.367.5-55.029-9.032C61.453,332.341,75.14,294.49,75.14,294.49l71.6-2.818s.322.91,3.9,4.088c0,0,46.18-10.006,65.357,1.71C250.589,318.6,263.385,455.116,263.385,455.116Z" transform="translate(-70.201 -291.672)"/><g transform="translate(6.973 5.402)"><path class="l" d="M102.223,296.65a.135.135,0,0,0-.262.041,42.256,42.256,0,0,1-.65,8.42,14.568,14.568,0,0,1-3.778,7c-4.115,4.164-10.021,5.581-15.417,7.283-.285.09-.233.593.086.543,5.988-.92,12.286-2.438,16.661-6.93a14.564,14.564,0,0,0,3.873-7.536A17.981,17.981,0,0,0,102.223,296.65Z" transform="translate(-71.82 -294.844)"/><path class="l" d="M189.452,315.382c-8.03-5.037-20.578-1.21-26.584,1.091-.127.048-.068.251.061.2,5.526-1.988,19.28-5,26.631.211,16.989,12.037-5.749,94.341-20.658,139.641-.233.706.329.52.641-.163C172,451,191.221,393.755,196.234,355.889,197.006,350.066,201.026,322.644,189.452,315.382Z" transform="translate(-34.902 -287.382)"/><path class="l" d="M211.643,394.356c-1.577-.039-15.11,2.944-18.088,3.614-5.964,1.344-19.782,4.922-23.006,6.152-.086.034-.034.211.06.2,3.1-.294,10.3-1.875,13.272-2.565,5.959-1.384,26.364-6.28,27.859-7.079C211.871,394.61,211.8,394.361,211.643,394.356Z" transform="translate(-31.384 -250.197)"/><path class="l" d="M226.984,321.246c-5.4-2.955-11.831-3.436-17.828-2.7-6.358.782-12.4,3.04-18.217,5.7-12.214,5.584-23.848,12.408-36.076,17.962-12.159,5.523-25.139,9.846-38.541,10.258C104.868,352.82,90.37,350.8,83,340.5,71.658,324.622,78.268,297.25,78.4,295.48c.01-.137-.173-.128-.208,0-8.8,33.648,2.523,46.71,10.168,52.206,6.069,4.364,14.794,5.463,20.554,5.95,13.331,1.126,26.694-2.137,39.048-7.058,12.664-5.044,24.539-11.834,36.671-18.04,11.633-5.95,24.6-12.088,37.884-8.679a32.985,32.985,0,0,1,4.418,1.512C227,321.4,227.051,321.282,226.984,321.246Z" transform="translate(-74.988 -295.381)"/></g></g><g transform="translate(43.818 12.439)"><path class="l" d="M156.6,260.441a.645.645,0,0,1-.519.677c-.741.055-1.634.109-2.635.173-2.362-6.146-4.91-11.03-4.243-9.124a31.576,31.576,0,0,1,1.653,9.282c-1.162.067-3.855.2-5.2.259-2.052-10.823-4.683-18.85-4.518-16.373.663,9.99.073,13.2-.62,16.633-12.558.591-29.031,1.186-40.948,1.36-1.379-5.983-2.585-12.46-2.794-12.007-1.624,3.385-2.064,8.289-2.1,12.067-3.794.029-6.827-.017-8.675-.14,0,0-.888-5.031-1.017-6.685A34.593,34.593,0,0,1,86.3,243.958c1.26-4.2,3.44-7.9,5.507-11.7a.339.339,0,0,1,.051-.083c0-.013.009-.016.016-.032a35.628,35.628,0,0,0,3.168-7.808.217.217,0,0,0,.02-.06,34.3,34.3,0,0,0,.979-6c.551-7.392,4.71-13.787,11.655-15.745,13.114-12.364,26.258-7.181,30.23,2.291.383.923.754,1.982,1.114,3.137l.01.036c1.346,4.269,2.55,9.811,3.665,14.093a.018.018,0,0,0,.007.025c-.009.016-.006.028.013.048l0,.012a40.425,40.425,0,0,0,1.56,4.948C147.618,234.83,155.193,239.2,156.6,260.441Z" transform="translate(-83.359 -195.258)"/><path class="l" d="M105.146,201.665c-4.557,2.38-7.351,5.854-8.056,11.25-.411,3.145-.619,6.213-1.824,9.182a32.577,32.577,0,0,1-5.243,8.089c-3.22,3.991-5.466,7.963-5.964,13.259-.505,5.377-.245,11.721,1.57,16.735a.023.023,0,0,0,.044-.016c-1.473-5.083-1.513-12.126-.609-17.455.993-5.852,4.3-9.539,7.693-13.991a24.417,24.417,0,0,0,4.977-11.949c.339-2.667.3-5.442,1.371-7.954,1.279-3,3.832-4.91,6.364-6.605A.317.317,0,0,0,105.146,201.665Z" transform="translate(-83.831 -192.351)"/><path class="l" d="M135,231.414c-3.217-4.186-6.569-7.753-8.455-12.951-1.717-4.735-2.7-9.74-4.451-14.469a.06.06,0,1,0-.115.036c2.7,8.4,3.22,16.877,8.649,23.935,2.949,3.836,5.9,7.39,7.845,11.993a41.05,41.05,0,0,1,3.06,15.191.13.13,0,1,0,.259,0A33.965,33.965,0,0,0,135,231.414Z" transform="translate(-66.417 -191.29)"/></g><g transform="translate(77.336 38.551)"><g transform="translate(1.588)"><g transform="translate(61.363)"><path class="u" d="M166.134,214.945,150.325,253.81a1.455,1.455,0,0,0,1.025,2.329l20.79,2.919a3.4,3.4,0,0,0,3.184-1.738l15.809-38.864a1.454,1.454,0,0,0-1.022-2.329l-20.79-2.919A3.4,3.4,0,0,0,166.134,214.945Z" transform="translate(-150.064 -213.186)"/><path class="v" d="M167.831,215.168l-15.809,38.864a1.455,1.455,0,0,0,1.024,2.329l20.79,2.919a3.4,3.4,0,0,0,3.185-1.738l15.809-38.864a1.454,1.454,0,0,0-1.024-2.329l-20.79-2.919A3.4,3.4,0,0,0,167.831,215.168Z" transform="translate(-149.289 -213.084)"/><path class="l" d="M167.641,217.079a1.784,1.784,0,1,1-1.474-2.048A1.784,1.784,0,0,1,167.641,217.079Z" transform="translate(-143.658 -212.354)"/></g><path class="t" d="M109.785,256.055c8.011,26.779,29.537,63.217,40.43,64.991,5.182.845,14.271,3.471,21.976-1.477,16.817-10.8,32.968-33.845,37.635-47.724,1.659-4.936-21.369-19.608-25.629-16.023-9.974,8.4-22.727,25.887-24.22,25.547-5.523-1.26-24.65-22.716-37.984-37.805C105.8,225.244,106.593,245.383,109.785,256.055Z" transform="translate(-107.934 -202.698)"/><g transform="translate(58.615 8.963)"><path class="t" d="M185.518,252.341c-1.072-10.685-2.987-13.264.9-22.762,2.549-6.232-.336-10.535-5.7-6.029-8.77,7.369-10.282,21.444-9.4,26.475Z" transform="translate(-137.714 -218.27)"/><g transform="translate(8.831)"><path class="t" d="M186.821,283.76s6.741-13.659,6.725-25.158c-.012-7.953-1.963-25.252-22.425-37.284-4.853-2.855-13.792-3.48-7.558,4.061,4.426,5.356,8.853,7.415,10.861,11,0,0-11.466.553-14.135,5.526A103.916,103.916,0,0,0,154.24,255.4a22.037,22.037,0,0,0,2.424,1.357s-2.354,4.735.281,12.344Z" transform="translate(-154.24 -219.34)"/></g><path class="t" d="M195.091,247.357c-2.746-3.136-8.676-9.686-15.39-13.356-7.459-4.077-22.924-9.92-25.876-4.384-2.164,4.059,3.544,6.811,3.544,6.811s-6.9-1.069-8.055,3.027c-1.052,3.732,3.491,5.594,3.491,5.594s-4.3.071-4.617,3.861c-.386,4.557,8.684,3.659,12.283,8.612C161.28,258.634,195.091,247.357,195.091,247.357Z" transform="translate(-148.177 -215.683)"/><g transform="translate(9.154 20.64)"><path class="l" d="M173.84,239.787c-3.066-2.527-11.5-6.477-19.191-6.269-.175,0-.264.138-.1.169a83.323,83.323,0,0,1,19.255,6.17C173.843,239.878,173.873,239.815,173.84,239.787Z" transform="translate(-154.461 -233.511)"/></g><g transform="translate(4.487 29.169)"><path class="l" d="M170.968,244.522c-2.869-1.908-11.744-5.592-19.53-5.112-.173.012-.255.151-.093.175a89.354,89.354,0,0,1,19.589,5.01C170.977,244.612,171,244.547,170.968,244.522Z" transform="translate(-151.257 -239.367)"/></g></g></g><g transform="translate(0 33.427)"><path class="w" d="M209,282.335s-26.217,36.88-38.65,39.744-19.324.775-23.593-.539a11.939,11.939,0,0,1-4.288-2.926c-10.579-10.231-27.3-43.32-33.383-61.421-4.565-13.607-2.128-24.938,7.108-19.79a33.232,33.232,0,0,1,8.168,7.133c15.738,17.783,34.479,35.284,35.548,34.913s13.885-15.21,13.885-15.21Z" transform="translate(-106.843 -236.136)"/><path class="l" d="M182.85,277.923c-1.228-.945-13.163-7.779-15.787-9.208s-13.3-7.374-16.128-8.623a.108.108,0,0,0-.108.188c2.542,1.751,13.294,7.778,15.937,9.288s14.6,8.009,16.006,8.542C182.89,278.155,182.933,277.987,182.85,277.923Z" transform="translate(-86.788 -225.205)"/><path class="a" d="M148.431,264.364a189.424,189.424,0,0,1-28.213,16.866c-2.33-4.457-4.573-9.016-6.6-13.444a165.325,165.325,0,0,0,24.12-13.837C141.7,257.941,145.372,261.509,148.431,264.364Z" transform="translate(-103.75 -228.004)"/><path class="x" d="M179.184,316.8c-3.292,2.753-6.336,4.7-8.841,5.273-12.41,2.869-19.313.772-23.581-.539a11.641,11.641,0,0,1-4.3-2.928c-10.574-10.225-27.3-43.317-33.383-61.421-4.136-12.337-2.52-22.794,4.69-20.8C130.245,256.5,161.545,295.055,179.184,316.8Z" transform="translate(-106.843 -236.134)"/></g></g><g transform="translate(23.966 68.165)"><path class="w" d="M149.383,296.252l2.872,23.773L70.2,325.337s19-68.992,33.838-84.271c10.041-10.337,21.481-9.24,28.587-1.637,1.8,1.924,20.509,24.716,22.537,35.91C156.928,285.216,149.383,296.252,149.383,296.252Z" transform="translate(-70.201 -233.518)"/><path class="a" d="M149.456,278.438c-15.585,2.214-47.8,5.593-71.646.2,2.214-6.452,4.646-13.138,7.181-19.488A224.774,224.774,0,0,0,149.4,257.77a26.894,26.894,0,0,1,2.287,6.5C152.573,269.2,151.116,274.447,149.456,278.438Z" transform="translate(-66.727 -222.447)"/><g transform="translate(74.432 21.574)"><path class="l" d="M127.634,302.576c-.724-4.337-1.363-8.687-1.966-13.04l-.019-.135.09-.141a39.256,39.256,0,0,0,4.71-10.048,26.663,26.663,0,0,0,1.027-5.427,16.974,16.974,0,0,0-.293-5.462,28.282,28.282,0,0,0-1.678-5.286,55.062,55.062,0,0,0-2.351-5.083,98.346,98.346,0,0,0-5.851-9.623,67.53,67.53,0,0,1,6.468,9.284,37.473,37.473,0,0,1,4.393,10.5,21.78,21.78,0,0,1-.731,11.394,35.814,35.814,0,0,1-5.066,10.213l.073-.277C126.89,293.814,127.3,298.191,127.634,302.576Z" transform="translate(-121.304 -248.33)"/><path class="l" d="M124.173,250.49a20.872,20.872,0,0,1,2.2,4.193,18.231,18.231,0,0,1,.738,2.256,8.952,8.952,0,0,1,.347,2.361c-.568-1.481-1.189-2.894-1.762-4.351A42.069,42.069,0,0,1,124.173,250.49Z" transform="translate(-119.994 -247.344)"/></g></g><g transform="translate(0 69.919)"><path class="w" d="M113.952,236.754c-28.894,14.669-62.068,47.79-60.123,58.811,2.166,12.277,43.69-8.464,43.266-10.308-.358-1.567,8.365-14.752,20.837-33.641C130.618,232.4,121.1,233.127,113.952,236.754Z" transform="translate(-53.747 -234.722)"/><path class="a" d="M101.076,262.119c-3.831,5.928-6.613,10.4-7.894,12.934a209.6,209.6,0,0,1-29.1-11.914c3.423-3.6,7.3-7.3,11.448-10.938A169.156,169.156,0,0,0,101.076,262.119Z" transform="translate(-49.03 -226.743)"/><g transform="translate(0.007 21.555)"><g transform="translate(0 26.622)"><path class="s" d="M53.826,280.465c2.537,8.573,15.32,14.316,46.148,31.8,4.266,2.419,29.438-23.095,25.016-25.911-5.571-3.548-27.958-16.115-29.711-16.827C80.492,263.52,52.106,274.65,53.826,280.465Z" transform="translate(-53.752 -267.799)"/><g transform="translate(33.908 14.845)"><path class="t" d="M108.267,277.991s13.269,6.782,19.137,12.5c7.859,7.66,11.49,17.509,12.762,21.728,2.657,8.808,2.989,31.938-3.657,33.2-6.015,1.139-5.16-22.522-5.16-22.522s3.11,24.267-4.386,24.308-4.941-27.371-4.941-27.371,2.635,25.005-5.1,23.824c-5.845-.893-4.93-25.85-4.93-25.85s2.116,21.51-3.936,20.85c-6.687-.728-7.287-23.818-7.287-23.818-15.1-4.266-20.546-12.474-23.724-18.775C76.276,294.54,108.267,277.991,108.267,277.991Z" transform="translate(-77.032 -277.991)"/><g transform="translate(34.215 35.863)"><path class="l" d="M113.989,303.028c.468,2.837.961,5.707,1.175,8.576s.329,5.747.277,8.624a49.142,49.142,0,0,1-1.273,11.173c1.031-6.613.422-16.9.208-19.766s-.285-5.739-.5-8.6C113.874,302.96,113.978,302.96,113.989,303.028Z" transform="translate(-94.425 -302.448)"/><path class="l" d="M106.86,303.427c.441,3.65,1.012,7.256,1.293,10.925.278,3.651.223,7.141.251,10.8,0,.281-.15.189-.165-.093-.172-3.657-.615-7.025-.83-10.681s-.29-7.319-.638-10.95C106.767,303.374,106.853,303.371,106.86,303.427Z" transform="translate(-97.671 -302.261)"/><path class="l" d="M100.717,302.683a82.149,82.149,0,0,1,.7,16.856c-.01.28-.192.14-.2-.147-.127-5.608-.186-10.008-.693-16.677C100.516,302.611,100.7,302.566,100.717,302.683Z" transform="translate(-100.523 -302.614)"/></g></g></g><g transform="translate(0.067)"><g transform="translate(0 26.561)"><path class="w" d="M125.488,283.4s-35.5,27.039-35.878,26.9-35.245-20.614-35.8-29.812,28.316-16.081,41.426-11S125.488,283.4,125.488,283.4Z" transform="translate(-53.798 -267.757)"/><path class="l" d="M104.032,275.811c-1.39.835-12.6,9.865-14.989,11.878s-12.255,10.155-14.549,12.434a.114.114,0,0,0,.141.178c2.676-1.812,12.645-9.995,15.126-12s13.368-11.176,14.424-12.345C104.274,275.86,104.127,275.754,104.032,275.811Z" transform="translate(-44.367 -264.088)"/></g><g transform="translate(25.539)"><path class="l" d="M71.419,268.128c3.047-.482,11.431-1.183,18.233,2.23.076.038.041.135-.041.106-5.858-2.093-15.146-2.475-18.166-2.226C71.367,268.244,71.344,268.141,71.419,268.128Z" transform="translate(-71.313 -241.213)"/><g transform="translate(17.828)"><path class="y" d="M109.7,293.388l2.191-1.668A301.541,301.541,0,0,0,83.572,278.1a272.786,272.786,0,0,1,17.666-28.575" transform="translate(-83.572 -249.521)"/><path class="z" d="M90.819,258.56c.226-.093,5.924-5.844,5.924-5.844" transform="translate(-80.264 -248.062)"/></g><path class="z" d="M71.332,292.6s6.078,3.909,8.175,5.136" transform="translate(-71.332 -229.857)"/></g></g></g></g><g transform="translate(52.326)"><path class="t" d="M92.852,239.02s14.944,13.559,25.681,12.912,9.134-9.416,9.134-9.416l-10.641-7.556a31.988,31.988,0,0,0-7.535-1.441C99,233.681,92.852,239.02,92.852,239.02Z" transform="translate(-88.221 -165.354)"/><g transform="translate(17.888 49.823)"><path class="t" d="M101.96,244.043c.386,2.157,5.491,11.939,12.066,11.719,3.379-.114,3.446-11.955,3.446-11.955l.167-.871,2.33-12.185-5.1-3.022-11.488-6.8S101.849,243.429,101.96,244.043Z" transform="translate(-101.954 -220.924)"/><path class="l" d="M102.548,229.325a24.922,24.922,0,0,0,14.826,13.614l2.33-12.187-16.6-9.827S102.839,224.767,102.548,229.325Z" transform="translate(-101.683 -220.925)"/></g><path class="t" d="M138.424,222.766c1.9,21.69-10.873,25.281-15.551,25.686-4.246.369-18.753,1.082-22.888-20.3s5.348-29.12,15.017-30.476S136.52,201.074,138.424,222.766Z" transform="translate(-85.419 -181.811)"/><g transform="translate(33.249 33.771)"><path class="l" d="M124.477,212.226a14.117,14.117,0,0,1-1.48-.267,2.435,2.435,0,0,1-1.458-.562.776.776,0,0,1-.025-.945,1.921,1.921,0,0,1,1.879-.5,2.827,2.827,0,0,1,1.8.945A.827.827,0,0,1,124.477,212.226Z" transform="translate(-108.452 -209.904)"/><path class="l" d="M114.24,212.573a14.244,14.244,0,0,0,1.462-.352,2.436,2.436,0,0,0,1.423-.644.776.776,0,0,0-.029-.945,1.921,1.921,0,0,0-1.907-.395,2.821,2.821,0,0,0-1.741,1.049A.826.826,0,0,0,114.24,212.573Z" transform="translate(-112.142 -209.79)"/><g transform="translate(0 6.714)"><g transform="translate(1.971)"><path class="l" d="M116.489,215.532c-.015-.057-.112.076-.108.137.125,1.477.019,3.191-1.295,3.753-.041.017-.032.09.016.082C116.725,219.188,116.844,216.913,116.489,215.532Z" transform="translate(-113.302 -214.055)"/><path class="l" d="M115.637,214.514c-2.392-.057-2.328,4.729-.112,4.782C117.7,219.347,117.64,214.561,115.637,214.514Z" transform="translate(-113.853 -214.514)"/></g><path class="l" d="M115.318,214.731c-.415.277-.819.759-1.321.816-.583.066-1.03-.43-1.417-.906-.039-.05-.08-.007-.08.055,0,.918.363,1.854,1.349,1.978.9.112,1.531-.708,1.748-1.633C115.636,214.869,115.484,214.619,115.318,214.731Z" transform="translate(-112.5 -214.466)"/></g><g transform="translate(13.216 6.175)"><g transform="translate(0 0.093)"><path class="l" d="M121.669,215.284c.012-.057.117.07.115.131-.038,1.481.166,3.187,1.51,3.672.042.015.038.089-.012.083C121.644,218.949,121.4,216.683,121.669,215.284Z" transform="translate(-121.573 -213.723)"/><path class="l" d="M122.975,214.214c2.383-.194,2.6,4.587.387,4.767C121.189,219.157,120.977,214.377,122.975,214.214Z" transform="translate(-121.563 -214.208)"/></g><path class="l" d="M123.312,214.513c.389.237.782.68,1.235.69.524.01.888-.523,1.2-1.034.032-.052.071-.015.076.048.066.913-.194,1.879-1.065,2.093-.794.2-1.416-.562-1.675-1.462C123.036,214.68,123.154,214.418,123.312,214.513Z" transform="translate(-120.889 -214.144)"/></g><path class="l" d="M115.8,223.56c.274.414.519.955,1.036,1.114a3.954,3.954,0,0,0,1.637-.029.052.052,0,0,1,.047.087,2,2,0,0,1-2.01.39,1.581,1.581,0,0,1-.864-1.526C115.637,223.506,115.755,223.5,115.8,223.56Z" transform="translate(-111.066 -203.688)"/><g transform="translate(6.198 0.053)"><path class="l" d="M121.905,224.362s.361,2.207.389,3.251a5.618,5.618,0,0,1-5.511-1.551c-.087-.09.054-.211.151-.149A7.477,7.477,0,0,0,121.5,227.1c.067-.291-.744-3.758-.58-3.774a9.115,9.115,0,0,1,2.384.478c-.619-4.617-1.974-9.1-2.521-13.7a.143.143,0,0,1,.271-.076c1.752,4.6,2.581,9.893,3.344,14.645C124.5,225.261,122.328,224.53,121.905,224.362Z" transform="translate(-116.755 -209.94)"/></g><g transform="translate(5.685 16.065)"><path class="l" d="M121.026,222.519a5.387,5.387,0,0,1-2.148,1.688,2.42,2.42,0,0,1-1.474.1c-1.069-.272-1.1-1.251-.912-2.09a5.814,5.814,0,0,1,.469-1.285A6.994,6.994,0,0,0,121.026,222.519Z" transform="translate(-116.403 -220.934)"/><path class="aa" d="M118.878,223.8a2.42,2.42,0,0,1-1.474.1c-1.069-.272-1.1-1.251-.912-2.09A2.509,2.509,0,0,1,118.878,223.8Z" transform="translate(-116.403 -220.531)"/></g></g><path class="l" d="M106.539,205.308c1.92-.553,4.489-10.842-1.985-16.333-6.377-5.408-15.688-.489-12.659,8.336C93.81,202.887,102.478,206.479,106.539,205.308Z" transform="translate(-88.927 -186.718)"/><path class="l" d="M95.764,187.341a11.7,11.7,0,0,0-4.458,6.308,7.062,7.062,0,0,0,1.566,6.876,14.273,14.273,0,0,0,6.556,3.852,21.832,21.832,0,0,0,3.876.779,10.838,10.838,0,0,0,3.981-.134,9.492,9.492,0,0,1-4.008.864,17.668,17.668,0,0,1-4.135-.382,13.756,13.756,0,0,1-7.377-3.984A7.864,7.864,0,0,1,90.2,193.3,10.327,10.327,0,0,1,95.764,187.341Z" transform="translate(-89.672 -186.433)"/><g transform="translate(11.032 13.482)"><path class="l" d="M102,228.231c4.055.581,5.254-8.711,5.254-8.711s17.366-2.646,19.07-16.722a23.858,23.858,0,0,0,11.818,13.257s-.347-15.468-12.551-18.675c0,0-15.116-5.79-23.866,6.135S99.277,227.841,102,228.231Z" transform="translate(-97.247 -195.974)"/><path class="l" d="M122.194,199.944a15.335,15.335,0,0,1-.88,6.423,15.967,15.967,0,0,1-3.365,5.64,13.432,13.432,0,0,1-1.189,1.151l-.609.558c-.218.169-.444.326-.67.485-.454.309-.9.639-1.36.931-.482.261-.97.511-1.459.756-.245.121-.485.252-.734.363l-.768.283-1.532.559c-1.05.274-2.113.494-3.168.695,1-.418,2.026-.727,3-1.146l1.445-.674.721-.335c.232-.127.452-.274.679-.411.449-.278.9-.552,1.353-.814.431-.3.837-.632,1.258-.945l.626-.472.57-.54a13,13,0,0,0,1.11-1.1,18.322,18.322,0,0,0,3.386-5.249,19.139,19.139,0,0,0,1.021-3A18.56,18.56,0,0,0,122.194,199.944Z" transform="translate(-93.041 -194.162)"/></g><g transform="translate(9.358 39.603)"><path class="t" d="M105.108,219.274s-4.758-6.792-7.84-5.093.5,11.546,4.122,12.89a3.681,3.681,0,0,0,4.932-1.984Z" transform="translate(-96.098 -213.908)"/><path class="l" d="M97.67,216.015a.05.05,0,0,0-.019.1c2.54,1.025,3.879,3.379,4.817,5.819a2.032,2.032,0,0,0-3.041-.553c-.067.048,0,.151.068.135a2.267,2.267,0,0,1,2.494.788,10.959,10.959,0,0,1,1.2,2.016c.118.227.529.1.441-.156l-.02-.06C103.667,220.865,101.145,216.338,97.67,216.015Z" transform="translate(-95.403 -212.946)"/><g transform="translate(5.671 11.174)"><path class="v" d="M100.024,222.76a.934.934,0,1,0,.657-1.148A.934.934,0,0,0,100.024,222.76Z" transform="translate(-99.991 -221.579)"/><path class="l" d="M100.345,222.476a.442.442,0,1,0,.312-.543A.443.443,0,0,0,100.345,222.476Z" transform="translate(-99.837 -221.425)"/></g><path class="v" d="M98.9,221.87a.661.661,0,1,0,.465-.811A.661.661,0,0,0,98.9,221.87Z" transform="translate(-94.83 -210.654)"/></g></g></g></g></g><g transform="translate(483.581 431.077)"><g transform="translate(12.231)"><path class="n" d="M420.585,337.071a72.536,72.536,0,0,1-1.411,27.9,76.56,76.56,0,0,1-4.275,12.334c-2.218,5.105-4.539,10.089-3.979,15.675.539.36-1.311.3-1.372-.242-14.925-8.5-34.066-10.054-45.554-23.951-5.44-6.578-8.184-14.918-9.486-23.259-1.413-9.083-1.8-19.139.539-28.09,1.974-7.57,6.4-14.874,13.514-18.582,7.342-3.819,16.96-3.5,24.692-1.1C409.932,302.938,418.227,320.936,420.585,337.071Z" transform="translate(-353.368 -295.964)"/><g transform="translate(9.963 16.452)"><path class="l" d="M424.292,442.406c-2.038-6.789-4.072-13.579-6.164-20.352-4.1-13.266-8.353-26.482-13.065-39.543q-4.234-11.737-8.934-23.246c.535-4.82.744-9.623,1.781-14.427,1.248-5.787,3.062-11.377,4.75-17.04.1-.348-.462-.532-.6-.2-3.351,7.8-7.724,17.784-7.833,27.026q-5.468-13.023-11.732-25.678c-.236-7.188-.5-14.153.657-21.386a.256.256,0,0,0-.5-.1,75.761,75.761,0,0,0-1.461,18.879q-4.813-9.5-10.185-18.754c-.323-.555-1.091.013-.807.559,5.609,10.8,10.813,21.829,15.694,33a71.807,71.807,0,0,0-23.4-13.553c-.371-.133-.651.406-.274.564a85.189,85.189,0,0,1,25.311,16.759q5.265,12.272,10.034,24.742c-9.339-9.156-22.12-15.18-34.483-18.41-.421-.109-.532.536-.127.658,14.306,4.307,25.421,12.418,36.3,22.162q1.894,5.04,3.72,10.1,6.915,19.187,13.17,38.6,3.011,9.3,5.925,18.633c2.087,6.693,3.718,13.761,6.436,20.224.259.618,1.369.476,1.228-.264C428.5,454.955,426.168,448.654,424.292,442.406Z" transform="translate(-359.375 -307.26)"/><path class="l" d="M389.466,315.275a37.115,37.115,0,0,0-5.377,13.4c-.023.124.169.2.214.073a115.442,115.442,0,0,1,5.829-13.148C390.356,315.163,389.717,314.889,389.466,315.275Z" transform="translate(-349.307 -303.685)"/><path class="l" d="M373.739,337.982a39.342,39.342,0,0,0-13.4-4.509c-.121-.016-.2.162-.071.214,2.154.893,4.416,1.518,6.6,2.355s4.324,1.861,6.537,2.632A.385.385,0,0,0,373.739,337.982Z" transform="translate(-360.208 -295.294)"/><path class="l" d="M365.8,311.724a26.237,26.237,0,0,0-4.31-2.661.229.229,0,0,0-.248.377,26.225,26.225,0,0,0,4.247,2.756C365.764,312.36,366.07,311.9,365.8,311.724Z" transform="translate(-359.771 -306.445)"/></g></g><g transform="translate(81.682 10.284)"><path class="n" d="M448.567,384.543c-10.751,3.191-21.556,6.141-32.3,9.3-.934.28-19.107-34.544-12.539-52.483,6.071-16.6,19.967-29.031,36.538-34.671,7.676-2.609,17.113-4.8,25.221-3.009,7.21,1.595,12.3,7.5,14.645,14.277,3.191,9.215,2.128,20.208.392,29.617-1.614,8.725-4.806,17.318-10.577,24.172C464.232,378.528,456.946,382.059,448.567,384.543Z" transform="translate(-400.481 -303.025)"/><g transform="translate(0 9.94)"><path class="l" d="M464.721,344.744a143.553,143.553,0,0,1-21.077,8.3c-4.569,1.468-9.689,2.794-14.07,5.093,4.539-10.121,9.521-20.03,14.808-29.851,6.945-2.01,14.249-5.143,19.487-10.059a.3.3,0,0,0-.392-.452c-5.729,4.048-12.045,6.479-18.383,9.215,1.432-2.644,2.871-5.283,4.343-7.916.411-.731-.6-1.459-1.091-.747a226.951,226.951,0,0,0-15.274,25.652,117.37,117.37,0,0,1-1.106-23.5.157.157,0,0,0-.313-.023,78.307,78.307,0,0,0,.265,25.827c-3.769,7.526-7.205,15.234-10.29,23.039-1.226-4.69-2.82-9.306-3.883-14.034a64.513,64.513,0,0,1-1.544-20.694c.02-.2-.28-.217-.313-.022-2.084,12.337-.182,26.267,4.511,37.987-1.8,4.7-3.512,9.415-5.079,14.14a281.855,281.855,0,0,0-14.269,74.587.456.456,0,0,0,.909.066,369.922,369.922,0,0,1,16.02-73.708c3.118-9.373,6.706-18.473,10.643-27.4,6.349-1.876,12.675-4.422,18.911-6.582,6.085-2.108,12.321-4.544,17.429-8.545C465.163,344.952,464.944,344.632,464.721,344.744Z" transform="translate(-401.051 -306.261)"/><path class="l" d="M457.769,329.329c-6.573,2.339-12.806,5.612-19.373,7.983-.307.111-.128.6.181.535,6.95-1.435,13.843-3.583,19.443-8.14C458.235,329.532,458,329.249,457.769,329.329Z" transform="translate(-384.074 -300.963)"/><path class="l" d="M415.629,319.706c.079-.35-.431-.549-.537-.191-1.8,6.061-3.047,12.491-1.293,18.686.068.243.452.25.465-.029C414.579,331.931,414.229,325.857,415.629,319.706Z" transform="translate(-395.617 -305.523)"/><path class="l" d="M434.34,310.032c-2.2,2.813-3,6.806-2.853,10.3.01.232.379.366.443.093.8-3.466,2.14-6.627,3.2-9.995A.45.45,0,0,0,434.34,310.032Z" transform="translate(-387.163 -309.849)"/></g></g><g transform="translate(0 85.605)"><path class="n" d="M346.869,376.3c3.152,10,10.64,23.829,22.5,23.938,7.689.073,15.432-.838,23.137-.947,8.253-.128,16.524-.109,24.759.382.674.036-.989-24.713-20.824-36.764-5.557-3.376-12.351-4.445-18.655-5.811a86.371,86.371,0,0,0-22.044-2.3c-4.555.182-8.343,1.148-9.965,5.812C344.081,365.491,345.357,371.54,346.869,376.3Z" transform="translate(-344.97 -354.738)"/><g transform="translate(6.277 4.316)"><path class="l" d="M352.326,362.424c4.82,1.24,9.683,2.664,14.52,4.2a50.529,50.529,0,0,0-4-3.9c-2.077-1.727-4.362-3.107-6.591-4.62-.186-.125-.076-.484.165-.389a27.184,27.184,0,0,1,11.7,9.3c6.029,1.947,12,4.1,17.746,6.455a66.841,66.841,0,0,1,11.364,5.983,45.883,45.883,0,0,0-4.112-7.154c-2.632-3.411-6.195-5.312-9.639-7.734a.306.306,0,0,1,.309-.529c7.782,3.459,12.516,9.074,15.468,16.773a66.042,66.042,0,0,1,11.25,10.216c13.123,14.906,23.459,34.739,23.5,54.976,0,.482-.773.619-.867.116-3.724-20.1-11.664-38.153-25.027-53.756-.938-1.1-1.9-2.14-2.885-3.149a90.03,90.03,0,0,0-10.841-.8c-4.222.063-8.413.619-12.616.961-6.924.562-14.581.644-20.825-2.839-.275-.154-.09-.634.219-.521,13.924,5.064,28.527-1.359,42.484,1.66A65.229,65.229,0,0,0,383.06,374.4c-.425-.176-.855-.339-1.28-.513-8.936,1.075-18.371,3.4-27.072.5a.214.214,0,0,1,.114-.412c8.408,2.1,16.473-.54,24.771-.961-9.036-3.517-18.244-6.317-27.31-9.81C351.52,362.909,351.5,362.213,352.326,362.424Z" transform="translate(-348.171 -357.701)"/><path class="l" d="M349.493,366.986a119.785,119.785,0,0,0,13.007.985c.1.006.131.157.025.182a26.962,26.962,0,0,1-13.122-.838A.171.171,0,0,1,349.493,366.986Z" transform="translate(-349.28 -353.464)"/><path class="l" d="M369.748,361.1c2.373.82,4.581,2.831,6.438,4.476.227.2-.077.607-.328.424-1.091-.794-2.214-1.543-3.349-2.275a31.782,31.782,0,0,1-3.134-1.982A.387.387,0,0,1,369.748,361.1Z" transform="translate(-340.16 -356.158)"/></g></g><g transform="translate(75.905 95.251)"><path class="n" d="M417.687,393.179c-.146.328.329.637.511.291.017,0,.017,0,.017-.019a.471.471,0,0,0,.31.2c8.015,1.73,16.068,3.5,24.229,4.227,6.559.583,14.119.947,19.858-2.861,7.779-5.156,12.9-18.948,8.69-27.71-4.973-10.4-19.966-4.754-27.49-1.056A55.188,55.188,0,0,0,417.687,393.179Z" transform="translate(-387.691 -361.361)"/><g transform="translate(0 6.085)"><path class="l" d="M421.264,396.079a77.323,77.323,0,0,1,14.468-11.013c3.547-6.021,8.991-11.023,14.671-14.953.284-.2.527.253.267.454a66.286,66.286,0,0,0-12.363,13.005,136.394,136.394,0,0,1,18.151-8.256,24.156,24.156,0,0,1,9.75-9.77c.082-.042.185.071.1.134a40.038,40.038,0,0,0-8.806,9.242c3.688-1.376,7.412-2.658,11.135-3.893.335-.111.462.4.144.521-6.627,2.59-13.4,5.321-19.969,8.471A76.879,76.879,0,0,0,473,379.951a.178.178,0,0,1,.095.344c-8.135,2.322-17.459,2.751-25.659.383a120.151,120.151,0,0,0-12.171,6.816,30.482,30.482,0,0,1,9.837.8c5.759,1.145,11.39,2.16,17.286,1.958.22-.007.277.352.052.392-10.027,1.725-19.51-2.833-29.448-1.647a76.854,76.854,0,0,0-10.351,8.455,77.748,77.748,0,0,0-15.1,21.3c-4.185,8.515-6.454,17.542-9.834,26.34a.321.321,0,0,1-.618-.17C399.987,427.578,408.624,408.447,421.264,396.079Z" transform="translate(-397.084 -365.539)"/><path class="l" d="M434.454,371.847a11.435,11.435,0,0,1,2.569-3.116,10.134,10.134,0,0,1,2.96-2.217c.1-.038.157.1.1.168-.822.934-1.968,1.617-2.853,2.51s-1.634,1.952-2.539,2.836A.15.15,0,0,1,434.454,371.847Z" transform="translate(-380.031 -365.096)"/><path class="l" d="M445.859,374.5c1.486-.373,3.06-.347,4.572-.655a43.441,43.441,0,0,0,4.434-1.327.179.179,0,0,1,.137.325c-2.441,1.449-6.292,2.683-9.143,2.124A.243.243,0,0,1,445.859,374.5Z" transform="translate(-374.896 -362.359)"/></g></g><g transform="translate(54.849 155.269)"><g transform="translate(3.914 4.077)"><path class="v" d="M385.315,405.366l1.316,14.949,4.467,50.47h39.526l5.58-50.47,1.648-14.949Z" transform="translate(-385.315 -405.366)"/><path class="l" d="M385.315,405.366l1.316,14.949H436.2l1.648-14.949Z" transform="translate(-385.315 -405.366)"/></g><rect class="v" width="60.366" height="12.127" transform="translate(60.366 12.127) rotate(180)"/></g></g></g></svg>