<svg xmlns="http://www.w3.org/2000/svg" width="88" height="85" viewBox="0 0 88 85"><defs><style>.a,.c{fill:#69a82c;}.a{opacity:0.2;}.b{fill:none;}</style></defs><g transform="translate(-136 -2239)"><rect class="a" width="88" height="85" rx="17" transform="translate(136 2239)"/><g transform="translate(157 2258)"><path class="b" d="M0,0H46.24V46.24H0Z"/><path class="c" d="M9.433,10.52a17.028,17.028,0,0,1,21.373,0l2.764-2.784,2.69,2.709L33.5,13.229a17.337,17.337,0,0,1-1.729,23.4,17.029,17.029,0,0,1-23.3,0,17.337,17.337,0,0,1-1.729-23.4L3.98,10.447,6.67,7.737l2.764,2.784ZM20.12,37.408A13.414,13.414,0,1,0,6.8,23.994,13.365,13.365,0,0,0,20.12,37.408Zm1.9-15.329h5.707L18.218,34.533V25.91H12.511l9.511-12.465ZM12.511,1H27.729V4.832H12.511Z" transform="translate(3 1)"/></g></g></svg>