<svg xmlns="http://www.w3.org/2000/svg" width="725.143" height="690.445" viewBox="0 0 725.143 690.445"><defs><style>.a{fill:#ebebeb;}.b{fill:#dbdbdb;}.c{fill:#fff;}.d{fill:#72b74c;}.e,.j{opacity:0.1;}.f{fill:#c7c7c7;}.g,.i,.q,.s{fill:none;}.g,.s{stroke:#263238;}.g,.q{stroke-linecap:round;stroke-linejoin:round;}.h{fill:#629d52;}.i{stroke:#000;}.i,.s{stroke-miterlimit:10;}.k{fill:#f7a9a0;}.l{fill:#37474f;}.m{fill:#263238;}.n{fill:#455a64;}.o{fill:#b55d2c;}.p{fill:#ffc727;}.q{stroke:#f3a59c;stroke-width:0;}.r{fill:#dd6a57;}</style></defs><g transform="translate(-23.111 -43.026)"><g transform="translate(50.68 43.026)"><g transform="translate(58.54)"><g transform="translate(448.944 187.623)"><path class="a" d="M403.032,160.339c-60.2,0-60.3,85.6,0,85.6C463.23,245.942,463.329,160.339,403.032,160.339Z" transform="translate(-357.845 -160.339)"/><path class="b" d="M436.76,208.437c-3.211,14.728-15.422,27.5-36.614,27.5-50.035,0-49.958-71.051,0-71.051.328,0,.654,0,.982.018-47.017.862-46.787,68.148.923,68.148C421.511,233.054,433.107,221.793,436.76,208.437Z" transform="translate(-354.967 -157.612)"/><g transform="translate(28.612 16.644)"><path class="b" d="M392.669,170.746a1.522,1.522,0,0,1,1.563,1.43v2.385a22.38,22.38,0,0,1,11.592,4.171c.585.417.912.776.912,1.371a1.608,1.608,0,0,1-1.694,1.489,1.67,1.67,0,0,1-1.172-.417A19.464,19.464,0,0,0,394.1,177.3v16.684c9.9,1.908,14.068,5.3,14.068,11.144,0,6.317-5.8,10.786-13.937,11.026V220.8a1.57,1.57,0,0,1-3.127,0V216.1a25.648,25.648,0,0,1-14.653-5.78,1.52,1.52,0,0,1-.717-1.251,1.634,1.634,0,0,1,1.628-1.491,1.727,1.727,0,0,1,1.172.417,21.917,21.917,0,0,0,12.7,5.423V196.43c-9.77-1.966-13.807-5.244-13.807-11.2,0-6.018,5.73-10.608,13.676-10.786v-2.266A1.523,1.523,0,0,1,392.669,170.746Zm-1.433,22.645V177.123c-6.317.12-10.485,3.575-10.485,7.866C380.751,189.041,382.834,191.544,391.236,193.391Zm2.864,3.635v16.448c6.514-.12,10.748-3.576,10.748-8.1C404.848,201.257,402.567,198.754,394.1,197.026Z" transform="translate(-375.735 -170.746)"/></g></g><g transform="translate(102.206)"><path class="a" d="M186.232,43.026c-60.2,0-60.3,85.6,0,85.6C246.428,128.629,246.527,43.026,186.232,43.026Z" transform="translate(-141.044 -43.026)"/><path class="b" d="M219.959,91.124c-3.212,14.728-15.422,27.5-36.614,27.5-50.037,0-49.96-71.051,0-71.051.326,0,.654,0,.98.018-47.017.862-46.785,68.148.923,68.148C204.709,115.741,216.3,104.48,219.959,91.124Z" transform="translate(-138.166 -40.299)"/><g transform="translate(28.611 16.644)"><path class="b" d="M175.867,53.433a1.522,1.522,0,0,1,1.563,1.43v2.385a22.391,22.391,0,0,1,11.594,4.171c.585.417.912.776.912,1.371a1.608,1.608,0,0,1-1.694,1.489,1.675,1.675,0,0,1-1.172-.416,19.458,19.458,0,0,0-9.769-3.874V76.673c9.9,1.908,14.068,5.305,14.068,11.144,0,6.317-5.8,10.786-13.938,11.026v4.648a1.569,1.569,0,0,1-3.125,0V98.782A25.642,25.642,0,0,1,159.65,93a1.518,1.518,0,0,1-.716-1.251,1.634,1.634,0,0,1,1.628-1.491,1.728,1.728,0,0,1,1.172.417,21.926,21.926,0,0,0,12.7,5.423V79.117c-9.769-1.966-13.807-5.244-13.807-11.2,0-6.018,5.732-10.608,13.678-10.786V54.863A1.521,1.521,0,0,1,175.867,53.433Zm-1.433,22.645V59.81c-6.317.12-10.485,3.575-10.485,7.866C163.949,71.728,166.032,74.231,174.434,76.078Zm2.866,3.635V96.161c6.512-.12,10.746-3.576,10.746-8.1C188.046,83.944,185.767,81.441,177.3,79.713Z" transform="translate(-158.933 -53.433)"/></g></g><g transform="translate(0 139.57)"><path class="b" d="M111.328,131.638c-54.2,9.727-39.889,90.025,14.407,80.284C179.936,202.2,165.621,121.9,111.328,131.638Z" transform="translate(-77.139 -129.979)"/><path class="a" d="M113.807,131.039c-51.659,9.27-37.338,89.568,14.407,80.284C179.87,202.053,165.55,121.755,113.807,131.039Z" transform="translate(-74.528 -130.294)"/><path class="b" d="M151.257,170.283c-.278,14.306-8.608,28.168-26.792,31.43-42.937,7.706-54.828-58.942-11.957-66.635.281-.05.561-.1.844-.134-40.2,8.049-28.681,71.116,12.261,63.77C142.313,195.717,150.369,183.37,151.257,170.283Z" transform="translate(-72.011 -127.507)"/><g transform="translate(31.594 16.281)"><path class="b" d="M107.687,140.494a1.383,1.383,0,0,1,1.582,1.1l.4,2.236a18.522,18.522,0,0,1,10.652,2.127c.573.3.912.587,1.012,1.145a1.453,1.453,0,0,1-1.2,1.657,1.382,1.382,0,0,1-1.076-.21,16.166,16.166,0,0,0-9.035-2.127l2.807,15.646c8.817.264,12.966,2.808,13.948,8.286,1.064,5.924-3.159,11.008-10.1,12.484l.782,4.36a1.362,1.362,0,0,1-2.682.481l-.792-4.416a21.333,21.333,0,0,1-13.548-3.165,1.429,1.429,0,0,1,.32-2.711,1.442,1.442,0,0,1,1.076.211,18.354,18.354,0,0,0,11.813,3.132l-2.86-15.929c-8.715-.339-12.731-2.792-13.734-8.381-1.012-5.644,3.133-10.831,9.922-12.221l-.382-2.126A1.383,1.383,0,0,1,107.687,140.494Zm2.581,21.458-2.738-15.258c-5.4,1.086-8.4,4.968-7.675,8.991C100.538,159.487,102.746,161.514,110.268,161.952Zm3.069,2.968,2.768,15.426c5.569-1.115,8.62-5.009,7.859-9.255C123.272,167.233,120.894,165.237,113.337,164.92Z" transform="translate(-96.893 -140.473)"/></g></g><g transform="translate(361.118 282.776)"><path class="b" d="M332.221,220.986c-46.438,8.333-34.173,77.125,12.342,68.779C391,281.433,378.733,212.639,332.221,220.986Z" transform="translate(-302.931 -219.565)"/><path class="a" d="M334.345,220.473c-44.257,7.941-31.988,76.733,12.342,68.778C390.94,281.311,378.672,212.518,334.345,220.473Z" transform="translate(-300.695 -219.834)"/><path class="b" d="M366.427,254.093c-.237,12.256-7.373,24.131-22.952,26.926-36.785,6.6-46.971-50.5-10.242-57.087.24-.043.48-.086.723-.115-34.442,6.895-24.571,60.925,10.5,54.632C358.766,275.883,365.667,265.306,366.427,254.093Z" transform="translate(-298.538 -217.447)"/><g transform="translate(26.26 13.928)"><path class="b" d="M335.574,228.551a1.184,1.184,0,0,1,1.024,1.3l-.227,1.932a15.871,15.871,0,0,1,8.2,4.393,1.356,1.356,0,0,1,.545,1.191,1.245,1.245,0,0,1-1.4,1.059,1.187,1.187,0,0,1-.83-.44,13.851,13.851,0,0,0-6.877-3.992l-1.591,13.526c7.162,2.41,9.929,5.527,9.372,10.263-.6,5.121-5.327,8.238-11.389,7.722l-.443,3.768a1.168,1.168,0,0,1-2.319-.273l.448-3.816a18.277,18.277,0,0,1-10.319-5.966,1.225,1.225,0,0,1,.939-2.142,1.233,1.233,0,0,1,.83.44,15.711,15.711,0,0,0,8.9,5.5l1.619-13.769c-7.059-2.447-9.742-5.457-9.174-10.287.574-4.88,5.263-8.1,11.175-7.55l.216-1.838A1.182,1.182,0,0,1,335.574,228.551Zm-3.221,18.232L333.9,233.6c-4.7-.454-8.12,1.983-8.529,5.462C324.989,242.342,326.3,244.554,332.353,246.783Zm1.778,3.2-1.569,13.335c4.843.47,8.313-1.962,8.745-5.633C341.7,254.348,340.247,252.12,334.131,249.98Z" transform="translate(-319.35 -228.543)"/></g></g></g><g transform="translate(0 259.634)"><g transform="translate(63.261 253.139)"><path class="a" d="M253.578,363.642c-8.649,12.222-6.89,49.531-12.12,54.76s-58.9,4.676-62.518,1.606-1.9-16.262-5.962-18.431C171.391,400.729,253.578,363.642,253.578,363.642Z" transform="translate(-24.434 -363.642)"/><path class="a" d="M80.093,364.016c10.8,15.6,4.966,48.933,10.194,54.162s58.905,4.676,62.518,1.606,1.962-16.972,4.1-19.616C158.035,398.768,80.093,364.016,80.093,364.016Z" transform="translate(-80.09 -363.418)"/><path class="b" d="M172.981,401.579c1.142.6,1.826,2.086,2.3,3.978,31.918-4.011,56.026-12.275,71.871-19.333,1.238-9.1,3.032-17.769,6.423-22.578C253.573,363.646,171.384,400.731,172.981,401.579Z" transform="translate(-24.433 -363.64)"/><path class="b" d="M80.091,364.013c4.027,5.82,5.754,14.117,6.586,22.479a243.932,243.932,0,0,0,69.034,19.088c.2-2.493.505-4.547,1.19-5.411C158.041,398.767,80.091,364.013,80.091,364.013Z" transform="translate(-80.091 -363.42)"/></g><path class="a" d="M212.812,222.606c107.954,0,149.268,84.506,149.268,133.954,0,48.791-31.379,131.713-149.268,131.713s-157-70.246-157-132.835S103.754,222.606,212.812,222.606Z" transform="translate(-31.382 -195.031)"/><g transform="translate(42.385)"><path class="a" d="M175.622,239.044s-49.3-37.813-102.7-33.306c-18.388,1.551,12.142,41.391,12.7,72.509Z" transform="translate(-67.038 -205.365)"/><path class="b" d="M105.013,257.9c.307,1.969-16.705,9.262-18.463,8.139S83.014,240.4,69.129,214.283C67.085,210.437,101.723,236.835,105.013,257.9Z" transform="translate(-65.837 -200.245)"/></g><path class="a" d="M230.275,289.238c-.645-3.32-1.041-6.311-1.367-9.494a92.841,92.841,0,0,1-.48-9.553,54.487,54.487,0,0,1,.873-9.934,23.735,23.735,0,0,1,4.429-10.461,13.549,13.549,0,0,1,8.652-4.99,16.1,16.1,0,0,1,3.132-.139,18.892,18.892,0,0,1,10.572,4.253,29.351,29.351,0,0,1,6.762,7.742,26.788,26.788,0,0,1,3.714,9.572,11.671,11.671,0,0,1-.481,6.092,6.719,6.719,0,0,1-2.442,3.091,7.043,7.043,0,0,1-3.551,1.172,6.55,6.55,0,0,1-3.73-.9,7.768,7.768,0,0,1-2.413-2.383,13.924,13.924,0,0,1-1.889-5.092,28.072,28.072,0,0,1,.088-9.687,23.127,23.127,0,0,1,3.427-9,10.894,10.894,0,0,1,3.722-3.487,7.937,7.937,0,0,1,5.1-.848,15.506,15.506,0,0,1,8.11,4.761,51.274,51.274,0,0,1,9.566,15.222A50.629,50.629,0,0,0,271.514,251c-2.177-1.862-4.749-3.464-7.375-3.626-2.616-.221-4.731,1.438-5.98,3.782a19.784,19.784,0,0,0-2.127,7.877,23.8,23.8,0,0,0,.686,8.117A9,9,0,0,0,258.2,270.3a2.275,2.275,0,0,0,.819.662,1.012,1.012,0,0,0,.582.01c.272-.069.587-.21.619-.3a1.135,1.135,0,0,0,.174-.453,6.218,6.218,0,0,0-.2-2.748,22.369,22.369,0,0,0-8.9-11.933,10.255,10.255,0,0,0-5.964-1.86,7.089,7.089,0,0,0-1.323.206,4.245,4.245,0,0,0-1.024.408,4.291,4.291,0,0,0-1.492,1.462,14.548,14.548,0,0,0-1.782,6.14,43.977,43.977,0,0,0,0,7.923,80.976,80.976,0,0,0,1.126,8.272c.507,2.727,1.156,5.617,1.868,8.112Z" transform="translate(72.073 -181.823)"/><g transform="translate(61.867 124.237)"><path class="b" d="M82.123,288.048c.15-.337.63.6.531.984-2.359,9.244-3.507,20.232,4.23,25.19.242.154.11.616-.192.505C76.734,311,78.4,296.428,82.123,288.048Z" transform="translate(-79.219 -280.09)"/><path class="b" d="M92.272,283.125c15.227,2.186,9.737,32.482-4.373,30.456C74.016,311.587,79.508,281.292,92.272,283.125Z" transform="translate(-78.895 -283.045)"/></g><g transform="translate(0 111.612)"><path class="a" d="M75.077,275.151c-2.357,7.087-23.766,1.339-29.166,5.82-8.492,7.047-6.143,94.5,1.627,101.547,4.357,3.952,28.633-.214,35.457,4.592S75.077,275.151,75.077,275.151Z" transform="translate(-40.536 -275.151)"/><ellipse class="b" cx="3.975" cy="38.57" rx="3.975" ry="38.57" transform="translate(4.238 15.897)"/></g><path class="b" d="M207.871,247.272c-.361-.12-36.75-11.953-70.622-2.695l-3.373-12.342c37.69-10.308,76.412,2.354,78.041,2.9l-4.051,12.136,2.025-6.068Z" transform="translate(15.406 -191.675)"/><g transform="translate(270.748 84.247)"><path class="c" d="M212.88,406.833C261.508,350.962,231.754,286.077,230.4,283.3a8,8,0,0,1,14.357-7.047,134.863,134.863,0,0,1,11.469,46.587C258.569,358.367,246.812,391,219,413.215,210.608,419.913,206.632,414.013,212.88,406.833Z" transform="translate(-209.824 -249.802)"/><path class="c" d="M231.482,266.733a8.693,8.693,0,1,1-8.694-8.692A8.693,8.693,0,0,1,231.482,266.733Z" transform="translate(-207.264 -258.041)"/></g></g></g><g transform="translate(60.787 655.638)"><ellipse class="a" cx="206.316" cy="29.681" rx="206.316" ry="29.681" transform="translate(135.001 18.471)"/><path class="a" d="M267.189,447.165c0,11.651-49.324,21.1-110.166,21.1s-110.167-9.447-110.167-21.1,49.324-21.1,110.167-21.1S267.189,435.513,267.189,447.165Z" transform="translate(-46.856 -426.067)"/></g><g transform="translate(483.003 298.906)"><g transform="translate(63.032 160.062)"><rect class="d" width="47.942" height="156.249"/><g class="e" transform="translate(36.964)"><rect width="10.978" height="156.249"/></g></g><g transform="translate(125.365 109.231)"><g transform="translate(0)"><rect class="d" width="47.942" height="207.081"/></g><g class="e" transform="translate(37.794)"><rect width="10.978" height="207.081"/></g></g><g transform="translate(0 190.355)"><path class="d" d="M0,0H47.942V125.957H0Z"/><g class="e" transform="translate(36.964)"><rect width="10.978" height="125.957"/></g></g><g transform="translate(189.358 41.54)"><rect class="d" width="47.942" height="274.772"/><g class="e" transform="translate(36.964)"><rect width="10.978" height="274.772"/></g></g><path class="f" d="M310.85,431.951V407.716s163.158-13.89,229.087-194.641h6.984S502.714,400.033,310.85,431.951Z" transform="translate(-310.85 -196.989)"/><path class="f" d="M469.738,226.87l-20.614-6.826L466.2,203.017Z" transform="translate(-227.977 -203.017)"/></g><g transform="translate(23.611 615.217)"><line class="g" x2="724.143"/></g><g transform="translate(74.286 543.806)"><g transform="translate(361.959 94.09)"><g transform="translate(8.405 44.329)"><path class="h" d="M0,0H100.725V22.257H0Z" transform="translate(0.002)"/><g class="e" transform="translate(4.153 2.039)"><line class="i" y2="17.807"/><line class="i" y2="17.807" transform="translate(7.501)"/><line class="i" y2="17.807" transform="translate(11.166)"/><line class="i" y2="17.807" transform="translate(31.283)"/><line class="i" y2="17.807" transform="translate(36.725)"/><line class="i" y2="17.807" transform="translate(59.228)"/><line class="i" y2="17.807" transform="translate(64.428)"/><line class="i" y2="17.807" transform="translate(73.975)"/><line class="i" y2="17.807" transform="translate(54.881)"/><line class="i" y2="17.807" transform="translate(17.815)"/><line class="i" y2="17.807" transform="translate(43.885)"/><line class="i" y2="17.807" transform="translate(47.636)"/><line class="i" y2="17.807" transform="translate(86.42)"/><line class="i" y2="17.807" transform="translate(92.045)"/><line class="i" y2="17.807" transform="translate(78.407)"/><line class="i" y2="17.807" transform="translate(26.935)"/></g><path class="j" d="M387.59,442.692v4.729L286.87,450.6v-7.906Z" transform="translate(-286.87 -442.69)"/></g><g transform="translate(0 22.074)"><path class="h" d="M0,0H100.725V22.257H0Z" transform="translate(0.002)"/><g class="e" transform="translate(4.153 2.039)"><line class="i" y1="17.807" transform="translate(92.046)"/><line class="i" y1="17.807" transform="translate(84.545)"/><line class="i" y1="17.807" transform="translate(80.879)"/><line class="i" y1="17.807" transform="translate(60.763)"/><line class="i" y1="17.807" transform="translate(55.32)"/><line class="i" y1="17.807" transform="translate(32.817)"/><line class="i" y1="17.807" transform="translate(27.618)"/><line class="i" y1="17.807" transform="translate(18.071)"/><line class="i" y1="17.807" transform="translate(37.164)"/><line class="i" y1="17.807" transform="translate(74.231)"/><line class="i" y1="17.807" transform="translate(48.16)"/><line class="i" y1="17.807" transform="translate(44.41)"/><line class="i" y1="17.807" transform="translate(5.626)"/><line class="i" y1="17.807"/><line class="i" y1="17.807" transform="translate(13.638)"/><line class="i" y1="17.807" transform="translate(65.11)"/></g><path class="j" d="M382.335,428.777v4.729l-100.721,3.177v-7.906Z" transform="translate(-281.614 -428.775)"/></g><g transform="translate(7.761)"><path class="h" d="M0,0H100.725V22.257H0Z" transform="translate(0.002)"/><g class="e" transform="translate(4.153 2.039)"><line class="i" y2="17.807"/><line class="i" y2="17.807" transform="translate(7.501)"/><line class="i" y2="17.807" transform="translate(11.166)"/><line class="i" y2="17.807" transform="translate(31.283)"/><line class="i" y2="17.807" transform="translate(36.725)"/><line class="i" y2="17.807" transform="translate(59.228)"/><line class="i" y2="17.807" transform="translate(64.428)"/><line class="i" y2="17.807" transform="translate(73.975)"/><line class="i" y2="17.807" transform="translate(54.881)"/><line class="i" y2="17.807" transform="translate(17.815)"/><line class="i" y2="17.807" transform="translate(43.885)"/><line class="i" y2="17.807" transform="translate(47.636)"/><line class="i" y2="17.807" transform="translate(86.42)"/><line class="i" y2="17.807" transform="translate(92.045)"/><line class="i" y2="17.807" transform="translate(78.407)"/><line class="i" y2="17.807" transform="translate(26.935)"/></g><path class="j" d="M387.187,414.974V419.7l-100.721,3.177v-7.906Z" transform="translate(-286.466 -414.973)"/></g></g><g transform="translate(63.358)"><g transform="translate(6.889 111.1)"><path class="h" d="M0,0H100.725V22.257H0Z" transform="translate(0.002)"/><g class="e" transform="translate(4.153 2.039)"><line class="i" y2="17.807"/><line class="i" y2="17.807" transform="translate(7.501)"/><line class="i" y2="17.807" transform="translate(11.166)"/><line class="i" y2="17.807" transform="translate(31.283)"/><line class="i" y2="17.807" transform="translate(36.725)"/><line class="i" y2="17.807" transform="translate(59.228)"/><line class="i" y2="17.807" transform="translate(64.428)"/><line class="i" y2="17.807" transform="translate(73.975)"/><line class="i" y2="17.807" transform="translate(54.881)"/><line class="i" y2="17.807" transform="translate(17.815)"/><line class="i" y2="17.807" transform="translate(43.885)"/><line class="i" y2="17.807" transform="translate(47.636)"/><line class="i" y2="17.807" transform="translate(86.42)"/><line class="i" y2="17.807" transform="translate(92.045)"/><line class="i" y2="17.807" transform="translate(78.407)"/><line class="i" y2="17.807" transform="translate(26.935)"/></g><path class="j" d="M199.939,425.61v4.729L99.219,433.516V425.61Z" transform="translate(-99.219 -425.609)"/></g><g transform="translate(0 88.844)"><rect class="h" width="100.725" height="22.257" transform="translate(0.002)"/><g class="e" transform="translate(4.153 2.039)"><line class="i" y2="17.807"/><line class="i" y2="17.807" transform="translate(7.501)"/><line class="i" y2="17.807" transform="translate(11.166)"/><line class="i" y2="17.807" transform="translate(31.283)"/><line class="i" y2="17.807" transform="translate(36.725)"/><line class="i" y2="17.807" transform="translate(59.228)"/><line class="i" y2="17.807" transform="translate(64.428)"/><line class="i" y2="17.807" transform="translate(73.975)"/><line class="i" y2="17.807" transform="translate(54.881)"/><line class="i" y2="17.807" transform="translate(17.815)"/><line class="i" y2="17.807" transform="translate(43.885)"/><line class="i" y2="17.807" transform="translate(47.636)"/><line class="i" y2="17.807" transform="translate(86.42)"/><line class="i" y2="17.807" transform="translate(92.045)"/><line class="i" y2="17.807" transform="translate(78.407)"/><line class="i" y2="17.807" transform="translate(26.935)"/></g><path class="j" d="M195.632,411.695v4.729L94.911,419.6v-7.906Z" transform="translate(-94.911 -411.693)"/></g><g transform="translate(15.561 44.513)"><rect class="h" width="100.725" height="22.257" transform="translate(0.002)"/><g class="e" transform="translate(4.153 2.039)"><line class="i" y2="17.807"/><line class="i" y2="17.807" transform="translate(7.501)"/><line class="i" y2="17.807" transform="translate(11.166)"/><line class="i" y2="17.807" transform="translate(31.283)"/><line class="i" y2="17.807" transform="translate(36.725)"/><line class="i" y2="17.807" transform="translate(59.228)"/><line class="i" y2="17.807" transform="translate(64.428)"/><line class="i" y2="17.807" transform="translate(73.975)"/><line class="i" y2="17.807" transform="translate(54.881)"/><line class="i" y2="17.807" transform="translate(17.815)"/><line class="i" y2="17.807" transform="translate(43.885)"/><line class="i" y2="17.807" transform="translate(47.636)"/><line class="i" y2="17.807" transform="translate(86.42)"/><line class="i" y2="17.807" transform="translate(92.046)"/><line class="i" y2="17.807" transform="translate(78.407)"/><line class="i" y2="17.807" transform="translate(26.936)"/></g><path class="j" d="M205.362,383.977v4.729l-100.721,3.177v-7.906Z" transform="translate(-104.641 -383.975)"/></g><g transform="translate(13.018 22.257)"><path class="h" d="M0,0H100.725V22.257H0Z" transform="translate(0.002)"/><g class="e" transform="translate(4.153 2.039)"><line class="i" y1="17.807" transform="translate(92.045)"/><line class="i" y1="17.807" transform="translate(84.544)"/><line class="i" y1="17.807" transform="translate(80.879)"/><line class="i" y1="17.807" transform="translate(60.763)"/><line class="i" y1="17.807" transform="translate(55.32)"/><line class="i" y1="17.807" transform="translate(32.817)"/><line class="i" y1="17.807" transform="translate(27.617)"/><line class="i" y1="17.807" transform="translate(18.071)"/><line class="i" y1="17.807" transform="translate(37.164)"/><line class="i" y1="17.807" transform="translate(74.231)"/><line class="i" y1="17.807" transform="translate(48.16)"/><line class="i" y1="17.807" transform="translate(44.409)"/><line class="i" y1="17.807" transform="translate(5.626)"/><line class="i" y1="17.807"/><line class="i" y1="17.807" transform="translate(13.638)"/><line class="i" y1="17.807" transform="translate(65.11)"/></g><path class="j" d="M203.772,370.06v4.729l-100.721,3.177V370.06Z" transform="translate(-103.051 -370.059)"/></g><g transform="translate(6.891)"><path class="h" d="M0,0H100.725V22.257H0Z" transform="translate(0.002)"/><g class="e" transform="translate(4.153 2.039)"><line class="i" y2="17.807"/><line class="i" y2="17.807" transform="translate(7.501)"/><line class="i" y2="17.807" transform="translate(11.166)"/><line class="i" y2="17.807" transform="translate(31.283)"/><line class="i" y2="17.807" transform="translate(36.725)"/><line class="i" y2="17.807" transform="translate(59.228)"/><line class="i" y2="17.807" transform="translate(64.428)"/><line class="i" y2="17.807" transform="translate(73.975)"/><line class="i" y2="17.807" transform="translate(54.881)"/><line class="i" y2="17.807" transform="translate(17.815)"/><line class="i" y2="17.807" transform="translate(43.885)"/><line class="i" y2="17.807" transform="translate(47.636)"/><line class="i" y2="17.807" transform="translate(86.42)"/><line class="i" y2="17.807" transform="translate(92.045)"/><line class="i" y2="17.807" transform="translate(78.407)"/><line class="i" y2="17.807" transform="translate(26.935)"/></g><path class="j" d="M199.941,356.144v4.729L99.22,364.05v-7.906Z" transform="translate(-99.22 -356.143)"/></g><g transform="translate(6.89 66.77)"><rect class="h" width="100.725" height="22.257" transform="translate(0.002)"/><g class="e" transform="translate(4.153 2.039)"><line class="i" y1="17.807" transform="translate(92.046)"/><line class="i" y1="17.807" transform="translate(84.544)"/><line class="i" y1="17.807" transform="translate(80.879)"/><line class="i" y1="17.807" transform="translate(60.763)"/><line class="i" y1="17.807" transform="translate(55.32)"/><line class="i" y1="17.807" transform="translate(32.817)"/><line class="i" y1="17.807" transform="translate(27.617)"/><line class="i" y1="17.807" transform="translate(18.071)"/><line class="i" y1="17.807" transform="translate(37.164)"/><line class="i" y1="17.807" transform="translate(74.231)"/><line class="i" y1="17.807" transform="translate(48.16)"/><line class="i" y1="17.807" transform="translate(44.409)"/><line class="i" y1="17.807" transform="translate(5.626)"/><line class="i" y1="17.807"/><line class="i" y1="17.807" transform="translate(13.638)"/><line class="i" y1="17.807" transform="translate(65.11)"/></g><path class="j" d="M199.94,397.893v4.729L99.219,405.8v-7.906Z" transform="translate(-99.219 -397.891)"/></g></g><g transform="translate(0 45.67)"><path class="h" d="M117.192,386.342c66.3,11.9,48.791,110.119-17.621,98.2C33.272,472.647,50.783,374.427,117.192,386.342Z" transform="translate(-53.823 -384.313)"/><path class="j" d="M117.192,386.342c66.3,11.9,48.791,110.119-17.621,98.2C33.272,472.647,50.783,374.427,117.192,386.342Z" transform="translate(-53.823 -384.313)"/><path class="h" d="M112.439,385.611c63.19,11.338,45.674,109.558-17.62,98.2C31.632,472.474,49.148,374.254,112.439,385.611Z" transform="translate(-55.296 -384.699)"/><path class="j" d="M60.459,433.612c.339,17.5,10.527,34.455,32.77,38.445,52.522,9.425,67.067-72.1,14.626-81.505-.344-.062-.686-.123-1.033-.165,49.175,9.844,35.081,86.988-15,78C71.4,464.724,61.545,449.622,60.459,433.612Z" transform="translate(-52.202 -381.289)"/><g class="e" transform="translate(25.409 19.398)"><path d="M99.569,396.875a1.69,1.69,0,0,1,1.214,2.022l-.672,2.695a22.665,22.665,0,0,1,10.818,7.71,1.935,1.935,0,0,1,.557,1.786,1.78,1.78,0,0,1-2.172,1.246,1.7,1.7,0,0,1-1.1-.774,19.775,19.775,0,0,0-9.015-6.9l-4.707,18.867c9.706,4.712,13.06,9.63,11.413,16.233-1.782,7.144-9.041,10.7-17.53,8.87l-1.311,5.255a1.667,1.667,0,1,1-3.235-.808l1.329-5.323a26.094,26.094,0,0,1-13.532-10.319,1.749,1.749,0,0,1,1.716-2.864,1.751,1.751,0,0,1,1.1.774,22.435,22.435,0,0,0,11.611,9.41l4.792-19.206c-9.554-4.744-12.807-9.494-11.127-16.232,1.7-6.807,8.923-10.516,17.194-8.667l.64-2.562A1.69,1.69,0,0,1,99.569,396.875ZM91.7,422.114l4.59-18.4c-6.572-1.5-11.859,1.335-13.07,6.188C82.076,414.488,83.527,417.856,91.7,422.114Zm1.938,4.849L89,445.563c6.773,1.547,12.129-1.27,13.406-6.391C103.565,434.521,101.911,431.1,93.638,426.963Z" transform="translate(-71.183 -396.827)"/></g></g></g><g transform="translate(228.763 120.925)"><g transform="translate(0 0)"><g transform="translate(0 179.036)"><g transform="translate(88.449)"><g transform="translate(83.292 232.676)"><path class="k" d="M374.091,454.7c-3.667,1.183-108.217-.173-112.161-2.754-1.516-.955-2.207-16.2-2.513-34.646,0-.192,0-.385,0-.577-.072-3.8-.122-7.715-.126-11.682,0-.547,0-1.092-.021-1.638l5.073-54.238,69.939.7-6.9,53.73-.08,2.127-.422,11.122-.042,1.143s39.787,18.42,43.828,21.716C374.669,442.982,377.76,453.528,374.091,454.7Z" transform="translate(-259.267 -349.16)"/><path class="a" d="M374.091,434.37c-3.667,1.183-108.217-.173-112.161-2.754-1.516-.955-2.207-16.2-2.513-34.646,0-.192,0-.385,0-.577-.072-3.8-.122-7.715-.126-11.682,0-.547,0-1.092-.021-1.638l68.109.192-.08,2.127-.422,11.122-.042,1.144s39.787,18.42,43.828,21.716C374.669,422.657,377.76,433.2,374.091,434.37Z" transform="translate(-259.267 -328.835)"/><g transform="translate(0.146 67.39)"><path class="l" d="M374.046,429.376c-1.887.608-30.291.544-58.056-.016-5.582-.112-11.131-.24-16.425-.384-19.8-.544-36.161-1.359-37.68-2.351-1.5-.944-2.191-15.769-2.495-33.874,0-.256-.016-.512-.016-.768,0-.192,0-.4-.016-.592h.08l67.38.128-.032,1.152s39.791,18.408,43.822,21.7C374.622,417.669,377.709,428.209,374.046,429.376Z" transform="translate(-259.358 -391.238)"/><g transform="translate(7.234)"><path class="m" d="M370.2,413.055c-17.618-.661-88.741-1.665-106.207-.98-.142.006-.142.1,0,.112,17.447,1.036,88.576,1.465,106.2,1.158C370.563,413.338,370.568,413.07,370.2,413.055Z" transform="translate(-263.881 -378.98)"/><path class="m" d="M314.046,391.875c-6.919-1.385-15.414-.43-20.779,4.443-.208.189.064.481.289.413a97.532,97.532,0,0,1,20.449-3.981A.443.443,0,0,0,314.046,391.875Z" transform="translate(-246.313 -391.296)"/><path class="m" d="M317.151,393.8c-6.919-1.385-15.414-.43-20.777,4.443-.208.189.064.481.29.413a97.515,97.515,0,0,1,20.449-3.981A.443.443,0,0,0,317.151,393.8Z" transform="translate(-244.452 -390.141)"/><path class="m" d="M320.257,395.729c-6.919-1.385-15.414-.43-20.779,4.443-.208.189.064.48.289.413a97.532,97.532,0,0,1,20.449-3.981A.443.443,0,0,0,320.257,395.729Z" transform="translate(-242.591 -388.986)"/></g></g></g><path class="n" d="M362.676,504.272H280.63s17.817-161.949,17.225-165.02c-.3-1.583-15.05-23.862-32.578-49.915C255.472,274.752,244.8,259,235.32,245c-15.674-23.094-28.132-41.327-28.132-41.327h80.335S298.334,216.728,312.5,235.2c20.056,26.165,46.845,63.19,59.112,89.387C381.148,344.93,362.676,504.272,362.676,504.272Z" transform="translate(-207.188 -203.677)"/><g transform="translate(66.474 8.795)"><path class="m" d="M326.283,332.122c-1.526-9.016-6.029-16.919-10.485-24.748-9.236-16.23-50.837-78.044-62.384-92.6q-2.2-2.78-4.429-5.546c-.1-.123-.309.01-.208.139,11.315,14.6,52.519,75.845,61.77,91.775,4.553,7.845,9.655,15.762,12.587,24.406,3.093,9.121,2.652,18.813,2.172,28.294q-1.483,29.347-3.544,58.664-2.082,29.63-4.772,59.212-.329,3.627-.661,7.251c-.072.781.691.856.768.066,1.894-19.648,3.978-39.118,5.449-58.8q2.224-29.712,3.829-59.467C326.885,351.285,327.878,341.546,326.283,332.122Z" transform="translate(-248.751 -209.176)"/><g transform="translate(18.022 278.399)"><path class="m" d="M327.675,383.8c-11.5-.24-8.195-.333-19.7-.445-5.63-.054-42.614-.376-47.873.494a.123.123,0,0,0,0,.235c5.26.87,42.243.548,47.873.494,11.5-.11,8.2-.2,19.7-.445A.167.167,0,0,0,327.675,383.8Z" transform="translate(-260.02 -383.248)"/></g></g><path class="m" d="M291.105,328.2c-21.015-32.435-83.917-124.524-83.917-124.524h42.095Z" transform="translate(-207.188 -203.677)"/></g><g transform="translate(0 300.124)"><path class="k" d="M153.557,498.166c3.678,1.147,108.21-1.28,112.126-3.9,1.507-.971,2.041-16.224,2.158-34.67l0-.577c.032-3.8,8.776-67.686,8.776-67.686l-68.328,1.393-7.9,67.1.053,1.144s-39.6,18.826-43.6,22.162C152.859,486.459,149.875,497.037,153.557,498.166Z" transform="translate(-151.884 -391.332)"/><path class="a" d="M153.557,477.8c3.678,1.147,108.21-1.28,112.126-3.9,1.507-.971,2.041-16.224,2.158-34.67l0-.577s1.519-12.8,1.532-13.342L201.91,426.5l-1.526,12.959.053,1.144s-39.6,18.826-43.6,22.162C152.859,466.094,149.875,476.672,153.557,477.8Z" transform="translate(-151.884 -370.967)"/><g transform="translate(0 67.686)"><path class="l" d="M153.557,472.8c3.678,1.147,108.21-1.28,112.126-3.9,1.507-.971,2.041-16.224,2.158-34.67l0-.577-67.455.811.053,1.144s-39.6,18.826-43.6,22.162C152.859,461.094,149.875,471.672,153.557,472.8Z" transform="translate(-151.884 -433.653)"/><g transform="translate(2.485 0.537)"><path class="m" d="M153.715,456.389c17.61-.843,88.718-2.575,106.191-2.068.141,0,.144.1,0,.11-17.436,1.215-88.557,2.372-106.188,2.245C153.348,456.674,153.342,456.407,153.715,456.389Z" transform="translate(-153.438 -421.857)"/><path class="m" d="M177.65,434.629c6.9-1.455,15.41-.587,20.823,4.23.21.187-.059.481-.286.417a97.393,97.393,0,0,0-20.489-3.771A.444.444,0,0,1,177.65,434.629Z" transform="translate(-139.138 -433.989)"/><path class="m" d="M174.565,436.588c6.9-1.455,15.41-.587,20.822,4.23.21.185-.059.481-.285.416a97.513,97.513,0,0,0-20.489-3.771A.443.443,0,0,1,174.565,436.588Z" transform="translate(-140.987 -432.814)"/><path class="m" d="M171.479,438.546c6.9-1.454,15.41-.587,20.822,4.23.211.187-.058.481-.285.416a97.514,97.514,0,0,0-20.489-3.77A.444.444,0,0,1,171.479,438.546Z" transform="translate(-142.836 -431.641)"/></g></g></g><g transform="translate(44.669)"><path class="n" d="M303.931,203.677s-9.628,58.68-10.285,60.567c0,0-3.578,1.7-10.036,4.678L255.1,573.21l-75.282.3,41.957-369.837Z" transform="translate(-179.814 -203.677)"/><path class="m" d="M250.625,426.5c-11.5-.19-8.2-.3-19.7-.36-5.63-.03-42.616-.2-47.87.7a.123.123,0,0,0,0,.235c5.263.848,42.246.368,47.875.289,11.5-.16,8.2-.238,19.694-.528A.167.167,0,0,0,250.625,426.5Z" transform="translate(-177.923 -70.363)"/><path class="m" d="M229.514,210.877c-2.932,41.92-5.946,83.842-9.369,125.725-3.435,42.029-7.523,84.016-12.595,125.881-2.832,23.389-5.9,56.322-9.3,79.637-.024.157.214.222.241.062,7.013-41.432,11.963-92.8,16.2-134.6s7.61-83.689,10.584-125.588c1.682-23.7,3.175-47.417,4.76-71.126C230.061,210.531,229.537,210.543,229.514,210.877Z" transform="translate(-168.763 -199.515)"/><g transform="translate(95.314 58.706)"><path class="m" d="M261.057,240.424A139.808,139.808,0,0,0,239.536,251.7a.249.249,0,0,0,.226.443c7.263-3.528,14.677-6.925,21.737-10.85A.486.486,0,0,0,261.057,240.424Z" transform="translate(-239.41 -240.383)"/></g><path class="m" d="M255.46,219.434c-1.184,7.023-1.842,14.156-2.633,21.23-.19,1.7-.393,3.394-.576,5.092a9.9,9.9,0,0,1-1.22,4.467c-1.529,2.365-4.264,3.475-6.74,4.558-.285.125-.171.577.146.478,2.516-.787,5.3-1.823,7.155-3.786,2.257-2.389,2.186-6,2.535-9.076a196.408,196.408,0,0,0,1.654-22.928C255.78,219.29,255.492,219.25,255.46,219.434Z" transform="translate(-141.268 -194.305)"/><path class="m" d="M246.682,220.783c-.248,5.057-.814,10.116-1.235,15.163q-.312,3.735-.537,7.48c-.155,2.535-.449,5.134-.368,7.674.006.171.277.213.307.034.416-2.4.473-4.9.673-7.328q.314-3.834.525-7.678c.286-5.11.425-10.253.884-15.35C246.946,220.618,246.69,220.622,246.682,220.783Z" transform="translate(-141.028 -193.498)"/></g><path class="m" d="M315.135,235.2l-30.851,3.918L237.951,245,202.8,249.466l5.2-45.789h82.158S300.965,216.728,315.135,235.2Z" transform="translate(-121.37 -203.677)"/></g><g transform="translate(25.437)"><g transform="translate(123.202)"><g transform="translate(1.777 0)"><path class="o" d="M250.619,162.076c14.125,29.074,43.991,59.567,61.011,59.567,15.955,0,56.2-31.507,75-50.018,4.291-4.225-34.816-37.6-39.011-32.718-9.825,11.438-32.8,36.267-40.155,36.267-6.551,0-27.21-14.885-45.237-29.626C240.343,127.651,244.989,150.491,250.619,162.076Z" transform="translate(-245.933 -63.751)"/><g transform="translate(107.947 31.331)"><path class="o" d="M346.178,187.867c5.006-2.823,20.123-15.661,29.527-27.569,4.563-5.777,15.9-23.757,11.736-27.6s-7.947,1.121-7.947,1.121,3.656-8.313-.891-11.8-10.173,4.427-10.173,4.427,3.132-8.811-1.652-11.961-9.11,5.753-9.11,5.753,3.239-7.922-1.794-8.86c-6.054-1.129-10.375,14.153-15.739,20.288-1.219,1.393-26.706,26.482-26.706,26.482Z" transform="translate(-313.428 -111.323)"/><g transform="translate(28.906 8.636)"><path class="m" d="M346.683,117.08c-3.2,11.229-6.548,15.587-15.115,23.251-.168.15.018.433.206.293,9.073-6.741,14.057-11.6,15.461-23.417C347.3,116.629,346.836,116.546,346.683,117.08Z" transform="translate(-331.502 -116.723)"/><path class="m" d="M354.117,120.63c-4.347,11.373-7.931,16.133-16.315,24.82-.118.123.077.337.208.222,8.935-7.834,13.8-12.8,16.646-24.732C354.786,120.4,354.316,120.11,354.117,120.63Z" transform="translate(-327.748 -114.544)"/><path class="m" d="M361.236,126.126c-5,10.708-8.708,16.1-17.93,23.485a.218.218,0,0,0,.251.355c10.135-6.621,14.81-13.31,17.988-23.653C361.762,125.607,361.551,125.452,361.236,126.126Z" transform="translate(-324.48 -111.345)"/></g></g><g transform="translate(124.55)"><rect class="a" width="118.068" height="85.159" transform="translate(0 1.204) rotate(-0.584)"/><g transform="translate(13.052 13.313)"><rect class="h" width="8.6" height="47.185" transform="translate(8.631 5.196) rotate(-0.584)"/><path class="h" d="M355.2,145.469l-8.6.088-.307-34.173,8.6-.087Z" transform="translate(-323.384 -93.321)"/><rect class="h" width="8.6" height="26.329" transform="translate(37.06 25.763) rotate(-0.583)"/><rect class="h" width="8.6" height="21.098" transform="matrix(1, -0.01, 0.01, 1, 51.221, 30.85)"/><rect class="h" width="8.6" height="34.174" transform="translate(65.197 17.631) rotate(-0.584)"/><rect class="h" width="8.6" height="40.69" transform="translate(79.238 10.972) rotate(-0.586)"/><path class="f" d="M333.789,100.057c.313,8.737.585,17.476.763,26.215.209,8.737.4,17.476.494,26.216l-.729-.715,22.693-.3,22.695-.139c7.563-.062,15.13.01,22.695.008q11.347.031,22.7.224-11.343.415-22.688.684c-7.563.154-15.127.379-22.691.472l-22.691.323-22.693.166-.723.006-.006-.72c-.08-8.74-.072-17.481-.042-26.221C333.562,117.541,333.655,108.8,333.789,100.057Z" transform="translate(-331.029 -100.057)"/><path class="f" d="M331.97,103.109a18.657,18.657,0,0,1,2.807-.227,18.446,18.446,0,0,1,2.812.171,19.917,19.917,0,0,1-5.618.056Z" transform="translate(-331.97 -98.364)"/><path class="f" d="M332,106.13a18.851,18.851,0,0,1,2.807-.229,18.655,18.655,0,0,1,2.812.171,18.458,18.458,0,0,1-2.807.229A18.868,18.868,0,0,1,332,106.13Z" transform="translate(-331.951 -96.554)"/><path class="f" d="M332.032,109.15a18.642,18.642,0,0,1,2.807-.229,18.43,18.43,0,0,1,2.81.171,18.625,18.625,0,0,1-2.807.229A18.843,18.843,0,0,1,332.032,109.15Z" transform="translate(-331.933 -94.744)"/><path class="f" d="M332.063,112.168a18.624,18.624,0,0,1,2.807-.227,18.429,18.429,0,0,1,2.81.171,19.905,19.905,0,0,1-5.617.056Z" transform="translate(-331.914 -92.934)"/><path class="f" d="M332.093,115.189a18.874,18.874,0,0,1,2.807-.229,18.655,18.655,0,0,1,2.812.171,18.436,18.436,0,0,1-2.807.229A18.87,18.87,0,0,1,332.093,115.189Z" transform="translate(-331.896 -91.125)"/><path class="f" d="M332.124,118.209a18.659,18.659,0,0,1,2.807-.229,18.447,18.447,0,0,1,2.812.171,20,20,0,0,1-5.618.058Z" transform="translate(-331.878 -89.315)"/><path class="f" d="M332.155,121.228a18.854,18.854,0,0,1,2.807-.229,18.654,18.654,0,0,1,2.812.171,18.456,18.456,0,0,1-2.807.229A18.865,18.865,0,0,1,332.155,121.228Z" transform="translate(-331.859 -87.506)"/><path class="f" d="M332.186,124.248a19.838,19.838,0,0,1,5.618-.058,19.841,19.841,0,0,1-5.618.058Z" transform="translate(-331.841 -85.696)"/><path class="f" d="M332.217,127.266a18.62,18.62,0,0,1,2.807-.227,18.425,18.425,0,0,1,2.81.171,19.906,19.906,0,0,1-5.617.056Z" transform="translate(-331.822 -83.886)"/><path class="f" d="M332.247,130.287a18.87,18.87,0,0,1,2.807-.229,18.436,18.436,0,0,1,2.812.171,18.642,18.642,0,0,1-2.807.229A18.867,18.867,0,0,1,332.247,130.287Z" transform="translate(-331.804 -82.076)"/></g><g transform="translate(40.675 11.037)"><path class="f" d="M349.242,99.435c3.076-.278,6.153-.425,9.23-.553s6.154-.187,9.233-.234c3.077-.018,6.156-.034,9.235.043s6.159.15,9.239.368c-3.076.28-6.153.427-9.23.555s-6.154.187-9.233.232c-3.077.018-6.156.034-9.235-.045S352.324,99.651,349.242,99.435Z" transform="translate(-349.242 -98.634)"/><path class="f" d="M353.6,102.039a98.92,98.92,0,0,1,11.536-.716,97.575,97.575,0,0,1,11.549.481,97.582,97.582,0,0,1-11.536.716A98.259,98.259,0,0,1,353.6,102.039Z" transform="translate(-346.63 -97.025)"/></g><g transform="translate(15.988 69.349)"><path class="f" d="M333.864,140.917l-.058-5.531,5.531-.056.058,5.531Zm.752-4.739.04,3.931,3.931-.04-.04-3.931Z" transform="translate(-333.806 -134.952)"/><path class="f" d="M339.783,135.831q7.031-.29,14.063-.449l14.063-.237,14.066-.051q7.031.01,14.068.165-7.031.293-14.061.451l-14.065.235-14.066.05Q346.819,135.987,339.783,135.831Z" transform="translate(-330.224 -135.094)"/><path class="f" d="M339.8,137.246c5.294-.384,10.591-.459,15.888-.561,5.3-.006,10.6-.042,15.9.238-5.294.387-10.591.461-15.888.561C350.4,137.491,345.1,137.523,339.8,137.246Z" transform="translate(-330.214 -134.143)"/><path class="f" d="M339.814,138.743c6.493-.4,12.991-.485,19.488-.6,6.5-.019,13-.066,19.5.2-6.495.4-12.991.485-19.49.6C352.812,138.964,346.314,139.007,339.814,138.743Z" transform="translate(-330.205 -133.275)"/></g><path class="m" d="M333.942,105.065a22.075,22.075,0,0,1,6.3-1.457,13.328,13.328,0,0,1,6.495.83,18.743,18.743,0,0,1,5.2,4.027c1.518,1.567,2.9,3.24,4.253,4.921,2.72,3.347,5.238,6.831,8.153,9.919,2.89,3.06,6.21,5.876,10.151,7.029a13.043,13.043,0,0,0,6.012.36A20.032,20.032,0,0,0,386.3,128.5a69.905,69.905,0,0,0,10.359-7.426c3.315-2.719,6.536-5.586,9.966-8.224a43.047,43.047,0,0,1,5.427-3.565,19.036,19.036,0,0,1,2.975-1.313,10.64,10.64,0,0,1,3.2-.491,13.161,13.161,0,0,0-5.961,2.172,42.435,42.435,0,0,0-5.148,3.813c-3.3,2.733-6.417,5.7-9.657,8.547A62.022,62.022,0,0,1,387,129.781a21.5,21.5,0,0,1-6.207,2.415,14.474,14.474,0,0,1-6.751-.331c-4.382-1.347-7.824-4.4-10.762-7.57a126.972,126.972,0,0,1-8.059-10.157c-1.287-1.714-2.594-3.407-4.019-4.982a18.118,18.118,0,0,0-4.809-4.011,12.77,12.77,0,0,0-6.125-1.11A24.443,24.443,0,0,0,333.942,105.065Z" transform="translate(-317.737 -84.654)"/></g><g transform="translate(98.81 53.974)"><path class="o" d="M307.715,149.983s8.919-11.546,14.057-15.661,29.93-12.4,32.024-7.151c2.7,6.783-10.666,14.386-17.7,17.255,0,0,6.268,15.682-2.145,23.214S307.715,149.983,307.715,149.983Z" transform="translate(-307.715 -125.481)"/><path class="m" d="M343.936,127.869c-2,7.963-11.474,11.133-18.089,14.426a.676.676,0,0,0-.213,1.091c2.189,6.748,3.311,16.9-1.214,22.872a.171.171,0,0,0,.254.229c5.722-5.74,5.435-15.809,2.564-23.048,6.837-3.271,16.2-6.866,16.774-15.554A.039.039,0,0,0,343.936,127.869Z" transform="translate(-297.726 -124.068)"/></g></g><g transform="translate(0 74.536)"><path class="p" d="M259.288,142.426c11.829,7.9,40.69,33.073,48.575,31.048s33.153-28.967,33.153-28.967L380.9,182.248s-45.207,42.992-70.2,41.4-50.92-39.975-59.23-56.508S239.61,129.286,259.288,142.426Z" transform="translate(-244.822 -138.337)"/><path class="h" d="M380.9,182.255s-45.213,42.99-70.195,41.391a23.238,23.238,0,0,1-3.295-.432c-23.942-4.494-48-40.271-55.945-56.073-5.31-10.572-8.668-23.078-5.262-27.317,1.9-2.4,5.981-2.143,13.083,2.607,11.819,7.9,40.687,33.074,48.572,31.043s33.154-28.964,33.154-28.964Z" transform="translate(-244.819 -138.337)"/><g transform="translate(11.419 9.248)"><path class="c" d="M285.552,175.239a6.663,6.663,0,0,1,0-4.547,6.663,6.663,0,0,1,0,4.547Z" transform="translate(-232.07 -128.194)"/><path class="c" d="M308.87,159.216a6.152,6.152,0,0,1-.4-2.274,6.084,6.084,0,0,1,.4-2.273,6.086,6.086,0,0,1,.4,2.273A6.153,6.153,0,0,1,308.87,159.216Z" transform="translate(-218.095 -137.798)"/><path class="c" d="M311.856,181.455a6.149,6.149,0,0,1-.4-2.273,6.088,6.088,0,0,1,.4-2.274,6.088,6.088,0,0,1,.4,2.274A6.15,6.15,0,0,1,311.856,181.455Z" transform="translate(-216.305 -124.469)"/><path class="c" d="M260.224,171.024a6.183,6.183,0,0,1-.4-2.273,6.087,6.087,0,0,1,.4-2.274,6.089,6.089,0,0,1,.4,2.274A6.15,6.15,0,0,1,260.224,171.024Z" transform="translate(-247.25 -130.721)"/><path class="c" d="M304.471,178.2a6.184,6.184,0,0,1-.4-2.274,6.073,6.073,0,0,1,.4-2.273,6.074,6.074,0,0,1,.4,2.273A6.153,6.153,0,0,1,304.471,178.2Z" transform="translate(-220.731 -126.422)"/><path class="c" d="M275.166,158.806a6.663,6.663,0,0,1,4.547,0,6.663,6.663,0,0,1-4.547,0Z" transform="translate(-238.055 -135.558)"/><path class="c" d="M276.967,179.459a6.663,6.663,0,0,1,4.547,0,6.689,6.689,0,0,1-4.547,0Z" transform="translate(-236.976 -123.18)"/><path class="c" d="M294.844,169.47a6.663,6.663,0,0,1,4.547,0,6.664,6.664,0,0,1-4.547,0Z" transform="translate(-226.261 -129.167)"/><path class="c" d="M316.357,171.582a6.152,6.152,0,0,1,2.274-.4,6.079,6.079,0,0,1,2.273.4,6.079,6.079,0,0,1-2.273.4A6.153,6.153,0,0,1,316.357,171.582Z" transform="translate(-213.368 -127.901)"/><path class="c" d="M304.321,147.595a6.185,6.185,0,0,1,2.274-.4,6.073,6.073,0,0,1,2.273.4,6.074,6.074,0,0,1-2.273.4A6.153,6.153,0,0,1,304.321,147.595Z" transform="translate(-220.581 -142.277)"/><path class="c" d="M261.529,154.149a6.17,6.17,0,0,1-1.89-1.326,6.074,6.074,0,0,1-1.324-1.89,6.666,6.666,0,0,1,3.215,3.216Z" transform="translate(-248.155 -140.037)"/><path class="c" d="M271.834,176.275a6.665,6.665,0,0,1-3.216-3.215,6.046,6.046,0,0,1,1.89,1.324A6.143,6.143,0,0,1,271.834,176.275Z" transform="translate(-241.979 -126.775)"/><path class="c" d="M296.4,181.269a6.169,6.169,0,0,1-1.89-1.326,6.078,6.078,0,0,1-1.326-1.89,6.079,6.079,0,0,1,1.89,1.326A6.172,6.172,0,0,1,296.4,181.269Z" transform="translate(-227.256 -123.783)"/><path class="c" d="M309.925,168.413a6.142,6.142,0,0,1-1.89-1.326,6.06,6.06,0,0,1-1.324-1.889,6.059,6.059,0,0,1,1.889,1.324A6.143,6.143,0,0,1,309.925,168.413Z" transform="translate(-219.149 -131.487)"/><path class="c" d="M291.586,163.531a6.666,6.666,0,0,1-3.216-3.215,6.075,6.075,0,0,1,1.89,1.324A6.209,6.209,0,0,1,291.586,163.531Z" transform="translate(-230.141 -134.413)"/><path class="c" d="M288.368,185.091a6.21,6.21,0,0,1-1.326,1.89,6.075,6.075,0,0,1-1.89,1.324,6.665,6.665,0,0,1,3.216-3.215Z" transform="translate(-232.07 -119.565)"/><path class="c" d="M303.6,183.238a6.141,6.141,0,0,1-1.326,1.89,6.078,6.078,0,0,1-1.89,1.326,6.077,6.077,0,0,1,1.326-1.89A6.17,6.17,0,0,1,303.6,183.238Z" transform="translate(-222.94 -120.675)"/><path class="c" d="M277.792,166.2a6.653,6.653,0,0,1-3.215,3.215,6.112,6.112,0,0,1,1.324-1.89A6.176,6.176,0,0,1,277.792,166.2Z" transform="translate(-238.408 -130.885)"/><path class="c" d="M321.411,159.81a6.171,6.171,0,0,1-1.326,1.89,6.079,6.079,0,0,1-1.89,1.326,6.078,6.078,0,0,1,1.326-1.89A6.171,6.171,0,0,1,321.411,159.81Z" transform="translate(-212.266 -134.716)"/><path class="c" d="M268.706,159.81a6.168,6.168,0,0,1-1.326,1.89,6.079,6.079,0,0,1-1.89,1.326,6.077,6.077,0,0,1,1.326-1.89A6.17,6.17,0,0,1,268.706,159.81Z" transform="translate(-243.854 -134.716)"/><path class="c" d="M300.46,156.09a6.665,6.665,0,0,1-3.215,3.216,6.078,6.078,0,0,1,1.326-1.89A6.181,6.181,0,0,1,300.46,156.09Z" transform="translate(-224.822 -136.946)"/><path class="c" d="M252.786,148.667a6.152,6.152,0,0,1-.4-2.274,6.074,6.074,0,0,1,.4-2.273,6.074,6.074,0,0,1,.4,2.273A6.152,6.152,0,0,1,252.786,148.667Z" transform="translate(-251.708 -144.12)"/><path class="c" d="M251.962,160.716a6.15,6.15,0,0,1,2.273-.4,6.088,6.088,0,0,1,2.274.4,6.087,6.087,0,0,1-2.274.4A6.182,6.182,0,0,1,251.962,160.716Z" transform="translate(-251.962 -134.413)"/></g><g transform="translate(90.472 16.598)"><path class="m" d="M335.476,180.281c-1.222-1.531-2.737-2.828-4.1-4.238s-2.784-2.767-4.211-4.12c-2.743-2.6-5.527-5.169-8.323-7.715s-5.6-5.092-8.4-7.632c-2.9-2.625-5.724-5.441-8.822-7.827a.137.137,0,0,0-.19.2c2.6,2.92,5.606,5.535,8.427,8.235q4.177,4,8.366,7.986c2.8,2.653,5.607,5.3,8.452,7.894,1.4,1.279,2.808,2.537,4.259,3.757s2.816,2.593,4.387,3.672C335.455,180.58,335.561,180.387,335.476,180.281Z" transform="translate(-301.391 -148.715)"/></g></g><path class="m" d="M307.41,222.656c-23.942-4.494-48-40.271-55.945-56.073-5.31-10.572-8.668-23.078-5.262-27.317C255.944,152.446,289.85,198.73,307.41,222.656Z" transform="translate(-244.819 -63.244)"/></g><g transform="translate(54.522 72.216)"><path class="h" d="M311.973,270.122c-1.631,1.8-109.483,1.962-110.031,1.3-1.491-1.793,24.067-112.115,47.935-131.306,5.132-4.128,24.83-3.506,27.531-2.452,3.06,1.18,11.736,15.845,15.686,27.785C301,189.358,313.393,268.54,311.973,270.122Z" transform="translate(-201.879 -136.887)"/><g transform="translate(4.456 7.9)"><path class="c" d="M244.75,180.035a6.153,6.153,0,0,1-.4-2.274,6.088,6.088,0,0,1,.4-2.274,6.088,6.088,0,0,1,.4,2.274A6.186,6.186,0,0,1,244.75,180.035Z" transform="translate(-180.88 -121.652)"/><path class="c" d="M253.036,196.251a6.152,6.152,0,0,1-.4-2.274,6.08,6.08,0,0,1,.4-2.273,6.08,6.08,0,0,1,.4,2.273A6.185,6.185,0,0,1,253.036,196.251Z" transform="translate(-175.914 -111.932)"/><path class="c" d="M252.786,148.667a6.152,6.152,0,0,1-.4-2.274,6.074,6.074,0,0,1,.4-2.273,6.074,6.074,0,0,1,.4,2.273A6.152,6.152,0,0,1,252.786,148.667Z" transform="translate(-176.064 -140.451)"/><path class="c" d="M232.166,196.793a6.149,6.149,0,0,1-.4-2.273,6.087,6.087,0,0,1,.4-2.274,6.088,6.088,0,0,1,.4,2.274A6.182,6.182,0,0,1,232.166,196.793Z" transform="translate(-188.422 -111.607)"/><path class="c" d="M267.4,203.522a6.149,6.149,0,0,1-.4-2.273,6.088,6.088,0,0,1,.4-2.274,6.087,6.087,0,0,1,.4,2.274A6.181,6.181,0,0,1,267.4,203.522Z" transform="translate(-167.305 -107.574)"/><path class="c" d="M243.071,213.247a6.152,6.152,0,0,1-.4-2.274,6.073,6.073,0,0,1,.4-2.273,6.074,6.074,0,0,1,.4,2.273A6.186,6.186,0,0,1,243.071,213.247Z" transform="translate(-181.887 -101.746)"/><path class="c" d="M223.267,219.936a6.663,6.663,0,0,1,0-4.547,6.088,6.088,0,0,1,.4,2.274A6.172,6.172,0,0,1,223.267,219.936Z" transform="translate(-193.756 -97.737)"/><path class="c" d="M239.513,161.51a6.152,6.152,0,0,1-.4-2.274,6.085,6.085,0,0,1,.4-2.273,6.115,6.115,0,0,1,.4,2.273A6.183,6.183,0,0,1,239.513,161.51Z" transform="translate(-184.019 -132.754)"/><path class="c" d="M226.7,153.424a6.177,6.177,0,0,1-.4-2.273,6.088,6.088,0,0,1,.4-2.274,6.663,6.663,0,0,1,0,4.547Z" transform="translate(-191.7 -137.6)"/><path class="c" d="M226.447,177.579a6.688,6.688,0,0,1,0-4.547,6.663,6.663,0,0,1,0,4.547Z" transform="translate(-191.849 -123.123)"/><path class="c" d="M212.973,203.522a6.18,6.18,0,0,1-.4-2.273,6.053,6.053,0,0,1,.4-2.274,6.088,6.088,0,0,1,.4,2.274A6.15,6.15,0,0,1,212.973,203.522Z" transform="translate(-199.924 -107.574)"/><path class="c" d="M260.224,171.024a6.183,6.183,0,0,1-.4-2.273,6.087,6.087,0,0,1,.4-2.274,6.089,6.089,0,0,1,.4,2.274A6.15,6.15,0,0,1,260.224,171.024Z" transform="translate(-171.606 -127.052)"/><path class="c" d="M234.3,172.168a6.664,6.664,0,0,1,4.547,0,6.663,6.663,0,0,1-4.547,0Z" transform="translate(-186.901 -123.881)"/><path class="c" d="M232.883,203.827a6.152,6.152,0,0,1,2.274-.4,6.079,6.079,0,0,1,2.273.4,6.11,6.11,0,0,1-2.273.4A6.183,6.183,0,0,1,232.883,203.827Z" transform="translate(-187.753 -104.906)"/><path class="c" d="M240.551,219.924a6.152,6.152,0,0,1,2.274-.4,6.088,6.088,0,0,1,2.274.4,6.088,6.088,0,0,1-2.274.4A6.152,6.152,0,0,1,240.551,219.924Z" transform="translate(-183.157 -95.259)"/><path class="c" d="M258.236,177.689a6.152,6.152,0,0,1,2.274-.4,6.087,6.087,0,0,1,2.274.4,6.087,6.087,0,0,1-2.274.4A6.186,6.186,0,0,1,258.236,177.689Z" transform="translate(-172.558 -120.572)"/><path class="c" d="M223.219,160.381a6.152,6.152,0,0,1,2.274-.4,6.088,6.088,0,0,1,2.274.4,6.053,6.053,0,0,1-2.274.4A6.182,6.182,0,0,1,223.219,160.381Z" transform="translate(-193.545 -130.945)"/><path class="c" d="M240.8,147.344a6.183,6.183,0,0,1,2.274-.4,6.045,6.045,0,0,1,2.273.4,6.08,6.08,0,0,1-2.273.4A6.153,6.153,0,0,1,240.8,147.344Z" transform="translate(-183.01 -138.757)"/><path class="c" d="M223.117,184.906a6.15,6.15,0,0,1,2.273-.4,6.088,6.088,0,0,1,2.274.4,6.054,6.054,0,0,1-2.274.4A6.18,6.18,0,0,1,223.117,184.906Z" transform="translate(-193.606 -116.246)"/><path class="c" d="M213.195,210.02a6.169,6.169,0,0,1,2.273-.4,6.054,6.054,0,0,1,2.274.4,6.664,6.664,0,0,1-4.547,0Z" transform="translate(-199.553 -101.193)"/><path class="c" d="M251.962,160.716a6.15,6.15,0,0,1,2.273-.4,6.088,6.088,0,0,1,2.274.4,6.087,6.087,0,0,1-2.274.4A6.182,6.182,0,0,1,251.962,160.716Z" transform="translate(-176.318 -130.744)"/><path class="c" d="M242.671,187.2a6.152,6.152,0,0,1,2.274-.4,6.085,6.085,0,0,1,2.273.4,6.085,6.085,0,0,1-2.273.4A6.152,6.152,0,0,1,242.671,187.2Z" transform="translate(-181.887 -114.87)"/><path class="c" d="M262.971,217.861a6.152,6.152,0,0,1,2.274-.4,6.079,6.079,0,0,1,2.273.4,6.079,6.079,0,0,1-2.273.4A6.152,6.152,0,0,1,262.971,217.861Z" transform="translate(-169.72 -96.495)"/><path class="c" d="M251.214,204.075a6.183,6.183,0,0,1,2.274-.4,6.053,6.053,0,0,1,2.274.4,6.088,6.088,0,0,1-2.274.4A6.152,6.152,0,0,1,251.214,204.075Z" transform="translate(-176.766 -104.756)"/><path class="c" d="M254.846,217.858a6.14,6.14,0,0,1-1.89-1.324,6.067,6.067,0,0,1-1.324-1.89,6.112,6.112,0,0,1,1.89,1.324A6.176,6.176,0,0,1,254.846,217.858Z" transform="translate(-176.517 -98.184)"/><path class="c" d="M216.826,192.667a6.671,6.671,0,0,1-3.215-3.215,6.066,6.066,0,0,1,1.89,1.324A6.139,6.139,0,0,1,216.826,192.667Z" transform="translate(-199.303 -113.282)"/><path class="c" d="M237.52,184.443a6.653,6.653,0,0,1-3.215-3.215,6.653,6.653,0,0,1,3.215,3.215Z" transform="translate(-186.901 -118.211)"/><path class="c" d="M226.146,206.137a6.171,6.171,0,0,1-1.89-1.326,6.078,6.078,0,0,1-1.326-1.89,6.078,6.078,0,0,1,1.89,1.326A6.169,6.169,0,0,1,226.146,206.137Z" transform="translate(-193.718 -105.21)"/><path class="c" d="M207.88,217.931a6.208,6.208,0,0,1-1.89-1.326,6.074,6.074,0,0,1-1.324-1.89,6.666,6.666,0,0,1,3.215,3.216Z" transform="translate(-204.665 -98.141)"/><path class="c" d="M223.128,170.109a6.17,6.17,0,0,1-1.89-1.326,6.079,6.079,0,0,1-1.326-1.89,6.078,6.078,0,0,1,1.89,1.326A6.17,6.17,0,0,1,223.128,170.109Z" transform="translate(-195.527 -126.802)"/><path class="c" d="M246.81,168.413a6.166,6.166,0,0,1-1.89-1.324,6.085,6.085,0,0,1-1.324-1.89,6.085,6.085,0,0,1,1.89,1.324A6.165,6.165,0,0,1,246.81,168.413Z" transform="translate(-181.333 -127.818)"/><path class="c" d="M262.534,201.188a6.181,6.181,0,0,1-1.89-1.326,6.084,6.084,0,0,1-1.324-1.889,6.067,6.067,0,0,1,1.89,1.324A6.138,6.138,0,0,1,262.534,201.188Z" transform="translate(-171.909 -108.175)"/><path class="c" d="M236.515,155.154a6.17,6.17,0,0,1-1.89-1.326,6.078,6.078,0,0,1-1.326-1.89,6.079,6.079,0,0,1,1.89,1.326A6.169,6.169,0,0,1,236.515,155.154Z" transform="translate(-187.504 -135.765)"/><path class="c" d="M255.254,184.99a6.143,6.143,0,0,1-1.89-1.326,6.059,6.059,0,0,1-1.324-1.889,6.06,6.06,0,0,1,1.889,1.324A6.142,6.142,0,0,1,255.254,184.99Z" transform="translate(-176.272 -117.883)"/><path class="c" d="M255.254,170.427a6.18,6.18,0,0,1-1.326,1.89,6.085,6.085,0,0,1-1.889,1.324,6.654,6.654,0,0,1,3.215-3.215Z" transform="translate(-176.272 -124.684)"/><path class="c" d="M224.133,194.084a6.17,6.17,0,0,1-1.326,1.89,6.048,6.048,0,0,1-1.89,1.324,6.666,6.666,0,0,1,3.216-3.215Z" transform="translate(-194.925 -110.506)"/><path class="c" d="M263.29,188.446a6.17,6.17,0,0,1-1.326,1.89,6.079,6.079,0,0,1-1.89,1.326,6.077,6.077,0,0,1,1.326-1.89A6.169,6.169,0,0,1,263.29,188.446Z" transform="translate(-171.456 -113.885)"/><path class="c" d="M235.99,213.124a6.653,6.653,0,0,1-3.215,3.215,6.06,6.06,0,0,1,1.324-1.889A6.143,6.143,0,0,1,235.99,213.124Z" transform="translate(-187.818 -99.094)"/><path class="c" d="M234.226,164.628a6.671,6.671,0,0,1-3.215,3.215,6.654,6.654,0,0,1,3.215-3.215Z" transform="translate(-188.875 -128.16)"/><path class="c" d="M244.881,197.973a6.671,6.671,0,0,1-3.215,3.215,6.047,6.047,0,0,1,1.324-1.89A6.139,6.139,0,0,1,244.881,197.973Z" transform="translate(-182.489 -108.175)"/><path class="c" d="M262.873,208.7a6.671,6.671,0,0,1-3.215,3.215,6.671,6.671,0,0,1,3.215-3.215Z" transform="translate(-171.706 -101.746)"/><path class="c" d="M219.469,178.44a6.143,6.143,0,0,1-1.326,1.89,6.059,6.059,0,0,1-1.889,1.324,6.06,6.06,0,0,1,1.324-1.889A6.143,6.143,0,0,1,219.469,178.44Z" transform="translate(-197.719 -119.882)"/><path class="c" d="M249.557,153.949a6.169,6.169,0,0,1-1.326,1.89,6.074,6.074,0,0,1-1.89,1.324,6.665,6.665,0,0,1,3.216-3.215Z" transform="translate(-179.687 -134.56)"/><path class="c" d="M234.68,141.826a6.666,6.666,0,0,1-3.215,3.216,6.078,6.078,0,0,1,1.326-1.89A6.181,6.181,0,0,1,234.68,141.826Z" transform="translate(-188.603 -141.826)"/></g><g transform="translate(67.074 17.471)"><path class="m" d="M243.818,156.532l4.93-8.722,6.358,6.944-1.555,6.908-6.281.808Z" transform="translate(-243.818 -147.81)"/><path class="m" d="M247.1,157.279l-3.005,70.6,13.234,23.348,6.869-26.278-10.817-68.482Z" transform="translate(-243.65 -142.619)"/></g><path class="m" d="M255.224,137.277l-48.876,100.95c9.036-34.658,25.3-85.836,40.847-98.343C248.778,138.6,251.769,137.773,255.224,137.277Z" transform="translate(-199.201 -136.652)"/></g><g transform="translate(0 75.365)"><path class="o" d="M268.822,158.693c-6.8,12.187-47.078,57.576-48.1,62.062s7.838,16.392,7.894,18.186c.227,7.3-7.882,55.548-14.724,51.415-9.009-5.443-47.691-46.038-45.168-66.6s80.691-75.644,93.105-81.368S275.535,146.667,268.822,158.693Z" transform="translate(-167.298 -137.732)"/><g transform="translate(36.551 101.21)"><path class="o" d="M228.879,261.748c3.774-4.341-3.5-6.3-3.5-6.3s11.155.3,13.318-5.678c2.066-5.77-6.808-7.832-7.442-7.989.59.011,10.848.021,12.4-6.213,1.609-6.479-7.656-7.019-8.254-7.053.56-.165,7.936-2.468,8.038-7.472.173-8.6-21.5-3.814-27.425-7.467,0,0-.729-11.091-.648-11.434,0,0-1.262,4.742-4.716,6.8-4.285,2.545-8.257,4.411-9.545,7.138a6.305,6.305,0,0,0,1.236,7.423s-6.038.88-7.415,5.75c-.7,2.5,2.677,5.847,2.677,5.847s-4.8.905-5.759,5.313c-.774,3.515,2.735,6.324,2.735,6.324s-4.209,3.012-3.832,6.86C191.488,261.349,220.788,271.037,228.879,261.748Z" transform="translate(-190.596 -202.138)"/><g transform="translate(4.35 21.607)"><path class="m" d="M193.483,230.353a.081.081,0,0,0-.08.141c8.859,5.538,20.288,8.908,30.773,8.193.344-.024.454-.593.07-.64C213.3,236.718,203.69,234.666,193.483,230.353Z" transform="translate(-193.363 -206.84)"/><path class="m" d="M194.971,222.751c-.11-.046-.19.136-.08.2,9.158,5.657,22.136,9.1,34.123,6.85.413-.077.7-.558.224-.505C221.154,230.191,204.14,226.682,194.971,222.751Z" transform="translate(-192.478 -211.396)"/><path class="m" d="M231.747,219.969c-11.578,1.71-22.539-.462-33.479-4.313-.142-.05-.2.157-.091.23,4.838,3.343,12.067,5.07,17.8,5.938a30.855,30.855,0,0,0,15.827-1.451C232.009,220.3,231.995,219.932,231.747,219.969Z" transform="translate(-190.511 -215.648)"/></g><path class="m" d="M194.32,246.343c-2.215-1.643-4.042-3.965-3.615-6.884a5.568,5.568,0,0,1,1.913-3.386c1.259-1.083,3.309-1.361,4.28-1.572-2.09-2.042-3.45-5.06-2.236-7.915a5.5,5.5,0,0,1,2.919-2.725,17.933,17.933,0,0,1,4.63-1.035,6.444,6.444,0,0,1-2.78-5.073,6.992,6.992,0,0,1,2.933-5.634c2.015-1.635,4.494-2.508,6.805-3.622a16.8,16.8,0,0,0,3.432-2,7.133,7.133,0,0,0,2.193-3.464c.064-.257.339-.17.277.04a7.859,7.859,0,0,1-1.3,2.689,11.76,11.76,0,0,1-2.068,2.3c-1.9,1.631-4.261,2.532-6.361,3.859a9.992,9.992,0,0,0-4.277,4.806,5.966,5.966,0,0,0,1.42,6.111c.088.072.067.23-.106.261a17.312,17.312,0,0,0-3.958,1.555,5.857,5.857,0,0,0-2.385,2.54,7.648,7.648,0,0,0,1.607,7.466,13.091,13.091,0,0,0-3.994,2.25,5.522,5.522,0,0,0-1.427,2.786,6.593,6.593,0,0,0,2.444,6.487.144.144,0,0,1,.048.085l0,0a.138.138,0,0,1,.01.056.125.125,0,0,1-.032.093h0c-.014.018-1.327,1.02-1.4,1.044-.043.014-.053-.043-.029-.08A10.753,10.753,0,0,1,194.32,246.343Z" transform="translate(-190.643 -201.699)"/></g><path class="h" d="M195.189,279.355l31.91-45.917s-5.3-8.966-4.788-11.877,41.337-47.62,48.754-63.023,9.119-24.836-8.254-16.681-90.151,64.281-94.377,79.084S181.627,259.233,195.189,279.355Z" transform="translate(-167.789 -138.856)"/><g transform="translate(3.733 4.75)"><path class="c" d="M214.766,167.042a6.185,6.185,0,0,1-.4-2.274,6.088,6.088,0,0,1,.4-2.274,6.088,6.088,0,0,1,.4,2.274A6.152,6.152,0,0,1,214.766,167.042Z" transform="translate(-143.607 -129.439)"/><path class="c" d="M226.7,153.424a6.177,6.177,0,0,1-.4-2.273,6.088,6.088,0,0,1,.4-2.274,6.663,6.663,0,0,1,0,4.547Z" transform="translate(-136.455 -137.6)"/><path class="c" d="M198.433,177.581a6.152,6.152,0,0,1-.4-2.274,6.088,6.088,0,0,1,.4-2.274,6.088,6.088,0,0,1,.4,2.274A6.154,6.154,0,0,1,198.433,177.581Z" transform="translate(-153.395 -123.123)"/><path class="c" d="M178.613,187.327a6.185,6.185,0,0,1-.4-2.274,6.085,6.085,0,0,1,.4-2.273,6.086,6.086,0,0,1,.4,2.273A6.152,6.152,0,0,1,178.613,187.327Z" transform="translate(-165.274 -117.281)"/><path class="c" d="M195.238,194.378a6.153,6.153,0,0,1-.4-2.274,6.088,6.088,0,0,1,.4-2.274,6.054,6.054,0,0,1,.4,2.274A6.184,6.184,0,0,1,195.238,194.378Z" transform="translate(-155.31 -113.056)"/><path class="c" d="M179.113,204.192a6.15,6.15,0,0,1-.4-2.273,6.088,6.088,0,0,1,.4-2.274,6.088,6.088,0,0,1,.4,2.274A6.149,6.149,0,0,1,179.113,204.192Z" transform="translate(-164.975 -107.173)"/><path class="c" d="M195.238,209.056a6.153,6.153,0,0,1-.4-2.274,6.08,6.08,0,0,1,.4-2.273,6.046,6.046,0,0,1,.4,2.273A6.184,6.184,0,0,1,195.238,209.056Z" transform="translate(-155.31 -104.258)"/><path class="c" d="M221.445,144.851a6.185,6.185,0,0,1,2.274-.4,6.088,6.088,0,0,1,2.274.4,6.088,6.088,0,0,1-2.274.4A6.152,6.152,0,0,1,221.445,144.851Z" transform="translate(-139.364 -140.253)"/><path class="c" d="M223.219,160.381a6.152,6.152,0,0,1,2.274-.4,6.088,6.088,0,0,1,2.274.4,6.053,6.053,0,0,1-2.274.4A6.182,6.182,0,0,1,223.219,160.381Z" transform="translate(-138.301 -130.945)"/><path class="c" d="M204.926,159.151a6.152,6.152,0,0,1,2.274-.4,6.087,6.087,0,0,1,2.274.4,6.086,6.086,0,0,1-2.274.4A6.183,6.183,0,0,1,204.926,159.151Z" transform="translate(-149.264 -131.682)"/><path class="c" d="M211.653,171.918a6.663,6.663,0,0,1,4.547,0,6.664,6.664,0,0,1-4.547,0Z" transform="translate(-145.233 -124.03)"/><path class="c" d="M190.037,170.827a6.149,6.149,0,0,1,2.273-.4,6.087,6.087,0,0,1,2.274.4,6.085,6.085,0,0,1-2.274.4A6.181,6.181,0,0,1,190.037,170.827Z" transform="translate(-158.188 -124.684)"/><path class="c" d="M186.457,187.452a6.151,6.151,0,0,1,2.274-.4,6.08,6.08,0,0,1,2.273.4,6.08,6.08,0,0,1-2.273.4A6.152,6.152,0,0,1,186.457,187.452Z" transform="translate(-160.333 -114.72)"/><path class="c" d="M181.58,219.464a6.153,6.153,0,0,1,2.274-.4,6.085,6.085,0,0,1,2.273.4,6.085,6.085,0,0,1-2.273.4A6.152,6.152,0,0,1,181.58,219.464Z" transform="translate(-163.256 -95.534)"/><path class="c" d="M185.035,204.075a6.183,6.183,0,0,1,2.274-.4,6.053,6.053,0,0,1,2.274.4,6.088,6.088,0,0,1-2.274.4A6.152,6.152,0,0,1,185.035,204.075Z" transform="translate(-161.186 -104.756)"/><path class="c" d="M170.123,198.371a6.183,6.183,0,0,1,2.274-.4,6.083,6.083,0,0,1,2.273.4,6.084,6.084,0,0,1-2.273.4A6.152,6.152,0,0,1,170.123,198.371Z" transform="translate(-170.123 -108.175)"/><path class="c" d="M200.243,166.649a6.671,6.671,0,0,1-3.215-3.215,6.051,6.051,0,0,1,1.89,1.326A6.15,6.15,0,0,1,200.243,166.649Z" transform="translate(-153.998 -128.876)"/><path class="c" d="M193.669,182.274a6.666,6.666,0,0,1-3.216-3.215,6.048,6.048,0,0,1,1.89,1.324A6.17,6.17,0,0,1,193.669,182.274Z" transform="translate(-157.938 -119.511)"/><path class="c" d="M179.418,212.331a6.177,6.177,0,0,1-1.89-1.324,6.093,6.093,0,0,1-1.324-1.89,6.671,6.671,0,0,1,3.215,3.215Z" transform="translate(-166.479 -101.497)"/><path class="c" d="M193.937,214.758a6.177,6.177,0,0,1-1.89-1.324,6.111,6.111,0,0,1-1.324-1.89,6.112,6.112,0,0,1,1.89,1.324A6.177,6.177,0,0,1,193.937,214.758Z" transform="translate(-157.777 -100.042)"/><path class="c" d="M174.76,193.208a6.139,6.139,0,0,1-1.89-1.324,6.067,6.067,0,0,1-1.324-1.89,6.085,6.085,0,0,1,1.889,1.324A6.208,6.208,0,0,1,174.76,193.208Z" transform="translate(-169.271 -112.958)"/><path class="c" d="M191.51,198.031a6.181,6.181,0,0,1-1.889-1.326,6.078,6.078,0,0,1-1.326-1.89,6.665,6.665,0,0,1,3.215,3.216Z" transform="translate(-159.232 -110.068)"/><path class="c" d="M214.4,156.159a6.666,6.666,0,0,1-3.216-3.215,6.047,6.047,0,0,1,1.89,1.324A6.171,6.171,0,0,1,214.4,156.159Z" transform="translate(-145.514 -135.163)"/><path class="c" d="M209.4,181.269a6.17,6.17,0,0,1-1.89-1.326,6.049,6.049,0,0,1-1.324-1.89,6.665,6.665,0,0,1,3.215,3.216Z" transform="translate(-148.511 -120.114)"/><path class="c" d="M221.832,153.949a6.671,6.671,0,0,1-3.215,3.215,6.653,6.653,0,0,1,3.215-3.215Z" transform="translate(-141.059 -134.56)"/><path class="c" d="M208.133,166.893a6.666,6.666,0,0,1-3.215,3.216,6.048,6.048,0,0,1,1.324-1.89A6.17,6.17,0,0,1,208.133,166.893Z" transform="translate(-149.269 -126.802)"/><path class="c" d="M185.212,176.783a6.17,6.17,0,0,1-1.326,1.89A6.078,6.078,0,0,1,182,180a6.079,6.079,0,0,1,1.326-1.89A6.17,6.17,0,0,1,185.212,176.783Z" transform="translate(-163.007 -120.875)"/><path class="c" d="M183.03,192.295a6.143,6.143,0,0,1-1.326,1.89,6.048,6.048,0,0,1-1.89,1.324,6.684,6.684,0,0,1,3.216-3.215Z" transform="translate(-164.315 -111.578)"/><path class="c" d="M200.243,197.973a6.671,6.671,0,0,1-3.215,3.215,6.079,6.079,0,0,1,1.326-1.89A6.151,6.151,0,0,1,200.243,197.973Z" transform="translate(-153.998 -108.175)"/><path class="c" d="M186.633,210.538a6.671,6.671,0,0,1-3.215,3.215,6.079,6.079,0,0,1,1.326-1.89A6.151,6.151,0,0,1,186.633,210.538Z" transform="translate(-162.155 -100.644)"/><path class="c" d="M202.126,183.5a6.183,6.183,0,0,1-1.326,1.889,6.079,6.079,0,0,1-1.89,1.326,6.665,6.665,0,0,1,3.216-3.215Z" transform="translate(-152.87 -116.849)"/><path class="c" d="M234.68,141.826a6.666,6.666,0,0,1-3.215,3.216,6.078,6.078,0,0,1,1.326-1.89A6.181,6.181,0,0,1,234.68,141.826Z" transform="translate(-133.358 -141.826)"/></g><g transform="translate(24.33 91.19)"><path class="m" d="M183.242,233.811c1.356-1.414,2.442-3.087,3.661-4.62s2.375-3.125,3.528-4.718q3.327-4.594,6.549-9.268t6.457-9.337c2.218-3.218,4.636-6.391,6.592-9.778a.137.137,0,0,0-.219-.163c-2.551,2.96-4.747,6.289-7.05,9.441q-3.414,4.668-6.812,9.347c-2.261,3.122-4.509,6.257-6.711,9.422-1.083,1.556-2.143,3.119-3.16,4.718s-2.2,3.133-3.061,4.833C182.945,233.83,183.149,233.907,183.242,233.811Z" transform="translate(-183.002 -195.873)"/></g></g><g transform="translate(94.508 1.739)"><g transform="translate(11.034 48.471)"><path class="o" d="M256.161,160.3c-5.662,2.036-16.656-5.719-21.415-12.476-.325-.465-.158-5.756-.259-12.2-.078-3.907-.256-8.257-.705-12.214-.1-.811,2.839.368,2.839.368l5.262.656,17.4,2.189s-1.5,8.572-.675,15.466a9.068,9.068,0,0,0,.355,1.6c.018.074.05.162.067.265C259.885,146.988,261.631,158.328,256.161,160.3Z" transform="translate(-233.78 -123.127)"/><path class="m" d="M258.416,143.2c.018.074.05.162.067.265a15.815,15.815,0,0,1-2.535.425c-16.753,1.523-21.252-19.488-21.252-19.488l6.637-.462,17.4,2.189s-1.5,8.572-.675,15.466A9.071,9.071,0,0,0,258.416,143.2Z" transform="translate(-233.23 -122.637)"/></g><g transform="translate(0)"><g transform="translate(4.778 2.985)"><path class="o" d="M230.394,109.926c-2.325,8.964,3.432,34.327,9.969,39.758,9.474,7.875,24.444,8.03,31-3.235,6.354-10.919-1.735-43.839-8.985-48.721C251.7,90.54,233.826,96.686,230.394,109.926Z" transform="translate(-229.868 -94.686)"/></g><path class="q" d="M236.028,128.938l0-.008" transform="translate(-221.399 -71.178)"/><g transform="translate(20.672 22.585)"><g transform="translate(2.8 9.345)"><path class="m" d="M244.144,113.7c-.029-.061-.117.112-.1.181.433,1.7.643,3.717-.777,4.627-.045.029-.021.114.035.093C245.134,117.919,244.826,115.243,244.144,113.7Z" transform="translate(-240.545 -112.242)"/><path class="m" d="M243.232,112.8c-2.8.4-1.788,5.966.8,5.593C246.586,118.026,245.576,112.462,243.232,112.8Z" transform="translate(-241.557 -112.785)"/></g><g transform="translate(16.809 6.458)"><path class="m" d="M250.317,112.326c0-.069.149.058.16.128.257,1.734.844,3.675,2.508,3.965.051.01.062.1,0,.1C251.037,116.6,250.284,114.009,250.317,112.326Z" transform="translate(-250.316 -110.184)"/><path class="m" d="M251.53,111.043c2.735-.713,3.96,4.808,1.427,5.468C250.463,117.162,249.238,111.639,251.53,111.043Z" transform="translate(-250.316 -110.979)"/></g><path class="m" d="M241.624,113.109a22.378,22.378,0,0,0,2.017-1.15,3.757,3.757,0,0,0,1.834-1.566,1.2,1.2,0,0,0-.448-1.39,2.97,2.97,0,0,0-3,.232,4.358,4.358,0,0,0-2.133,2.3A1.276,1.276,0,0,0,241.624,113.109Z" transform="translate(-239.806 -105.896)"/><path class="m" d="M253.975,110.271a21.954,21.954,0,0,1-2.316-.173,3.739,3.739,0,0,1-2.327-.627,1.192,1.192,0,0,1-.192-1.447,2.961,2.961,0,0,1,2.8-1.075,4.348,4.348,0,0,1,2.916,1.163A1.276,1.276,0,0,1,253.975,110.271Z" transform="translate(-234.308 -106.942)"/><path class="m" d="M244.974,123.694c.486.328,1,.809,1.633.748a4.612,4.612,0,0,0,1.775-.769.061.061,0,0,1,.09.075,2.357,2.357,0,0,1-2.017,1.332,1.866,1.866,0,0,1-1.633-1.279C244.778,123.707,244.9,123.646,244.974,123.694Z" transform="translate(-236.805 -96.919)"/><g transform="translate(8.99 1.216)"><path class="m" d="M245.483,127.772a5.969,5.969,0,0,0,4.39,1.9,7.539,7.539,0,0,0,2.129-.286,2.106,2.106,0,0,0,.4-.12c.123-.038.234-.074.368-.126a.435.435,0,0,0,.275-.448l0-.013a.834.834,0,0,0-.05-.174l0-.013-.03-.15c-.2-1.334-.7-3.328-.7-3.328.529.155,3.2.819,3.037.133-1.382-5.678-2.92-11.992-5.5-17.35a.162.162,0,0,0-.306.1c1.113,5.51,3.188,10.786,4.395,16.3a10.475,10.475,0,0,0-2.924-.339c-.179.09,1.025,3.838,1.068,4.445a.18.18,0,0,1,0,.066c-2.177.689-3.981.321-6.417-.784C245.47,127.513,245.355,127.654,245.483,127.772Z" transform="translate(-245.427 -107.702)"/></g><g transform="translate(8.687 21.208)"><path class="m" d="M251.21,121.584a7.068,7.068,0,0,1-2.513,2.556,3.174,3.174,0,0,1-1.9.379c-1.436-.176-1.643-1.443-1.535-2.567a7.613,7.613,0,0,1,.4-1.75A9.168,9.168,0,0,0,251.21,121.584Z" transform="translate(-245.238 -120.202)"/><path class="r" d="M248.7,123.485a3.174,3.174,0,0,1-1.9.379c-1.436-.176-1.643-1.443-1.535-2.567A3.29,3.29,0,0,1,248.7,123.485Z" transform="translate(-245.238 -119.547)"/></g></g><path class="m" d="M236.2,131.463c5.862-1.142,4.968-12.006,4.968-12.006s7.108.625,7.125-7.234c0,0,13.369.078,20.364-4.082s-4.349-11.891,0-8.378c-2.748-3.768-5.009-3.827-5.009-3.827s-10.567-3.92-21.111-.8c-8.58,2.537-11.4,11.613-11.4,11.613a71.1,71.1,0,0,0-2.48,7.586C227.768,117.914,232.468,132.189,236.2,131.463Z" transform="translate(-228.552 -93.93)"/><g transform="translate(0.514 32.805)"><path class="o" d="M238.34,119.352s-6.292-7.9-9.909-5.6,1.473,13.991,5.975,15.352a4.482,4.482,0,0,0,5.844-2.78Z" transform="translate(-227.202 -113.332)"/><path class="m" d="M228.957,115.667c-.072,0-.078.1-.016.118,3.162,1.056,4.966,3.814,6.289,6.709-.99-1.084-2.277-1.631-3.738-.445-.077.062.008.184.093.16a2.759,2.759,0,0,1,3.09.771,13.319,13.319,0,0,1,1.6,2.359c.162.267.651.088.526-.224l-.03-.069C236.605,121.11,233.2,115.8,228.957,115.667Z" transform="translate(-226.185 -111.932)"/></g></g><g transform="translate(6.481 67.041)"><path class="h" d="M260.953,137.674l-5.411,15.342-19.561-18.279-5.048,6.353s19.635,29.53,19.691,28.156l5.658-13.268,9.361,8.66-1.7-22.675Z" transform="translate(-230.933 -134.738)"/><path class="m" d="M265.126,150.646c-.408-3.734-.712-7.507-1.291-11.218-.021-.133-.232-.182-.258-.026-.595,3.65,1.036,17.922,1.168,21.356l-.042-.038c-.39-.376-8.657-7.6-8.731-7.479-1.26,2.122-5.415,11.786-5.69,12.66-3.106-4.691-14.97-21.722-18.6-26.128a.13.13,0,0,0-.219.139c2.778,4.976,18.495,27.921,18.719,27.844a146.78,146.78,0,0,0,5.91-14.023c1.415,1.591,9.8,9.786,9.8,9.228A118.3,118.3,0,0,0,265.126,150.646Z" transform="translate(-230.624 -132.001)"/></g></g></g></g></g><g transform="translate(429.027 50.164)"><path class="s" d="M344.75,79.925a32.423,32.423,0,0,1-51.759,26.039L277.1,110.021l6.615-14.8a32.435,32.435,0,1,1,61.034-15.3Z" transform="translate(-277.101 -47.489)"/><g transform="translate(19.872 11.918)"><path class="h" d="M306.031,73.941V61.962a15.075,15.075,0,0,1,6.621,2.863,2.174,2.174,0,0,0,1.455.512,2.107,2.107,0,0,0,2.175-2.015,2.133,2.133,0,0,0-1.1-1.775,19.188,19.188,0,0,0-9.052-3.455v-1.2a2.075,2.075,0,0,0-4.142,0v1.072c-6.477.432-11.083,4.35-11.083,9.516,0,5.118,3.359,8.045,11.2,9.74V89.455a16.906,16.906,0,0,1-8.972-4.094,2.215,2.215,0,0,0-1.487-.544,2.124,2.124,0,0,0-2.111,2.015,1.984,1.984,0,0,0,.88,1.631,21.522,21.522,0,0,0,11.579,4.8v3.087a2.074,2.074,0,0,0,4.142,0V93.341c6.7-.464,11.307-4.382,11.307-9.708C317.434,78.579,313.916,75.572,306.031,73.941Zm-3.934-.832c-5.774-1.423-6.909-3.167-6.909-5.822,0-2.959,2.863-5.2,6.909-5.534Zm11.051,10.716c0,3.119-2.895,5.406-7.117,5.742V78.051C311.949,79.411,313.148,81.218,313.148,83.825Z" transform="translate(-289.526 -54.941)"/></g></g></g></svg>