<svg xmlns="http://www.w3.org/2000/svg" width="88" height="85" viewBox="0 0 88 85"><defs><style>.a,.c{fill:#69a82c;}.a{opacity:0.2;}.b{fill:none;}</style></defs><g transform="translate(-136 -1991)"><rect class="a" width="88" height="85" rx="17" transform="translate(136 1991)"/><g transform="translate(156.878 2010.878)"><path class="b" d="M0,0H46.244V46.244H0Z"/><path class="c" d="M21.268,40.536A19.268,19.268,0,1,1,40.536,21.268,19.268,19.268,0,0,1,21.268,40.536Zm0-3.854A15.415,15.415,0,1,0,5.854,21.268,15.415,15.415,0,0,0,21.268,36.683ZM11.634,21.268h3.854a5.78,5.78,0,1,0,11.561,0H30.9a9.634,9.634,0,1,1-19.268,0Z" transform="translate(1.854 1.854)"/></g></g></svg>