<svg xmlns="http://www.w3.org/2000/svg" width="88" height="85" viewBox="0 0 88 85"><defs><style>.a,.c{fill:#69a82c;}.a{opacity:0.2;}.b{fill:none;}</style></defs><g transform="translate(-136 -2731)"><rect class="a" width="88" height="85" rx="17" transform="translate(136 2731)"/><g transform="translate(157 2750)"><path class="b" d="M0,0H46.24V46.24H0Z"/><path class="c" d="M12.56,12.56V4.112A2.112,2.112,0,0,1,14.672,2H42.128A2.112,2.112,0,0,1,44.24,4.112V31.568a2.112,2.112,0,0,1-2.112,2.112H33.68v8.433a2.124,2.124,0,0,1-2.127,2.127H4.127A2.125,2.125,0,0,1,2,42.113l.006-27.426A2.124,2.124,0,0,1,4.133,12.56Zm4.224,0H31.553a2.124,2.124,0,0,1,2.127,2.127V29.456h6.336V6.224H16.784Zm12.672,4.224H6.23L6.224,40.016H29.456ZM15.734,35.792,8.266,28.324l2.986-2.986,4.482,4.482,8.959-8.961,2.986,2.986Z" transform="translate(0)"/></g></g></svg>