<svg xmlns="http://www.w3.org/2000/svg" width="88" height="85" viewBox="0 0 88 85"><defs><style>.a,.c{fill:#69a82c;}.a{opacity:0.2;}.b{fill:none;}</style></defs><g transform="translate(-136 -2486)"><rect class="a" width="88" height="85" rx="17" transform="translate(136 2486)"/><g transform="translate(157 2505)"><path class="b" d="M0,0H46.24V46.24H0Z"/><path class="c" d="M23.12,44.24A21.12,21.12,0,1,1,44.24,23.12,21.12,21.12,0,0,1,23.12,44.24Zm0-4.224a16.9,16.9,0,1,0-16.9-16.9A16.9,16.9,0,0,0,23.12,40.016ZM12.56,16.784,18.9,9.392l6.336,7.392H21.008v8.448H16.784V16.784ZM33.68,29.456l-6.336,7.392-6.336-7.392h4.224V21.008h4.224v8.448Z"/></g></g></svg>