<svg xmlns="http://www.w3.org/2000/svg" width="88" height="85" viewBox="0 0 88 85"><defs><style>.a,.c{fill:#69a82c;}.a{opacity:0.2;}.b{fill:none;}</style></defs><g transform="translate(-136 -3001)"><rect class="a" width="88" height="85" rx="17" transform="translate(136 3001)"/><g transform="translate(156 3020)"><path class="b" d="M0,0H46.24V46.24H0Z"/><path class="c" d="M17.946,22.064A4.752,4.752,0,1,1,22.7,17.312,4.752,4.752,0,0,1,17.946,22.064Zm.95,17.42V32.413a5.127,5.127,0,0,1,.853-2.826A13.671,13.671,0,0,0,9.12,32.58,16.921,16.921,0,0,0,18.9,39.486ZM7.181,28.738a17.985,17.985,0,0,1,16.926-2.382,17.8,17.8,0,0,1,6.406-1.124A15.575,15.575,0,0,1,39.4,27.673,16.9,16.9,0,1,0,7.181,28.738ZM37.648,31.75c-.83-1.126-3.607-2.294-7.136-2.294-4.237,0-7.392,1.683-7.392,2.957v7.6A16.888,16.888,0,0,0,37.651,31.75ZM23.12,44.24A21.12,21.12,0,1,1,44.24,23.12,21.12,21.12,0,0,1,23.12,44.24Zm7.392-20.064a4.224,4.224,0,1,1,4.224-4.224A4.224,4.224,0,0,1,30.512,24.176Z"/></g></g></svg>