<svg xmlns="http://www.w3.org/2000/svg" width="689.21" height="393.629" viewBox="0 0 689.21 393.629"><defs><style>.a,.o,.p{fill:none;}.a{stroke:#ebebeb;}.a,.g,.o,.p{stroke-miterlimit:10;}.b{fill:#c7c7c7;}.c{fill:#ebebeb;}.d{fill:#ffc727;}.e{fill:#69a82c;}.f,.g{fill:#fff;}.g{stroke:#c7c7c7;}.h{fill:#37474f;}.i{fill:#dbdbdb;}.j{fill:#a6a6a6;}.k{fill:#455a64;}.l{fill:#263238;}.m{fill:#ffc4c0;}.n{fill:#b55d2c;}.o,.p{stroke:#263238;}.p{stroke-width:0.5px;}.q{fill:#d6e27b;}.r{fill:#ff9cbd;}.s{fill:#72b74c;}.t{fill:#ad6359;}.u{opacity:0.1;}</style></defs><g transform="translate(-36.394 -48.226)"><g transform="translate(42.53 48.726)"><g transform="translate(437.864 132.585)"><g transform="translate(0 0)"><rect class="a" width="238.482" height="180.082"/><rect class="a" width="238.482" height="11.964"/></g><g transform="translate(5.207 3.059)"><path class="b" d="M483.8,185.017a3.01,3.01,0,1,1-3.009-3.009A3.01,3.01,0,0,1,483.8,185.017Z" transform="translate(-477.781 -182.008)"/><path class="c" d="M495.878,185.017a3.01,3.01,0,1,1-3.01-3.009A3.01,3.01,0,0,1,495.878,185.017Z" transform="translate(-477.567 -182.008)"/><path class="d" d="M507.954,185.017a3.01,3.01,0,1,1-3.009-3.009A3.01,3.01,0,0,1,507.954,185.017Z" transform="translate(-477.353 -182.008)"/></g></g><g transform="translate(17.135)"><rect class="a" width="131.57" height="94.776"/><rect class="a" width="131.57" height="11.964"/><g transform="translate(5.208 3.059)"><path class="b" d="M70.4,54.74a3.009,3.009,0,1,1-3.009-3.009A3.01,3.01,0,0,1,70.4,54.74Z" transform="translate(-64.377 -51.731)"/><path class="c" d="M82.473,54.74a3.01,3.01,0,1,1-3.01-3.009A3.01,3.01,0,0,1,82.473,54.74Z" transform="translate(-64.163 -51.731)"/><path class="d" d="M94.549,54.74a3.01,3.01,0,1,1-3.009-3.009A3.01,3.01,0,0,1,94.549,54.74Z" transform="translate(-63.949 -51.731)"/></g></g><g transform="translate(0 2.711)"><path class="c" d="M52.709,263.341a3,3,0,0,1,3.147.021q.4.24.807.46t.836.421a2.992,2.992,0,0,1,1.754,2.6l.12,3.87,12.605-.392-.119-3.868a3,3,0,0,1,1.584-2.719,17.484,17.484,0,0,0,1.6-.987,3,3,0,0,1,3.131-.2l3.4,1.825,5.963-11.118-3.4-1.826a2.994,2.994,0,0,1-1.565-2.717,17.5,17.5,0,0,0-.062-1.879,3,3,0,0,1,1.389-2.823l3.288-2.041-6.648-10.718L77.23,233.3a2.993,2.993,0,0,1-3.132-.023q-.4-.24-.807-.46t-.829-.417A3,3,0,0,1,70.7,229.79l-.117-3.873-12.605.392.122,3.859a3,3,0,0,1-1.579,2.72,17.414,17.414,0,0,0-1.6.993,3,3,0,0,1-3.133.2l-3.4-1.825-5.963,11.119,3.4,1.825a2.994,2.994,0,0,1,1.565,2.72,17.376,17.376,0,0,0,.06,1.886,3,3,0,0,1-1.392,2.821l-3.282,2.033,6.648,10.717Zm3.16-19.906A10.331,10.331,0,1,1,60.1,257.42,10.34,10.34,0,0,1,55.869,243.435Z" transform="translate(-42.423 -48.298)"/><path class="c" d="M689.957,80.414a2.1,2.1,0,0,1,1.95-1.029c.216.011.434.017.65.017s.439-.006.655-.017a2.1,2.1,0,0,1,1.944,1.025l1.356,2.35,7.652-4.416L702.81,76a2.1,2.1,0,0,1,.076-2.2,12.308,12.308,0,0,0,.661-1.139,2.1,2.1,0,0,1,1.865-1.16h2.706V62.656h-2.706a2.1,2.1,0,0,1-1.865-1.16,12.307,12.307,0,0,0-.661-1.139,2.1,2.1,0,0,1-.076-2.2l1.353-2.348-7.652-4.416-1.363,2.359a2.1,2.1,0,0,1-1.942,1.022c-.216-.01-.432-.016-.65-.016s-.435.006-.65.016a2.1,2.1,0,0,1-1.949-1.029L688.6,51.39l-7.652,4.416,1.353,2.342a2.1,2.1,0,0,1-.074,2.2,12.372,12.372,0,0,0-.662,1.144,2.1,2.1,0,0,1-1.867,1.162H677v8.838H679.7a2.1,2.1,0,0,1,1.867,1.162,12.374,12.374,0,0,0,.662,1.144A2.1,2.1,0,0,1,682.3,76l-1.353,2.342L688.6,82.76Zm-4.64-13.336a7.237,7.237,0,1,1,7.24,7.234A7.243,7.243,0,0,1,685.317,67.078Z" transform="translate(-31.181 -51.39)"/><path class="c" d="M70.246,302.032a2.1,2.1,0,0,1,1.028,1.95q-.017.324-.016.65t.016.655a2.1,2.1,0,0,1-1.025,1.944L67.9,308.586l4.416,7.653,2.348-1.355a2.1,2.1,0,0,1,2.2.077,12.132,12.132,0,0,0,1.139.66,2.1,2.1,0,0,1,1.16,1.866v2.705H88v-2.705a2.1,2.1,0,0,1,1.16-1.866,12.263,12.263,0,0,0,1.139-.66,2.1,2.1,0,0,1,2.2-.077l2.349,1.355,4.416-7.653-2.359-1.363a2.1,2.1,0,0,1-1.023-1.941q.017-.324.017-.65t-.017-.65a2.1,2.1,0,0,1,1.029-1.949l2.353-1.355-4.416-7.653-2.342,1.354a2.1,2.1,0,0,1-2.2-.075,12.36,12.36,0,0,0-1.144-.66A2.1,2.1,0,0,1,88,291.775v-2.7H79.166v2.7A2.1,2.1,0,0,1,78,293.643a12.232,12.232,0,0,0-1.144.66,2.1,2.1,0,0,1-2.2.075l-2.342-1.354L67.9,300.678Zm13.335-4.641a7.237,7.237,0,1,1-7.234,7.241A7.244,7.244,0,0,1,83.581,297.391Z" transform="translate(-41.972 -47.179)"/></g></g><g transform="translate(36.394 327.95)"><g transform="translate(4.117 33.085)"><path class="e" d="M72.446,381.352c-7.446.264-15.75.687-21.916-4.141-5.69-4.456-10.77-11.1-10.017-18.725.218-2.175.717-3.518,3.047-2.59,3.551,1.416,6.289,5.332,8.748,8.082a75.271,75.271,0,0,0,10.328,9.794c2.647,2.031,5.5,3.788,8.2,5.755q.514.36,1.013.752c.126.091.258.186.385.287.069.006.143.006.212.007a.366.366,0,0,1,.306.16.347.347,0,0,1,.058.127A.391.391,0,0,1,72.446,381.352Z" transform="translate(-40.439 -355.598)"/><path class="f" d="M72.724,380.742c-6.544-.112-13.608.185-18.843-4.257A30.337,30.337,0,0,1,47.8,369.1c-.756-1.231-3.025-4.9-2.085-6.364,1.7-2.644,9.5,8.134,10.579,9.167a31.942,31.942,0,0,0,14.454,7.507q.514.36,1.013.752a35.707,35.707,0,0,1-10.854-4.17c-4.645-2.771-7.229-6.867-10.863-10.692-.785-.83-3.153-3.611-4.046-1.88-.588,1.141,1.6,4.736,2.074,5.507a30.221,30.221,0,0,0,5.746,7.018c5.219,4.558,12.251,4.4,18.846,4.67A.346.346,0,0,1,72.724,380.742Z" transform="translate(-40.349 -355.479)"/></g><g transform="translate(31.648 18.031)"><path class="e" d="M76.073,386.156c-.065.285-.119.571-.179.862,0,.01-.005.015-.011.026a.2.2,0,0,1-.132.153.315.315,0,0,1-.392-.151.234.234,0,0,1,0-.179c.011-.038.021-.074.038-.117.026-.084.054-.169.08-.253a.064.064,0,0,1-.015-.021c-.005-.026-.016-.058-.021-.084-1.319-4.926-1.833-10.048-3.222-14.98-1.326-4.7-2.976-9.317-3.93-14.12-.6-3.026-2.709-18.216,3.984-16.323,2.967.841,5,5.134,6.125,7.7a31.316,31.316,0,0,1,2.464,10.915C81.345,368.848,77.95,377.276,76.073,386.156Z" transform="translate(-67.491 -340.806)"/><path class="f" d="M78.141,367.076a36.465,36.465,0,0,0-1.074-10.306c-.3-1.166-1.754-6.752-3.646-6.613-1.223.08-1.432,2.492-1.536,3.289-.426,3.381.67,6.832,1.328,10.121a139.758,139.758,0,0,1,2.458,20.289c-.057.427-.126.866-.173,1.292-.058.358-.093.715-.138,1.074-.011.127-.035.242-.046.369-.012.093-.023.184-.036.288a.319.319,0,0,0,.393.151c.035-.277.08-.554.116-.831.011.231.011.45.022.681,0-.011.011-.011.011-.022.047-.243.094-.473.139-.7.011-.058.022-.1.035-.162,0-.381-.012-.761-.023-1.131C76.825,378.939,77.99,373.054,78.141,367.076Zm-2.262,15.338c-.184-3.982-.577-7.952-1.142-11.9-.45-3.185-1.05-6.336-1.72-9.475a32.611,32.611,0,0,1-.854-5.379c-.058-1.385.138-6.509,2.781-3.335,1.9,2.308,2.365,7.213,2.6,10.041a51.5,51.5,0,0,1-.184,9.429C77,375.35,76.409,378.881,75.878,382.414Z" transform="translate(-67.414 -340.641)"/></g><g transform="translate(15.199 61.698)"><path class="e" d="M80.369,405.826h0a1.945,1.945,0,0,1-.275.034c-6.808-.344-15.876.294-21.539-4.209-4.183-3.328-8.292-9.9-6.97-15.478,1.5-6.288,10,1.257,12.243,3.077A207.718,207.718,0,0,1,80.5,405.478c.026.044.061.079.087.123a.1.1,0,0,0,.013.021C80.665,405.732,80.521,405.792,80.369,405.826Z" transform="translate(-51.328 -383.714)"/><path class="f" d="M80.515,405.516c-.393-.242-.785-.484-1.178-.738-4.478-2.816-8.84-5.828-13.03-9.048-1.061-.808-8.725-7.629-9.879-5.193-.693,1.477,1.835,4.478,2.643,5.494a21,21,0,0,0,5.17,4.616c4.536,2.827,10.041,3.439,15.176,4.8.243.047.485.116.728.185a.7.7,0,0,0,.127.08h.011C80.435,405.678,80.572,405.621,80.515,405.516Zm-13.468-3.878a21.069,21.069,0,0,1-5.874-3.97c-1.143-1.085-5.171-5.159-4.1-6.832.566-.888,1.039-.415,2.123.115a13.708,13.708,0,0,1,1.443.831c1.143.75,2.193,1.627,3.255,2.469,1.87,1.5,3.762,2.943,5.7,4.352,3.162,2.308,6.417,4.478,9.741,6.543C75.253,403.889,70.936,403.393,67.047,401.638Z" transform="translate(-51.24 -383.602)"/></g><g transform="translate(44.471 47.543)"><path class="d" d="M92.294,392.048a40.274,40.274,0,0,1-11.667,20.378.323.323,0,0,1-.127.073.306.306,0,0,1-.349-.129.289.289,0,0,1,.034-.391c.117-.111.229-.232.346-.348,1.128-9.255,2.37-18.455,3.323-27.738.223-2.185,1.936-16.106,6.212-13.84,2.64,1.4,2.818,7.1,3.043,9.667A40.493,40.493,0,0,1,92.294,392.048Z" transform="translate(-80.09 -369.805)"/><path class="f" d="M89.822,379.491c-.231-.773-.635-1.569-1.5-1.027-1.662,1.038-2.32,7.582-2.6,9.395-1.143,7.467-2.909,14.645-4.709,21.951-.15.612-.3,1.234-.45,1.858l-.416.554a.3.3,0,0,0,.347.127c.022-.058.035-.127.057-.185.185-.242.382-.5.555-.75V411.4a47.551,47.551,0,0,0,6.739-13.134,45.1,45.1,0,0,0,1.986-9.152C90.156,386.255,90.687,382.3,89.822,379.491Zm-8.737,31.415c-.08.127-.173.242-.253.369.08-.254.161-.5.23-.75a134.041,134.041,0,0,0,4.167-16.989c.5-2.92.808-5.863,1.409-8.759.253-1.223.854-4.72,1.87-5.286.981-.565.992.8,1.1,1.582.069.565.069,1.593.081,2.123A46.937,46.937,0,0,1,81.085,410.906Z" transform="translate(-80.089 -369.655)"/></g><path class="e" d="M82.385,432.946H81.023c-.023-1.2-.047-2.4-.08-3.589-.163-4.836-.358-9.671-.647-14.508-.161-2.758-.357-5.494-.646-8.2a2.326,2.326,0,0,1-.023-.278c-.034-.219-.057-.439-.08-.669s-.057-.473-.093-.715a58.489,58.489,0,0,0-4.673-17.773c-.866-1.882-1.813-3.717-2.8-5.54-.093-.173-.2-.346-.288-.519a.891.891,0,0,0-.081-.138c-.093-.184-.2-.358-.3-.542-.08-.138-.15-.266-.23-.4-3.152-5.539-6.753-10.837-10.168-16.168-.981-1.523-1.962-3.059-2.921-4.594a1.866,1.866,0,0,1-.172-.277,3.28,3.28,0,0,1-.22-.335c-4.293-6.775-8.517-13.607-12.972-20.255-.173-.242.231-.462.392-.219,3.012,4.409,6.129,8.747,9.222,13.11.415.577.819,1.165,1.236,1.742.819,1.154,1.627,2.3,2.434,3.451,1.616,2.308,3.209,4.616,4.767,6.959,4.385,6.567,8.967,13.192,12.533,20.278.266.531.52,1.061.773,1.6.162.335.323.67.462,1,.184.381.357.773.53,1.165,3.024,6.937,4.1,14.08,4.582,21.443.035.508.069,1.028.093,1.547.011.231.035.473.046.715,0,.127.012.253.023.381,0,.162.011.324.023.5v.011c0,.115.011.242.011.369.023.439.035.877.058,1.327.2,4.836.323,9.671.426,14.5C82.27,429.853,82.327,431.4,82.385,432.946Z" transform="translate(-36.249 -322.823)"/><path class="e" d="M41.895,345.609c-3.727-5.011-8.5-15.351-3.011-20.728a5.848,5.848,0,0,1,7.787-.575c2.9,2.1,4.2,6.066,5.144,9.35,2.518,8.768,4.186,17.7,7.33,26.3.056.051.266.734.341.922s-.22.253-.285.079c-.1-.28-.206-.56-.311-.84C52.951,355.809,46.313,351.555,41.895,345.609Z" transform="translate(-36.394 -323.089)"/><path class="f" d="M59.086,359.84c-.035-.046-.058-.1-.093-.15a61.492,61.492,0,0,1-3.485-6.487,124.243,124.243,0,0,1-5.355-14.357c-.6-1.881-3.278-11.091-6.567-7.421-1.385,1.547-1.189,4.283-.97,6.174a23.184,23.184,0,0,0,2.863,8.633c2.954,5.321,7.547,9.349,12.372,12.926.219.173.439.335.657.5.046.081.093.151.138.231a1.1,1.1,0,0,0,.093.151.158.158,0,0,0,.08.069.207.207,0,0,0,.289-.127A.154.154,0,0,0,59.086,359.84Zm-1.454-1.016A49.316,49.316,0,0,1,47.141,348.3a26.111,26.111,0,0,1-3.416-6.971,21.077,21.077,0,0,1-.739-3.381,14.926,14.926,0,0,1-.15-2.585c.058-1.893.843-3.959,1.962-4.155,1.385-.254,1.846.554,2.758,2.146a14.893,14.893,0,0,1,.819,1.662,45.727,45.727,0,0,1,1.547,4.363c.773,2.435,1.558,4.859,2.435,7.259.588,1.627,1.223,3.242,1.915,4.824a64.394,64.394,0,0,0,4.086,7.94C58.118,359.217,57.874,359.02,57.632,358.824Z" transform="translate(-36.286 -322.957)"/><g transform="translate(629.053 3.642)"><g transform="translate(12.963 13.976)"><path class="e" d="M678.939,359.313c-.616,4.967-1.566,9.887-2.571,14.787-.565,2.779-1.166,5.553-1.729,8.342-.619,3.065-1.53,6.189-.7,9.284.006,0,.015,0,.016.006a1.811,1.811,0,0,1,.033.428.173.173,0,0,1-.034.053.372.372,0,0,1-.642-.113c-.02-.072-.035-.139-.054-.207-.015-.021-.035-.043-.05-.065a12.191,12.191,0,0,1-1.072-2.576,65.62,65.62,0,0,1-2.468-7.182,62.086,62.086,0,0,1-2.415-15.323,52.41,52.41,0,0,1,1.443-13.8c.885-3.609,2.145-8.99,4.834-11.751,2.439-2.494,4.468,1.5,5.171,3.527C680.283,349.318,679.521,354.611,678.939,359.313Z" transform="translate(-667.234 -340.401)"/><path class="f" d="M674.457,348.625c-1.812,0-3.127,5.851-3.774,8.379a50.472,50.472,0,0,0-1.546,12.187,65.268,65.268,0,0,0,3.75,21.651c.093.277.185.566.289.843.011.023.035.046.046.069.023.058.035.127.058.2a.373.373,0,0,0,.646.115c-.116-.612-.208-1.211-.277-1.823-.069-.555-.127-1.1-.162-1.64-.5-5.944.358-12.025,1.107-17.923C675.472,363.755,676.857,348.636,674.457,348.625Zm-1.3,41.144c.093.807.219,1.6.369,2.389-.185-.577-.369-1.154-.542-1.731a72.244,72.244,0,0,1-3.416-19.1,51.7,51.7,0,0,1,.8-10.918,47.958,47.958,0,0,1,1.408-5.712c.254-.786,1.569-5.679,2.689-5.437.786.174.97,4.583.982,4.674.046.877.046,1.766.034,2.655-.022,1.823-.15,3.646-.3,5.459-.347,3.934-.912,7.859-1.385,11.783C673.153,379.059,672.541,384.506,673.153,389.769Z" transform="translate(-667.2 -340.255)"/></g><g transform="translate(18.443 40.863)"><path class="e" d="M707.372,372.565c-3.327,6.488-8.928,11.456-14.713,15.716-3.1,2.28-6.309,4.414-9.46,6.617-2.64,1.845-5.835,3.8-8.169,6.286-.1.1-.211.218-.311.336a13.326,13.326,0,0,0-1.693,2.337.194.194,0,0,1-.155.1,2.978,2.978,0,0,1-.11.287.066.066,0,0,1-.128-.027c.008-.1.029-.219.037-.322,0-.011,0-.015.005-.026a.2.2,0,0,1-.019-.249.724.724,0,0,1,.058-.1c.013-.1.024-.213.043-.318.948-7.586,6.251-15.248,10.736-21.087,4.461-5.814,10.019-11,16.945-13.671,1.743-.668,5.7-2.515,7.47-1.1C709.523,368.635,708.08,371.191,707.372,372.565Z" transform="translate(-672.619 -366.82)"/><path class="f" d="M702.233,372.5c-1.582-1.582-6.232,2.319-7.4,3.231a77.6,77.6,0,0,0-9.626,9.36c-4.917,5.459-9.3,11.137-12.291,17.785v.012c-.058.069-.1.138-.162.208-.022.115-.035.219-.046.323a.488.488,0,0,0-.058.1.207.207,0,0,0,.023.254c.08-.093.15-.184.23-.266.578-.715,1.19-1.409,1.813-2.088.1-.116.208-.231.311-.335,4.339-4.674,9.464-8.61,14.391-12.707A71.681,71.681,0,0,0,699,379.07C699.728,378.193,703.56,373.83,702.233,372.5Zm-1.454,3.473c-3.924,6.509-10.722,11.265-16.492,16.008a78.636,78.636,0,0,0-10.953,10.4,73.742,73.742,0,0,1,11.368-16,98.81,98.81,0,0,1,7.814-8.044,40.654,40.654,0,0,1,4.742-3.8,15.9,15.9,0,0,1,3.209-1.731C702.671,372.168,701.448,374.857,700.778,375.976Z" transform="translate(-672.619 -366.726)"/></g><g transform="translate(0 50.646)"><path class="d" d="M672.292,419.136a.4.4,0,0,1-.338.19c.03.044.057.078.086.117a.117.117,0,0,1-.021.162.107.107,0,0,1-.162,0c-6.148-6.256-12.073-13.855-15.135-22.143a34.315,34.315,0,0,1-2.2-10.911c-.068-2.551-.2-7.69,1.978-9.551,4.4-3.735,8.4,12.123,9,14.515,1.089,4.358,1.807,8.8,2.809,13.176,1.1,4.791,2.55,9.492,3.991,14.19A.328.328,0,0,1,672.292,419.136Z" transform="translate(-654.497 -376.433)"/><path class="f" d="M672.241,419.028c-.242-.4-.473-.808-.693-1.223a73.964,73.964,0,0,1-7.917-21.3,67.817,67.817,0,0,0-2.92-11.091c-.357-.877-1.454-4.259-2.909-2.551-.75.889-.126,7.294.174,8.945a46.836,46.836,0,0,0,3.566,10.895,77.062,77.062,0,0,0,10.075,16.366c.115.15.23.3.346.439a.111.111,0,0,0,.022-.162,1.162,1.162,0,0,1-.08-.115A.412.412,0,0,0,672.241,419.028Zm-8.921-13.63a54.362,54.362,0,0,1-4.224-10.572,38.585,38.585,0,0,1-.923-4.443,24.614,24.614,0,0,1-.3-3.543c.023-2.9.254-3.647.739-3.751.3-.057.715.254,1.57,1.986a18.982,18.982,0,0,1,1.235,3.52c.45,1.708.843,3.428,1.212,5.159.75,3.45,1.453,6.925,2.458,10.306a57.158,57.158,0,0,0,6.105,13.86A88.254,88.254,0,0,1,663.319,405.4Z" transform="translate(-654.444 -376.328)"/></g><g transform="translate(18.927 71.439)"><path class="e" d="M691.682,403.569a21.742,21.742,0,0,1-4.034,8.384c-3.647,5.04-8.314,9.228-12.3,13.992-.594.711-1.176,1.435-1.737,2.18-.058.083-.518,1.135-.512,1.047,0-.02.071-.42.2-1.1l0-.006c.641-3.338,2.737-13.417,5.352-18.57a44.491,44.491,0,0,1,5.823-9.112c1.13-1.278,3.783-4.042,5.782-3.439C692.413,397.6,691.991,401.968,691.682,403.569Z" transform="translate(-673.094 -396.864)"/><path class="f" d="M688.433,401.45c-2.136-1.328-7.641,8.505-8.379,9.775a62.584,62.584,0,0,0-6.278,14.992c-.174.588-.324,1.176-.474,1.777-.126.681-.208,1.073-.208,1.1.035,0,.462-.958.52-1.05.093-.126.2-.254.288-.381.473-.612.959-1.212,1.443-1.789,2.389-3.577,4.847-7.12,7.167-10.756a57.7,57.7,0,0,0,4.443-8.171C687.232,406.3,689.367,402.026,688.433,401.45Zm-.613,2.769c-3.035,8.552-9.233,15.292-13.964,22.886-.08.126-.15.242-.231.369.069-.22.127-.451.2-.67a71.324,71.324,0,0,1,5.02-12.487,68.107,68.107,0,0,1,4.224-7.041,34.271,34.271,0,0,1,2.632-3.659c.439-.484,1.7-1.766,2.123-1.546C688.433,402.373,688.017,403.654,687.82,404.219Z" transform="translate(-673.094 -396.784)"/></g><g transform="translate(27.544)"><path class="e" d="M712.966,334.226c-6.341,14.575-22.991,21.363-30.206,35.413-.014.029-.024.051-.035.073-.221.427-.43.863-.632,1.307a.3.3,0,0,1-.48.073.212.212,0,0,1-.027-.241c.043-.106.1-.214.15-.317,1.126-8.764,4.722-17.786,8.908-25.513,3.646-6.72,8.637-13,15.552-16.542,1.7-.876,5.027-2.722,6.935-1.275C715.153,328.734,713.749,332.43,712.966,334.226Z" transform="translate(-681.561 -326.668)"/><path class="f" d="M707.255,334.714c-.808-.6-2.031.127-2.723.486a24.42,24.42,0,0,0-4.813,3.289,40.19,40.19,0,0,0-7.676,9.129A82.9,82.9,0,0,0,683,365.956c-.485,1.467-.912,2.943-1.258,4.443-.047.185-.081.369-.127.555a.3.3,0,0,0,.484-.069c.185-.439.393-.843.6-1.27a.913.913,0,0,1,.058-.115,48.657,48.657,0,0,1,4.524-8.31,114.7,114.7,0,0,1,9.5-11.264C698.069,348.495,710.048,336.758,707.255,334.714Zm-1.016,3.371c-1.928,3.428-4.917,6.22-7.525,9.129-2.631,2.943-5.3,5.851-7.882,8.829a55.326,55.326,0,0,0-5.552,7.583,43.057,43.057,0,0,0-3.473,7.017,60.164,60.164,0,0,1,2.481-7.295.19.19,0,0,1,.046-.08,108.63,108.63,0,0,1,6.151-12.256c.023-.047.058-.1.081-.151a50.252,50.252,0,0,1,7.017-9.8,28.8,28.8,0,0,1,5-4.248c2.088-1.349,3.912-2.227,4.432-1.558C707.359,335.719,706.817,337.08,706.24,338.085Z" transform="translate(-681.56 -326.53)"/></g><path class="e" d="M691,350.885c-1.9,4.109-3.728,8.276-5.528,12.454q-1.281,2.943-2.527,5.874a.94.94,0,0,0-.058.115c-.3.7-.612,1.42-.912,2.124-2.747,6.393-5.77,12.937-7.445,19.712A59.607,59.607,0,0,0,673,402.117c-.011.381-.034.761-.057,1.142v.012c0,.208-.012.415-.012.623-.011.116-.011.231-.011.346-.115,3.2-.069,6.406-.011,9.522.08,4.351.45,8.667.865,12.972a2.108,2.108,0,0,0,.036.382c.011.2.035.392.046.588.011.1.022.2.035.3.011.184.035.369.046.554.138,1.385.266,2.77.382,4.167h-1.328a86.44,86.44,0,0,1-1.6-12.833,2.111,2.111,0,0,1-.011-.266c-.035-.415-.058-.843-.07-1.258-.034-.52-.057-1.028-.069-1.547q-.069-1.87-.1-3.7c-.127-7.11-.047-14.519,1.524-21.49.046-.2.091-.381.137-.577a1.935,1.935,0,0,1,.058-.242c.023-.138.058-.277.093-.415l.173-.657c.1-.393.219-.786.335-1.166l.1-.346c1.824-6.082,4.709-11.98,7.329-17.693.484-1.049.97-2.088,1.466-3.127l.831-1.731c.426-.865.865-1.742,1.292-2.608a.19.19,0,0,1,.046-.08c2.031-4.1,4.143-8.148,6.151-12.256C690.764,350.539,691.088,350.69,691,350.885Z" transform="translate(-654.203 -326.244)"/></g></g><g transform="translate(77.586 70.966)"><rect class="g" width="606.975" height="367.107"/><g transform="translate(564.834 33.854)"><rect class="c" width="16.182" height="2.602"/><rect class="c" width="16.182" height="2.602" transform="translate(0 11.66)"/><rect class="c" width="16.182" height="2.602" transform="translate(0 5.898)"/></g><g transform="translate(263.173 315.38)"><rect class="e" width="80.479" height="22.138"/><g transform="translate(10.343 7.63)"><path class="f" d="M345.624,394.794v-6.782h.669v6.19h3.916v.592Z" transform="translate(-345.624 -387.965)"/><path class="f" d="M355.651,394.2v.592H351.1v-6.782h4.471v.593h-3.8v2.446h3.315v.564h-3.315V394.2Z" transform="translate(-345.527 -387.965)"/><path class="f" d="M358.925,388.012h.564l2.817,6.782H361.6l-.878-2.119h-3.047l-.869,2.119h-.717Zm1.643,4.137L359.2,388.8l-1.384,3.352Z" transform="translate(-345.439 -387.965)"/><path class="f" d="M363.156,394.794v-6.782h2.865a1.771,1.771,0,0,1,.807.187,2.1,2.1,0,0,1,.635.487,2.211,2.211,0,0,1,.416.683,2.125,2.125,0,0,1,.149.773,2.268,2.268,0,0,1-.111.711,2.2,2.2,0,0,1-.305.611,1.831,1.831,0,0,1-.473.46,1.683,1.683,0,0,1-.621.252l1.662,2.617h-.754l-1.595-2.5h-2.006v2.5Zm.669-3.094h2.216a1.146,1.146,0,0,0,.54-.129,1.3,1.3,0,0,0,.415-.349,1.7,1.7,0,0,0,.268-.5,1.781,1.781,0,0,0,.095-.582,1.587,1.587,0,0,0-.11-.588,1.628,1.628,0,0,0-.3-.492,1.457,1.457,0,0,0-.44-.335,1.2,1.2,0,0,0-.53-.123h-2.159Z" transform="translate(-345.313 -387.965)"/><path class="f" d="M369.953,389.255v5.539h-.669v-6.782h.517l4.488,5.646v-5.636h.669v6.772h-.582Z" transform="translate(-345.205 -387.965)"/><path class="f" d="M384.931,394.794v-5.568l-2.473,4.307h-.392l-2.474-4.307v5.568h-.669v-6.782h.687l2.646,4.643,2.665-4.643h.678v6.782Z" transform="translate(-345.034 -387.965)"/><path class="f" d="M389.893,394.844a2.885,2.885,0,0,1-1.295-.291,3.231,3.231,0,0,1-1.008-.775,3.536,3.536,0,0,1-.649-1.1,3.657,3.657,0,0,1-.229-1.272,3.537,3.537,0,0,1,.243-1.3,3.589,3.589,0,0,1,.674-1.1,3.269,3.269,0,0,1,1.012-.758,2.854,2.854,0,0,1,1.261-.282,2.8,2.8,0,0,1,1.295.3,3.242,3.242,0,0,1,1,.787,3.653,3.653,0,0,1,.644,1.1,3.572,3.572,0,0,1,.229,1.256,3.518,3.518,0,0,1-.243,1.3,3.564,3.564,0,0,1-.669,1.093,3.209,3.209,0,0,1-1.008.754A2.855,2.855,0,0,1,389.893,394.844Zm-2.512-3.44a3.153,3.153,0,0,0,.181,1.066,2.866,2.866,0,0,0,.516.907,2.521,2.521,0,0,0,.793.631,2.218,2.218,0,0,0,1.022.235,2.179,2.179,0,0,0,1.041-.249,2.523,2.523,0,0,0,.793-.65,2.991,2.991,0,0,0,.5-.906,3.135,3.135,0,0,0,.176-1.033,3.064,3.064,0,0,0-.186-1.065,2.914,2.914,0,0,0-.52-.9,2.59,2.59,0,0,0-.793-.626,2.333,2.333,0,0,0-2.054.01,2.457,2.457,0,0,0-.793.645,2.973,2.973,0,0,0-.5.907A3.108,3.108,0,0,0,387.382,391.4Z" transform="translate(-344.896 -387.966)"/><path class="f" d="M394.2,394.794v-6.782h2.866a1.774,1.774,0,0,1,.807.187,2.107,2.107,0,0,1,.635.487,2.228,2.228,0,0,1,.415.683,2.126,2.126,0,0,1,.149.773,2.3,2.3,0,0,1-.11.711,2.174,2.174,0,0,1-.306.611,1.842,1.842,0,0,1-.472.46,1.69,1.69,0,0,1-.621.252l1.662,2.617h-.755l-1.595-2.5h-2.006v2.5Zm.669-3.094h2.216a1.145,1.145,0,0,0,.54-.129,1.282,1.282,0,0,0,.415-.349,1.68,1.68,0,0,0,.268-.5,1.783,1.783,0,0,0,.1-.582,1.61,1.61,0,0,0-.11-.588,1.631,1.631,0,0,0-.3-.492,1.434,1.434,0,0,0-.44-.335,1.2,1.2,0,0,0-.529-.123h-2.16Z" transform="translate(-344.763 -387.965)"/><path class="f" d="M404.887,394.2v.592h-4.556v-6.782h4.47v.593H401v2.446h3.314v.564H401V394.2Z" transform="translate(-344.655 -387.965)"/></g></g><rect class="h" width="606.975" height="9.5"/><g transform="translate(2.839 2.394)"><path class="b" d="M84.371,75.287a2.356,2.356,0,1,1-2.356-2.356A2.356,2.356,0,0,1,84.371,75.287Z" transform="translate(-79.659 -72.931)"/><path class="f" d="M93.824,75.287a2.356,2.356,0,1,1-2.356-2.356A2.355,2.355,0,0,1,93.824,75.287Z" transform="translate(-79.492 -72.931)"/><path class="d" d="M103.277,75.287a2.356,2.356,0,1,1-2.356-2.356A2.355,2.355,0,0,1,103.277,75.287Z" transform="translate(-79.324 -72.931)"/></g><g transform="translate(596.547 9.5)"><rect class="i" width="10.428" height="357.606"/><path class="j" d="M668.2,203.855h0a2.693,2.693,0,0,1-2.693-2.693V84.664a2.693,2.693,0,0,1,2.693-2.693h0a2.693,2.693,0,0,1,2.694,2.693v116.5A2.694,2.694,0,0,1,668.2,203.855Z" transform="translate(-662.988 -79.877)"/></g><g transform="translate(69.791 46.506)"><g transform="translate(0.153)"><path class="k" d="M152.886,124.946v-6.241l-2.577,4.726h-.757l-2.589-4.726v6.241H145.6v-8.671h1.465l2.87,5.3,2.87-5.3h1.465v8.671Z" transform="translate(-145.595 -116.275)"/><path class="k" d="M161.983,123.737v1.209h-5.948v-8.671h5.838v1.209H157.4v2.467h3.871v1.136H157.4v2.65Z" transform="translate(-145.41 -116.275)"/><path class="k" d="M169.219,123.737v1.209h-5.948v-8.671h5.838v1.209h-4.47v2.467h3.871v1.136h-3.871v2.65Z" transform="translate(-145.282 -116.275)"/><path class="k" d="M176.884,117.484H174v7.462h-1.38v-7.462h-2.894v-1.209h7.157Z" transform="translate(-145.167 -116.275)"/></g><g transform="translate(0 14.004)"><path class="k" d="M155.284,150.159a9.241,9.241,0,0,1-4.026-.866,9.92,9.92,0,0,1-3.1-2.279,10.377,10.377,0,0,1-2-3.228,10.167,10.167,0,0,1-.712-3.745,9.9,9.9,0,0,1,.741-3.774,10.006,10.006,0,0,1,5.213-5.408,9.492,9.492,0,0,1,3.969-.824,9.243,9.243,0,0,1,4.025.866,9.816,9.816,0,0,1,3.1,2.292,10.352,10.352,0,0,1,1.985,3.242,10.2,10.2,0,0,1,.7,3.689,9.907,9.907,0,0,1-.741,3.774,10.032,10.032,0,0,1-5.185,5.422A9.358,9.358,0,0,1,155.284,150.159ZM150.112,140.1a7.412,7.412,0,0,0,.336,2.222,5.935,5.935,0,0,0,.992,1.914,4.882,4.882,0,0,0,1.635,1.342,4.811,4.811,0,0,0,2.236.5,4.721,4.721,0,0,0,2.292-.531,4.96,4.96,0,0,0,1.621-1.383,6.031,6.031,0,0,0,.964-1.929,7.615,7.615,0,0,0,.322-2.194,7.438,7.438,0,0,0-.335-2.222,5.648,5.648,0,0,0-1.007-1.9,4.986,4.986,0,0,0-1.635-1.314,4.848,4.848,0,0,0-2.222-.489,4.746,4.746,0,0,0-2.278.518,5.066,5.066,0,0,0-1.622,1.356,5.722,5.722,0,0,0-.978,1.914A7.649,7.649,0,0,0,150.112,140.1Z" transform="translate(-145.445 -130.035)"/><path class="k" d="M175.973,146.076a3.78,3.78,0,0,0,1.985-.488,3.889,3.889,0,0,0,1.314-1.3,5.559,5.559,0,0,0,.713-1.858,10.9,10.9,0,0,0,.21-2.138V130.145h4.584v10.146a13.858,13.858,0,0,1-.517,3.857,8.887,8.887,0,0,1-1.594,3.13,7.468,7.468,0,0,1-2.739,2.111,9.374,9.374,0,0,1-3.956.768,9.246,9.246,0,0,1-4.053-.81,7.528,7.528,0,0,1-2.725-2.167,8.931,8.931,0,0,1-1.537-3.145,14.107,14.107,0,0,1-.49-3.745V130.145h4.584v10.146a10.252,10.252,0,0,0,.224,2.18,5.785,5.785,0,0,0,.727,1.845,3.593,3.593,0,0,0,3.27,1.761Z" transform="translate(-145.06 -130.033)"/><path class="k" d="M187.959,149.989V130.145H196.9a5.769,5.769,0,0,1,2.586.586,6.874,6.874,0,0,1,2.054,1.538,7.182,7.182,0,0,1,1.356,2.152,6.405,6.405,0,0,1,.49,2.431,6.915,6.915,0,0,1-.867,3.382,6.07,6.07,0,0,1-2.375,2.376l4.36,7.378h-5.17l-3.8-6.4h-2.99v6.4Zm4.585-10.4h4.192a1.719,1.719,0,0,0,1.4-.768,3.149,3.149,0,0,0,.587-1.97,2.771,2.771,0,0,0-.671-1.957,1.969,1.969,0,0,0-1.453-.727h-4.053Z" transform="translate(-144.692 -130.033)"/></g><g transform="translate(66.159 14.116)"><path class="k" d="M227.139,134.169H221.1v15.82h-4.584v-15.82h-6.066v-4.024h16.687Z" transform="translate(-210.452 -130.145)"/><path class="k" d="M242.993,145.965v4.024H229.046V130.145h13.7v4.024H233.63v3.858h7.826v3.717H233.63v4.221Z" transform="translate(-210.123 -130.145)"/><path class="k" d="M250.923,130.145h4.137l7.239,19.844h-4.7l-1.537-4.444h-6.177l-1.509,4.444h-4.7Zm4.388,12.242-2.319-7.016-2.376,7.016Z" transform="translate(-209.863 -130.145)"/><path class="k" d="M279.551,149.989V138.111l-4.3,8.636h-2.46l-4.3-8.636v11.879H263.9V130.145h4.976l5.143,10.369,5.171-10.369h4.947v19.844Z" transform="translate(-209.505 -130.145)"/></g><rect class="k" width="105.683" height="1.225" transform="translate(35.105 7.446)"/></g><g transform="translate(229.394 54.564)"><line class="a" x2="298.944"/><line class="a" x2="298.944" transform="translate(0 7.155)"/><line class="a" x2="298.944" transform="translate(0 14.311)"/><line class="a" x2="186.995" transform="translate(0 21.466)"/></g></g><g transform="translate(103.362 159.565)"><g transform="translate(0 0)"><path class="c" d="M138.668,320.6l17.481,12.128a4.067,4.067,0,0,1,1.023,5.66h0a4.16,4.16,0,0,1-3.124,1.739,8.482,8.482,0,1,0,8.83,6.127,4.169,4.169,0,0,1,.535-3.537h0a4.067,4.067,0,0,1,5.66-1.023l17.481,12.128-12.128,17.481a4.067,4.067,0,0,0,1.023,5.659h0a4.169,4.169,0,0,0,3.537.534,8.481,8.481,0,1,1-6.127,8.831,4.164,4.164,0,0,0-1.739-3.125h0a4.067,4.067,0,0,0-5.66,1.023L153.331,401.71,135.85,389.582a4.067,4.067,0,0,1-1.023-5.659h0a4.17,4.17,0,0,1,3.125-1.739,8.481,8.481,0,1,0-8.831-6.126,4.169,4.169,0,0,1-.534,3.537h0a4.067,4.067,0,0,1-5.66,1.023l-17.481-12.128,12.128-17.481a4.066,4.066,0,0,0-1.024-5.66h0a4.167,4.167,0,0,0-3.536-.535,8.481,8.481,0,1,1,6.126-8.83,4.167,4.167,0,0,0,1.739,3.124h0a4.067,4.067,0,0,0,5.66-1.023Z" transform="translate(-102.196 -154.749)"/><path class="b" d="M598.193,157.636l17.481,12.127a4.066,4.066,0,0,1,1.024,5.66h0a4.168,4.168,0,0,1-3.125,1.74,8.481,8.481,0,1,0,8.831,6.126,4.166,4.166,0,0,1,.534-3.537h0a4.067,4.067,0,0,1,5.659-1.023l17.481,12.128L633.95,208.339a4.066,4.066,0,0,0,1.024,5.66h0a4.167,4.167,0,0,0,3.536.535,8.482,8.482,0,1,1-6.126,8.83,4.17,4.17,0,0,0-1.739-3.125h0a4.066,4.066,0,0,0-5.66,1.024l-12.128,17.481-17.481-12.128a4.067,4.067,0,0,1-1.023-5.66h0a4.161,4.161,0,0,1,3.124-1.739,8.482,8.482,0,1,0-8.83-6.127,4.169,4.169,0,0,1-.535,3.537h0a4.067,4.067,0,0,1-5.66,1.023l-17.481-12.128L577.1,188.039a4.067,4.067,0,0,0-1.023-5.66h0a4.169,4.169,0,0,0-3.537-.535,8.481,8.481,0,1,1,6.127-8.83,4.164,4.164,0,0,0,1.739,3.125h0a4.066,4.066,0,0,0,5.66-1.024Z" transform="translate(-94.055 -157.636)"/><path class="b" d="M266.121,270.028a20.114,20.114,0,0,0,20.11,20.11v72.278H145.45V177.64H286.231v72.278A20.114,20.114,0,0,0,266.121,270.028Z" transform="translate(-101.43 -157.282)"/><circle class="b" cx="20.11" cy="20.11" r="20.11" transform="translate(94.299 0.246)"/><g transform="translate(178.803 20.358)"><path class="k" d="M426.511,270.028a20.114,20.114,0,0,0,20.11,20.11v72.278H305.83V177.64h50.285v.081a20.11,20.11,0,0,0,40.22,0v-.081h50.285v72.278A20.114,20.114,0,0,0,426.511,270.028Z" transform="translate(-277.391 -177.64)"/><circle class="k" cx="20.11" cy="20.11" r="20.11" transform="translate(0 92.387) rotate(-45)"/></g><g transform="translate(347.415 0.332)"><rect class="e" width="140.781" height="184.776" transform="translate(23.058 20.026)"/><circle class="e" cx="20.11" cy="20.11" r="20.11" transform="matrix(0.159, -0.987, 0.987, 0.159, 0, 129.066)"/><circle class="e" cx="20.11" cy="20.11" r="20.11" transform="translate(73.339)"/></g></g></g><g transform="translate(161.105 204.097)"><g transform="translate(6.819 0.102)"><path class="l" d="M212.283,204.274s-11.323-6.259-21.385,0-14.852,21.687-13.128,34.631-8.827,21.493-9.969,31.111,5.172,14.065,7.292,19.111c2.426,5.777-7.292,26.3,17.443,31.061,30.929,5.952,42.764-13.07,39.608-28.8-1.546-7.7-5.879-13.179-5.8-19.413s4.485-11.2,2.186-19.1-5.342-6.83-6.6-19.24S223.234,206.385,212.283,204.274Z" transform="translate(-165.598 -201.493)"/><path class="l" d="M193.072,203.935a38.327,38.327,0,0,0-14.625,17.6,35.5,35.5,0,0,0-2.621,11.262c-.318,5.057.456,9.791-1.426,14.7-3.014,7.862-9.042,14.421-8.756,23.176a21.659,21.659,0,0,0,3.719,11.425c2.675,3.956,6.481,7.077,8.718,11.314.093.175.365.021.279-.152-1.863-3.767-4.889-6.643-7.4-10.012a22.014,22.014,0,0,1-4.572-13.765c.239-8.323,6.184-14.722,8.961-22.308a26.591,26.591,0,0,0,1.226-10.359,37.581,37.581,0,0,1,1.6-12.52,40.468,40.468,0,0,1,14.983-20.253C193.222,203.994,193.138,203.892,193.072,203.935Z" transform="translate(-165.634 -201.45)"/><path class="l" d="M179.807,296.824a.028.028,0,1,0,0,.056A.028.028,0,1,0,179.807,296.824Z" transform="translate(-165.384 -199.804)"/><path class="l" d="M231.12,288.8c-.779-3.72-2.724-7.1-3.5-10.8-.934-4.465.194-8.912,1.045-13.3,1.215-6.254,1.078-12.161-1.683-18.05-1.785-3.807-3.961-7.37-5.286-11.377a46.907,46.907,0,0,1-2.361-13.44.081.081,0,0,0-.162,0,42.829,42.829,0,0,0,4.138,19.174c1.684,3.517,3.784,6.82,4.754,10.615,1.166,4.563.711,8.97-.085,13.546a52.006,52.006,0,0,0-1.148,9.246,25.965,25.965,0,0,0,2.186,9.11,32.022,32.022,0,0,1-.136,23.6c-.052.134.186.23.244.1A30.446,30.446,0,0,0,231.12,288.8Z" transform="translate(-164.686 -201.134)"/><path class="l" d="M166.995,268.283c.275-6.856,5.051-11.512,7.95-17.455,2.191-4.49,3.68-9.285,2.954-14.233-.012-.08-.158-.061-.154.019.372,7.163-2.634,13.656-6.6,19.652-2.635,3.986-4.816,7.819-4.84,12.619-.023,4.7,1.855,8.662,4.533,12.552,1.908,2.772,3.786,5.357,4.594,8.634a34.861,34.861,0,0,1,.464,9.994c-.008.173.273.169.288,0,.454-5.134.529-10.115-2.055-14.8C170.958,279.5,166.716,275.248,166.995,268.283Z" transform="translate(-165.622 -200.872)"/><path class="l" d="M232.305,283.171a42.132,42.132,0,0,0-3.941-6.64c-2.623-3.854-3.06-6.983-2.187-11.559a.09.09,0,0,0-.173-.045c-1.257,3.77-1.555,6.9.68,10.376,3.118,4.845,6.174,9.26,6.817,15.045,1.139,10.267-4.661,19.841-14.061,25.038-.133.073-.015.259.121.192,7.888-3.887,13.421-10.915,14.572-19.205A24.542,24.542,0,0,0,232.305,283.171Z" transform="translate(-164.682 -200.37)"/></g><g transform="translate(57.183 65.74)"><path class="m" d="M228.608,273.033c22.7,21.575,51.856,67.552,47.007,77.219-5.4,10.767-37.014-19.482-36.955-21.309.045-1.382-11.638-29.5-20.472-49.947C209.362,258.572,223,267.7,228.608,273.033Z" transform="translate(-215.118 -265.983)"/><path class="k" d="M238.459,328.989c-1.033-3.013-16.892-40.083-21.463-51.818s-.806-15.535,11.507-5.048,39.695,45.969,46.3,65.055c6.362,18.385-3.2,18.692-16.09,10.539C248.157,341.041,238.459,328.989,238.459,328.989Z" transform="translate(-215.121 -265.989)"/></g><g transform="translate(30.211)"><g transform="translate(9.743 37.019)"><path class="n" d="M198.4,262.514c.412,1.418,7.758,10.37,14.3,9.714,2.13-.218,1.462-11.9,1.462-11.9l.149-.874,2.061-12.232-14.685-8.356-2.117-1.1s-.343,3.384-.728,7.6c-.019.2-.038.391-.055.6-.029.238-.058.462-.073.686-.066.629-.13,1.272-.18,1.914-.041.488-.083.963-.107,1.477s-.062,1.016-.1,1.531A79.965,79.965,0,0,0,198.4,262.514Z" transform="translate(-198.193 -237.767)"/><path class="l" d="M198.831,245.368A24.885,24.885,0,0,0,214.3,259.453l2.061-12.232-14.685-8.356-2.117-1.1S199.216,241.151,198.831,245.368Z" transform="translate(-198.181 -237.767)"/></g><path class="n" d="M231.809,226.287c4.424,21.316-7.845,26.372-12.443,27.322-4.174.861-18.494,3.264-25.1-17.482s1.911-29.541,11.352-32.015S227.386,204.97,231.809,226.287Z" transform="translate(-188.561 -201.357)"/><g transform="translate(19.891 17.804)"><path class="l" d="M224.1,220.993a14.21,14.21,0,0,1-1.5-.061,2.427,2.427,0,0,1-1.52-.354.775.775,0,0,1-.157-.932,1.919,1.919,0,0,1,1.792-.758,2.824,2.824,0,0,1,1.912.689A.826.826,0,0,1,224.1,220.993Z" transform="translate(-207.94 -218.887)"/><path class="l" d="M209.663,224.209a14.419,14.419,0,0,0,1.4-.552,2.429,2.429,0,0,0,1.32-.835.774.774,0,0,0-.159-.931,1.919,1.919,0,0,0-1.942-.127,2.822,2.822,0,0,0-1.58,1.278A.826.826,0,0,0,209.663,224.209Z" transform="translate(-208.157 -218.839)"/><g transform="translate(0 8.707)"><g transform="translate(2.213)"><path class="l" d="M213.368,228.7c-.021-.053-.1.091-.087.151.327,1.446.458,3.158-.765,3.895-.038.023-.019.1.027.079C214.107,232.286,213.911,230.015,213.368,228.7Z" transform="translate(-210.301 -227.42)"/><path class="l" d="M211.814,227.45c-2.375.274-1.653,5.005.549,4.751C214.528,231.951,213.8,227.22,211.814,227.45Z" transform="translate(-210.339 -227.442)"/></g><path class="l" d="M210.962,227.836c-.372.331-.705.865-1.2.99-.567.146-1.079-.283-1.528-.7-.047-.043-.081,0-.072.067.124.909.616,1.785,1.608,1.772.9-.012,1.419-.912,1.505-1.858C211.3,227.929,211.111,227.7,210.962,227.836Z" transform="translate(-208.165 -227.436)"/></g><g transform="translate(14.23 5.634)"><g transform="translate(0 0.538)"><path class="l" d="M222.154,226.683c0-.057.124.053.131.113.166,1.474.6,3.135,2,3.429.044.009.05.083,0,.084C222.635,230.316,222.075,228.106,222.154,226.683Z" transform="translate(-222.147 -224.921)"/><path class="l" d="M223.242,224.992c2.334-.521,3.2,4.185,1.042,4.667C222.157,230.134,221.286,225.429,223.242,224.992Z" transform="translate(-222.147 -224.952)"/></g><path class="l" d="M224.247,225.129c.418.18.87.566,1.319.513.521-.062.808-.641,1.046-1.19.025-.057.069-.024.082.038.191.895.067,1.886-.765,2.219-.758.3-1.48-.361-1.86-1.217C224,225.333,224.079,225.057,224.247,225.129Z" transform="translate(-222.113 -224.423)"/></g><path class="l" d="M216.625,239.664c.39.307.793.745,1.332.733a3.913,3.913,0,0,0,1.545-.539.052.052,0,0,1,.072.068,2,2,0,0,1-1.786,1,1.579,1.579,0,0,1-1.3-1.181C216.459,239.663,216.568,239.62,216.625,239.664Z" transform="translate(-208.017 -218.519)"/><g transform="translate(8.98 0.701)"><path class="l" d="M221.859,233.724s.663,2.135.833,3.165c.015.1-.226.184-.573.262-.015.008-.023.016-.04.008a4.964,4.964,0,0,1-5.059-1.045c-.088-.089.025-.217.13-.168a7.479,7.479,0,0,0,4.684.544c.026-.3-1.256-3.618-1.094-3.658a9.061,9.061,0,0,1,2.427.145c-1.251-4.487-3.21-8.736-4.387-13.222a.142.142,0,0,1,.259-.111c2.368,4.308,3.92,9.439,5.331,14.039C224.55,234.256,222.3,233.832,221.859,233.724Z" transform="translate(-216.988 -219.576)"/></g></g><path class="l" d="M194.978,235.143c4.581-.641,3.442-11.168,3.442-11.168s7.567-2.438,10.1-8.116c0,0-1.56,4.834-4.358,7.1-.47.381,15.073-3.226,15.013-15.479,0,0,3.842,11.61,11.337,13.129.358.072-2.44-10.708-5.079-12.958a23.12,23.12,0,0,0-5.005-3.3,22.751,22.751,0,0,0-17.066-2.16c-9.491,2.648-14.519,13.619-14.719,17.882C188.251,228.455,192.8,235.447,194.978,235.143Z" transform="translate(-188.62 -201.393)"/><path class="l" d="M204.421,223.07c8.539-1.476,14.671-7.832,14.262-16.7a.2.2,0,0,1,.382-.05c2.3,8.748-6.485,16.505-14.7,16.907C204.164,223.242,204.221,223.1,204.421,223.07Z" transform="translate(-188.343 -201.308)"/><path class="l" d="M194.827,234.3c4.347-2.985,4.486-7.754,4.228-12.546-.008-.14.23-.176.251-.033.67,4.647.552,10.46-4.261,12.948A.215.215,0,0,1,194.827,234.3Z" transform="translate(-188.511 -201.034)"/><path class="l" d="M218.491,205.584a.046.046,0,0,1,.091-.011c1.675,4.783,2.951,13.053,9.411,13.49a.133.133,0,0,1,0,.266C221.754,219.459,218.478,210.755,218.491,205.584Z" transform="translate(-188.09 -201.319)"/><g transform="translate(3.369 19.777)"><path class="k" d="M213.387,236.733a6.4,6.4,0,1,1,5.323-8.591h0a6.4,6.4,0,0,1-5.323,8.59Zm-1.264-11.878a5.544,5.544,0,1,0,5.785,3.585A5.569,5.569,0,0,0,212.123,224.855Z" transform="translate(-191.675 -220.77)"/><path class="k" d="M227.422,233.468c-2.434.259-4.908-2-5.646-5.257a7.635,7.635,0,0,1,.33-4.662,3.987,3.987,0,0,1,6.656-1.508,7.649,7.649,0,0,1,2.307,4.065c.779,3.441-.671,6.713-3.232,7.294A3.582,3.582,0,0,1,227.422,233.468Zm-1.9-11.769a2.635,2.635,0,0,0-.321.053,3.413,3.413,0,0,0-2.306,2.134,6.8,6.8,0,0,0-.282,4.136c.676,2.981,2.929,5.022,5.038,4.543s3.262-3.289,2.587-6.27a6.791,6.791,0,0,0-2.037-3.611A3.523,3.523,0,0,0,225.518,221.7Z" transform="translate(-191.405 -220.825)"/><path class="k" d="M218.461,228.867l-.681-.518c.766-1.009,2.713-2.574,4.606-1.288l-.48.707C220.211,226.614,218.532,228.775,218.461,228.867Z" transform="translate(-191.472 -220.723)"/><path class="k" d="M192.758,236.666l-.828-.215c.1-.387,1.033-3.794,2.828-4.519,1.678-.673,11.817-2.108,12.3-2.17l.109.848c-3.275.422-10.795,1.592-12.09,2.116C193.893,233.2,193,235.732,192.758,236.666Z" transform="translate(-191.93 -220.667)"/></g><g transform="translate(0.058 29.345)"><path class="n" d="M198,234.554s-5.718-6.006-8.512-3.866,2.218,11.34,6,12.129a3.682,3.682,0,0,0,4.58-2.7Z" transform="translate(-188.676 -230.227)"/><path class="l" d="M190.951,233.236a.05.05,0,0,0,0,.1c2.664.636,4.339,2.762,5.63,5.034a2.032,2.032,0,0,0-3.09-.092c-.058.056.02.149.089.123a2.263,2.263,0,0,1,2.582.407,10.878,10.878,0,0,1,1.483,1.815c.152.206.538.024.414-.221-.009-.018-.02-.037-.03-.055C197.6,237.137,194.435,233.037,190.951,233.236Z" transform="translate(-188.637 -230.174)"/></g></g><g transform="translate(2.771 55.114)"><path class="k" d="M243.465,360.893l-81.808.006s13.274-75.725,30.754-94.706a26.6,26.6,0,0,1,2.065-2.028c1.07-.9.922-8.064,1.426-8.556s21.747,2.249,22.016,2.766,1.365,7.278,1.365,7.278c4.819,6.134,20.32,27.388,22.152,36.152,1.807,8.79-3.885,18.477-3.885,18.477Z" transform="translate(-161.657 -255.548)"/><g transform="translate(39.438 61.802)"><path class="l" d="M226.192,316.274a44.7,44.7,0,0,0-11.553,1.926c-3.772,1.068-12.107,4.37-14.2,5.184a.044.044,0,0,0,.025.083,71.6,71.6,0,0,0,8.027-2.416c3.7-1.258,7.428-2.395,11.21-3.377a52.5,52.5,0,0,1,6.5-1.172A.114.114,0,0,0,226.192,316.274Z" transform="translate(-200.409 -316.274)"/><path class="l" d="M232.719,318.23a35.824,35.824,0,0,0-12.138,1.076c-.047.012-.036.093.014.086,2.011-.24,4.015-.476,6.034-.644s4.063-.274,6.093-.408A.055.055,0,0,0,232.719,318.23Z" transform="translate(-200.052 -316.242)"/></g><g transform="translate(36.392 2.238)"><path class="l" d="M197.589,263.057a13.867,13.867,0,0,1-.171-2.661,13.614,13.614,0,0,1,.3-2.649,13.621,13.621,0,0,1,.172,2.66A13.783,13.783,0,0,1,197.589,263.057Z" transform="translate(-197.416 -257.747)"/><path class="l" d="M201.054,263.45a15.18,15.18,0,0,1,.126-5.31,13.539,13.539,0,0,1,.171,2.66A13.781,13.781,0,0,1,201.054,263.45Z" transform="translate(-197.354 -257.74)"/><path class="l" d="M204.519,263.843a13.783,13.783,0,0,1-.172-2.661,13.614,13.614,0,0,1,.3-2.649,13.54,13.54,0,0,1,.171,2.66A13.783,13.783,0,0,1,204.519,263.843Z" transform="translate(-197.293 -257.733)"/><path class="l" d="M207.983,264.236a13.865,13.865,0,0,1-.171-2.661,13.538,13.538,0,0,1,.3-2.649,15.149,15.149,0,0,1-.127,5.31Z" transform="translate(-197.231 -257.726)"/><path class="l" d="M211.448,264.629a13.783,13.783,0,0,1-.171-2.661,13.614,13.614,0,0,1,.3-2.649,13.54,13.54,0,0,1,.171,2.66A13.7,13.7,0,0,1,211.448,264.629Z" transform="translate(-197.17 -257.719)"/><path class="l" d="M214.913,265.022a15.181,15.181,0,0,1,.126-5.31,13.539,13.539,0,0,1,.171,2.66A13.782,13.782,0,0,1,214.913,265.022Z" transform="translate(-197.109 -257.712)"/></g><g transform="translate(67.143 23.198)"><path class="o" d="M242.3,360.489l-5.915-40.611s6.454-8.088,3.885-18.477c-2.252-9.108-12.635-23.059-12.635-23.059" transform="translate(-227.631 -278.342)"/><path class="p" d="M230.85,280.439a30.162,30.162,0,0,1,2.678,6.761" transform="translate(-227.574 -278.305)"/></g></g><g transform="translate(12.24 128.209)"><g transform="translate(0 0.122)"><path class="n" d="M275.756,349.168c-4.72,7.235-18.145,9.018-51.525,16.678-4.618,1.06-20.869-29.525-15.994-30.91,6.14-1.745,30.344-7.187,32.164-7.362C255.754,326.1,278.957,344.261,275.756,349.168Z" transform="translate(-170.317 -327.49)"/><g transform="translate(0 5.364)"><path class="n" d="M215.942,332.761s-13.54,2.493-20.247,6.006c-8.982,4.7-14.8,12.461-17.043,15.86-4.679,7.093-11.091,27.481-5.541,30.352,5.023,2.6,10.524-18.572,10.524-18.572s-9.17,20.66-2.545,22.677S192.7,366.161,192.7,366.161s-8.946,21.439-1.785,22.439c5.41.755,11.2-21.579,11.2-21.579s-7.562,18.481-2.03,19.5c6.112,1.123,12.75-19.156,12.75-19.156,14.5.217,21.485-5.61,25.965-10.346C239.884,355.869,215.942,332.761,215.942,332.761Z" transform="translate(-170.961 -332.761)"/><g transform="translate(7.722 26.266)"><path class="l" d="M186.214,358.6c-1.165,2.388-2.36,4.8-3.31,7.28s-1.812,5-2.525,7.562a45.352,45.352,0,0,0-1.827,10.227c.835-6.126,4.093-15.068,5.043-17.553s1.769-5,2.714-7.484C186.335,358.571,186.242,358.545,186.214,358.6Z" transform="translate(-178.548 -358.57)"/><path class="l" d="M195.077,361.807c-1.356,3.113-2.816,6.154-4.034,9.328-1.213,3.159-2.086,6.262-3.079,9.5-.076.248.082.208.169-.04,1.121-3.192,2.4-6.055,3.56-9.234s2.192-6.4,3.46-9.525C195.174,361.784,195.1,361.76,195.077,361.807Z" transform="translate(-178.382 -358.513)"/><path class="l" d="M203.151,363.19a75.934,75.934,0,0,0-5.077,14.737c-.065.25.134.174.216-.076,1.6-4.931,2.812-8.81,5.023-14.58C203.347,363.181,203.2,363.092,203.151,363.19Z" transform="translate(-178.202 -358.489)"/></g></g></g><g transform="translate(41.364)"><path class="k" d="M211.857,333.285l30.486,31.828s29.541-7.79,33.68-15.564c2.724-5.117-20.334-24.747-37.175-21.831Z" transform="translate(-211.601 -327.369)"/><path class="l" d="M258.732,332.4a29.313,29.313,0,0,0-20.376-4.707c-.086.013-.084.153,0,.148,7.378-.446,17.468,3.094,20.311,4.684C258.745,332.567,258.8,332.449,258.732,332.4Z" transform="translate(-211.132 -327.37)"/><path class="l" d="M250,359.277c-3.165-3.679-6.523-7.185-9.89-10.682s-6.733-7.007-10.19-10.422c-1.954-1.93-3.9-3.872-5.917-5.734-.053-.049-.148.027-.1.084,3.158,3.674,6.505,7.2,9.843,10.712s6.734,7.012,10.151,10.467c1.931,1.953,3.9,3.871,5.916,5.734C249.915,359.529,250.094,359.385,250,359.277Z" transform="translate(-211.388 -327.281)"/><path class="l" d="M211.8,332.86a42.051,42.051,0,0,1,5.476-1.433c1.845-.408,3.7-.785,5.555-1.143,3.691-.715,11.432-2.65,18.284-2.852.075,0-.3.379-.377.377-3.267-.071-26.5,5.332-28.412,5.53a3.118,3.118,0,0,1,.219.384c.043.093-.048.219-.152.154-.245-.154-.423-.351-.655-.521A.275.275,0,0,1,211.8,332.86Z" transform="translate(-211.605 -327.369)"/></g></g><g transform="translate(0 46.55)"><g transform="translate(68.064)"><path class="q" d="M235.788,252.518s-2.818-7.249-7.605-4.927-.837,9.023-.837,9.023Z" transform="translate(-225.814 -247.132)"/><rect class="e" width="9.383" height="54.695" transform="translate(33.714 54.319) rotate(154.119)"/><rect class="h" width="10.957" height="2.174" transform="matrix(-0.9, 0.437, -0.437, -0.9, 11.368, 6.458)"/><rect class="h" width="10.957" height="2.174" transform="translate(12.417 8.62) rotate(154.119)"/><g transform="translate(25.267 53.503)"><path class="c" d="M250.641,304.617l6.124,4.533,2.013,1.5.086-2.52.23-7.616-1.45-.811s-.231,1.6-.241,1.631l-1.449-.811s-.231,1.6-.24,1.631l-1.431-.82s-.25,1.613-.26,1.641l-1.431-.82s-.25,1.613-.261,1.641l-1.43-.821S250.65,304.589,250.641,304.617Z" transform="translate(-250.641 -299.704)"/><path class="h" d="M256.658,309l2.013,1.5.085-2.52Z" transform="translate(-250.534 -299.557)"/></g></g><g transform="translate(0 19.728)"><g transform="translate(1.145 0.716)"><path class="n" d="M182.166,279.332c-10.421,18.08-27.691,56.534-20.335,70.323,7.085,13.281,60.178-7.543,70.952-11.82,4.422-1.755-1.932-38.528-6.854-37.245C215.119,303.4,192.316,315,191.8,314.665c-.462-.3,2.35-16.407,4.558-32.335C199.568,259.152,189.657,266.336,182.166,279.332Z" transform="translate(-160.059 -267.221)"/><g transform="translate(52.672 13.453)"><path class="n" d="M257.213,281.947c3.041,3.318-.433,6.406-.433,6.406a8.408,8.408,0,0,1,5.154,2.475c2.306,2.583-.732,7.333-.732,7.333a10.367,10.367,0,0,1,5.019,3.477c1.959,2.694-.424,7.924-.424,7.924a9.09,9.09,0,0,1,2.488,5.838c.038,5.837-7.46,10.662-12.248,13.694-7.113,4.505-21.134,7.374-24.172,8.508l-20.052-30.353s17.576-19.531,23.5-22.726C241.366,281.259,254.223,278.685,257.213,281.947Z" transform="translate(-211.814 -280.439)"/><g transform="translate(27.372 7.561)"><path class="l" d="M255.773,287.872c-6.079,1.223-11.464,4.178-17.006,6.821a.106.106,0,0,0,.094.19c5.481-2.693,11.427-4.262,17.005-6.731A.149.149,0,0,0,255.773,287.872Z" transform="translate(-238.709 -287.869)"/><path class="l" d="M260.258,297.524a16.168,16.168,0,0,0-3.848,1.747q-1.978,1.067-3.917,2.2-3.887,2.265-7.656,4.723c-.111.073-.027.261.094.191,2.585-1.5,5.191-2.963,7.837-4.354q1.985-1.044,3.987-2.056a19.216,19.216,0,0,0,3.682-2.083A.214.214,0,0,0,260.258,297.524Z" transform="translate(-238.602 -287.698)"/><path class="l" d="M264.993,309.113a11.263,11.263,0,0,0-3.381,1.758q-1.748,1.069-3.509,2.119c-2.348,1.4-4.7,2.8-7.09,4.114-.119.065-.028.257.094.19,2.439-1.325,4.9-2.617,7.326-3.963q1.789-.992,3.566-2a10.554,10.554,0,0,0,3.071-2.1A.075.075,0,0,0,264.993,309.113Z" transform="translate(-238.492 -287.493)"/></g></g></g><path class="k" d="M212.973,303.949l14.2,39.011s-45.263,14.715-60,10.746-4.028-31.727-2.264-38.068c1.26-4.532,12.781-31.417,20.406-41.964s13.075-10.03,11.894,5.536-4.9,34.191-4.242,33.992S212.973,303.949,212.973,303.949Z" transform="translate(-158.924 -266.517)"/><g transform="translate(0 21.812)"><path class="l" d="M192.557,311.878a42.516,42.516,0,0,0-5.735,5.833,74.264,74.264,0,0,0-4.7,6.326c-.034.049.1.093.134.046,1.636-2.068,3.535-4.037,5.305-6.051s3.77-3.918,5.4-5.978C193.065,311.919,192.7,311.765,192.557,311.878Z" transform="translate(-158.523 -287.526)"/><path class="l" d="M169.015,304.548c-1.725,4.456-3.333,8.952-4.73,13.51a105.667,105.667,0,0,0-3.467,13.824,48.052,48.052,0,0,0-.63,7.033,23.678,23.678,0,0,0,.77,6.9,9.117,9.117,0,0,0,3.81,5.308,14.257,14.257,0,0,0,6.492,1.863c4.647.346,9.382-.392,14.063-1.172,4.689-.805,9.348-1.826,14-2.852s9.3-2.119,13.938-3.268,9.273-2.283,13.895-3.49l-.054.106-.857-2.592,1.01,2.536.032.079-.085.028c-4.56,1.428-9.138,2.8-13.741,4.09s-9.227,2.5-13.869,3.653-9.323,2.157-14.038,3.027c-4.712.812-9.5,1.661-14.413,1.288a15.61,15.61,0,0,1-7.117-2.14,9.534,9.534,0,0,1-2.74-2.665,11.894,11.894,0,0,1-1.585-3.43,24.884,24.884,0,0,1-.76-7.291,42.523,42.523,0,0,1,.8-7.205A128.508,128.508,0,0,1,169.015,304.548Z" transform="translate(-158.934 -287.655)"/><path class="l" d="M195.727,287.949c-.178,1.958-.418,3.907-.621,5.861l-.709,5.847c-.454,3.9-1.017,7.792-1.436,11.67l-.065.72-.023.348-.005.158v.057c0,.013,0,.017,0,0l0-.016-.034-.088a.477.477,0,0,0-.242-.233l-.071-.037a.31.31,0,0,0-.132-.021.292.292,0,0,0-.062.01l.007,0,.034-.011c.047-.016.083-.024.14-.047l.328-.124.67-.275c.9-.379,1.791-.778,2.686-1.177l5.379-2.387,5.392-2.368,5.424-2.306.052-.021.014.049.257.851-.349-.817.067.027q-2.6,1.394-5.22,2.739l-5.27,2.636c-1.761.874-3.538,1.709-5.317,2.547-.895.409-1.789.817-2.7,1.21l-.69.291-.36.139c-.056.023-.139.048-.208.07l-.054.017-.038.01a.856.856,0,0,1-.108.015.869.869,0,0,1-.224-.011.462.462,0,0,1-.115-.033.62.62,0,0,1-.267-.274.416.416,0,0,1-.038-.1l-.007-.031-.011-.062a.59.59,0,0,1-.01-.094l-.005-.127.005-.21.022-.387.07-.746c.453-3.926,1.045-7.8,1.7-11.677l1.008-5.805C194.966,291.8,195.311,289.871,195.727,287.949Z" transform="translate(-158.352 -287.949)"/><path class="l" d="M211.447,329.537c-1.607-4.485-3.177-8.985-4.952-13.414-1.009-2.515-2-5.038-3.036-7.544-.039-.094-.208-.042-.177.058,1.433,4.564,2.881,9.14,4.525,13.64,1.634,4.478,3.231,8.969,4.926,13.426q1.444,3.8,3.117,7.506c.021.049.107.022.093-.031C214.662,338.562,213.065,334.053,211.447,329.537Z" transform="translate(-158.148 -287.584)"/><path class="l" d="M196.609,292.657a30.189,30.189,0,0,1-1.071,3.311,29.864,29.864,0,0,1-1.411,3.179,29.743,29.743,0,0,1,1.072-3.31A30.261,30.261,0,0,1,196.609,292.657Z" transform="translate(-158.311 -287.866)"/></g></g></g></g><g transform="translate(428.435 195.228)"><g transform="translate(92.168)"><g transform="translate(0 3.675)"><path class="l" d="M514.127,257.64a.64.64,0,0,0,.447.721c.73.127,1.607.267,2.591.428,2.935-5.853,5.931-10.437,5.086-8.615a31.421,31.421,0,0,0-2.539,9.023c1.144.179,3.8.569,5.124.763,3.083-10.51,6.468-18.195,6.064-15.759-1.628,9.82-1.357,13.055-1.006,16.518,12.368,1.806,28.609,4,40.383,5.331,1.946-5.786,3.77-12.076,3.932-11.608,1.277,3.506,1.234,8.4.9,12.143,3.751.4,6.757.646,8.6.706,0,0,1.369-4.891,1.657-6.516a34.384,34.384,0,0,0-.086-12.6c-.838-4.274-2.634-8.153-4.309-12.113a.352.352,0,0,0-.043-.087c.005-.011-.006-.016-.012-.033a35.335,35.335,0,0,1-2.374-8.035.17.17,0,0,1-.014-.061,34.068,34.068,0,0,1-.385-6.028c.174-7.366-3.319-14.1-10-16.712-11.771-13.509-25.28-9.66-30.132-.674-.468.875-.938,1.887-1.407,2.994l-.014.035c-1.746,4.093-3.479,9.46-5,13.589a.017.017,0,0,1-.008.023c.006.016,0,.028-.018.046l-.005.012a40.32,40.32,0,0,1-2.024,4.743C525.5,233.174,517.582,236.764,514.127,257.64Z" transform="translate(-512.14 -196.289)"/><path class="l" d="M569.957,207.223c4.277,2.8,6.7,6.508,6.875,11.914.1,3.152.007,6.208.912,9.262a32.337,32.337,0,0,0,4.4,8.515c2.8,4.261,4.633,8.41,4.61,13.7-.022,5.369-.9,11.62-3.182,16.4a.023.023,0,1,1-.042-.019c1.951-4.886,2.678-11.849,2.3-17.21-.413-5.889-3.331-9.858-6.25-14.593a24.273,24.273,0,0,1-3.762-12.307c-.075-2.672.234-5.412-.581-8-.974-3.092-3.315-5.23-5.654-7.154A.315.315,0,0,1,569.957,207.223Z" transform="translate(-511.159 -196.096)"/><path class="l" d="M521.2,233.105c3.591-3.829,7.253-7.031,9.625-11.991,2.162-4.518,3.621-9.374,5.812-13.884a.061.061,0,1,1,.112.048c-3.486,8.047-4.829,16.384-10.888,22.841-3.292,3.508-6.555,6.737-8.928,11.1a40.814,40.814,0,0,0-4.506,14.732c-.022.183-.258.15-.257-.028A33.766,33.766,0,0,1,521.2,233.105Z" transform="translate(-512.174 -196.096)"/></g><g transform="translate(54.694)"><path class="l" d="M566.665,205.461c-1.35-.767-1.416-9,4.47-11.967,5.8-2.921,11.93,2.486,8.038,8.6C576.712,205.95,569.517,207.083,566.665,205.461Z" transform="translate(-565.916 -192.678)"/><path class="l" d="M578.563,194.184a9.08,9.08,0,0,1,2.216,5.572,5.478,5.478,0,0,1-2.432,4.905,11.079,11.079,0,0,1-5.649,1.715,17.013,17.013,0,0,1-3.066-.118,8.383,8.383,0,0,1-2.98-.824,7.374,7.374,0,0,0,2.868,1.381,13.725,13.725,0,0,0,3.19.464A10.685,10.685,0,0,0,579,205.615a6.1,6.1,0,0,0,2.675-5.923A8.016,8.016,0,0,0,578.563,194.184Z" transform="translate(-565.903 -192.651)"/></g></g><g transform="translate(200.492 163.83)"><path class="d" d="M618.723,354.284c-.031-.213-.071-.415-.111-.628.05.264.1.516.131.78C618.733,354.385,618.733,354.335,618.723,354.284Z" transform="translate(-618.612 -353.656)"/></g><g transform="translate(0 2.217)"><path class="n" d="M556.182,269.914c-9.267,5.128-55.955,28.5-70.574,20.351-17.711-9.869-36.1-28.311-42.109-39.2-3.372-6.105,27.146-22.009,30.859-16.906,5.859,8.05,21.289,23.221,24.114,25.534s34.632-3.172,52.327-3.67C566.74,255.572,562.712,266.3,556.182,269.914Z" transform="translate(-421.227 -194.178)"/><path class="n" d="M444.627,252.47c-2.684-3.161-16.194-21.143-18.292-26.161s-7.088-19.9-3.408-21.893,5.49,2.242,5.49,2.242-1.112-6.617,2.774-8.289,6.486,5.014,6.486,5.014-.647-6.878,3.349-8.269,5.483,5.77,5.483,5.77-.885-6.261,2.889-6.021c4.541.288,4.869,12.015,7.6,17.382.621,1.218,14.333,23.8,14.333,23.8Z" transform="translate(-421.61 -194.856)"/><g transform="translate(6.785 5.098)"><path class="l" d="M445.949,200.185c.262,8.623,1.867,12.351,6.616,19.393.094.136-.091.306-.2.171-5.278-6.472-7.967-10.857-6.834-19.573C445.586,199.749,445.937,199.773,445.949,200.185Z" transform="translate(-427.976 -199.866)"/><path class="l" d="M437.395,202.565c1.053,8.932,2.76,12.991,7.191,20.732.063.11-.116.228-.188.122-4.983-7.23-7.565-11.666-7.445-20.73C436.958,202.279,437.347,202.156,437.395,202.565Z" transform="translate(-428.124 -199.822)"/><path class="l" d="M428.534,206.838c1.645,8.574,3.324,13.105,8.591,20.068a.16.16,0,0,1-.244.208c-6.061-6.578-8.2-12.215-8.6-20.2C428.253,206.371,428.432,206.3,428.534,206.838Z" transform="translate(-428.277 -199.749)"/></g><g transform="translate(32.132 11.132)"><path class="n" d="M476.835,241.939s1.143-10.75.6-15.583-9.181-22.1-13.017-20.45c-4.953,2.136-1.93,13.09.253,18.26,0,0-11.463,4.932-10.993,13.262S476.835,241.939,476.835,241.939Z" transform="translate(-453.174 -205.795)"/><path class="n" d="M463.26,206.92c-3.111,5.207.191,11.81,1.934,16.985a.5.5,0,0,1-.459.68c-4.666,2.388-10.554,7.115-11.3,12.6a.126.126,0,0,1-.252-.012c0-5.988,5.407-11.1,10.686-13.392-1.87-5.279-4.891-12.047-.657-16.889C463.236,206.86,463.281,206.887,463.26,206.92Z" transform="translate(-453.183 -205.776)"/></g><g transform="translate(26.413 44.506)"><path class="i" d="M479.72,238.588l-32.156,23.8s28.023,31.265,45.471,30.584,51.718-16.069,59.117-19.795c16.19-8.152,12.156-18.8-1.893-17.586s-48.692,3.987-50.617,3.582S479.72,238.588,479.72,238.588Z" transform="translate(-447.564 -238.588)"/><path class="b" d="M496.138,292.308c18.216-2.441,48.281-15.969,55.152-19.434,14.7-7.4,12.734-16.844,1.726-17.614Z" transform="translate(-446.704 -238.293)"/><g transform="translate(7.999 8.115)"><path class="k" d="M455.584,267.473c3.811-2.478,7.488-5.159,11.157-7.851s7.351-5.381,10.957-8.166c2.037-1.574,4.085-3.138,6.069-4.783.052-.043-.006-.141-.065-.1-3.805,2.472-7.5,5.141-11.179,7.8s-7.355,5.38-10.992,8.122c-2.056,1.55-4.084,3.138-6.069,4.782C455.364,267.36,455.472,267.546,455.584,267.473Z" transform="translate(-455.424 -246.561)"/></g><g transform="translate(57.924 19.339)"><path class="b" d="M522.748,284.753c-.387.142-.773.275-1.15.417a199.017,199.017,0,0,1-2.768-27.489c.4-.041.8-.071,1.211-.092A196,196,0,0,0,522.748,284.753Z" transform="translate(-504.226 -257.59)"/><path class="b" d="M515.39,287.389c-2.442.8-4.875,1.557-7.246,2.219a215.089,215.089,0,0,1-3.664-30.949c2.107-.122,4.671-.285,7.521-.488A204.093,204.093,0,0,0,515.39,287.389Z" transform="translate(-504.48 -257.58)"/></g></g><g transform="translate(94.69 60.821)"><path class="i" d="M514.652,361.071l5.5-37.284s-8.821-15.4-3.7-26.45c2.583-5.6,20.294-32.954,29.835-39.879,8.951-6.5,21.21-.571,25.38,5.079,11.99,16.248,17.831,45.494,24.526,98.534Z" transform="translate(-514.652 -254.619)"/><g transform="translate(0.263 52.383)"><path class="b" d="M588.3,308.2a260.694,260.694,0,0,1-73.276-.855c-.041-.407-.081-.835-.112-1.252a258.7,258.7,0,0,0,73.153.906C588.145,307.393,588.226,307.79,588.3,308.2Z" transform="translate(-514.91 -306.09)"/><path class="b" d="M590.749,321.88a282.419,282.419,0,0,1-70.64.885l.01-.041a47.175,47.175,0,0,1-3.43-7.989,270.6,270.6,0,0,0,72.777-.326C589.9,316.822,590.332,319.305,590.749,321.88Z" transform="translate(-514.879 -305.943)"/></g><g transform="translate(10.074 65.824)"><path class="l" d="M531.369,319.3a44.7,44.7,0,0,1,11.554,1.926c3.771,1.068,12.107,4.37,14.2,5.183a.044.044,0,0,1-.025.084,71.6,71.6,0,0,1-8.027-2.416c-3.7-1.258-7.428-2.395-11.211-3.377a52.428,52.428,0,0,0-6.5-1.172A.114.114,0,0,1,531.369,319.3Z" transform="translate(-524.431 -319.297)"/><path class="l" d="M524.6,321.253a35.829,35.829,0,0,1,12.139,1.076c.047.012.036.093-.014.086-2.012-.24-4.015-.476-6.034-.644s-4.063-.274-6.093-.408A.055.055,0,0,1,524.6,321.253Z" transform="translate(-524.55 -319.265)"/></g></g><g transform="translate(51.959 64.105)"><g transform="translate(0 44.874)"><path class="h" d="M548.363,357.75l-41.708,17.025-31.977-55.813,41.708-17.025Z" transform="translate(-472.629 -301.938)"/><path class="k" d="M546.35,358.572,504.642,375.6l-31.977-55.813,41.708-17.025Z" transform="translate(-472.665 -301.923)"/><path class="f" d="M502.456,338.307a4.878,4.878,0,0,0,6.068,2.255,3.951,3.951,0,0,0,2.046-5.568,4.877,4.877,0,0,0-6.068-2.255A3.951,3.951,0,0,0,502.456,338.307Z" transform="translate(-472.145 -301.398)"/></g><g transform="translate(22.4 1.025)"><path class="n" d="M573.538,264.156c15.29,15.456,48.548,51.017,42.054,61.48-10.676,17.2-40.488,35.506-50.012,40.086-4.111,1.975-24.522-26.934-20.862-30.156,4.392-3.866,33.71-21.1,33.623-22.638-.1-1.689-9.347-22.213-13.951-38.837C558.676,253.457,567.158,257.707,573.538,264.156Z" transform="translate(-493.796 -258.852)"/><g transform="translate(0 69.3)"><path class="n" d="M560.966,329.675s-13.759-1.773-22.811-2.509c-5.05-.411-13.772-.343-17.62,1.052-5.756,2.087-28.5,14.492-25.608,20.07,2.614,5.05,20.8-8.089,20.8-8.089s-19.521,11.636-15.255,17.137,22.838-12.075,22.838-12.075-19.788,12.4-14.491,17.382c4,3.761,21.721-11.21,21.721-11.21s-16.936,10.78-12.985,14.825c4.365,4.47,21.587-8.323,21.587-8.323,11.772,8.593,20.8,8.555,27.319,6.581C567.978,364.055,560.966,329.675,560.966,329.675Z" transform="translate(-494.675 -326.946)"/><g transform="translate(6.698 9.37)"><path class="l" d="M521.2,336.159c-15.034,7.473-20.116,15.744-19.937,15.552,4.242-4.544,12.108-9.993,14.329-11.481s3.451-2.5,5.667-3.988C521.313,336.2,521.254,336.131,521.2,336.159Z" transform="translate(-501.257 -336.153)"/><path class="l" d="M527.455,343.372A57.141,57.141,0,0,0,510.689,354.7c-.176.194-.053.219.162.067,2.772-1.97,13.8-9.5,16.652-11.324C527.547,343.41,527.5,343.352,527.455,343.372Z" transform="translate(-501.091 -336.025)"/><path class="l" d="M533.238,349.214a42.433,42.433,0,0,0-12.722,9.149c-.184.183.009.221.222.062,4.172-3.121,7.422-5.6,12.587-9.051C533.406,349.321,533.337,349.164,533.238,349.214Z" transform="translate(-500.917 -335.921)"/></g></g></g><g transform="translate(81.861)"><path class="i" d="M553.406,329.21l23.545,34.746s38.376-29.255,39.86-40.388-34.449-53.333-44.625-61.493-12.373-3.807-10.4,7.03,15.883,43.381,15.778,44.048S553.406,329.21,553.406,329.21Z" transform="translate(-553.096 -257.845)"/><g transform="translate(15.936 23.229)"><path class="b" d="M590.753,281.606a197.105,197.105,0,0,1-21.565,10.381c-.142-.377-.285-.743-.427-1.12a195.91,195.91,0,0,0,21.2-10.2C590.224,280.986,590.488,281.291,590.753,281.606Z" transform="translate(-568.76 -280.67)"/><path class="b" d="M599.668,292.644a212.013,212.013,0,0,1-25.26,12.65c-.814-2.056-1.771-4.437-2.778-6.992a205.141,205.141,0,0,0,23.336-11.632C596.554,288.644,598.131,290.639,599.668,292.644Z" transform="translate(-568.709 -280.564)"/></g><path class="l" d="M571.906,297.2q-1.459-3.676-2.873-7.371c-.489-1.28-.972-2.562-1.48-3.835-.233-.587-.463-1.175-.7-1.762-.116-.29-.264-.578-.361-.874-.36-1.091-.039-.125-.5-1.159-.03-.066-.142-.032-.123.041.184.69-.005.432.215.942a11.727,11.727,0,0,1,.4,1.17c.188.6.387,1.2.581,1.8.4,1.229.827,2.448,1.265,3.665.057.161.119.319.177.479-.022-.043-.043-.086-.066-.129-.681-1.287-1.377-2.564-2.072-3.844a.05.05,0,0,0-.091.044c.546,1.355,1.135,2.676,1.8,3.973.387.75.818,1.474,1.254,2.2.594,1.622,1.183,3.247,1.8,4.861,1.911,5,3.86,10.019,6.167,14.849-2.036,1.351-4.136,2.608-6.17,3.967s-4.062,2.753-6.086,4.14S561,323.12,559,324.54c-.954.679-1.894,1.375-2.841,2.063-1.03.747-1.979,1.614-3.023,2.337-.107.074.024.223.13.153,1.091-.729,2.282-1.316,3.39-2.021.974-.62,1.953-1.229,2.92-1.86,2.056-1.342,4.089-2.721,6.125-4.1s4.068-2.744,6.085-4.141,3.954-2.888,5.961-4.288a.25.25,0,0,0,.111-.182.284.284,0,0,0,.073-.31C576.027,307.16,573.891,302.209,571.906,297.2Z" transform="translate(-553.101 -257.414)"/><path class="l" d="M573.09,340.053c-1.74-2.511-8.775-12.51-10.713-14.858-.031-.038-.1,0-.076.047,1.409,2.6,8.062,12.672,9.8,15.191A166.75,166.75,0,0,0,582.958,355.2c.07.081.23,0,.171-.1C580.124,349.864,576.523,345,573.09,340.053Z" transform="translate(-552.938 -256.652)"/><path class="l" d="M593.588,348.276c-1.144.822-2.2,1.777-3.261,2.68-1.106.941-2.222,1.875-3.329,2.815-2.175,1.846-4.349,3.745-6.708,5.406-.133.094.033.266.165.17,2.389-1.716,4.837-3.34,7.127-5.164a38.646,38.646,0,0,0,6.164-5.781C593.822,348.309,593.686,348.206,593.588,348.276Z" transform="translate(-552.62 -256.244)"/></g></g></g><path class="i" d="M618.612,353.656c.05.264.1.516.131.78-.01-.051-.01-.1-.02-.152C618.692,354.071,618.652,353.869,618.612,353.656Z" transform="translate(-418.12 -189.826)"/><g transform="translate(109.372 4.804)"><g transform="translate(15.671 36.669)"><path class="n" d="M562.389,258.18c-.417,1.417-7.8,10.339-14.34,9.657-2.13-.226-1.416-11.906-1.416-11.906l-.145-.875-2.013-12.24,14.718-8.3,2.12-1.088s.33,3.385.7,7.6c.018.2.037.392.053.6.028.238.055.463.07.686.063.629.125,1.273.173,1.915.039.488.078.963.1,1.477s.058,1.017.094,1.532A79.857,79.857,0,0,1,562.389,258.18Z" transform="translate(-544.476 -233.429)"/><path class="l" d="M562.012,241.032a24.884,24.884,0,0,1-15.523,14.023l-2.013-12.24,14.718-8.3,2.12-1.088S561.644,236.814,562.012,241.032Z" transform="translate(-544.476 -233.429)"/></g><path class="n" d="M530.6,220.578c-5.728,21,6.206,26.807,10.737,28.036,4.113,1.117,18.258,4.4,26.126-15.9s-.088-29.6-9.359-32.653S536.331,199.574,530.6,220.578Z" transform="translate(-529.078 -197.37)"/><g transform="translate(6.068 17.088)"><path class="l" d="M538.022,216.2a13.986,13.986,0,0,0,1.5.043,2.425,2.425,0,0,0,1.541-.249.774.774,0,0,0,.221-.919,1.92,1.92,0,0,0-1.736-.879,2.821,2.821,0,0,0-1.955.556A.826.826,0,0,0,538.022,216.2Z" transform="translate(-535 -214.188)"/><path class="l" d="M552.765,218.273a14.164,14.164,0,0,1-1.368-.623,2.433,2.433,0,0,1-1.275-.9.773.773,0,0,1,.207-.922,1.92,1.92,0,0,1,1.946-.027,2.819,2.819,0,0,1,1.511,1.36A.826.826,0,0,1,552.765,218.273Z" transform="translate(-534.774 -214.164)"/><g transform="translate(12.689 9.621)"><path class="l" d="M548.011,224.823c.024-.053.1.1.079.155-.4,1.427-.622,3.129.563,3.929.037.025.014.1-.032.077C547.088,228.368,547.4,226.111,548.011,224.823Z" transform="translate(-547.508 -223.621)"/><path class="l" d="M549.665,223.658c2.358.4,1.39,5.083-.794,4.716C546.722,228.012,547.689,223.327,549.665,223.658Z" transform="translate(-547.506 -223.641)"/><path class="l" d="M550.49,224.089c.354.35.658.9,1.142,1.051.56.174,1.092-.227,1.563-.622.048-.042.08.008.068.07-.172.9-.707,1.75-1.7,1.685-.9-.059-1.37-.984-1.407-1.933C550.151,224.165,550.347,223.948,550.49,224.089Z" transform="translate(-547.461 -223.634)"/></g><g transform="translate(0 5.354)"><g transform="translate(1.107 0.745)"><path class="l" d="M539.546,222.009c0-.057-.128.044-.138.1-.268,1.459-.818,3.085-2.233,3.283-.044.006-.056.079-.006.083C538.817,225.6,539.528,223.434,539.546,222.009Z" transform="translate(-536.111 -220.149)"/><path class="l" d="M538.6,220.249c-2.292-.68-3.485,3.954-1.361,4.584C539.327,225.454,540.518,220.819,538.6,220.249Z" transform="translate(-536.128 -220.181)"/></g><path class="l" d="M537.571,220.318c-.43.152-.906.5-1.351.421-.516-.1-.762-.7-.963-1.259-.02-.059-.067-.029-.085.032-.252.879-.2,1.878.611,2.266.737.355,1.5-.258,1.94-1.087C537.805,220.539,537.744,220.257,537.571,220.318Z" transform="translate(-535.04 -219.449)"/></g><path class="l" d="M544.408,235.612c-.405.287-.83.7-1.369.664a3.92,3.92,0,0,1-1.514-.62.052.052,0,0,0-.075.065,1.994,1.994,0,0,0,1.731,1.091,1.578,1.578,0,0,0,1.358-1.11C544.575,235.62,544.467,235.571,544.408,235.612Z" transform="translate(-534.927 -213.809)"/><g transform="translate(2.054 1.267)"><path class="l" d="M539.576,229.411s-.771,2.1-1,3.118c-.02.1.217.194.558.29.016.009.023.017.041.01a4.961,4.961,0,0,0,5.106-.782c.093-.085-.014-.218-.121-.174a7.483,7.483,0,0,1-4.706.3c-.01-.3,1.441-3.548,1.282-3.6a9.077,9.077,0,0,0-2.431.018c1.481-4.416,3.658-8.558,5.066-12.977a.143.143,0,0,0-.252-.125c-2.588,4.181-4.4,9.225-6.05,13.746C536.862,229.8,539.129,229.5,539.576,229.411Z" transform="translate(-537.059 -215.433)"/></g><g transform="translate(4.538 17.774)"><path class="l" d="M539.5,232.211a5.894,5.894,0,0,0,1.805,2.373,2.652,2.652,0,0,0,1.529.512c1.2.005,1.507-1.02,1.537-1.957a6.292,6.292,0,0,0-.142-1.486A7.626,7.626,0,0,1,539.5,232.211Z" transform="translate(-539.499 -231.653)"/><path class="r" d="M541.273,234.559a2.652,2.652,0,0,0,1.529.512c1.2.005,1.507-1.02,1.537-1.957A2.736,2.736,0,0,0,541.273,234.559Z" transform="translate(-539.468 -231.628)"/></g></g><path class="l" d="M567.817,230.7c-3.59,0-3.832-7.546-3.832-7.546s-7.254-.539-8.84-11.153a16.117,16.117,0,0,0,2.543,8.872s-12.683-2.345-17.24-13.461c0,0,1.727,5.617,3.59,7.711,0,0-5.247-1.911-7.526-6.469,0,0-2.716,6-4.572,7.577,0,0,2.256-22.335,22.8-18.354,0,0,12.913,1.865,16.779,12.5S567.817,230.7,567.817,230.7Z" transform="translate(-529.028 -197.398)"/><g transform="translate(31.736 31.328)"><path class="n" d="M562.49,232.3s5.889-5.838,8.62-3.619-2.545,11.271-6.348,11.95a3.682,3.682,0,0,1-4.5-2.828Z" transform="translate(-560.262 -228.181)"/><path class="l" d="M569.5,231.188a.05.05,0,0,1,0,.1c-2.682.558-4.417,2.635-5.773,4.869a2.032,2.032,0,0,1,3.092,0c.056.058-.024.149-.093.121a2.265,2.265,0,0,0-2.593.332,10.956,10.956,0,0,0-1.535,1.771c-.158.2-.538.009-.407-.233l.032-.054C562.738,234.894,566.022,230.888,569.5,231.188Z" transform="translate(-560.228 -228.128)"/></g><g transform="translate(13.944 58.074)"><path class="f" d="M546.53,255.838l3.2,9.842,12.682-11.219,3.082,4.1s-12.923,18.331-12.934,17.461l-3.348-8.485-6.068,5.314,1.468-14.307Z" transform="translate(-542.772 -254.461)"/><path class="l" d="M543.48,265.669c.322-2.354.579-4.734,1.01-7.07.015-.083.149-.112.162-.011.313,2.316-.964,11.312-1.106,13.481l.028-.023c.253-.23,5.6-4.656,5.649-4.577.759,1.363,3.22,7.544,3.379,8.1,2.044-2.913,9.838-13.476,12.207-16.2a.082.082,0,0,1,.135.093c-1.842,3.1-12.174,17.333-12.314,17.281a92.66,92.66,0,0,1-3.495-8.968c-.922.982-6.363,6.019-6.356,5.666A74.75,74.75,0,0,1,543.48,265.669Z" transform="translate(-542.779 -254.389)"/></g></g></g><g transform="translate(310.011 210.217)"><g transform="translate(21.523 52.477)"><path class="s" d="M326.447,360.919H415.91c.375-3.417-13.328-76.117-29.425-99.489-1.826-2.652-17.47-4.582-23.214,2.014C332.849,298.381,325.711,360.08,326.447,360.919Z" transform="translate(-326.397 -258.969)"/><path class="f" d="M412.371,341.216a2.549,2.549,0,0,0-1.2-.041c-.407.081-.8.122-1.2.234a11.948,11.948,0,0,0,1.2.244,2.4,2.4,0,0,1,1.008.305,1.935,1.935,0,0,1,.417.346C412.513,341.939,412.442,341.582,412.371,341.216Zm-47.507-43.456a2.108,2.108,0,0,1-.987-.336,1.869,1.869,0,0,1-.865-1.618,2.47,2.47,0,0,0-1.588-2.259,2.422,2.422,0,0,0-1.333-.092c-.4.081-.814.132-1.211.244.4.112.814.163,1.211.244a2.446,2.446,0,0,1,1.018.305,1.865,1.865,0,0,1,.906,1.577,2.487,2.487,0,0,0,1.506,2.29,2.388,2.388,0,0,0,1.343.132c.407-.081.8-.132,1.2-.244C365.668,297.892,365.271,297.841,364.864,297.759Zm24.659,34.786a2.271,2.271,0,0,1-1-.336,1.884,1.884,0,0,1-.855-1.618,2.413,2.413,0,0,0-2.921-2.341c-.407.081-.8.132-1.211.244.407.112.8.153,1.211.234a2.307,2.307,0,0,1,1.008.315,1.846,1.846,0,0,1,.916,1.567,2.481,2.481,0,0,0,1.506,2.29,2.288,2.288,0,0,0,1.343.122c.4-.081.8-.122,1.2-.234C390.327,332.667,389.92,332.626,389.523,332.545Zm-46.449,7.5a2.271,2.271,0,0,1-1-.336,1.892,1.892,0,0,1-.865-1.618,2.427,2.427,0,0,0-1.588-2.249,2.463,2.463,0,0,0-1.343-.092c-.4.081-.794.132-1.2.244.407.112.8.163,1.2.244a2.306,2.306,0,0,1,1.018.305,1.882,1.882,0,0,1,.916,1.567,2.464,2.464,0,0,0,1.516,2.29,2.38,2.38,0,0,0,1.343.132c.4-.081.794-.132,1.2-.244C343.868,340.178,343.471,340.127,343.074,340.046Zm57.857-44.057c-.234.051-.468.092-.7.153a7,7,0,0,0,.8.163C401,296.2,400.972,296.1,400.931,295.989ZM386.3,306.9c-.081-.407-.132-.8-.244-1.2-.112.4-.163.794-.244,1.2a2.262,2.262,0,0,1-.305,1.008,1.837,1.837,0,0,1-1.567.916,2.487,2.487,0,0,0-2.29,1.506,2.38,2.38,0,0,0-.132,1.343c.081.4.132.8.244,1.2.112-.4.163-.8.244-1.2a2.317,2.317,0,0,1,.336-1,1.884,1.884,0,0,1,1.618-.855,2.457,2.457,0,0,0,2.249-1.588A2.427,2.427,0,0,0,386.3,306.9Zm-41.075.8c-.081-.4-.132-.8-.244-1.2-.112.4-.163.8-.244,1.2a2.446,2.446,0,0,1-.305,1.018,1.849,1.849,0,0,1-1.567.906,2.487,2.487,0,0,0-2.29,1.506,2.38,2.38,0,0,0-.132,1.343c.081.407.132.8.244,1.2.112-.4.163-.794.244-1.2a2.228,2.228,0,0,1,.336-.987,1.869,1.869,0,0,1,1.618-.865,2.467,2.467,0,0,0,2.249-1.588A2.421,2.421,0,0,0,345.222,307.7Zm19.062-40.882c-.081-.407-.132-.8-.244-1.2-.112.4-.163.794-.244,1.2a2.4,2.4,0,0,1-.305,1.008,1.837,1.837,0,0,1-1.567.916,2.512,2.512,0,0,0-2.3,1.506,2.38,2.38,0,0,0-.132,1.343c.081.4.132.8.244,1.2.112-.4.163-.8.254-1.2a2.317,2.317,0,0,1,.336-1,1.86,1.86,0,0,1,1.618-.855,2.457,2.457,0,0,0,2.249-1.588A2.426,2.426,0,0,0,364.284,266.821Zm4.213,80.094c-.081-.407-.122-.8-.234-1.211-.112.407-.163.8-.244,1.211a2.447,2.447,0,0,1-.305,1.008,1.837,1.837,0,0,1-1.567.916,2.5,2.5,0,0,0-2.3,1.506,2.287,2.287,0,0,0-.122,1.343c.081.4.132.8.244,1.2.112-.4.163-.8.244-1.2a2.144,2.144,0,0,1,.326-1,1.884,1.884,0,0,1,1.618-.855,2.47,2.47,0,0,0,2.259-1.588A2.419,2.419,0,0,0,368.5,346.915Zm20.365-63.851a2.253,2.253,0,0,1-.936.468,1.851,1.851,0,0,1-1.75-.539,2.409,2.409,0,0,0-3.725.417c-.224.336-.478.661-.682,1.018.366-.2.682-.448,1.028-.682a2.37,2.37,0,0,1,.926-.5,1.867,1.867,0,0,1,1.761.468,2.486,2.486,0,0,0,2.687.55,2.286,2.286,0,0,0,1.038-.855c.224-.346.468-.662.672-1.028C389.523,282.6,389.2,282.84,388.861,283.064Zm-26.084,42.368a2.116,2.116,0,0,1-.936.458,1.878,1.878,0,0,1-1.751-.529,2.478,2.478,0,0,0-2.727-.478,2.536,2.536,0,0,0-1.008.885c-.224.346-.478.662-.682,1.028.366-.214.682-.458,1.028-.682a2.222,2.222,0,0,1,.936-.5,1.844,1.844,0,0,1,1.751.458,2.51,2.51,0,0,0,2.7.56,2.37,2.37,0,0,0,1.038-.865c.224-.336.478-.651.682-1.018C363.439,324.953,363.123,325.2,362.777,325.431ZM408.045,322a2.143,2.143,0,0,0-.224.336,2.372,2.372,0,0,0,.265-.173A1.261,1.261,0,0,1,408.045,322Zm-13.139,30.542a2.252,2.252,0,0,1-.936.468,1.9,1.9,0,0,1-1.761-.529A2.44,2.44,0,0,0,389.5,352a2.467,2.467,0,0,0-1.008.885c-.224.346-.478.672-.682,1.028a11.832,11.832,0,0,0,1.018-.682,2.373,2.373,0,0,1,.936-.509,1.867,1.867,0,0,1,1.761.468,2.458,2.458,0,0,0,2.677.57,2.419,2.419,0,0,0,1.048-.875c.224-.336.468-.662.672-1.018C395.568,352.075,395.242,352.319,394.907,352.543Zm-45.41,5.17a2.224,2.224,0,0,1-.936.458,1.87,1.87,0,0,1-1.75-.529,2.459,2.459,0,0,0-2.717-.478,2.535,2.535,0,0,0-1.008.885c-.224.346-.478.662-.682,1.028.366-.2.682-.458,1.028-.682a2.307,2.307,0,0,1,.926-.5,1.863,1.863,0,0,1,1.761.458,2.471,2.471,0,0,0,2.687.56,2.42,2.42,0,0,0,1.038-.855c.224-.346.468-.662.682-1.028C350.158,357.235,349.842,357.489,349.5,357.713Z" transform="translate(-326.208 -258.851)"/></g><g transform="translate(53.476 55.795)"><path class="t" d="M388.05,267.379c2.538,6.577,12.118,29.642,17.326,46.2,3.495,11.107,4.825,20.43,5.589,22.88,0,0-26.416-8.484-32.364-8.5-9.16-.022-23.853,19.108-20.25,21.505,5.667,3.769,32.676,16.588,54.245,20.613,11.725,2.188,33.815-12.714,32.069-24.563-2.45-16.627-32.5-60.456-43.929-72.885C394.8,266.173,384.956,259.362,388.05,267.379Z" transform="translate(-357.793 -262.202)"/><g transform="translate(4.314)"><path class="s" d="M446.2,349.051c-.554,11.978-15.535,22.06-24.224,22.593-14.987.909-59.943-12.183-59.943-12.183l17.474-33.668s30.592,10.384,31.368,10.676v-.013c-.271-.893-7.809-29.221-11.178-38.607-.18-.518-.388-1.048-.584-1.606-.969-2.6-2.3-6.034-3.77-9.744l-.015-.025c-.814-2.054-1.675-4.2-2.52-6.319v-.013c-3.7-9.178-7.3-17.913-7.3-17.913,5.15.845,10.235,3.552,18.583,12.315S447.113,329.292,446.2,349.051Z" transform="translate(-362.032 -262.229)"/><path class="f" d="M415.409,344.934a2.184,2.184,0,0,1-1-.326,1.884,1.884,0,0,1-.855-1.618,2.47,2.47,0,0,0-1.588-2.259,2.513,2.513,0,0,0-1.333-.081c-.407.081-.8.122-1.2.234a11.965,11.965,0,0,0,1.2.244,2.4,2.4,0,0,1,1.008.305,1.849,1.849,0,0,1,.916,1.567,2.5,2.5,0,0,0,1.506,2.3,2.288,2.288,0,0,0,1.343.122c.4-.081.8-.132,1.2-.244C416.213,345.066,415.805,345.025,415.409,344.934Zm-9.709,22.4a2.422,2.422,0,0,0-1.333-.092c-.407.081-.8.132-1.2.244.4.112.794.163,1.2.244a2.4,2.4,0,0,1,1.008.305,1.873,1.873,0,0,1,.916,1.516c.336.051.672.112,1,.163v-.132A2.457,2.457,0,0,0,405.7,367.333Zm-16.711-35.315a2.27,2.27,0,0,1-1-.336,1.884,1.884,0,0,1-.855-1.618,2.413,2.413,0,0,0-2.921-2.341c-.407.081-.8.132-1.211.244.407.112.8.153,1.211.234a2.307,2.307,0,0,1,1.008.315,1.846,1.846,0,0,1,.916,1.567,2.481,2.481,0,0,0,1.506,2.29,2.288,2.288,0,0,0,1.343.122c.4-.081.8-.122,1.2-.234C389.793,332.141,389.386,332.1,388.989,332.019Zm16.68-32.353a2,2,0,0,1-.987-.336,1.864,1.864,0,0,1-.865-1.608,2.455,2.455,0,0,0-1.588-2.259,2.414,2.414,0,0,0-1.333-.081c-.4.081-.8.122-1.2.234.4.112.8.163,1.2.244a2.447,2.447,0,0,1,1.018.305,1.882,1.882,0,0,1,.916,1.567,2.451,2.451,0,0,0,1.5,2.29,2.4,2.4,0,0,0,1.343.132c.407-.081.8-.132,1.211-.244C406.473,299.8,406.076,299.747,405.669,299.666Zm32.954,28.058c-.081-.407-.132-.8-.244-1.2-.112.4-.163.794-.244,1.2a2.262,2.262,0,0,1-.305,1.008,1.837,1.837,0,0,1-1.567.916,2.487,2.487,0,0,0-2.29,1.506,2.38,2.38,0,0,0-.132,1.343c.081.4.132.8.244,1.2.112-.4.163-.8.244-1.2a2.317,2.317,0,0,1,.336-1,1.884,1.884,0,0,1,1.618-.855,2.457,2.457,0,0,0,2.249-1.588A2.427,2.427,0,0,0,438.623,327.724ZM427.4,361.471c-.081-.407-.132-.8-.244-1.2-.112.4-.163.794-.244,1.2a2.266,2.266,0,0,1-.305,1.018,1.837,1.837,0,0,1-1.567.916,2.487,2.487,0,0,0-2.29,1.506,2.38,2.38,0,0,0-.132,1.343c.081.4.132.8.244,1.2.112-.4.163-.8.244-1.2a2.316,2.316,0,0,1,.336-1,1.884,1.884,0,0,1,1.618-.855,2.417,2.417,0,0,0,2.341-2.931ZM367.24,348.658a2.181,2.181,0,0,0,.641-.936,1.992,1.992,0,0,0,.132-.539Zm77.8,1.191a2.225,2.225,0,0,1-.936.458,1.87,1.87,0,0,1-1.75-.529,2.459,2.459,0,0,0-2.717-.478,2.535,2.535,0,0,0-1.008.885c-.224.346-.478.662-.682,1.028.366-.214.682-.458,1.028-.682a2.188,2.188,0,0,1,.926-.5,1.838,1.838,0,0,1,1.761.458,2.489,2.489,0,0,0,2.687.56,2.37,2.37,0,0,0,1.038-.865c.214-.326.448-.631.651-.977v-.01A8.808,8.808,0,0,0,445.044,349.849Zm-30.664-29.4a2.224,2.224,0,0,1-.936.458,1.87,1.87,0,0,1-1.75-.529,2.459,2.459,0,0,0-2.717-.478,2.535,2.535,0,0,0-1.008.885c-.224.346-.478.662-.682,1.028.366-.214.682-.458,1.028-.682a2.189,2.189,0,0,1,.926-.5,1.838,1.838,0,0,1,1.761.458,2.489,2.489,0,0,0,2.687.56,2.37,2.37,0,0,0,1.038-.865c.224-.336.468-.651.682-1.018C415.042,319.969,414.727,320.213,414.381,320.447Zm11.083-18.054a2.3,2.3,0,0,0-1.2.2,2.467,2.467,0,0,0-1.008.885c-.224.346-.478.661-.682,1.018.366-.2.682-.448,1.018-.672a2.373,2.373,0,0,1,.936-.509,1.867,1.867,0,0,1,1.761.468,1.325,1.325,0,0,0,.224.193C426.166,303.441,425.82,302.912,425.464,302.393Zm-31.091,49.624a2.253,2.253,0,0,1-.936.468,1.9,1.9,0,0,1-1.761-.529,2.44,2.44,0,0,0-2.707-.478,2.467,2.467,0,0,0-1.008.885c-.224.346-.478.672-.682,1.028a11.815,11.815,0,0,0,1.018-.682,2.374,2.374,0,0,1,.936-.509,1.867,1.867,0,0,1,1.761.468,2.458,2.458,0,0,0,2.677.57,2.419,2.419,0,0,0,1.048-.875c.224-.336.468-.661.672-1.018C395.034,351.549,394.708,351.793,394.372,352.017Z" transform="translate(-361.94 -261.643)"/><g transform="translate(7.593 24.27)"><path class="h" d="M373.55,350.983c1.247-2.383,2.514-4.756,3.766-7.136q1.841-3.5,3.724-6.971a80.776,80.776,0,0,0,3.7-7.309.046.046,0,0,0-.078-.046,61.016,61.016,0,0,0-4.159,6.615c-1.339,2.335-2.643,4.691-3.936,7.052-1.267,2.312-2.488,4.65-3.69,7a59.683,59.683,0,0,0-3.379,7.481c-.036.1.106.2.174.1A71.461,71.461,0,0,0,373.55,350.983Z" transform="translate(-369.492 -285.308)"/><path class="u" d="M419.651,341.013l-9.343-4.953-.014-.013v-.013c-.271-.893-7.809-29.221-11.178-38.607-.18-.518-.388-1.048-.584-1.606-.969-2.6-2.3-6.034-3.77-9.744Z" transform="translate(-369.045 -286.077)"/><path class="h" d="M427.12,344.259a77.593,77.593,0,0,0-8.207-5.265c-1.409-.8-2.843-1.532-4.322-2.191-1.57-.7-3.231-1.209-4.791-1.914a.1.1,0,0,0-.088.183c1.457.659,2.844,1.578,4.251,2.346q2.2,1.2,4.416,2.345c2.912,1.5,5.771,3.086,8.664,4.615C427.114,344.416,427.185,344.308,427.12,344.259Z" transform="translate(-368.781 -285.212)"/></g></g></g><g transform="translate(0 55.728)"><g transform="translate(1.95 3.598)"><path class="t" d="M422.134,338.232c-2.344.032-16.5-3.749-18.56-1.806-12.565,11.844-16.536,9.458-19.21,11-20.7,11.911-48.348,25.9-58.215,25.991-14.965.121-20.926-12.437-18.435-24.3,4.918-23.457,36.553-69.2,50.867-81.348,7.589-6.434,6.99,3.271,3.85,13.82-1.841,6.187-5.061,15.384-8.346,24.409-2.91,8.04-10.619,28.587-10.753,29.069v.013c-.012.028-.024.043-.023.056-.011.055.044.065.164.031.657-.12,18.362-8.463,36.165-13.047,6.274-1.615,19.339-3.916,24.023-1.825,2.785,1.243,2.832,2.9,2.832,2.9a6.863,6.863,0,0,1,4.589,1.736,6.706,6.706,0,0,1,2.047,3.106,7.03,7.03,0,0,1,3.715,1.759,6.438,6.438,0,0,1,1.65,3.477C421.788,334.153,422.134,338.232,422.134,338.232Z" transform="translate(-307.165 -265.699)"/><g transform="translate(52.785 56.62)"><path class="l" d="M399.685,321.706a35.159,35.159,0,0,0-5.584.627c-.125.022-.121.218.012.2,1.822-.2,3.665-.241,5.5-.3s3.667-.1,5.486-.062a.01.01,0,0,0,0-.02A30.131,30.131,0,0,0,399.685,321.706Z" transform="translate(-358.411 -321.327)"/><path class="l" d="M411.4,326.861a22.649,22.649,0,0,0-9.894-.873c-.131.016-.121.212.008.2a38.435,38.435,0,0,1,9.88.74C411.436,326.938,411.439,326.871,411.4,326.861Z" transform="translate(-358.28 -321.254)"/><path class="l" d="M416.681,332.019a22.165,22.165,0,0,0-9.357-1.755c-.127,0-.17.187-.038.2a54.684,54.684,0,0,1,9.348,1.7A.076.076,0,0,0,416.681,332.019Z" transform="translate(-358.177 -321.175)"/><path class="l" d="M377.851,321.334a42.624,42.624,0,0,0-4.628,1.035c-1.621.4-3.236.84-4.823,1.363a92.065,92.065,0,0,0-9.307,3.691.1.1,0,0,0,.07.191c3.1-1.086,6.229-2.1,9.363-3.089,1.54-.484,3.071-1,4.606-1.5,1.574-.515,3.214-.906,4.762-1.493A.1.1,0,0,0,377.851,321.334Z" transform="translate(-359.03 -321.333)"/></g></g><path class="s" d="M366.423,325.74a17.384,17.384,0,0,1,4.757-1.114L389.8,356.078s-51.3,18.47-61.835,19.55-22.518-7.215-22.72-20.44c-.284-18.587,30.026-63.223,45.271-80.483,6.988-7.911,15.135-13.655,17.213-12.359,2.454,1.532-2,11.478-4.352,18.9-4.336,13.7-19.875,53.981-19.875,53.981S362.52,327.062,366.423,325.74Z" transform="translate(-305.248 -262.163)"/><path class="f" d="M325.615,320.79a2.271,2.271,0,0,1-1-.336,1.917,1.917,0,0,1-.865-1.618,2.432,2.432,0,0,0-1.577-2.249,2.5,2.5,0,0,0-1.354-.092h-.02c-.081.143-.173.285-.254.427l.275.061a2.224,2.224,0,0,1,1.028.305,1.869,1.869,0,0,1,.916,1.567,2.471,2.471,0,0,0,1.506,2.29,2.38,2.38,0,0,0,1.343.132c.4-.081.794-.132,1.2-.244C326.408,320.923,326.011,320.872,325.615,320.79Zm3.593,49.329a2.272,2.272,0,0,1-1-.336,1.892,1.892,0,0,1-.865-1.618,2.432,2.432,0,0,0-1.577-2.249,2.463,2.463,0,0,0-1.343-.092c-.4.081-.794.132-1.2.244.407.112.8.163,1.2.244a2.307,2.307,0,0,1,1.018.305,1.882,1.882,0,0,1,.916,1.567,2.455,2.455,0,0,0,1.506,2.29,2.379,2.379,0,0,0,1.343.132c.4-.081.794-.132,1.2-.244C330,370.251,329.6,370.2,329.207,370.119Zm14.431-30.074a2.271,2.271,0,0,1-1-.336,1.892,1.892,0,0,1-.865-1.618,2.427,2.427,0,0,0-1.588-2.249,2.463,2.463,0,0,0-1.343-.092c-.4.081-.794.132-1.2.244.407.112.8.163,1.2.244a2.307,2.307,0,0,1,1.018.305,1.882,1.882,0,0,1,.916,1.567,2.464,2.464,0,0,0,1.516,2.29,2.38,2.38,0,0,0,1.343.132c.4-.081.794-.132,1.2-.244C344.432,340.178,344.035,340.127,343.638,340.046Zm2.147-32.343c-.081-.4-.132-.8-.244-1.2-.112.4-.163.8-.244,1.2a2.447,2.447,0,0,1-.305,1.018,1.849,1.849,0,0,1-1.567.906,2.487,2.487,0,0,0-2.29,1.506,2.38,2.38,0,0,0-.132,1.343c.081.407.132.8.244,1.2.112-.4.163-.794.244-1.2a2.228,2.228,0,0,1,.336-.987,1.869,1.869,0,0,1,1.618-.865,2.467,2.467,0,0,0,2.249-1.588A2.422,2.422,0,0,0,345.786,307.7Zm-26.216,28.913c-.081-.407-.132-.8-.244-1.2-.112.4-.163.794-.244,1.2a2.4,2.4,0,0,1-.305,1.008,1.837,1.837,0,0,1-1.567.916,2.486,2.486,0,0,0-2.29,1.506,2.38,2.38,0,0,0-.132,1.343c.081.4.132.8.244,1.2.112-.4.163-.8.244-1.2a2.317,2.317,0,0,1,.336-1,1.86,1.86,0,0,1,1.618-.855,2.457,2.457,0,0,0,2.249-1.588A2.427,2.427,0,0,0,319.569,336.616Zm45.278-69.795c-.081-.407-.132-.8-.244-1.2-.112.4-.163.794-.244,1.2a2.4,2.4,0,0,1-.305,1.008,1.837,1.837,0,0,1-1.567.916,2.512,2.512,0,0,0-2.3,1.506,2.38,2.38,0,0,0-.132,1.343c.081.4.132.8.244,1.2.112-.4.163-.8.254-1.2a2.317,2.317,0,0,1,.336-1,1.86,1.86,0,0,1,1.618-.855,2.457,2.457,0,0,0,2.249-1.588A2.426,2.426,0,0,0,364.847,266.821Zm4.213,80.094c-.081-.407-.122-.8-.234-1.211-.112.407-.163.8-.244,1.211a2.447,2.447,0,0,1-.305,1.008,1.837,1.837,0,0,1-1.567.916,2.5,2.5,0,0,0-2.3,1.506,2.288,2.288,0,0,0-.122,1.343c.081.4.132.8.244,1.2.112-.4.163-.8.244-1.2a2.144,2.144,0,0,1,.326-1,1.884,1.884,0,0,1,1.618-.855,2.47,2.47,0,0,0,2.259-1.588A2.418,2.418,0,0,0,369.061,346.915Zm-24.781-60.788a2.253,2.253,0,0,1-.936.468,1.851,1.851,0,0,1-1.75-.539c-.061-.061-.122-.112-.183-.163-.2.265-.407.539-.611.8a.718.718,0,0,1,.1.081,2.486,2.486,0,0,0,2.687.55,2.286,2.286,0,0,0,1.038-.855c.224-.346.468-.661.672-1.028C344.941,285.659,344.615,285.9,344.279,286.127Zm-34.043,69.744a2.116,2.116,0,0,1-.936.458,1.889,1.889,0,0,1-1.761-.529,2.468,2.468,0,0,0-2.29-.641c.01.3.02.58.041.865a1.8,1.8,0,0,1,1.557.488,2.5,2.5,0,0,0,2.7.56,2.371,2.371,0,0,0,1.038-.865c.224-.336.478-.661.682-1.028A11.36,11.36,0,0,0,310.237,355.871Zm78.232-2.107-.092.153a.937.937,0,0,0,.132-.081Zm-38.409,3.949a2.224,2.224,0,0,1-.936.458,1.87,1.87,0,0,1-1.75-.529,2.459,2.459,0,0,0-2.717-.478,2.535,2.535,0,0,0-1.008.885c-.224.346-.478.662-.682,1.028.366-.2.682-.458,1.028-.682a2.308,2.308,0,0,1,.926-.5,1.863,1.863,0,0,1,1.761.458,2.471,2.471,0,0,0,2.687.56,2.42,2.42,0,0,0,1.038-.855c.224-.346.468-.662.682-1.028C350.722,357.235,350.406,357.489,350.06,357.713Z" transform="translate(-305.248 -262.102)"/><g transform="translate(17.719 29.668)"><path class="h" d="M370.7,323.512c-2.889.169-15.385,4.521-21.513,7.15a105.642,105.642,0,0,0-17.491,9.451c-3.119,2.1-6.078,4.4-9,6.762-.1.081.009.244.117.167a185.583,185.583,0,0,1,34.808-18.936c3.5-1.363,9.512-3.4,12.929-4.3C371.519,323.551,370.794,323.507,370.7,323.512Z" transform="translate(-322.659 -290.744)"/><path class="h" d="M358.049,296.578c-.782,1.261-1.573,2.515-2.241,3.842-.031.062-.06.125-.092.187q1.488-4.528,2.836-9.09c.056-.187-.254-.288-.326-.107-4.408,11.165-8.5,22.465-12.468,33.794-1.11,3.169-2.085,6.37-3.094,9.569-.035.111.146.167.192.063,1.211-2.745,2.431-5.47,3.541-8.261s2.137-5.613,3.179-8.428q2.733-7.386,5.229-14.842c.523-.87,1.052-1.739,1.547-2.626.722-1.292,1.314-2.646,1.916-4A.122.122,0,0,0,358.049,296.578Z" transform="translate(-322.305 -291.315)"/><path class="h" d="M376.285,348.074c-1.365-2.317-2.71-4.647-4.07-6.967q-2-3.41-3.953-6.844a80.662,80.662,0,0,0-4.251-7,.046.046,0,0,0-.08.042,61.158,61.158,0,0,0,3.419,7.026c1.275,2.37,2.587,4.722,3.908,7.067,1.3,2.3,2.635,4.569,3.992,6.83a59.629,59.629,0,0,0,4.568,6.82c.068.084.228.018.178-.093A71.372,71.372,0,0,0,376.285,348.074Z" transform="translate(-321.928 -290.678)"/><path class="h" d="M390.074,354.664c-1.544-3.047-3.949-6.039-5.729-8.938-.068-.11-.232.005-.166.115,1.615,2.718,3.1,5.649,4.642,8.413-7.047,2.91-14.527,5.5-21.714,8.049-7.374,2.615-14.8,5.093-22.32,7.259-4.206,1.212-8.418,2.526-12.65,3.636-.263.069-.193.286.077.235a191.914,191.914,0,0,0,22.455-5.971c7.517-2.384,14.935-5.049,22.316-7.808C381.143,358.1,390.2,354.911,390.074,354.664Z" transform="translate(-322.494 -290.351)"/></g><g transform="translate(24.737 43.183)"><path class="t" d="M377.9,321.652a249.892,249.892,0,0,0-25.831,8.519c-.132.046-.251.092-.37.136-4.4,1.728-7.126,3.011-7.779,3.119a1.133,1.133,0,0,1-.138-.089v-.013a5.868,5.868,0,0,0-1.361-.749c-1.242-.445-13.162-1.934-12.86-5.626.29-3.652,5.148-3.426,5.862-3.375-.772-.169-7.242-1.684-5.135-4.916,1.489-2.291,7.9-1.955,8.542-1.929-.653-.215-6.6-2.152-4.552-5.45,1.462-2.36,8.616-2.053,9.441-1.913-.669-.253-5.966-1.141-3.493-3.984,1.716-1.978,15.185.035,21.172,3.022C370.3,312.848,377.9,321.652,377.9,321.652Z" transform="translate(-329.554 -304.594)"/><g transform="translate(5.813 4.707)"><path class="l" d="M351.968,329.842c-.132.046-.251.092-.37.136-2.068-1.606-9.89-5.749-16.035-6.537-.382-.049-.406-.267,0-.248C343.148,323.536,349.971,328,351.968,329.842Z" transform="translate(-335.266 -308.972)"/><path class="l" d="M338.958,316.763c8.484,1.684,12.317,3.557,19.611,8.192.1.065.219-.087.119-.161-6.8-5.09-11.031-7.609-19.658-8.246C338.641,316.52,338.571,316.686,338.958,316.763Z" transform="translate(-335.205 -309.09)"/><path class="l" d="M343.733,309.46c8.139,2.165,12.428,4.038,18.984,9.344.155.125.345-.065.2-.2-6.179-5.991-11.515-8.367-19.109-9.363C343.292,309.168,343.221,309.325,343.733,309.46Z" transform="translate(-335.123 -309.22)"/></g></g></g><g transform="translate(53.447)"><g transform="translate(8.874 37.63)"><g transform="translate(0.002)"><path class="t" d="M385.542,275.79c-4.821,1.734-14.182-4.871-18.237-10.624-.275-.4-.133-4.9-.22-10.386-.066-3.328-.218-7.031-.6-10.4l21.715,2.736a54.035,54.035,0,0,0-.573,13.169,7.521,7.521,0,0,0,.3,1.366c.014.063.041.138.056.226C388.713,264.454,390.2,274.112,385.542,275.79Z" transform="translate(-366.486 -244.38)"/></g><path class="l" d="M387.992,261.875a3.514,3.514,0,0,1,.112.474c-13-.551-17.945-6.267-21.146-11.752-.1-2.09-.237-4.209-.474-6.216l21.717,2.732a53.677,53.677,0,0,0-.571,13.173,7,7,0,0,0,.306,1.366C387.951,261.708,387.965,261.791,387.992,261.875Z" transform="translate(-366.484 -244.38)"/></g><g transform="translate(2.851 0.001)"><path class="t" d="M361.048,220.242c-2.038,7.617,2.7,29.251,8.226,33.919,8.017,6.768,20.762,7,26.418-2.55,5.481-9.256-1.189-37.342-7.331-41.545C379.317,203.875,364.06,208.992,361.048,220.242Z" transform="translate(-360.566 -207.406)"/></g><g transform="translate(17.218 15.983)"><g transform="translate(2.628 7.703)"><path class="l" d="M380.3,231.912c-.022-.053-.1.095-.083.154.357,1.448.523,3.168-.693,3.935-.038.023-.017.1.031.079C381.111,235.508,380.868,233.228,380.3,231.912Z" transform="translate(-377.226 -230.657)"/><path class="l" d="M378.707,230.69c-2.383.323-1.561,5.068.647,4.768C381.528,235.163,380.706,230.418,378.707,230.69Z" transform="translate(-377.266 -230.679)"/></g><g transform="translate(13.97 5.183)"><path class="l" d="M388.411,229.985c0-.059.127.049.135.11.209,1.478.7,3.135,2.11,3.393.044.008.053.082,0,.083C389,233.625,388.371,231.418,388.411,229.985Z" transform="translate(-388.409 -228.172)"/><path class="l" d="M389.457,228.254c2.333-.589,3.339,4.12,1.178,4.665C388.509,233.456,387.5,228.748,389.457,228.254Z" transform="translate(-388.409 -228.203)"/></g><path class="l" d="M376.224,227.777a18.826,18.826,0,0,0,1.725-.966,3.191,3.191,0,0,0,1.572-1.321,1.021,1.021,0,0,0-.372-1.187,2.528,2.528,0,0,0-2.552.178,3.712,3.712,0,0,0-1.832,1.947A1.087,1.087,0,0,0,376.224,227.777Z" transform="translate(-374.683 -223.094)"/><path class="l" d="M390.777,225.961a18.7,18.7,0,0,1-1.97-.162,3.194,3.194,0,0,1-1.978-.55,1.016,1.016,0,0,1-.154-1.233,2.527,2.527,0,0,1,2.4-.9,3.714,3.714,0,0,1,2.474,1.011A1.086,1.086,0,0,1,390.777,225.961Z" transform="translate(-374.473 -223.11)"/><path class="l" d="M381.4,244.756c.411.283.845.7,1.386.648a3.941,3.941,0,0,0,1.515-.643.052.052,0,0,1,.077.064,2.011,2.011,0,0,1-1.728,1.122,1.588,1.588,0,0,1-1.381-1.1C381.234,244.765,381.341,244.715,381.4,244.756Z" transform="translate(-374.566 -222.727)"/><g transform="translate(7.571 0.298)"><path class="l" d="M382.169,240.466a5.079,5.079,0,0,0,3.726,1.648,6.4,6.4,0,0,0,1.815-.23,1.727,1.727,0,0,0,.337-.1c.1-.032.2-.061.313-.106a.372.372,0,0,0,.238-.38l0-.011a.772.772,0,0,0-.041-.148l0-.011-.024-.128c-.165-1.137-.573-2.839-.573-2.839.449.136,2.721.718,2.586.133-1.141-4.843-2.409-10.23-4.566-14.81a.138.138,0,0,0-.262.084c.911,4.7,2.643,9.205,3.634,13.91a8.89,8.89,0,0,0-2.486-.307c-.153.074.848,3.275.88,3.792a.2.2,0,0,1,0,.056c-1.859.572-3.392.246-5.459-.711C382.159,240.245,382.06,240.364,382.169,240.466Z" transform="translate(-382.122 -223.403)"/></g></g><path class="l" d="M390.726,212.764l.12.208A3.721,3.721,0,0,0,386.6,211.7c-1.656.614-1.738,2.355-4.024,3.01s-6.288-2.721-10.324-.08c-5.333,3.489-3.22,12.526-3.264,16.945-.044,4.316-2.608,7.866-6.245,8.421-1.914-7.413-2.8-15.633-1.689-19.749,3.012-11.255,18.27-16.366,27.316-10.181A9.253,9.253,0,0,1,390.726,212.764Z" transform="translate(-357.715 -207.405)"/><g transform="translate(0 25.334)"><path class="t" d="M367.231,237.481s-5.3-6.766-8.4-4.836,1.162,11.924,4.986,13.112a3.816,3.816,0,0,0,4.994-2.329Z" transform="translate(-357.765 -232.299)"/><path class="l" d="M360.082,235.424c-.06,0-.067.082-.014.1,2.686.92,4.2,3.281,5.31,5.753a2.108,2.108,0,0,0-3.18-.4c-.065.053.006.156.079.136a2.348,2.348,0,0,1,2.625.677,11.344,11.344,0,0,1,1.351,2.019c.135.228.553.079.449-.186l-.025-.06C366.559,240.11,363.7,235.563,360.082,235.424Z" transform="translate(-357.724 -232.243)"/></g><g transform="translate(5.313 52.191)"><path class="c" d="M387.984,261.164l-4.618,12.778L367.2,258.688l-4.216,5.252s16.18,24.6,16.233,23.455l4.751-10.991,7.737,7.227L390.383,264.8Z" transform="translate(-362.985 -258.688)"/><path class="l" d="M391.566,274.178c-.323-3.1-.561-6.235-1.027-9.318-.016-.109-.19-.152-.213-.021-.509,3.027.788,14.882.882,17.733l-.034-.032c-.324-.312-7.157-6.345-7.219-6.243-1.054,1.757-4.543,9.762-4.775,10.487-2.559-3.907-12.339-18.094-15.332-21.767a.108.108,0,0,0-.182.115c2.287,4.142,15.241,23.254,15.427,23.192a121.419,121.419,0,0,0,4.963-11.618c1.168,1.327,8.095,8.164,8.1,7.7A98.139,98.139,0,0,0,391.566,274.178Z" transform="translate(-362.973 -258.58)"/></g></g></g><g transform="translate(373.802 400.162)"><path class="l" d="M387.424,423.521l4.272,10.316L387.43,435.6l-4.3-10.385-7.051,5.47v-29.06l20.342,20.55Z" transform="translate(-367.784 -393.91)"/><line class="o" y1="3.854" transform="translate(8.548)"/><line class="o" x1="2.725" y1="2.725" transform="translate(2.504 2.504)"/><line class="o" x1="3.854" transform="translate(0 8.548)"/><line class="o" x1="2.725" y2="2.725" transform="translate(2.504 11.867)"/><line class="o" x2="3.854" transform="translate(13.242 8.548)"/><line class="o" y1="2.725" x2="2.725" transform="translate(11.867 2.504)"/></g></g></svg>