<svg xmlns="http://www.w3.org/2000/svg" width="123.794" height="123.793" viewBox="0 0 123.794 123.793"><defs><style>.a{opacity:0.2;}.b{fill:none;}.c{fill:#69a82c;}</style></defs><g class="a"><path class="b" d="M0,0H123.794V123.794H0Z"/><path class="c" d="M11.165,69.288C5.852,63.646,3,57.317,3,47.057,3,29,15.673,12.823,34.1,4.823l4.606,7.108c-17.2,9.305-20.565,21.38-21.906,28.993a18.468,18.468,0,0,1,9.95-1.6A18.053,18.053,0,0,1,25.34,75.37,19.967,19.967,0,0,1,11.165,69.288Zm51.581,0c-5.313-5.643-8.165-11.972-8.165-22.231,0-18.053,12.673-34.234,31.1-42.234l4.606,7.108c-17.2,9.305-20.565,21.38-21.906,28.993a18.468,18.468,0,0,1,9.95-1.6A18.053,18.053,0,0,1,76.92,75.37a19.967,19.967,0,0,1-14.174-6.081Z" transform="translate(12.474 20.054)"/></g></svg>