<svg xmlns="http://www.w3.org/2000/svg" width="638.42" height="630.427" viewBox="0 0 638.42 630.427"><defs><style>.a{fill:#ebebeb;}.b{fill:#fff;}.c{fill:#dbdbdb;}.d{fill:#263238;}.e{fill:#69a82c;}.f{opacity:0.1;}.g{fill:#72b74c;}.h,.p{fill:none;stroke:#263238;}.h{stroke-linecap:round;stroke-linejoin:round;}.i{fill:#eb9481;}.j{fill:#b55d2c;}.k{fill:#dd6a57;}.l{fill:#629d52;}.m{fill:#37474f;}.n{fill:#d6e27b;}.o{fill:#455a64;}.p{stroke-miterlimit:10;}</style></defs><g transform="translate(-36.211 -44.669)"><g transform="translate(62.724 44.669)"><rect class="a" width="257.436" height="304.767" transform="translate(0 0)"/><g transform="translate(14.029 12.208)"><rect class="b" width="108.709" height="135.559"/><rect class="b" width="108.709" height="135.559" transform="translate(120.669)"/><rect class="b" width="108.709" height="135.559" transform="translate(0 144.793)"/><rect class="b" width="108.709" height="135.559" transform="translate(120.669 144.793)"/></g><g transform="translate(0 0)"><rect class="c" width="60.974" height="436.02"/><path class="a" d="M87.508,58.542l.471,47.144.171,47.144.324,94.287L88.152,341.4l-.17,47.144-.474,47.144-.474-47.144-.17-47.144-.322-94.287.324-94.287.171-47.144Z" transform="translate(-38.094 -37.812)"/><path class="a" d="M68.771,65.858l.47,42.1.27,42.1.226,84.19-.222,84.191-.271,42.1-.474,42.1-.474-42.1-.271-42.1L67.8,234.239l.225-84.19.271-42.1Z" transform="translate(-47.356 -34.196)"/><path class="a" d="M78.139,72.509l.47,49.291.171,49.291.324,98.581-.322,98.581-.17,49.291-.474,49.291-.474-49.291-.17-49.291-.322-98.581L77.5,171.09l.171-49.291Z" transform="translate(-42.725 -30.909)"/><path class="a" d="M61.8,60.2l.471,51.589.171,51.589.324,103.178-.322,103.178-.17,51.589L61.8,472.915l-.474-51.589-.17-51.589L60.837,266.56l.324-103.178.171-51.589Z" transform="translate(-50.8 -36.99)"/></g><g transform="translate(196.462)"><rect class="c" width="60.974" height="436.02" transform="translate(60.974 436.02) rotate(180)"/><path class="a" d="M193.653,58.542l.471,47.144.171,47.144.324,94.287L194.3,341.4l-.17,47.144-.474,47.144-.474-47.144-.17-47.144-.322-94.287.324-94.287.171-47.144Z" transform="translate(-182.093 -37.812)"/><path class="a" d="M212.391,65.858l.47,42.1.27,42.1.226,84.19-.222,84.191-.271,42.1-.474,42.1-.474-42.1-.271-42.1-.222-84.191.225-84.19.271-42.1Z" transform="translate(-172.832 -34.196)"/><path class="a" d="M203.022,72.509l.471,49.291.171,49.291.324,98.581-.322,98.581-.17,49.291-.474,49.291-.474-49.291-.17-49.291-.322-98.581.324-98.581.171-49.291Z" transform="translate(-177.462 -30.909)"/><path class="a" d="M219.359,60.2l.471,51.589L220,163.382l.324,103.178L220,369.738l-.17,51.589-.474,51.589-.474-51.589-.17-51.589-.322-103.178.324-103.178.171-51.589Z" transform="translate(-169.387 -36.99)"/></g><g transform="translate(551.643 311.782)"><path class="a" d="M447.384,253.322a3.725,3.725,0,0,1,3.752,3.754V259a31.8,31.8,0,0,1,13.529,4.8,4.676,4.676,0,0,1,2.619,4.19,4.807,4.807,0,0,1-4.889,4.8,5.043,5.043,0,0,1-2.618-.786,31.685,31.685,0,0,0-8.989-3.84v16.758c13.268,3.316,18.94,8.64,18.94,17.979,0,9.6-7.506,15.974-18.592,17.02v5.237a3.724,3.724,0,0,1-3.752,3.754,3.8,3.8,0,0,1-3.84-3.754v-5.411a37.767,37.767,0,0,1-17.894-6.808,4.8,4.8,0,0,1-2.356-4.19,4.8,4.8,0,0,1,7.682-3.84,30.916,30.916,0,0,0,12.916,5.847V293.558c-12.743-3.316-18.678-8.117-18.678-17.979,0-9.339,7.419-15.8,18.33-16.672v-1.832A3.8,3.8,0,0,1,447.384,253.322Zm-3.492,29.763V267.637c-5.586.523-8.378,3.491-8.378,7.331C435.514,278.633,437.171,280.9,443.892,283.085Zm6.9,12.132V311.1c5.586-.611,8.641-3.4,8.641-7.594C459.43,299.668,457.51,297.311,450.788,295.217Z" transform="translate(-423.294 -253.322)"/></g><g transform="translate(280.792 6.058)"><path class="a" d="M266.125,48.723a3.724,3.724,0,0,1,3.751,3.754V54.4A31.75,31.75,0,0,1,283.4,59.2a4.673,4.673,0,0,1,2.619,4.19,4.808,4.808,0,0,1-4.889,4.8,5.044,5.044,0,0,1-2.618-.786,31.668,31.668,0,0,0-8.99-3.84V80.318c13.268,3.317,18.941,8.641,18.941,17.98,0,9.6-7.507,15.974-18.593,17.02v5.237a3.723,3.723,0,0,1-3.751,3.754,3.8,3.8,0,0,1-3.842-3.754v-5.411a37.757,37.757,0,0,1-17.892-6.809,4.794,4.794,0,0,1-2.358-4.188,4.8,4.8,0,0,1,7.682-3.84,30.914,30.914,0,0,0,12.918,5.847V88.959c-12.745-3.317-18.678-8.117-18.678-17.979,0-9.339,7.418-15.8,18.329-16.671V52.477A3.8,3.8,0,0,1,266.125,48.723Zm-3.492,29.763V63.037c-5.587.524-8.38,3.492-8.38,7.332C254.253,74.034,255.912,76.3,262.633,78.486Zm6.895,12.132V106.5c5.586-.611,8.641-3.4,8.641-7.594C278.169,95.069,276.249,92.713,269.527,90.618Z" transform="translate(-242.033 -48.723)"/></g></g><g transform="translate(544.455 405.34)"><g transform="translate(0)"><g transform="translate(0 34.356)"><path class="d" d="M394.932,321.725c23.9,23.4,27.913,59.6,22.876,91.307-.13.72-1.243.523-1.243-.152,0-7.219.218-14.37.2-21.5-.132-.326-.241-.632-.371-.959-6.237-4.535-11.974-9.66-15.528-16.682-3.99-7.851-5.56-16.7-8.613-24.9-.284-.784.553-.553,1.1-.149,14.538,10.723,19.173,22.262,23.345,37.681a128.217,128.217,0,0,0-2.53-24.01c-3.141-14.633-9.356-29.135-19.866-40C393.907,321.943,394.518,321.311,394.932,321.725Z" transform="translate(-368.754 -302.825)"/><path class="e" d="M398.193,330.66c-4.112.139-6.69,6.711-9.893,8.628-1.7,1.021-3.346.958-4.538-.713-3.175-4.433,1.182-9.9,5.278-12.958-2.93,1.2-5.36,3.322-8.519,3.921-1.913.351-3.4-.357-3.846-2.3-1.391-6.043,6.188-8.731,11.386-8.858-2.521-1.751-9.746-6.516-5.907-8.858,3.89-2.352,12.368,4.459,15.134,6.7,4.064,3.3,8.91,8.226,9.094,13.384C406.621,335.627,401.358,331.921,398.193,330.66Z" transform="translate(-376.507 -309.032)"/><path class="f" d="M398.193,330.66c-4.112.139-6.69,6.711-9.893,8.628-1.7,1.021-3.346.958-4.538-.713-3.175-4.433,1.182-9.9,5.278-12.958-2.93,1.2-5.36,3.322-8.519,3.921-1.913.351-3.4-.357-3.846-2.3-1.391-6.043,6.188-8.731,11.386-8.858-2.521-1.751-9.746-6.516-5.907-8.858,3.89-2.352,12.368,4.459,15.134,6.7,4.064,3.3,8.91,8.226,9.094,13.384C406.621,335.627,401.358,331.921,398.193,330.66Z" transform="translate(-376.507 -309.032)"/><path class="e" d="M397.438,329.842c-5.257-2.389-15.357,1.051-16.214-.94-1.741-4.049,6.33-6.827,10.685-7.365-4.012-1.088-11.7-2.82-11.462-6.688.288-4.725,11.79-.662,17.611,3.8,7.335,5.624,7.286,11.05,6.074,12.136C402.469,332.279,398.306,330.236,397.438,329.842Z" transform="translate(-374.562 -307.201)"/></g><g transform="translate(53.164 32.756)"><path class="d" d="M439.533,320.171c-24.775,22.474-30.16,58.494-26.333,90.37.1.725,1.222.571,1.249-.1.273-7.213.329-14.369.622-21.493.142-.323.263-.623.406-.944,6.4-4.3,12.331-9.2,16.15-16.081,4.287-7.693,6.192-16.48,9.554-24.557.314-.774-.532-.575-1.094-.193-14.937,10.161-20.005,21.516-24.761,36.765a128.262,128.262,0,0,1,3.441-23.9c3.694-14.5,10.457-28.757,21.372-39.209C440.547,320.428,439.962,319.772,439.533,320.171Z" transform="translate(-412.086 -301.988)"/><g transform="translate(23.341)"><path class="e" d="M436.091,329.04c4.1.3,6.428,6.962,9.559,9,1.654,1.083,3.307,1.083,4.561-.541,3.343-4.308-.8-9.937-4.78-13.15,2.881,1.315,5.23,3.523,8.362,4.244,1.9.423,3.411-.23,3.931-2.156,1.621-5.986-5.85-8.96-11.041-9.284,2.585-1.656,9.988-6.141,6.24-8.628-3.8-2.5-12.528,3.987-15.378,6.124-4.187,3.141-9.218,7.881-9.6,13.028C427.481,333.684,432.881,330.182,436.091,329.04Z" transform="translate(-427.601 -307.962)"/><path class="f" d="M436.091,329.04c4.1.3,6.428,6.962,9.559,9,1.654,1.083,3.307,1.083,4.561-.541,3.343-4.308-.8-9.937-4.78-13.15,2.881,1.315,5.23,3.523,8.362,4.244,1.9.423,3.411-.23,3.931-2.156,1.621-5.986-5.85-8.96-11.041-9.284,2.585-1.656,9.988-6.141,6.24-8.628-3.8-2.5-12.528,3.987-15.378,6.124-4.187,3.141-9.218,7.881-9.6,13.028C427.481,333.684,432.881,330.182,436.091,329.04Z" transform="translate(-427.601 -307.962)"/><path class="e" d="M434.968,328.2c5.345-2.188,15.306,1.633,16.24-.321,1.895-3.982-6.065-7.065-10.4-7.769,4.049-.934,11.8-2.371,11.708-6.246-.108-4.732-11.755-1.11-17.743,3.129-7.543,5.342-7.7,10.765-6.531,11.9C429.849,330.44,434.086,328.559,434.968,328.2Z" transform="translate(-427.706 -306.15)"/></g></g><g transform="translate(14.941)"><path class="d" d="M419.937,387.672c-1.829,11.844-4.1,24.09-7.691,35.534a.885.885,0,0,1-1.732-.348c1.627-10.951,4.593-21.7,6.221-32.65a164.393,164.393,0,0,0,1.9-33.518c-1.044-18.453-6.055-38.08-18.1-52.519-.264-.342.3-.826.571-.508,24.105,28.107,20.27,62.569,20.249,65.658,3.411-11.637,6.929-24.975,19.838-36.823.557-.511.991-.269.9.6-2.31,21.583-8.31,32.851-20.823,44.39C420.922,380.908,420.481,384.312,419.937,387.672Z" transform="translate(-379.602 -277.381)"/><path class="e" d="M407.23,316.064c-4.336-1.926-10.319,3.6-14.609,3.972-2.273.206-3.954-.69-4.348-3.024-1.064-6.2,6.209-9.677,12-10.787-3.647-.226-7.234.749-10.812-.22-2.162-.6-3.349-2.083-2.833-4.326,1.6-6.971,10.814-5.944,16.274-3.458-1.733-3.087-6.832-11.667-1.671-12.166,5.219-.481,10.588,10.853,12.328,14.574,2.558,5.467,5.106,13.021,2.7,18.465C413.473,325.46,409.876,318.966,407.23,316.064Z" transform="translate(-386.506 -286.04)"/><path class="f" d="M407.23,316.064c-4.336-1.926-10.319,3.6-14.609,3.972-2.273.206-3.954-.69-4.348-3.024-1.064-6.2,6.209-9.677,12-10.787-3.647-.226-7.234.749-10.812-.22-2.162-.6-3.349-2.083-2.833-4.326,1.6-6.971,10.814-5.944,16.274-3.458-1.733-3.087-6.832-11.667-1.671-12.166,5.219-.481,10.588,10.853,12.328,14.574,2.558,5.467,5.106,13.021,2.7,18.465C413.473,325.46,409.876,318.966,407.23,316.064Z" transform="translate(-386.506 -286.04)"/><path class="e" d="M406.267,315.62c-4.251-5.125-16.461-6.641-16.35-9.137.232-5.078,10-3.9,14.795-2.262-3.616-3.148-10.72-8.815-8.528-12.709,2.678-4.758,12.567,5.248,16.361,12.81,4.779,9.527,2,15.132.191,15.649C410.26,320.681,406.97,316.467,406.267,315.62Z" transform="translate(-384.82 -283.946)"/></g><path class="g" d="M442,364.228l10.63,81.233H387.933c1.333-7.2,13.374-81.325,13.374-81.325Z" transform="translate(-370.859 -247.441)"/></g></g><g transform="translate(36.711 603.247)"><line class="h" x2="637.42"/></g><g transform="translate(52.863 229.881)"><g transform="translate(114.29 5.247)"><path class="d" d="M140.588,424.226A151.355,151.355,0,0,0,167.6,442.239c-13.318-24.31-6.185-76.089-4.986-68.518,5.76,36.2,27.429,77.144,36.856,79.868.066,0,.1.036.161.039,25.506,5.127,49.485.958,69.946-7.035a.212.212,0,0,0-.058-.121C252,418.772,257.686,366,258.738,369.323c11.439,35.7,39.789,58.382,45.019,58.775h.033c20.888-14.736,32.66-30.205,30.045-32.092-18.991-13.752-33.24-46.294-45.653-80.467v-.028C275.907,281.82,271.3,232.758,252.5,202.026c-17.212-28.131-55.991-36.45-79.457-24.787C111.468,207.839,128.94,414.577,140.588,424.226Z" transform="translate(-121.51 -172.129)"/><path class="d" d="M179.713,174.341c-5.312,1.621-9.775,4.858-13.782,8.275a84.364,84.364,0,0,0-10.638,11.5,133.675,133.675,0,0,0-14.974,26.6c-8.145,18.536-12.591,55.866-14.86,75.623a310.133,310.133,0,0,0-.033,59.612c.4,4.961,1.13,9.9,1.68,14.844l2.186,14.79,2.826,14.705,3.313,14.621-2.315-14.748-1.969-14.769-1.657-14.783c-.372-4.937-.926-9.862-1.149-14.8-1.233-19.733-1.4-39.528.82-59.117,1.911-19.6,6.422-56.6,13.764-75.108a135.192,135.192,0,0,1,13.844-26.622,81.825,81.825,0,0,1,9.849-11.757,52.862,52.862,0,0,1,6.044-5.007A28.2,28.2,0,0,1,179.713,174.341Z" transform="translate(-124.006 -171.036)"/><path class="d" d="M300.4,386.05a256.5,256.5,0,0,1-15.234-22.112c-4.767-7.519-9.211-15.191-13.232-23.021-3.973-7.846-7.782-15.749-10.971-23.845s-6.082-16.365-9.142-24.548c-6.31-16.334-12.328-50.288-19.714-66.323-3.739-8-7.639-15.953-12.138-23.671a118.736,118.736,0,0,0-7.486-11.223c-2.758-3.564-5.82-7.147-10-9.469,3.936,2.611,6.639,6.291,9.167,9.934a115.385,115.385,0,0,1,6.676,11.459c4.126,7.79,7.706,15.8,11.1,23.869,6.793,16.137,12.821,50.029,18.847,66.429,3.174,8.166,6.14,16.346,9.487,24.519a214.246,214.246,0,0,0,11.588,23.934C278.136,357.485,288.2,372.482,300.4,386.05Z" transform="translate(-85.218 -167.331)"/></g><g transform="translate(159.032 146.821)"><path class="i" d="M173.366,328.97c16.077,36.119,78.981,152.433,117.8,159.4,25.473,4.572,127.25-8.988,143.966-33.784,7.285-10.8-8.313-83.753-21.824-80.346s-95.01,17.172-105.171,14.612c-10.1-2.546-88.661-86.628-117.589-107.162C140.661,246.281,164.706,309.52,173.366,328.97Z" transform="translate(-150.993 -264.78)"/><path class="g" d="M385.167,372.164,391.3,482.388s-80.411,17.674-115.5,5.551c-42.615-14.721-104.963-146.686-113.5-168.376-14.013-35.608-10.131-57.17,9.731-51.9,7.718,1.984,17.867,8.064,30.305,19.023,13.02,11.41,87.771,85.481,111.361,99.473C326.889,393.987,385.167,372.164,385.167,372.164Z" transform="translate(-153.949 -266.875)"/><path class="b" d="M341.667,455.934a24.365,24.365,0,0,0-6.067,3.2,24.316,24.316,0,0,0,6.679-1.539,23.831,23.831,0,0,0,6.067-3.183A23.647,23.647,0,0,0,341.667,455.934ZM281.09,369.356a23.742,23.742,0,0,0-6.052,3.183,26.236,26.236,0,0,0,12.731-4.722A23.781,23.781,0,0,0,281.09,369.356Zm-61.115-52.314a24.37,24.37,0,0,0-6.067,3.2,26.362,26.362,0,0,0,12.746-4.722A24.172,24.172,0,0,0,219.975,317.042ZM264.4,435.537a24.056,24.056,0,0,0-6.067,3.183A26.237,26.237,0,0,0,271.063,434,23.561,23.561,0,0,0,264.4,435.537Zm71.1-42.482a24.114,24.114,0,0,0-6.067,3.2,24.313,24.313,0,0,0,6.679-1.539,23.83,23.83,0,0,0,6.067-3.183A23.648,23.648,0,0,0,335.5,393.055ZM228.731,373.779a24.278,24.278,0,0,0-6.052,3.2,24.311,24.311,0,0,0,6.679-1.539,23.8,23.8,0,0,0,6.052-3.2A24.314,24.314,0,0,0,228.731,373.779ZM388.677,434.64c-.254-1.016-.583-2.017-.926-3a24.367,24.367,0,0,0-3.2-6.067,23.784,23.784,0,0,0,1.539,6.679,25.018,25.018,0,0,0,2.749,5.469Zm-84.471,6.141a24.313,24.313,0,0,0-3.183-6.067,24.3,24.3,0,0,0,1.524,6.679,23.885,23.885,0,0,0,3.2,6.067A23.662,23.662,0,0,0,304.206,440.782ZM250.682,346.4a24.278,24.278,0,0,0-3.2-6.052,24.313,24.313,0,0,0,1.539,6.679,23.742,23.742,0,0,0,3.183,6.052A23.765,23.765,0,0,0,250.682,346.4Zm-58.859-57.947a24.058,24.058,0,0,0-3.183-6.067,26.236,26.236,0,0,0,4.722,12.731A23.562,23.562,0,0,0,191.823,288.457ZM275.188,468.53a23.67,23.67,0,0,0-6.545-2.032,23.855,23.855,0,0,0,5.8,3.631,24.183,24.183,0,0,0,6.545,2.032A24.143,24.143,0,0,0,275.188,468.53Zm73.323-45.351a23.839,23.839,0,0,0-6.545-2.017,26.709,26.709,0,0,0,12.358,5.663A24.77,24.77,0,0,0,348.511,423.179Zm-24.147,60.533a23.67,23.67,0,0,0-6.545-2.032,19.593,19.593,0,0,0,3.616,2.51c1.18-.06,2.346-.12,3.526-.194C324.767,483.906,324.558,483.8,324.364,483.712Zm-59.292-85.995a23.672,23.672,0,0,0-6.545-2.032,26.564,26.564,0,0,0,12.343,5.663A23.855,23.855,0,0,0,265.071,397.717Zm-89.626-77.806a23.67,23.67,0,0,0-6.545-2.032,23.856,23.856,0,0,0,5.8,3.631,24.183,24.183,0,0,0,6.545,2.032A24.144,24.144,0,0,0,175.446,319.911ZM231.032,415.9a23.338,23.338,0,0,0-2.017,6.545,24.229,24.229,0,0,0,3.631-5.813,24.72,24.72,0,0,0,2.032-6.545A24.291,24.291,0,0,0,231.032,415.9Zm-29.87-61.623a23.338,23.338,0,0,0-2.017,6.545,24.23,24.23,0,0,0,3.631-5.813,24.721,24.721,0,0,0,2.032-6.545A24.771,24.771,0,0,0,201.162,354.279Zm95.11,49.49a24.183,24.183,0,0,0-2.032,6.545,23.469,23.469,0,0,0,3.646-5.8,24.72,24.72,0,0,0,2.032-6.545A23.75,23.75,0,0,0,296.272,403.769ZM154.75,288.143c.149.822.314,1.644.508,2.5a21.7,21.7,0,0,0,1.479-5.23A18.19,18.19,0,0,0,154.75,288.143Z" transform="translate(-153.553 -259.206)"/><path class="d" d="M300.787,442.507c-1.393-16.261-4.673-83.014-4.405-97.484.018-1,.659-1.236.776-.188,5.352,48.629,3.719,81.578,4.271,97.595C301.442,442.832,300.825,442.921,300.787,442.507Z" transform="translate(-83.557 -228.68)"/><path class="f" d="M162.289,319.545c8.523,21.7,70.91,153.68,113.5,168.387,10.5,3.63,25.111,4.58,40.4,4.173l-146.807-225c-4.218-.65-7.621.067-10.083,2.044C151.383,275.366,152.147,293.81,162.289,319.545Z" transform="translate(-153.949 -266.874)"/></g><g transform="translate(21.14 145.736)"><path class="g" d="M61.668,493.633l220.759-.518-12.2-75.9s17.457-21.189,14.154-44.172c-3.621-25.187-49.027-89.01-52.849-92.607-15.364-14.424-31.639-17.015-47.271-11.809h-.036C112.049,314,61.668,493.633,61.668,493.633Z" transform="translate(-61.668 -266.149)"/><path class="b" d="M74.589,448.11a29.732,29.732,0,0,0-3.721,1.7c-.149.433-.3.852-.448,1.27a28.611,28.611,0,0,0,4.782-1.315,23.636,23.636,0,0,0,6.067-3.2A23.786,23.786,0,0,0,74.589,448.11Zm79.764-144.973a24.278,24.278,0,0,0-6.052,3.2,24.209,24.209,0,0,0,6.664-1.539,23.639,23.639,0,0,0,6.067-3.2A24.313,24.313,0,0,0,154.353,303.137Zm104.165,21.487a20.223,20.223,0,0,0-2.929,1.823,18.366,18.366,0,0,0,3.661-.6C259.011,325.446,258.757,325.043,258.518,324.625Zm-56.872,33.038a24.316,24.316,0,0,0-6.067,3.183,26.363,26.363,0,0,0,12.746-4.722A23.783,23.783,0,0,0,201.646,357.663ZM173.3,444.106a24.06,24.06,0,0,0-6.067,3.183,24.293,24.293,0,0,0,6.679-1.524,23.8,23.8,0,0,0,6.052-3.2A23.564,23.564,0,0,0,173.3,444.106Zm97.112-64.119a24.279,24.279,0,0,0-6.052,3.2,24.313,24.313,0,0,0,6.679-1.539,23.8,23.8,0,0,0,6.052-3.2A24.314,24.314,0,0,0,270.412,379.987Zm-144.854,3.855a24.222,24.222,0,0,0-6.052,3.183,26.236,26.236,0,0,0,12.731-4.722A23.784,23.784,0,0,0,125.558,383.842Zm108.887,57.9a24.058,24.058,0,0,0-6.067,3.183,24.3,24.3,0,0,0,6.679-1.524,24.023,24.023,0,0,0,6.052-3.2A23.561,23.561,0,0,0,234.445,441.745Zm-58.59-170.809c-.149-.374-.3-.732-.448-1.106-.493.344-.971.7-1.449,1.061.09.224.164.433.239.657a23.884,23.884,0,0,0,3.2,6.067A24.311,24.311,0,0,0,175.855,270.936ZM120.777,446.272a24.312,24.312,0,0,0-3.183-6.067,26.363,26.363,0,0,0,4.722,12.746A23.664,23.664,0,0,0,120.777,446.272Zm79.375-34.562a24.221,24.221,0,0,0-3.183-6.052,26.236,26.236,0,0,0,4.722,12.731A23.784,23.784,0,0,0,200.152,411.71Zm-28.077-74.5a24.278,24.278,0,0,0-3.2-6.052,26.793,26.793,0,0,0,4.722,12.731A24.294,24.294,0,0,0,172.075,337.206ZM269.62,463.935a23.585,23.585,0,0,0-3.183-6.067,24.3,24.3,0,0,0,1.524,6.679,24.023,24.023,0,0,0,3.2,6.052A23.562,23.562,0,0,0,269.62,463.935ZM233.5,294.665a24.058,24.058,0,0,0-3.183-6.067,26.236,26.236,0,0,0,4.722,12.731A23.561,23.561,0,0,0,233.5,294.665Zm-84.65,122.918a23.839,23.839,0,0,0-6.545-2.017,26.709,26.709,0,0,0,12.358,5.663A24.77,24.77,0,0,0,148.854,417.583Zm78.4,72.038a18.559,18.559,0,0,0,2.436,1.793l3.556-.015A22.417,22.417,0,0,0,227.258,489.621ZM97.735,476.83A24.183,24.183,0,0,0,91.19,474.8,23.552,23.552,0,0,0,97,478.444a24.446,24.446,0,0,0,6.53,2.032A23.471,23.471,0,0,0,97.735,476.83Zm133.721-77.537a23.921,23.921,0,0,0-6.53-2.032,23.468,23.468,0,0,0,5.8,3.646,24.158,24.158,0,0,0,6.545,2.017A24.232,24.232,0,0,0,231.457,399.293Zm-14.33-73.174a23.67,23.67,0,0,0-6.545-2.032,23.856,23.856,0,0,0,5.8,3.631,24.183,24.183,0,0,0,6.545,2.032A24.143,24.143,0,0,0,217.127,326.119Zm-85.98,20.262a23.671,23.671,0,0,0-2.032,6.545,23.939,23.939,0,0,0,3.631-5.813,23.414,23.414,0,0,0,2.032-6.53A23.856,23.856,0,0,0,131.147,346.381ZM200.421,466.5a24.158,24.158,0,0,0-2.017,6.545,23.856,23.856,0,0,0,3.631-5.8,24.184,24.184,0,0,0,2.032-6.545A24.681,24.681,0,0,0,200.421,466.5Zm42.422-106.018a23.338,23.338,0,0,0-2.017,6.545,24.23,24.23,0,0,0,3.631-5.813,24.721,24.721,0,0,0,2.032-6.545A24.77,24.77,0,0,0,242.843,360.487ZM148.032,472.676A24.184,24.184,0,0,0,146,479.221a23.469,23.469,0,0,0,3.646-5.8,24.158,24.158,0,0,0,2.017-6.545A24.143,24.143,0,0,0,148.032,472.676ZM100.1,417.732a24.021,24.021,0,0,0-2.032,6.545,26.316,26.316,0,0,0,5.663-12.358A24.228,24.228,0,0,0,100.1,417.732ZM167.607,382.2a23.415,23.415,0,0,0-2.032,6.53,23.853,23.853,0,0,0,3.631-5.8,24.184,24.184,0,0,0,2.032-6.545A24.228,24.228,0,0,0,167.607,382.2Zm27.181-84.769a23.415,23.415,0,0,0-2.032,6.53,23.857,23.857,0,0,0,3.631-5.8,24.182,24.182,0,0,0,2.032-6.545A24.228,24.228,0,0,0,194.787,297.429Z" transform="translate(-57.342 -264.329)"/><path class="d" d="M191.561,296.269c4.266,7.1,8.979,13.961,13.444,20.963-1.8-4.958-3.568-9.928-5.547-14.817-.04-.1.1-.181.148-.082a102.4,102.4,0,0,1,7.643,18.471,140.954,140.954,0,0,1,8.918,16.482,65.814,65.814,0,0,1,5.984,21.6,55.69,55.69,0,0,1-3.135,22.239c-2.82,8.248-6.935,15.953-11.183,23.536-.563,1.006-1.96.076-1.493-.922,6.264-13.351,13.181-27.4,12.553-42.539-.622-14.952-7.592-28.762-14.427-41.744-4.117-7.821-8.31-15.678-13.4-22.917C190.859,296.25,191.371,295.952,191.561,296.269Z" transform="translate(2.264 -251.329)"/></g><g transform="translate(268.824 164.363)"><g transform="translate(0 192.583)"><path class="c" d="M239.526,407.5,235.1,432.589H374.24c7.543,0,14.747-6.123,16.077-13.667l2.014-11.427Z" transform="translate(-223.631 -407.496)"/><path class="a" d="M227.637,418.923l2.014-11.427h27.335l-2.014,11.427c-1.33,7.543-8.535,13.667-16.078,13.667a11.354,11.354,0,0,1-8.964-4A11.8,11.8,0,0,1,227.637,418.923Z" transform="translate(-227.425 -407.496)"/></g><path class="c" d="M280.22,292.282,244.247,496.291H369.719c7.543,0,14.747-6.123,16.077-13.667l35.973-204.01H296.3a16.219,16.219,0,0,0-10.375,4A16.748,16.748,0,0,0,280.22,292.282Z" transform="translate(-219.11 -278.614)"/><g transform="translate(56.252)"><path class="a" d="M281.484,278.614l-7.267,41.212H427.023l4.856-27.544c1.33-7.543-3.715-13.668-11.258-13.668Z" transform="translate(-260.549 -278.614)"/><path class="c" d="M269.928,292.282l-4.858,27.544H292.4l4.858-27.544c1.33-7.543-3.715-13.668-11.258-13.668a16.219,16.219,0,0,0-10.375,4A16.748,16.748,0,0,0,269.928,292.282Z" transform="translate(-265.07 -278.614)"/></g><g transform="translate(103.905 48.679)"><path class="j" d="M377.266,331.412c5.107,14.559,19.842,33.531,20,45a13.154,13.154,0,0,1-8.729,13.043s10.7,6.835,9.122,17.263c-.81,5.367-10.1,8.788-10.1,8.788s8.334,5.85,6.363,15.038c-1.572,7.319-10.639,9.651-10.639,9.651s5.378,9.338,1.387,16.283c-8.1,14.082-72,7.29-79.374-17.3-3.435-11.461,12.084-8.954,12.084-8.954S295.936,421.229,297,408.017s21.03-8.737,21.03-8.737-20.707-8.9-18.223-22.483c2.585-14.143,21.791-6.247,21.791-6.247s-13.187-11.144-8.9-21.109c7.071-16.455,31.705,7.8,46.1,5.961l10.212-22.336Z" transform="translate(-296.96 -301.197)"/><path class="j" d="M364.84,362.9c-3.631-14.206,15.088-29.284,13.568-43.368-2.056-19.053-24.959-3.026-32.493,23.527L343.689,364.7Z" transform="translate(-273.864 -311.191)"/><g transform="translate(19.207 67.747)"><path class="d" d="M375.551,408.529a.17.17,0,0,1,.03.338c-21.565,2.888-46.144-.547-65.417-10.922-.632-.339-.354-1.514.414-1.272C332.486,403.565,352.481,407.936,375.551,408.529Z" transform="translate(-309.814 -336.704)"/><path class="d" d="M381.352,393.48c.251.006.245.421-.022.456-22.238,2.854-49.814-1.777-70.622-16.349-.713-.5-.853-1.663.012-1.151C325.292,385.078,360.582,393.051,381.352,393.48Z" transform="translate(-309.662 -346.753)"/><path class="d" d="M312.85,356.6C333.342,369.8,356,375.1,380.063,377.2c.314.027.242.468-.025.517-12.05,2.179-27.246-.759-38.876-4.046-11.141-3.148-20.56-8.226-28.774-16.359C312.07,357,312.412,356.314,312.85,356.6Z" transform="translate(-308.603 -356.529)"/></g></g></g><g transform="translate(145.018)"><g transform="translate(9.787 83.84)"><path class="j" d="M151.123,287.969c.3,3.882,14.432,30.951,31.677,32.786,5.617.587,10.2-29.93,10.2-29.93l.853-2.174,11.917-30.464-33.4-29.489-4.871-3.972s-2.711,8.549-5.979,19.228c-.154.493-.309.989-.466,1.52-.2.6-.4,1.163-.559,1.73-.51,1.588-1.022,3.214-1.5,4.843-.368,1.239-.732,2.442-1.07,3.755-.375,1.31-.71,2.59-1.085,3.9C153.432,272.695,151.02,286.324,151.123,287.969Z" transform="translate(-151.12 -224.726)"/><path class="d" d="M158.079,243.954a65.619,65.619,0,0,0,32.33,44.7l11.917-30.464-33.4-29.489-4.871-3.972S161.347,233.275,158.079,243.954Z" transform="translate(-147.68 -224.726)"/></g><path class="j" d="M257.04,248.7c-7.562,56.907-42.5,58.8-54.771,57.16-11.137-1.493-48.873-7.991-47.231-65.375s30.492-71.858,56.145-69.791S264.6,191.795,257.04,248.7Z" transform="translate(-139.421 -167.683)"/><g transform="translate(64.323 59.713)"><path class="d" d="M220.208,221.1a37.693,37.693,0,0,1-3.637-1.579c-1.388-.622-2.558-.974-3.4-2.319a2.042,2.042,0,0,1,.5-2.442c1.536-1.177,3.426-.838,5.128-.158a7.443,7.443,0,0,1,4.046,3.516C223.782,219.8,221.907,221.662,220.208,221.1Z" transform="translate(-175.094 -205.908)"/><path class="d" d="M192.721,214.006a37.748,37.748,0,0,0,3.966-.024c1.521-.025,2.735.111,4.039-.795a2.042,2.042,0,0,0,.5-2.443c-.949-1.686-2.82-2.117-4.652-2.161a7.44,7.44,0,0,0-5.1,1.641C189.946,211.4,190.94,213.85,192.721,214.006Z" transform="translate(-186.083 -208.58)"/><g transform="translate(0 11.455)"><g transform="translate(3.738 1.707)"><path class="d" d="M198.122,220.6c0-.152-.333.127-.357.285-.572,3.869-1.88,8.2-5.59,8.852-.115.019-.139.215-.007.22C196.522,230.129,198.2,224.358,198.122,220.6Z" transform="translate(-189.149 -215.823)"/><path class="d" d="M196.382,217.53c-6.1-1.587-8.828,10.733-3.174,12.2C198.771,231.18,201.5,218.859,196.382,217.53Z" transform="translate(-190.118 -217.389)"/></g><path class="d" d="M195.056,218.211c-1.23.457-2.557,1.455-3.882,1.3-1.535-.184-2.383-1.724-3.089-3.183-.073-.151-.2-.067-.242.1-.557,2.353-.185,4.976,2.267,5.887,2.238.832,4.357-.892,5.472-3.135C195.789,218.758,195.55,218.024,195.056,218.211Z" transform="translate(-187.617 -216.246)"/></g><g transform="translate(34.259 18.275)"><path class="d" d="M211.773,222.985c.063-.139.257.248.215.4-.994,3.782-1.5,8.281,1.66,10.337.1.063.043.253-.081.2C209.5,232.373,210.224,226.408,211.773,222.985Z" transform="translate(-210.543 -219.75)"/><path class="d" d="M215.966,220.846c6.236.94,3.9,13.341-1.88,12.47C208.4,232.458,210.741,220.058,215.966,220.846Z" transform="translate(-210.423 -220.81)"/><path class="d" d="M216.14,221.739c.856.843,1.6,2.219,2.755,2.518,1.34.344,2.6-.807,3.706-1.929.115-.117.193.006.166.17-.381,2.383-1.63,4.7-3.994,4.728-2.155.024-3.3-2.3-3.416-4.765C215.335,222,215.8,221.4,216.14,221.739Z" transform="translate(-208.165 -220.4)"/></g><path class="d" d="M192.186,242.643c.665,1.128,1.239,2.588,2.578,3.072a10.356,10.356,0,0,0,4.314.143.136.136,0,0,1,.111.236,5.266,5.266,0,0,1-5.343.761c-1.627-.759-2.076-2.464-2.068-4.138C191.777,242.483,192.089,242.481,192.186,242.643Z" transform="translate(-185.56 -191.799)"/><g transform="translate(11.31 2.743)"><path class="d" d="M209.388,248.028s-.4,5.88-.967,8.576c-.054.253-.731.236-1.657.1-.046,0-.075.016-.106-.019a13.089,13.089,0,0,1-11.446-7.386c-.131-.3.269-.508.48-.288,3.008,3.352,6.794,4.844,11,5.8.347-.707.356-10.094.79-10.037,1.5.182,4.193,1.792,5.831,2.666,1.2-12.223.426-24.539,1.8-36.692a.376.376,0,0,1,.741-.027c1.723,12.851.653,26.946-.258,39.6C215.5,251.9,210.371,248.713,209.388,248.028Z" transform="translate(-195.186 -210.416)"/></g></g><path class="d" d="M160.389,242.155c13.145,2.685,17.088-18.1,17.088-18.1s15.2,1.557,21-22.336c0,0,4.348,15.951,24.019,22.861,4.163,1.463-8.041-12.446-8.041-12.446s14.181,18.938,47.281,19.248c2.34.021,6.775-34.8-16.05-51.178s-49.37-14.074-67.959-1.288c0,0-17.915,6.3-23.364,23.3S155.278,241.111,160.389,242.155Z" transform="translate(-140.763 -168.618)"/><g transform="translate(0 62.093)"><path class="a" d="M191.635,247.563a19.047,19.047,0,1,1,24.171-17.9h0a19.055,19.055,0,0,1-24.171,17.9Zm9.574-34.237A16.5,16.5,0,1,0,213.262,229.6,16.425,16.425,0,0,0,201.209,213.326Z" transform="translate(-128.186 -210.172)"/><path class="a" d="M219.308,251.985c-7.019-1.963-11.374-10.932-9.834-20.749a22.733,22.733,0,0,1,6.041-12.531c3.223-3.235,7.1-4.686,10.922-4.085s7.068,3.169,9.145,7.237a22.742,22.742,0,0,1,1.908,13.777c-1.632,10.373-9.239,17.828-16.96,16.618A11.379,11.379,0,0,1,219.308,251.985Zm7.679-34.643a8.05,8.05,0,0,0-.944-.206c-2.99-.471-6.091.726-8.726,3.365a20.249,20.249,0,0,0-5.329,11.128c-1.409,8.988,2.576,17.112,8.936,18.1,6.336,1,12.638-5.508,14.052-14.493a20.212,20.212,0,0,0-1.662-12.228A10.488,10.488,0,0,0,226.987,217.342Z" transform="translate(-112.643 -208.04)"/><path class="a" d="M202.992,226.024l-1.315-2.183c3.229-1.947,10.334-4.133,14.157,1.5l-2.107,1.429C210.309,221.717,203.288,225.848,202.992,226.024Z" transform="translate(-116.344 -204.454)"/><path class="a" d="M146.623,222.638l-2.053-1.506c.7-.956,7.027-9.354,12.788-9.384,5.384-.013,38.606,8.441,40.015,8.8l-.631,2.467c-9.521-2.434-35.212-8.746-39.369-8.723C153.568,214.314,148.325,220.325,146.623,222.638Z" transform="translate(-144.57 -209.394)"/></g><g transform="translate(1.647 60.533)"><path class="j" d="M168.105,226.972s-8.342-20.21-17.25-17.613-5.345,30,3.2,35.538,13.829-2.273,13.829-2.273Z" transform="translate(-145.672 -209.129)"/><path class="d" d="M150.009,214.525c-.146-.048-.223.157-.1.238,5.946,4.1,8.039,10.922,9.052,17.738-1.406-2.85-3.758-4.762-7.51-3.169-.2.084-.093.387.1.389,2.8.022,4.632.916,5.964,3.461a28.907,28.907,0,0,1,1.92,5.871c.175.653,1.3.574,1.227-.148-.006-.052-.015-.109-.021-.163C162.652,230.447,158.767,217.351,150.009,214.525Z" transform="translate(-143.609 -206.465)"/></g><g transform="translate(0.17 147.764)"><path class="a" d="M195.494,270.686l-8.029,26.226-34.242-29.406-8.054,11.055s35.161,48.356,35.16,46.037l8.592-22.749L205.3,315.774,200.83,277.7Z" transform="translate(-144.444 -267.506)"/><path class="d" d="M204.395,293.414c-.949-6.262-1.729-12.6-2.968-18.805-.043-.221-.4-.291-.433-.024-.744,6.189,3.012,30.115,3.477,35.889-.022-.019-.051-.04-.072-.061-.686-.6-15.122-12.192-15.238-11.978-1.971,3.664-8.287,20.234-8.688,21.727-5.563-7.682-28.969-37.845-35.39-45.012a.22.22,0,0,0-.36.251c5.034,8.184,35.348,48.038,35.719,47.894.276.178,8.139-20.24,8.963-24.04,2.5,2.579,17.2,15.791,17.163,14.852A198.592,198.592,0,0,0,204.395,293.414Z" transform="translate(-144.684 -264.092)"/></g></g><g transform="translate(0 9.241)"><g transform="translate(5.502 154.698)"><path class="i" d="M189.155,315.186c-13.309,57.28-50.981,121.376-74.83,140.21-14.515,11.462-61,11.566-63.088-18.5S140.439,312.539,153.87,294.2,201.163,263.5,189.155,315.186Z" transform="translate(-51.202 -278.331)"/><path class="g" d="M189.155,315.186c-13.309,57.28-50.981,121.376-74.83,140.21-14.515,11.462-61,11.566-63.088-18.5S140.439,312.539,153.87,294.2,201.163,263.5,189.155,315.186Z" transform="translate(-51.202 -278.331)"/><path class="b" d="M84.081,437.6a24.278,24.278,0,0,0-6.052,3.2,24.209,24.209,0,0,0,6.664-1.539,23.636,23.636,0,0,0,6.067-3.2A23.785,23.785,0,0,0,84.081,437.6Zm79.764-144.973a24.278,24.278,0,0,0-6.052,3.2,24.208,24.208,0,0,0,6.664-1.539,23.638,23.638,0,0,0,6.067-3.2A24.313,24.313,0,0,0,163.845,292.629ZM135.05,373.334A24.222,24.222,0,0,0,129,376.517a26.236,26.236,0,0,0,12.731-4.722A23.783,23.783,0,0,0,135.05,373.334Zm-22.758-25.657a24.113,24.113,0,0,0-3.2-6.067,24.313,24.313,0,0,0,1.539,6.679,23.884,23.884,0,0,0,3.2,6.067A24.188,24.188,0,0,0,112.293,347.678ZM75.145,404.744a24.369,24.369,0,0,0-3.2-6.067,26.363,26.363,0,0,0,4.722,12.746A24.3,24.3,0,0,0,75.145,404.744ZM127.086,429.7a20.89,20.89,0,0,0,1.076,5.32c.389-.463.777-.956,1.18-1.449A20.255,20.255,0,0,0,127.086,429.7Zm54.481-103a24.278,24.278,0,0,0-3.2-6.052,23.681,23.681,0,0,0,1.539,6.664,25.712,25.712,0,0,0,2.555,5.185c.12-.388.254-.762.374-1.151v-.015A28.672,28.672,0,0,0,181.566,326.7Zm-84.829,48a24.156,24.156,0,0,0-6.545-2.017,23.856,23.856,0,0,0,5.8,3.631,24.181,24.181,0,0,0,6.545,2.032A24.682,24.682,0,0,0,96.737,374.694Zm43.9-38.821a23.671,23.671,0,0,0-2.032,6.545,23.94,23.94,0,0,0,3.631-5.813,23.414,23.414,0,0,0,2.032-6.53A23.855,23.855,0,0,0,140.639,335.873Zm-31.051,71.351a24.021,24.021,0,0,0-2.032,6.545,26.316,26.316,0,0,0,5.663-12.358A24.229,24.229,0,0,0,109.588,407.224ZM52.3,427.277c-.389.882-.762,1.778-1.076,2.7a3.942,3.942,0,0,0,.015.6c.045.613.1,1.225.179,1.808a27.731,27.731,0,0,0,2.5-4.378,24.55,24.55,0,0,0,2.032-6.545A23.83,23.83,0,0,0,52.3,427.277Z" transform="translate(-51.196 -272.024)"/><path class="d" d="M66.675,450.665a61.431,61.431,0,0,0,18.914.114,51.291,51.291,0,0,0,17.443-6.239c11.38-6.549,19-17.626,25.772-28.545q11.133-17.949,20.864-36.72c6.494-12.514,12.452-25.3,18.217-38.163,2.9-6.481,5.56-13.063,8.314-19.606,2.733-6.491,5.391-13.015,7.794-19.638.605-1.665,1.179-3.341,1.751-5.018.054-.155.3-.087.247.072-2.152,6.851-4.2,13.756-6.519,20.552-.3.882-.629,1.754-.935,2.634,2.406-5.119,4.873-10.21,7.443-15.25.152-.3.569-.03.439.266-2.289,5.227-4.683,10.408-7.138,15.56-1.209,2.533-2.436,5.057-3.659,7.582q-1.755,4.729-3.619,9.42-8.013,20.076-17.834,39.308-9.795,19.238-21.065,37.675c-6.914,11.309-14.343,22.94-25.532,30.487a48.725,48.725,0,0,1-36.548,7.368,34.238,34.238,0,0,1-4.513-1.288A.3.3,0,0,1,66.675,450.665Z" transform="translate(-43.74 -269.221)"/></g><g transform="translate(50.67)"><path class="j" d="M81.43,272.869c9.487-23.094,24.873-54.756,35.241-59.545,10.878-5.025,49.835-21.16,60.1-21.99S223.436,201.156,230,207.61c5.255,5.169-3.845,17.478-24.6,15.711-19.4-1.651-23.957-3-29.54-2.125-5.695.892-22.294,14.3-20.827,22.507.865,4.837,12.144,13.163,20.882,11.643s14.037-10.082,24.866-15.083,26.374-.042,26.187,4.453-5.911,5.14-17.717,17.535c-7.594,7.972-13.07,23.79-28.975,36.769-7.991,6.524-23.829,25.286-23.829,25.286Z" transform="translate(-81.43 -166.654)"/><g transform="translate(35.241 17.654)"><path class="j" d="M105.014,215.633c10.687-9.991,35.722-26.523,56.922-28.957,14.33-1.645,53.586,31.766,50.067,40.009s-11.189,6.3-22.193,2.025c-4.011-1.557-23.86-15.043-28.769-11.415-7.056,5.216-19.666,26-19.666,26Z" transform="translate(-105.014 -186.617)"/><path class="d" d="M184.879,219.488c-3.181-10.612-14.109-18.65-25.238-25.643-.173-.108-.354.152-.182.261,2.835,1.784,20.256,15.965,25.249,25.492C184.764,219.707,184.911,219.595,184.879,219.488Z" transform="translate(-78.138 -183.056)"/></g><g transform="translate(35.241 16.802)"><path class="j" d="M105.014,215.631c10.687-9.991,35.722-26.523,56.922-28.957,14.33-1.645,42.637,35.466,39.12,43.709s-14.71,6.088-25.792-1.282c-3.582-2.383-14.382-15.067-19.291-11.439-7.056,5.215-24.336,18.226-24.336,18.226Z" transform="translate(-105.014 -185.763)"/><path class="d" d="M129.73,227.969c1.709-1.57,2.3-2.125,4.036-3.665s3.486-3.045,5.321-4.45a17.613,17.613,0,0,1,5.116-3.207,8.918,8.918,0,0,1,5.657.327c4.121,1.478,7.244,5.14,10.3,8.118,3.407,3.322,10.742,9.179,17.266,10.142a12.9,12.9,0,0,0,5.364-.067,8.13,8.13,0,0,0,3.619-1.623c3.955-3.966,1.887-10.185-.659-14.868-4.743-8.725-12.248-16.1-19.723-22.5-1.836-1.57-3.712-3.1-5.587-4.62a19.521,19.521,0,0,0-7.135-4.184c-4.405-1.169-12.788,1.452-15.383,2.231-.2.058-.253-.251-.061-.312,3.148-.994,11.288-4.765,18.315-2.572,2.572.8,4.662,2.767,6.769,4.4,2.206,1.709,4.357,3.5,6.464,5.324a103.809,103.809,0,0,1,11.506,11.522c3.3,3.936,6.748,8.425,8.4,13.348,1.431,4.269.8,9.656-2.5,12.9-2.781,2.736-7.134,2.446-9.1,2.2a21.584,21.584,0,0,1-5.606-1.5,91.665,91.665,0,0,1-11.285-6.709c-3.465-2.531-6.271-6.028-9.941-8.253a7.674,7.674,0,0,0-5.855-1.107,20.455,20.455,0,0,0-5.315,2.818,62.575,62.575,0,0,0-9.385,6.676C129.536,229.042,129.016,228.626,129.73,227.969Z" transform="translate(-92.965 -186.046)"/></g><g transform="translate(26.906)"><path class="j" d="M99.436,230.445c4.26-4.965,15.01-27.188,21.381-33.21s33.431-25.562,42.8-22c11.773,4.474-6.481,23.065-15.147,30.429s-11.527,22.926-11.527,22.926Z" transform="translate(-99.436 -174.802)"/><path class="d" d="M148.7,187.011c-2.989,2.267-5.8,4.91-8.549,7.462-2.6,2.421-5.493,4.74-7.715,7.525a32.421,32.421,0,0,0-4.936,9.375c-.593,1.647-1.079,3.311-1.526,5-.487,1.845-.8,3.749-1.318,5.581-.055.2.239.3.3.106a81.26,81.26,0,0,1,3.9-9.711,44.188,44.188,0,0,1,5.614-9.226c4.465-5.62,10.071-10.215,14.588-15.79C149.241,187.113,148.91,186.85,148.7,187.011Z" transform="translate(-86.974 -168.792)"/></g><path class="d" d="M141.8,240c4.632.348,8-1.457,11.025-3.73,2.864-2.15,5.593-4.486,8.477-6.612a37.123,37.123,0,0,1,9.2-5.433,42.2,42.2,0,0,1,11.8-1.962c3.848-.239,7.809-.018,11.358,1.654,2.906,1.37,5.947,4.374,4.378,7.911a14.063,14.063,0,0,1-3.249,4.151,36.077,36.077,0,0,1-4.035,3.28c-2.859,2.055-5.887,3.885-8.549,6.213-3.555,3.11-5.959,7.338-8.583,11.238-.97,1.44-7.171,11.276-9.536,14.6a57.753,57.753,0,0,1-6.652,7.949,80.539,80.539,0,0,1-7.628,6.213,48.289,48.289,0,0,0-7.967,7.138c-.108.127-.285-.048-.212-.179,3.051-5.508,8.469-9.2,13.39-12.842,6.389-4.728,20.554-29.114,23.118-32.425,4.271-5.514,10.757-8.153,15.634-12.952,1.119-1.1,2.833-2.682,2.8-4.407-.033-1.693-1.569-3-2.917-3.718-3.356-1.778-7.462-1.665-11.12-1.306-3.782.371-7.706.647-11.332,1.875a37.146,37.146,0,0,0-9.051,4.726c-3.192,2.21-6.268,4.513-9.616,6.481-3.166,1.862-6.784,3.153-10.82,2.422C141.522,240.252,141.605,239.982,141.8,240Z" transform="translate(-51.688 -151.386)"/><path class="d" d="M179.347,201.483c-2.563-1.254-5.1-2.606-7.691-3.8-.066-.03-.036-.139.036-.111,3.078,1.222,6.25,2.235,9.344,3.431,2.443.943,4.98,2.328,6.005,4.889a7.193,7.193,0,0,1-1.44,7.048c-1.762,2.182-4.3,3.338-6.742,4.58a.117.117,0,0,1-.109-.206c3.713-2.153,9.493-6.494,6.461-11.431C183.891,203.736,181.536,202.553,179.347,201.483Z" transform="translate(-36.853 -163.55)"/><path class="d" d="M168.5,219.608c2.924.084,6.146.022,8.734-1.523a6.186,6.186,0,0,0,3.175-4.722,3.078,3.078,0,0,0-.275-2.107c-.126-.155.16-.287.2-.106a9.949,9.949,0,0,0,.475,1.139,4.624,4.624,0,0,1,.217,1.018,5.237,5.237,0,0,1-.169,2.037,6.655,6.655,0,0,1-2.585,3.579c-2.911,2.087-6.531,1.9-9.814.925A.123.123,0,0,1,168.5,219.608Z" transform="translate(-38.457 -156.88)"/></g><path class="j" d="M172.856,297.965c-6.357,22.976-54.732,145.462-68.249,162.741s-46.1,21.015-55.216-10.23,38.4-180.586,48.445-203.949C103.43,233.52,175.156,289.654,172.856,297.965Z" transform="translate(-47.167 -140.313)"/><path class="g" d="M183.792,308.879,88.844,253.821s-40.589,139.3-41.318,182.264C47,466.922,83.947,489.95,113.149,448.278S183.792,308.879,183.792,308.879Z" transform="translate(-47.52 -135.746)"/><path class="b" d="M90.238,254.95a24.969,24.969,0,0,0-3.512,5.633,24.159,24.159,0,0,0-2.017,6.545,23.855,23.855,0,0,0,3.631-5.8,24.381,24.381,0,0,0,2-6.321v-.015Zm-30.6,132.915a24.158,24.158,0,0,0-2.017,6.545,23.855,23.855,0,0,0,3.631-5.8,24.184,24.184,0,0,0,2.032-6.545A24.991,24.991,0,0,0,59.635,387.865ZM52.612,445.14a24.021,24.021,0,0,0-2.032,6.545,23.83,23.83,0,0,0,3.646-5.813,24.549,24.549,0,0,0,2.032-6.545A23.83,23.83,0,0,0,52.612,445.14Zm57.29-20.053a24.021,24.021,0,0,0-2.032,6.545,26.316,26.316,0,0,0,5.663-12.358A24.228,24.228,0,0,0,109.9,425.087ZM141.82,284.865c-.015.134-.045.284-.06.418.09-.1.179-.209.254-.314Zm-.867,68.87a23.671,23.671,0,0,0-2.032,6.545,23.94,23.94,0,0,0,3.631-5.813,23.414,23.414,0,0,0,2.032-6.53A23.856,23.856,0,0,0,140.953,353.736Zm-43.782-15.6a23.514,23.514,0,0,0-2.032,6.545,26.709,26.709,0,0,0,5.663-12.357A24.229,24.229,0,0,0,97.171,338.136Zm32.515-16.512a24.183,24.183,0,0,0-6.545-2.032,23.468,23.468,0,0,0,5.8,3.646,24.156,24.156,0,0,0,6.545,2.017A24.142,24.142,0,0,0,129.686,321.624ZM97.052,392.557a24.156,24.156,0,0,0-6.545-2.017,23.855,23.855,0,0,0,5.8,3.631,24.181,24.181,0,0,0,6.545,2.032A24.682,24.682,0,0,0,97.052,392.557Zm-14.2-87.534a23.862,23.862,0,0,0-6.545-2.032,26.315,26.315,0,0,0,12.358,5.663A24.228,24.228,0,0,0,82.856,305.023Zm-7.4,117.583a24.369,24.369,0,0,0-3.2-6.067,26.363,26.363,0,0,0,4.722,12.746A24.3,24.3,0,0,0,75.459,422.606Zm37.147-57.066a24.113,24.113,0,0,0-3.2-6.067,24.313,24.313,0,0,0,1.539,6.679,23.884,23.884,0,0,0,3.2,6.067A24.188,24.188,0,0,0,112.607,365.54ZM135.364,391.2a24.222,24.222,0,0,0-6.052,3.183,26.236,26.236,0,0,0,12.731-4.722A23.784,23.784,0,0,0,135.364,391.2ZM71.948,357.934a23.8,23.8,0,0,0-6.052,3.2,24.867,24.867,0,0,0,6.679-1.539,23.8,23.8,0,0,0,6.052-3.2A23.783,23.783,0,0,0,71.948,357.934Zm37.162-69.677a24.37,24.37,0,0,0-6.067,3.2,24.314,24.314,0,0,0,6.679-1.539,23.886,23.886,0,0,0,6.067-3.2A24.189,24.189,0,0,0,109.11,288.257Zm55.049,22.235a24.279,24.279,0,0,0-6.052,3.2,24.208,24.208,0,0,0,6.664-1.539,23.639,23.639,0,0,0,6.067-3.2A24.313,24.313,0,0,0,164.159,310.492ZM84.4,455.465a24.278,24.278,0,0,0-6.052,3.2,24.209,24.209,0,0,0,6.664-1.539,23.636,23.636,0,0,0,6.067-3.2A23.786,23.786,0,0,0,84.4,455.465Z" transform="translate(-46.008 -135.188)"/><g transform="translate(38.696 139.552)"><path class="d" d="M158.015,318.676c-14.381-7.716-72.083-41.439-84.057-49.568-.831-.563-.675-1.227.264-.752,43.655,22.082,70.36,41.451,84.078,49.74C158.644,318.3,158.381,318.872,158.015,318.676Z" transform="translate(-73.417 -268.194)"/><path class="d" d="M111.646,383.967c10.026-18.828,19.656-37.86,28.31-57.359q3.631-8.181,7.11-16.432c2.223-5.291,4.5-10.588,6.485-15.975-1.99-1.39-10.715-7.092-11.658-7.972a.388.388,0,0,1,.4-.628c1.155.435,11.283,6.306,13.432,7.9.3.226-4.014,10.717-5.979,15.732s-3.987,10.006-6.076,14.969q-6.206,14.744-13.145,29.161-7.455,15.542-15.687,30.647C110.116,392.646,98.735,408.207,111.646,383.967Z" transform="translate(-57.468 -259.601)"/></g></g></g><g transform="translate(377.054 628.698)"><path class="k" d="M366.37,462.879s18.62,2.522,19.31-10.313-18.094-12.322-18.094-12.322Z" transform="translate(-214.116 -433.182)"/><path class="l" d="M0,0H22.668V132.133H0Z" transform="matrix(0.054, -0.999, 0.999, 0.054, 21.052, 22.645)"/><rect class="m" width="26.469" height="5.252" transform="matrix(0.054, -0.999, 0.999, 0.054, 148.356, 31.39)"/><rect class="m" width="26.469" height="5.253" transform="translate(142.559 31.079) rotate(-86.924)"/><path class="a" d="M286.75,435.517l-16.743,7.642-5.529,2.5,5.227,3.128,15.829,9.393,3.41-2.116s-3.12-2.365-3.166-2.418l3.41-2.114s-3.12-2.365-3.168-2.418l3.408-2.065s-3.117-2.415-3.163-2.467l3.407-2.065s-3.117-2.415-3.163-2.467l3.407-2.065S286.8,435.569,286.75,435.517Z" transform="translate(-264.477 -435.517)"/><path class="m" d="M270.006,440.631l-5.529,2.5,5.227,3.127Z" transform="translate(-264.478 -432.989)"/></g><g transform="translate(132.118 616.663)"><path class="e" d="M257.85,427.463l19.341,49.964-176.632,0,21.119-49.915Z" transform="translate(-100.56 -427.463)"/><path class="e" d="M259.251,429.885l17.94,46.344V484.7H100.56v-8.465l19.589-46.3Z" transform="translate(-100.56 -426.265)"/><path class="f" d="M257.85,427.463l19.341,49.964-176.632,0,21.119-49.915Z" transform="translate(-100.56 -427.463)"/><g transform="translate(45.896 3.851)"><path class="b" d="M153.849,451.9l-1.114,9.6H131.275l2.076-9.6Z" transform="translate(-131.275 -419.234)"/><path class="b" d="M154.333,444.621l-1.114,9.6-20.371,0,2.076-9.6Z" transform="translate(-130.497 -422.833)"/><path class="n" d="M154.817,437.34l-1.114,9.6-19.28,0,2.076-9.6Z" transform="translate(-129.719 -426.431)"/><path class="n" d="M155.3,430.059l-1.114,9.6-18.19,0,2.076-9.6Z" transform="translate(-128.94 -430.03)"/><path class="m" d="M169.219,451.9l-.01,9.6H147.748l.972-9.6Z" transform="translate(-123.133 -419.234)"/><path class="m" d="M168.866,444.619l-.01,9.6-20.371,0,.972-9.6Z" transform="translate(-122.768 -422.834)"/><path class="m" d="M168.513,437.336l-.01,9.6-19.28,0,.972-9.6Z" transform="translate(-122.404 -426.433)"/><path class="b" d="M168.24,430.054l0,9.6-18.19,0,.965-9.6Z" transform="translate(-121.996 -430.033)"/><path class="m" d="M184.631,451.9l1.093,9.6H164.264l-.131-9.6Z" transform="translate(-115.034 -419.235)"/><path class="m" d="M183.441,444.616l1.094,9.6-20.37,0-.131-9.6Z" transform="translate(-115.084 -422.835)"/><path class="m" d="M182.251,437.333l1.094,9.6-19.28,0-.131-9.6Z" transform="translate(-115.133 -426.435)"/><path class="b" d="M181.061,430.049l1.094,9.6-18.19,0-.131-9.6Z" transform="translate(-115.182 -430.035)"/><path class="m" d="M200.366,451.9l2.2,9.606H181.1l-1.235-9.6Z" transform="translate(-107.258 -419.236)"/><path class="m" d="M198.339,444.613l2.2,9.606-20.37,0-1.235-9.6Z" transform="translate(-107.72 -422.836)"/><path class="m" d="M196.312,437.329l2.2,9.606-19.28,0-1.235-9.6Z" transform="translate(-108.183 -426.437)"/><path class="b" d="M194.285,430.044l2.2,9.606-18.19.005-1.235-9.6Z" transform="translate(-108.646 -430.037)"/><path class="m" d="M216.1,451.9l3.3,9.607H197.94L195.6,451.9Z" transform="translate(-99.481 -419.237)"/><path class="m" d="M213.236,444.611l3.3,9.607-20.37,0-2.339-9.606Z" transform="translate(-100.357 -422.838)"/><path class="b" d="M210.372,437.325l3.3,9.607-19.28,0-2.339-9.606Z" transform="translate(-101.234 -426.439)"/><path class="b" d="M207.508,430.04l3.3,9.607-18.19.005-2.339-9.606Z" transform="translate(-102.11 -430.04)"/><g transform="translate(7.762 35.888)"><path class="m" d="M137.944,457.066h-.016c-.862,0-1.526-.267-1.452-.663s.828-.656,1.666-.656h.018c.847,0,1.52.265,1.452.663S138.788,457.066,137.944,457.066Zm.17-.964H138.1c-.49,0-.916.129-.949.308s.351.3.825.3h.018c.5,0,.917-.128.947-.308S138.586,456.1,138.114,456.1Zm4.009.5-5.167-1.833c-.1-.028-.142-.081-.131-.136.016-.088.178-.16.368-.16a.647.647,0,0,1,.22.036l5.164,1.833c.1.033.145.084.136.141-.013.088-.173.155-.366.155A.707.707,0,0,1,142.123,456.606Zm-.759-1.231h-.016c-.855,0-1.517-.267-1.449-.663s.811-.654,1.644-.654h.018c.841,0,1.511.267,1.449.663S142.2,455.375,141.364,455.375Zm.155-.962H141.5c-.487,0-.907.127-.937.308s.351.3.82.3h.018c.5,0,.909-.127.937-.308S141.989,454.413,141.519,454.413Z" transform="translate(-136.469 -454.057)"/></g><g transform="translate(11.614 13.193)"><path class="m" d="M141.644,443c-1.569,0-2.724-.666-2.585-1.466a1.47,1.47,0,0,1,.781-.923.833.833,0,0,1,.634-.04c.181.079.185.227.028.32a.978.978,0,0,0-.545.643.726.726,0,0,0,.439.72,2.81,2.81,0,0,0,1.324.291,3.411,3.411,0,0,0,1.424-.291,1.131,1.131,0,0,0,.683-.72.652.652,0,0,0-.329-.644c-.12-.091-.064-.239.136-.32a.777.777,0,0,1,.62.04.965.965,0,0,1,.469.923C144.6,442.334,143.222,443,141.644,443Z" transform="translate(-139.047 -438.05)"/><path class="m" d="M144.388,440.616h-4.6c-.241,0-.411-.1-.387-.22v-.012l.238-1.294c.021-.117.226-.22.465-.221s.414.1.393.22l-.193,1.085,1.423,0,.158-.931c.021-.12.239-.22.463-.22s.415.1.4.22l-.155.931h1.432l.172-1.083c.018-.117.227-.22.468-.22s.408.1.39.22l-.2,1.3a.009.009,0,0,1-.009.007l.007,0C144.832,440.52,144.623,440.616,144.388,440.616Z" transform="translate(-138.873 -438.869)"/></g><g transform="translate(13.833 3.605)"><path class="m" d="M142.947,434.928c-1.469,0-2.542-.666-2.4-1.466a1.484,1.484,0,0,1,.741-.923.735.735,0,0,1,.593-.04c.169.081.172.229.024.32a.99.99,0,0,0-.519.644.726.726,0,0,0,.4.719,2.481,2.481,0,0,0,1.237.291,3.043,3.043,0,0,0,1.336-.291,1.12,1.12,0,0,0,.647-.72.657.657,0,0,0-.3-.643c-.111-.093-.057-.241.132-.32a.679.679,0,0,1,.58.039.975.975,0,0,1,.429.923C145.723,434.26,144.426,434.923,142.947,434.928Z" transform="translate(-140.532 -432.452)"/></g><g transform="translate(32.472 36.577)"><path class="b" d="M153.771,454.533l5.1,1c.182.033.284.112.281.2a.129.129,0,0,1-.039.084.815.815,0,0,1-.635.12l-4.438-.864-.063,1.033c-.007.12-.242.22-.505.22s-.477-.1-.469-.22l.091-1.372a.068.068,0,0,1,.012-.04.339.339,0,0,1,.075-.084l.027-.012a.067.067,0,0,1,.036-.015.136.136,0,0,0,.036-.016.2.2,0,0,0,.036-.012.149.149,0,0,1,.043-.009.177.177,0,0,0,.045-.015l.043,0,.045-.007a1.361,1.361,0,0,1,.191,0C153.72,454.524,153.746,454.529,153.771,454.533Z" transform="translate(-153.006 -454.518)"/></g><g transform="translate(33.229 25.715)"><path class="b" d="M157.385,447.249c1.08,0,1.946.429,1.928.952s-.926.959-2.017.959a2.829,2.829,0,0,1-1.633-.427,2.482,2.482,0,0,1-.829.133c-.749,0-1.343-.3-1.319-.663s.655-.656,1.4-.656a2.327,2.327,0,0,1,.81.132A3.048,3.048,0,0,1,157.385,447.249Zm-.021.436c-.586,0-1.086.232-1.1.516s.462.52,1.052.525,1.082-.236,1.092-.525S157.951,447.685,157.364,447.685Zm-2.506.744c.257,0,.48-.1.486-.229s-.2-.22-.459-.22-.462.1-.469.221S154.61,448.429,154.858,448.429Z" transform="translate(-153.513 -447.249)"/></g><g transform="translate(33.947 14.779)"><path class="b" d="M155.835,441.877c-1.055,0-1.877-.435-1.841-.971.033-.5.8-.914,1.753-.964l.016,0c.148,0,.3-.009.444-.009a8.446,8.446,0,0,1,1.59.14,3.134,3.134,0,0,1,1.313.516.8.8,0,0,1,.345.6c0,.124-.181.224-.424.232s-.427-.091-.447-.215a.5.5,0,0,0-.2-.377,1.59,1.59,0,0,0-.536-.251c-.061-.021-.132-.036-.2-.052a.563.563,0,0,1,.139.384C157.758,441.441,156.889,441.877,155.835,441.877Zm.024-.444c.565,0,1.049-.236,1.062-.527s-.442-.523-1-.523-1.037.232-1.055.523S155.287,441.433,155.859,441.433Z" transform="translate(-153.993 -439.93)"/></g><g transform="translate(36.917 3.966)"><path class="m" d="M156.413,434.412c-.245,0-.439-.108-.432-.236l.066-1.246c.006-.128.211-.236.453-.236s.427.108.421.236l-.06,1.246C156.855,434.3,156.649,434.412,156.413,434.412Z" transform="translate(-155.981 -432.694)"/></g><g transform="translate(56.4 36.395)"><path class="b" d="M173.464,454.4c.269,0,.484.1.493.224l0,.04h.662c.269,0,.486.1.495.22s-.191.22-.462.22h-.662l.09,1.252v.007c0,.048-.019.1-.1.136a.879.879,0,0,1-.674.036l-4.109-1.479-.018-.007a.2.2,0,0,0-.036-.012.051.051,0,0,0-.027-.019L169.1,455c-.01-.007-.018-.012-.019-.024-.018,0-.027-.007-.027-.016s-.009-.012-.018-.024a.019.019,0,0,0-.01-.016v-.067a.016.016,0,0,0,.007-.019c.009,0,.009-.016.016-.024l.009-.016c.016-.007.024-.016.033-.019l.025-.021s0,0,.009,0a.019.019,0,0,1,.016-.012l.034-.015.034-.012a.163.163,0,0,1,.042-.016.143.143,0,0,0,.034-.007c.018,0,.027,0,.052-.009l.034,0a.256.256,0,0,1,.052,0c.018,0,.025,0,.043,0H173l0-.04C172.992,454.5,173.2,454.4,173.464,454.4Zm-2.585.705,2.209.795-.054-.8Z" transform="translate(-169.019 -454.396)"/></g><g transform="translate(55.875 25.766)"><path class="b" d="M170.95,447.576a3.278,3.278,0,0,1,1.434-.293,3.6,3.6,0,0,1,1.464.291c.42.193.638.448.657.7v.007c.019.248-.16.508-.553.7a.842.842,0,0,1-.665,0c-.188-.084-.2-.232-.022-.32.217-.1.314-.241.3-.384s-.127-.276-.359-.38a1.943,1.943,0,0,0-.8-.16,1.743,1.743,0,0,0-.783.16c-.217.1-.308.239-.3.38s.117.279.347.384c.188.088.2.232.021.32-.033.016-.073.028-.106.043-.016,0-.024,0-.024,0a.132.132,0,0,0-.042.007c-.025,0-.04,0-.058,0l-.015,0a1.122,1.122,0,0,1-.142,0l-2.161-.12a.728.728,0,0,1-.338-.1c-.009-.009-.009-.012-.018-.016l-.016-.012a.146.146,0,0,1-.055-.1l-.057-1.18c-.006-.127.2-.227.459-.227.247,0,.468.1.474.227l.052.983.825.048a.559.559,0,0,1-.09-.267C170.373,448.024,170.557,447.767,170.95,447.576Z" transform="translate(-168.668 -447.283)"/></g><g transform="translate(55.372 14.782)"><path class="b" d="M171.859,439.932c1.043,0,1.919.436,1.96.971.039.5-.677.916-1.633.964l-.015,0c-.149,0-.3.007-.448.007a8.843,8.843,0,0,1-1.621-.139,3.52,3.52,0,0,1-1.372-.516.9.9,0,0,1-.4-.6c-.013-.124.161-.224.4-.233s.435.093.463.217a.562.562,0,0,0,.241.375,1.794,1.794,0,0,0,.562.253c.064.019.136.036.208.051a.607.607,0,0,1-.179-.383C170,440.368,170.816,439.932,171.859,439.932Zm.03.444c-.562,0-1.016.236-1,.527s.5.525,1.068.525,1.012-.233.991-.525S172.458,440.376,171.889,440.376Z" transform="translate(-168.331 -439.932)"/></g><g transform="translate(55.371 3.772)"><path class="m" d="M170.809,434.387c.007.115-.163.208-.371.208s-.391-.093-.4-.208l-.1-1.615c-.007-.117.163-.208.368-.208s.387.091.394.208ZM168.8,433.3h.037c.272,0,.5.124.508.275s-.206.276-.478.276h-.037c-.266,0-.493-.124-.5-.275S168.539,433.3,168.8,433.3Zm3.069,0h.037c.272,0,.495.124.505.276s-.193.275-.466.275h-.037c-.273,0-.5-.123-.514-.275S171.6,433.3,171.872,433.3Z" transform="translate(-168.331 -432.564)"/></g><g transform="translate(80.456 37.043)"><path class="b" d="M185.565,454.83h5.143c.27,0,.5.1.523.224s-.167.22-.438.22h-4.3l.227.16a.167.167,0,0,1,.09.112c.013.076-.063.148-.214.188a.888.888,0,0,1-.668-.072l-.719-.492c-.01,0-.012-.012-.021-.016s-.019-.012-.03-.019-.01-.016-.012-.024a.023.023,0,0,1-.012-.016.05.05,0,0,1-.013-.028v-.016l0-.027c.008,0,.006-.012.006-.016s.006-.016.013-.024a.014.014,0,0,1,.006-.016c.015-.012.024-.016.022-.024a.07.07,0,0,0,.024-.015l.022-.016c.007-.009.024-.012.033-.016a.132.132,0,0,1,.033-.012l.033-.016.016,0,.025,0a.131.131,0,0,1,.042-.007.318.318,0,0,0,.042-.009c.018,0,.034,0,.043,0a.143.143,0,0,0,.06-.007Z" transform="translate(-185.118 -454.83)"/></g><g transform="translate(78.721 25.693)"><path class="b" d="M189.124,447.234c.256,0,.471.1.495.22l.273,1.415v.009c.012.06-.027.124-.118.164a.857.857,0,0,1-.651-.012l-2.439-1.183a1.884,1.884,0,0,0-.823-.169,1.683,1.683,0,0,0-.7.133c-.223.1-.306.244-.282.384a.545.545,0,0,0,.332.348l.254.122c.19.093.2.229.019.312a.851.851,0,0,1-.651-.016l-.254-.123a.987.987,0,0,1-.62-.644c-.042-.26.139-.525.536-.713a3.062,3.062,0,0,1,1.285-.248,3.622,3.622,0,0,1,1.526.317l1.554.755-.16-.852C188.68,447.33,188.869,447.234,189.124,447.234Z" transform="translate(-183.957 -447.234)"/></g><g transform="translate(76.828 14.849)"><path class="b" d="M184.857,440.27a2.7,2.7,0,0,1,1.312-.293,3.473,3.473,0,0,1,1.427.291,1.124,1.124,0,0,1,.7.7c.049.253-.1.508-.438.7a.786.786,0,0,1-.629,0c-.19-.088-.217-.233-.06-.321.184-.1.262-.239.235-.38a.613.613,0,0,0-.377-.384,1.878,1.878,0,0,0-.78-.16,1.439,1.439,0,0,0-.714.161.381.381,0,0,0-.245.38c.019.063-.025.124-.112.164,0,0,0,0-.007,0a.77.77,0,0,1-.626.009l-.883-.408.109.647c.021.124-.16.224-.411.224s-.456-.1-.477-.224l-.193-1.179c-.021-.128.158-.229.4-.229a.868.868,0,0,1,.215.028.752.752,0,0,1,.117.04l1.1.5A.949.949,0,0,1,184.857,440.27Z" transform="translate(-182.69 -439.977)"/></g><g transform="translate(76.598 4.096)"><path class="m" d="M183.1,432.821l1.293.475,1.125-.475a.657.657,0,0,1,.536.039.227.227,0,0,1,.1.129c.012.064-.042.124-.127.176l-.934.4,1.086.4c.1.043.182.1.194.164a.133.133,0,0,1-.057.127.582.582,0,0,1-.525.045l-1.309-.48-1.128.48a.621.621,0,0,1-.533-.043c-.142-.1-.127-.22.031-.291l.919-.4-1.056-.4c-.182-.075-.242-.2-.134-.3A.6.6,0,0,1,183.1,432.821Z" transform="translate(-182.536 -432.781)"/></g><g transform="translate(109.374 37)"><path class="b" d="M204.477,455.1c-.049-.163.206-.3.563-.3s.686.134.737.3-.2.3-.556.3S204.526,455.264,204.477,455.1Z" transform="translate(-204.471 -454.801)"/></g><g transform="translate(101.554 25.714)"><path class="b" d="M202.449,449.271a7.411,7.411,0,0,1-2.068-.272c-.578-.167-1.042-.427-1.13-.743s.229-.572.711-.741a5.808,5.808,0,0,1,1.893-.267,7.424,7.424,0,0,1,2.052.267c.572.167,1.049.432,1.145.74s-.223.577-.695.744A5.865,5.865,0,0,1,202.449,449.271Zm-.463-1.579a4.548,4.548,0,0,0-1.415.193c-.315.115-.444.248-.4.372.025.124.23.26.613.38a5.8,5.8,0,0,0,1.535.191,4.528,4.528,0,0,0,1.414-.191c.32-.121.436-.257.4-.381s-.235-.255-.625-.372A5.761,5.761,0,0,0,201.986,447.692Z" transform="translate(-199.237 -447.248)"/></g><g transform="translate(100.024 14.844)"><path class="m" d="M199.094,441.67c-.247,0-.484-.106-.523-.238l-.353-1.228c-.037-.132.14-.23.384-.23s.478.1.517.23l.359,1.228C199.517,441.564,199.354,441.67,199.094,441.67Zm1.452,0c-.259,0-.5-.106-.536-.238l-.362-1.228c-.04-.132.137-.23.395-.23s.493.1.532.23l.369,1.228C200.983,441.564,200.807,441.67,200.547,441.67Z" transform="translate(-198.214 -439.974)"/></g><g transform="translate(96.174 3.759)"><path class="m" d="M197.965,433.8l.167.568c.034.12-.114.22-.344.22s-.436-.1-.471-.22l-.166-.568h-1.025c-.236,0-.45-.1-.486-.227s.12-.229.356-.229h1.024l-.166-.568c-.034-.12.12-.22.339-.22s.433.1.468.22l.169.568h1.022c.236,0,.451.1.489.227s-.115.229-.351.229Z" transform="translate(-195.637 -432.555)"/></g><g transform="translate(10.269 25.218)"><path class="m" d="M138.652,446.916c.191,0,.338.075.321.17l-.091.505c1.166.209,4.223.738,5.1.856a.785.785,0,0,1,.266.087c.057.036.084.075.078.117-.009.061-.064.114-.17.16,0,0-1.164.533-1.575.7-.586.239-.831.134-.868.1s-.055-.066-.051-.1c.007-.046.058-.1.143-.151.152-.066.285-.124.4-.173l.326-.143.306-.137.342-.152c-.819-.125-4.024-.689-4.817-.84h0a.391.391,0,0,1-.109-.048c-.07-.028-.109-.076-.1-.127l.12-.658C138.286,446.991,138.459,446.916,138.652,446.916Z" transform="translate(-138.147 -446.916)"/></g></g><g transform="translate(10.811 3.889)"><path class="o" d="M141.986,430.065l-11.6,42.235H107.795l16.055-42.229Z" transform="translate(-107.795 -430.065)"/><g transform="translate(13.973 2.837)"><path class="b" d="M118.023,442.826h7.845c.412,0,.678.173.617.372s-.43.368-.844.368h-6.569l.217.266a.17.17,0,0,1,.043.187c-.042.127-.217.247-.481.314a1.042,1.042,0,0,1-.964-.12l-.689-.82c-.01-.006-.006-.019-.018-.027.006-.013-.019-.019-.027-.033s0-.027,0-.04-.006-.019,0-.027a.063.063,0,0,1,0-.046l.007-.019,0-.007.016-.046a.045.045,0,0,0,.022-.027c.007-.019.022-.027.04-.04a.05.05,0,0,1,.022-.027c.034-.019.049-.027.055-.039a.274.274,0,0,0,.049-.027.538.538,0,0,1,.049-.027.354.354,0,0,1,.061-.027.335.335,0,0,1,.061-.019l.063-.027.028-.007c.013,0,.028-.006.042-.006a.261.261,0,0,1,.072-.013c.028-.007.055-.007.07-.013s.057-.007.07-.007a.226.226,0,0,0,.1-.013Z" transform="translate(-117.146 -426.595)"/><path class="b" d="M126.761,440.241c.4,0,.666.16.6.366l-.716,2.361,0,.008v.006a.5.5,0,0,1-.321.273,1.263,1.263,0,0,1-1.027-.019l-2.9-1.974a2.08,2.08,0,0,0-1.164-.279,3.348,3.348,0,0,0-1.213.221,1.233,1.233,0,0,0-.771.64.494.494,0,0,0,.236.58l.3.208c.224.152.121.38-.23.52a1.251,1.251,0,0,1-1.024-.027l-.3-.206a.891.891,0,0,1-.442-1.074,2.4,2.4,0,0,1,1.451-1.186,6.078,6.078,0,0,1,2.24-.414,3.942,3.942,0,0,1,2.149.526l1.842,1.26.442-1.421C125.981,440.4,126.356,440.241,126.761,440.241Z" transform="translate(-116.851 -427.873)"/><path class="b" d="M122.708,438.094a6,6,0,0,1,2.4-.487,4.087,4.087,0,0,1,2.093.487,1.02,1.02,0,0,1,.578,1.173,2.207,2.207,0,0,1-1.3,1.167,1.262,1.262,0,0,1-1.037,0c-.238-.146-.161-.386.169-.533a1.181,1.181,0,0,0,.7-.634.551.551,0,0,0-.3-.639,2.206,2.206,0,0,0-1.146-.266,3.2,3.2,0,0,0-1.3.266,1.241,1.241,0,0,0-.722.634c-.022.108-.146.208-.323.273,0,.007,0,.007-.015.007a1.27,1.27,0,0,1-1.036.013l-1.106-.68-.372,1.08c-.072.206-.453.374-.867.374s-.666-.167-.593-.374l.693-1.966c.075-.214.453-.381.847-.381a1.161,1.161,0,0,1,.329.046.835.835,0,0,1,.155.067l1.376.84A3.281,3.281,0,0,1,122.708,438.094Z" transform="translate(-116.47 -429.175)"/><path class="b" d="M126.663,434.513c.386,0,.632.167.568.374l-.021.067h.947c.386,0,.637.16.574.366s-.412.368-.8.368h-.952l-.653,2.087v.013a.391.391,0,0,1-.224.226,1.194,1.194,0,0,1-1,.061l-4.967-2.467c0-.006-.009-.006-.019-.012a.146.146,0,0,0-.043-.021.05.05,0,0,0-.025-.033c-.01-.006-.018-.019-.028-.027s-.018-.019-.01-.04c-.024-.006-.033-.013-.028-.027s-.006-.019-.012-.039.007-.021,0-.027l.016-.046.006-.013,0-.013.013-.04a.056.056,0,0,0,.024-.033c.015-.007.022-.027.04-.04,0-.007.019-.021.021-.027.03-.013.048-.027.061-.033s.033-.021.049-.034c0,0,0-.006.015-.006a.044.044,0,0,1,.033-.021l.058-.025c.015-.007.042-.013.057-.021a.748.748,0,0,1,.072-.027.157.157,0,0,0,.055-.013c.027-.006.039-.006.079-.012.012,0,.04-.007.052-.007a.291.291,0,0,1,.078-.006c.024,0,.039-.007.064-.007h5.072l.022-.067C125.926,434.68,126.291,434.513,126.663,434.513Zm-4.15,1.176,2.666,1.325.424-1.327Z" transform="translate(-115.751 -430.704)"/><path class="b" d="M124.544,432.451a5.552,5.552,0,0,1,2.3-.487,3.708,3.708,0,0,1,1.98.487,1.006,1.006,0,0,1,.536,1.165l0,.013a2.136,2.136,0,0,1-1.255,1.161,1.114,1.114,0,0,1-.989,0c-.227-.139-.149-.385.167-.533a1.162,1.162,0,0,0,.693-.639.541.541,0,0,0-.293-.634,2.028,2.028,0,0,0-1.076-.266,2.97,2.97,0,0,0-1.261.266,1.164,1.164,0,0,0-.686.634.527.527,0,0,0,.269.641c.223.146.145.387-.175.533-.058.027-.127.046-.185.073-.024,0-.037,0-.039.006a.182.182,0,0,0-.066.013c-.037,0-.064.008-.09.008s-.015.006-.027.006a.993.993,0,0,1-.211,0L121,434.7a.689.689,0,0,1-.436-.166c-.007-.013,0-.021-.015-.027s-.007-.013-.018-.019a.2.2,0,0,1-.012-.175l.692-1.966a.9.9,0,0,1,.828-.381c.366,0,.625.167.551.38l-.566,1.641,1.192.081a.9.9,0,0,1,.04-.447A2.258,2.258,0,0,1,124.544,432.451Z" transform="translate(-115.484 -431.964)"/></g></g></g><g transform="translate(316.625 154.686)"><path class="p" d="M328.093,168.187a49.872,49.872,0,0,1-79.614,40.052l-24.442,6.24,10.174-22.758a49.891,49.891,0,1,1,93.881-23.535Z" transform="translate(-224.037 -118.295)"/><path class="e" d="M262.8,185.608l-18.561-18.789,6.236-6.161,10.843,10.974,22.526-35.315,7.392,4.714Z" transform="translate(-214.05 -109.387)"/></g></g></svg>