<svg xmlns="http://www.w3.org/2000/svg" width="786.034" height="744.632" viewBox="0 0 786.034 744.632"><defs><style>.a,.b{fill:none;}.a{stroke:#ebebeb;stroke-miterlimit:10;}.b{stroke:#263238;stroke-linecap:round;stroke-linejoin:round;}.c{fill:#263238;}.d{fill:#217409;}.e{fill:#37474f;}.f{fill:#ebebeb;}.g{fill:#c7c7c7;}.h{fill:#a6a6a6;}.i{fill:#dbdbdb;}.j{fill:#d3766a;}.k{fill:#fff;}.l{fill:#455a64;}.m{fill:#b55d2c;}.n{fill:#72b74c;}.o{fill:#ff9cbd;}.p{fill:#629d52;}.q{opacity:0.1;}</style></defs><g transform="translate(-88.819 -100.785)"><g transform="translate(89.319 101.285)"><g transform="translate(0 0)"><rect class="a" width="52.321" height="22.109" transform="translate(672.75 144.735) rotate(180)"/><rect class="a" width="52.321" height="22.109" transform="translate(701.937 172.613) rotate(180)"/><rect class="a" width="52.321" height="22.109" transform="translate(643.564 172.613) rotate(180)"/><rect class="a" width="52.321" height="22.109" transform="translate(52.321 538.24) rotate(180)"/><rect class="a" width="52.321" height="22.109" transform="translate(173.643 66.583) rotate(180)"/><rect class="a" width="52.321" height="22.109" transform="translate(135.418 38.705) rotate(180)"/><rect class="a" width="52.321" height="22.109" transform="translate(106.232 66.583) rotate(180)"/><rect class="a" width="52.321" height="22.109" transform="translate(785.034 22.109) rotate(180)"/><rect class="a" width="52.321" height="22.109" transform="translate(214.534 390.444)"/><rect class="a" width="52.321" height="22.109" transform="translate(185.347 362.565)"/></g></g><g transform="translate(111.332 720.986)"><line class="b" x2="688.364"/></g><g transform="translate(127.026 470.07)"><g transform="translate(90.421 29.897)"><path class="c" d="M136.765,294.255c-6.226-6.1-14.271-13.469-23.789-10.839-8.954,2.474-12.383,12.248-13.985,20.393-2.067,10.5-3.675,21.094-5.341,31.659q-2.525,16.007-4.8,32.05-1.3,9.051-2.567,18.1-.631,4.529-1.259,9.057c-.411,2.962-.9,5.92-1.069,8.907-.051.95,1.442,1.089,1.65.182,1.154-5.034,1.63-10.27,2.371-15.38q1.114-7.709,2.239-15.418,2.238-15.311,4.574-30.61,2.306-15.308,4.758-30.6c1.381-8.642,2.033-19.381,9.7-25.081,4.2-3.126,9.565-3.161,14.329-1.344,5.042,1.924,9.071,5.534,13.015,9.1A.131.131,0,0,0,136.765,294.255Z" transform="translate(-83.953 -270.023)"/><g transform="translate(23.448)"><path class="d" d="M116.664,294.367s-12.726-4.582-19.006,4.707,1.227,32.91,59.168,46.236a163.619,163.619,0,0,0-13.941-52.377C130.465,265.844,108.332,276.1,116.664,294.367Z" transform="translate(-95.821 -276.367)"/><g transform="translate(13.851 13.818)"><path class="c" d="M146.46,333.017a45.21,45.21,0,0,0-2.914-4.7q-1.452-2.24-2.938-4.459c-.745-1.112-1.506-2.215-2.266-3.317.055-.269.071-.549.107-.83.067-.5.132-1,.2-1.5.14-1.087.3-2.169.46-3.254s.34-2.158.545-3.232a17.232,17.232,0,0,1,.759-3.414c.073-.168-.231-.253-.253-.053a12.569,12.569,0,0,1-.518,1.919c-.136.486-.263.976-.389,1.464q-.421,1.648-.8,3.31c-.229,1.02-.423,2.045-.6,3.076-.083.494-.156.99-.223,1.486-1.033-1.474-2.087-2.932-3.173-4.365-3.076-4.052-6.331-7.953-9.7-11.758.014-.038.049-.059.051-.1.3-6.088.154-12.114,1.506-18.1.036-.164-.209-.253-.247-.089-1.266,5.617-2.529,11.517-2.166,17.32q-1.811-2.024-3.663-4.017-4.232-4.549-8.632-8.945c-.119-.119-.306.055-.192.178,4.882,5.256,9.52,10.731,14.036,16.3a99.724,99.724,0,0,0-10.592.391c-3.928.29-7.832.792-11.733,1.332-.166.024-.117.283.049.257a110.26,110.26,0,0,1,11.717-1.049c3.78-.156,7.54.014,11.316,0q3.66,4.54,7.234,9.148c-.17-.006-.348-.006-.539-.01-.887-.018-1.776-.032-2.663-.016-1.76.03-3.525.154-5.277.3a80.367,80.367,0,0,0-10.7,1.6.131.131,0,0,0,.049.257c3.56-.4,7.129-.735,10.709-.862,1.709-.059,3.416-.059,5.125-.059.889,0,1.776-.008,2.665.006a3.357,3.357,0,0,0,1.462-.134c1.559,2.023,3.12,4.046,4.663,6.08q1.843,2.427,3.634,4.9c1.217,1.684,2.318,3.521,3.673,5.1C146.349,333.284,146.523,333.147,146.46,333.017Z" transform="translate(-102.636 -281.759)"/><path class="c" d="M115.366,292.287a38.649,38.649,0,0,0-6.2-.3c-2.067,0-4.135.061-6.2.132a.13.13,0,1,0,.016.259c2.1-.15,4.191-.186,6.291-.154,2.027.03,4.06.223,6.086.168A.052.052,0,0,0,115.366,292.287Z" transform="translate(-102.831 -274.945)"/><path class="c" d="M118.854,297.506c.237-1.978.484-3.967.907-5.916a.13.13,0,1,0-.253-.053c-.3,1.948-.676,3.882-.964,5.833q-.216,1.461-.4,2.93a13.556,13.556,0,0,0-.237,2.762.178.178,0,0,0,.34.026,17.123,17.123,0,0,0,.3-2.758Q118.684,298.916,118.854,297.506Z" transform="translate(-88.134 -275.494)"/><path class="c" d="M117.468,283.446c-.508,1.926-1.01,3.875-1.365,5.837-.18.994-.332,1.994-.466,3a12.037,12.037,0,0,0-.2,2.926.08.08,0,0,0,.152.012,16.591,16.591,0,0,0,.456-2.792q.193-1.443.443-2.881c.352-2.019.709-4.021,1.223-6.008C117.757,283.373,117.512,283.284,117.468,283.446Z" transform="translate(-90.559 -283.361)"/></g></g></g><g transform="translate(22.602 84.962)"><path class="c" d="M92.348,377.642q-.48-5.471-1.059-10.934-1.144-10.829-2.612-21.616c-.964-7.17-1.887-14.358-3.039-21.5a53.649,53.649,0,0,0-2.211-9.763c-.976-2.693-2.588-5.129-5.408-6.1C71.2,305.37,66.6,312.44,63.85,317.441c-.083.15.134.263.229.127,1.648-2.367,6.2-9.02,11.375-8.71,3.479.209,6.263,2.673,7.933,11.349,4.163,21.62,7.913,65.493,8.352,68.362.233,1.521,1.308,1.456,1.316-.174C93.077,384.807,92.66,381.215,92.348,377.642Z" transform="translate(-35.77 -301.287)"/><path class="d" d="M79.549,317.7s5.957-21.039-7.214-10.519c-21.928,17.512-22.706,55.606-22.706,55.606s38.977-22.639,43.824-37.572C100.673,302.973,79.549,317.7,79.549,317.7Z" transform="translate(-49.629 -304.236)"/><g transform="translate(2.475 10.819)"><path class="c" d="M85.7,322.687c-3.059.618-6.159,1.025-9.249,1.47q-2.19.314-4.386.616c-.988.134-1.988.229-2.982.352,2.9-4,5.831-7.984,8.615-12.064.109-.158-.134-.32-.261-.192a90.36,90.36,0,0,0-6.512,7.516c-.571-1.628-1.156-3.254-1.729-4.882-.662-1.885-1.375-3.758-1.853-5.7-.041-.164-.3-.087-.251.075.531,1.928.909,3.9,1.425,5.831.5,1.867,1.065,3.713,1.727,5.526-1.429,1.855-2.8,3.754-4.128,5.671-.672-1.9-1.5-3.74-2.09-5.671a.131.131,0,0,0-.251.075c.7,2.136,1.075,4.357,1.731,6.5-.9,1.306-1.79,2.614-2.644,3.934-1.575,2.432-3.057,4.908-4.509,7.4a.58.58,0,0,0-.342.589c-2.462,4.26-4.805,8.583-7.115,12.944a.13.13,0,0,0,.227.126c2.314-4.307,4.888-8.5,7.565-12.62l.028,0a5.856,5.856,0,0,1,1.274-.247c.45-.093.9-.194,1.348-.292,1.008-.219,2.005-.48,3.007-.729,1.976-.49,3.932-.956,5.939-1.3.166-.03.091-.283-.075-.251-2.359.449-4.726.717-7.111.994-1.126.13-2.248.275-3.367.453l-.162.024q2.1-3.195,4.262-6.333c1.417-2.055,2.871-4.084,4.333-6.107,1.351-.19,2.691-.545,4.033-.8q2.261-.433,4.523-.879c3.019-.6,6.022-1.272,9.057-1.776C85.941,322.909,85.87,322.652,85.7,322.687Z" transform="translate(-50.882 -309.712)"/><path class="c" d="M57.477,319.943c-.182-.555-.35-1.116-.526-1.674a33.306,33.306,0,0,1-.9-3.529c-.034-.164-.285-.089-.251.077.255,1.187.533,2.371.806,3.555a23.024,23.024,0,0,0,1.014,3.5.236.236,0,0,0,.452-.136C57.91,321.13,57.673,320.539,57.477,319.943Z" transform="translate(-46.08 -304.894)"/><path class="c" d="M75.854,313.814c-1.778.267-3.572.391-5.36.547s-3.572.407-5.356.676c-.1.014-.1.164,0,.156,1.8-.122,3.576-.261,5.362-.5s3.562-.5,5.358-.622C76.03,314.065,76.016,313.79,75.854,313.814Z" transform="translate(-37.044 -305.711)"/></g></g><g transform="translate(0 10.107)"><path class="c" d="M126.626,385.713c-.692-15.493-1.675-30.955-3.232-46.387-.775-7.684-1.642-15.362-2.725-23.009a164.438,164.438,0,0,0-4.438-22.272c-1.595-5.576-3.689-11.173-7.413-15.7-3.675-4.467-9.095-7.265-14.979-6.538-6.781.838-12.238,5.109-16.961,9.751-5.3,5.206-10.148,10.889-15.056,16.459q-1.861,2.113-3.693,4.254c-.109.126.079.308.19.18,4.8-5.511,9.78-10.865,15-15.985,4.819-4.732,9.782-9.9,16.459-11.857a16.961,16.961,0,0,1,9.563-.225,15.174,15.174,0,0,1,6.534,4.137c3.756,3.908,5.868,9.2,7.368,14.327,4.165,14.238,5.657,29.169,7.2,43.873,1.573,14.939,2.634,29.92,3.385,44.922.755,15.082,1.344,30.181,2.8,45.217.18,1.857.421,3.707.656,5.556.16,1.245,2.09,1.247,1.988-.049C128.037,416.829,127.322,401.281,126.626,385.713Z" transform="translate(-18.764 -261.139)"/><path class="d" d="M95.454,288.447s8.846-16.372-1.606-21.623-45.436,33.8-55.657,90.9c0,0,56.5-25,75.688-49.91S111.314,277.42,95.454,288.447Z" transform="translate(-38.19 -266.351)"/><g transform="translate(8.836 18.98)"><path class="c" d="M99.4,292.388c-6.35.014-12.683-.482-19.035-.437,1.189-1.365,2.375-2.733,3.578-4.088A59.512,59.512,0,0,0,88.9,282.1c.089-.13-.1-.318-.229-.217a46.288,46.288,0,0,0-4.805,4.819q-2.386,2.534-4.748,5.09c-2.428,2.626-4.805,5.3-7.178,7.971-.006-.261-.012-.518-.01-.771.006-1.11,0-2.223.006-3.335.014-2.154.045-4.307.067-6.461.041-4.365.032-8.755.334-13.112.012-.168-.249-.16-.261.006-.3,4.38-.757,8.741-.972,13.127-.107,2.154-.158,4.307-.184,6.465-.014,1.11-.032,2.225-.024,3.335.006.607-.018,1.247.028,1.871-.369.419-.753.826-1.122,1.245-5.068,5.793-9.885,11.782-14.578,17.877-.006-.336-.051-.682-.083-1.012-.065-.672-.146-1.344-.221-2.015-.164-1.458-.364-2.908-.581-4.359q-.308-2.042-.65-4.08c-.257-1.525-.63-3.072-.747-4.616a.13.13,0,1,0-.255.042,40.672,40.672,0,0,1,.532,4.649q.2,2.1.387,4.193c.124,1.4.251,2.8.4,4.195.069.672.128,1.344.2,2.015.036.336.077.672.123,1.006a1.939,1.939,0,0,0,.273.8c-.806,1.051-1.616,2.1-2.414,3.155-3.2,4.24-6.348,8.528-9.5,12.811-.1.132.087.314.19.18,2.98-3.885,6.044-7.7,9.15-11.48,2.326.1,4.7-.073,7.02-.111,2.452-.042,4.9-.053,7.352-.061a.131.131,0,0,0-.006-.261c-2.45.042-4.9.079-7.35.089-2.233.008-4.513-.1-6.747.02q4.1-4.982,8.261-9.911c1.008-1.2,2.023-2.4,3.035-3.6a13.863,13.863,0,0,0,2.835.095q1.672,0,3.341,0c2.088-.008,4.175-.055,6.261-.087,4.313-.067,8.628-.209,12.94-.221a.131.131,0,0,0-.006-.261c-4.317-.053-8.636-.239-12.954-.348-2.088-.053-4.179-.123-6.267-.15-1.114-.016-2.229-.026-3.341-.038-.634-.008-1.288-.051-1.93-.028q3.554-4.22,7.117-8.437a.319.319,0,0,0,.132-.154c2.316-2.731,4.631-5.463,6.973-8.172.32-.371.646-.735.968-1.107,6.583.206,13.157-.227,19.739-.1C99.57,292.653,99.564,292.386,99.4,292.388Z" transform="translate(-42.662 -275.957)"/><path class="c" d="M70.546,289.955l-1.539.014c-.15,0-.144.233.006.235l1.539.012A.131.131,0,0,0,70.546,289.955Z" transform="translate(-17.061 -262.298)"/><path class="c" d="M73.957,290.113q-3.053-.041-6.1-.128-1.523-.041-3.051-.1a11.368,11.368,0,0,0-2.839.034c-.1.024-.081.164.006.19a10.938,10.938,0,0,0,2.843.2q1.526.027,3.051.043,3.05.03,6.1.02A.131.131,0,0,0,73.957,290.113Z" transform="translate(-23.892 -262.438)"/><path class="c" d="M65.2,300.172a84.7,84.7,0,0,0-12.5-1.126c-.061,0-.055.085,0,.091,4.151.4,8.31.62,12.43,1.29C65.306,300.455,65.37,300.2,65.2,300.172Z" transform="translate(-32.901 -253.428)"/><path class="c" d="M51.186,294.5c-.042-.364-.083-.727-.13-1.089-.107-.818-.235-1.634-.364-2.448q-.368-2.327-.81-4.641c-.028-.144-.275-.107-.257.042q.293,2.392.516,4.8c.073.786.132,1.575.2,2.361a6.578,6.578,0,0,0,.318,2.239c.119.243.484.144.547-.085A3.05,3.05,0,0,0,51.186,294.5Z" transform="translate(-35.868 -265.933)"/></g></g><g transform="translate(84.921)"><path class="c" d="M103.554,271.058c-2.023-3.764-4.6-8.737-9.644-8.421-4.169.261-6.046,4.513-6.937,8.03-2.752,10.873-2.946,22.345-3.481,33.486-1.134,23.55-2.152,47.128-2.3,70.709q-.059,9.8.043,19.608c.061,6.666.043,13.371.466,20.025a.491.491,0,0,0,.982-.024c.036-5.7-.166-11.408-.19-17.111q-.033-8.349.111-16.694.273-16.905.9-33.8c.413-11.2.907-22.388,1.381-33.581q.356-8.39.725-16.781c.245-5.42.48-10.843,1.1-16.235.348-3.019.794-6.04,1.425-9.014a12.539,12.539,0,0,1,2.606-6.04c1.992-2.148,5-1.994,7.368-.533,2.446,1.511,3.934,4.025,5.222,6.516C103.408,271.347,103.633,271.208,103.554,271.058Z" transform="translate(-81.17 -259.882)"/><g transform="translate(10.284)"><path class="d" d="M97.108,270.616s-4.149-14.657,5.027-7.328c15.273,12.2,15.815,38.734,15.815,38.734S90.8,286.251,87.422,275.85C82.394,260.355,97.108,270.616,97.108,270.616Z" transform="translate(-86.375 -261.235)"/><g transform="translate(6.618 7.895)"><path class="c" d="M108.97,285.921c-.251-.405-.518-.8-.773-1.2a7.526,7.526,0,0,0,0-1.249c0-.63-.008-1.262.006-1.893q.044-1.855.136-3.713c.008-.168-.253-.16-.261.006q-.095,1.823-.146,3.643c-.018.609-.045,1.215-.065,1.824-.008.237-.038.51-.051.782-1.067-1.656-2.16-3.294-3.292-4.9-.33-.466-.674-.921-1.008-1.383a28.477,28.477,0,0,1-.081-4.787c.02-1.7.043-3.4.1-5.108.006-.168-.257-.162-.261.006-.049,1.772-.138,3.541-.227,5.311a34.2,34.2,0,0,0-.1,3.792c-2.624-3.564-5.4-7-8.219-10.421-.095-.115-.294.045-.2.162,1.743,2.207,3.414,4.471,5.052,6.761-3.195-.745-6.443-1.174-9.689-1.642-.166-.026-.231.227-.063.253,3.436.52,6.811,1.381,10.2,2.13.028.006.043-.012.067-.012q1.953,2.747,3.865,5.519c.522.751,1.027,1.513,1.541,2.268l-.146-.018c-.352-.049-.7-.1-1.057-.144-.751-.091-1.5-.15-2.258-.209-1.565-.122-3.134-.206-4.7-.29-.168-.008-.162.259.006.263,1.545.036,3.078.152,4.614.318.81.087,1.618.2,2.428.292.354.042.707.083,1.061.127l.31.043q1.3,1.926,2.612,3.847c1.533,2.268,2.9,4.7,4.537,6.886a.124.124,0,0,0,.211-.13A70.5,70.5,0,0,0,108.97,285.921Z" transform="translate(-89.724 -263.909)"/><path class="c" d="M96.2,270.69c0-.571.012-1.142.012-1.711a25.905,25.905,0,0,1,.144-3.59c.026-.19-.259-.217-.259-.03,0,1.188-.13,2.373-.186,3.559-.03.593-.03,1.187-.032,1.78,0,.275,0,.547,0,.822a2.506,2.506,0,0,0,.063.852.119.119,0,0,0,.227-.006,2.491,2.491,0,0,0,.036-.786C96.2,271.283,96.2,270.986,96.2,270.69Z" transform="translate(-83.719 -265.231)"/><path class="c" d="M97.589,271.387c-1.01-.172-2.043-.225-3.063-.31-1.12-.095-2.239-.194-3.353-.338a.13.13,0,1,0-.03.257c2.144.14,4.278.522,6.423.6A.1.1,0,0,0,97.589,271.387Z" transform="translate(-88.464 -259.859)"/></g></g><path class="c" d="M98.678,271.2c.079.111.026.431.026.563v.474c0,.34,0,.682-.006,1.023s-.006.684-.008,1.025a2.123,2.123,0,0,0,.049.9.058.058,0,0,0,.1,0,.881.881,0,0,0,.051-.425c0-.158,0-.316,0-.472l-.008-1.025c0-.342-.006-.684-.006-1.026v-.472c0-.144-.055-.447.03-.565C99.069,270.96,98.5,270.956,98.678,271.2Z" transform="translate(-64.118 -251.689)"/></g><g transform="translate(61.273 66.915)"><path class="c" d="M115.866,311.785c-5.712-4.286-10.841-10.446-18.521-10.749-6.338-.249-10.78,4.523-13.321,9.838a55.483,55.483,0,0,0-3.108,8.755q-1.719,6.016-3.234,12.088c-1.99,7.963-3.7,16-5.084,24.089-.773,4.509-1.492,9.036-2.063,13.576a114.816,114.816,0,0,0-1.334,13.9.723.723,0,0,0,1.419.156c.773-3.8,1.1-7.718,1.656-11.553.563-3.859,1.148-7.716,1.8-11.561q1.959-11.535,4.548-22.961c1.638-7.182,3.246-14.477,5.564-21.475,1.662-5.015,4.327-10.867,9.743-12.671,8.241-2.742,15.724,4.232,21.754,8.759C115.819,312.076,116,311.886,115.866,311.785Z" transform="translate(-69.201 -289.32)"/><g transform="translate(20.994)"><path class="d" d="M99.586,313.467s-5.262-15.03,2.351-17.976c11.408-4.418,41.271,29.217,35.427,80.75,0,0-23.074-12.711-40.111-27.01s-21.4-32.975-13.892-37.8S99.586,313.467,99.586,313.467Z" transform="translate(-79.826 -295.102)"/><g transform="translate(10.064 15.659)"><path class="c" d="M126.405,357.461a39.53,39.53,0,0,0-2.774-5.2c-.974-1.762-1.962-3.523-2.98-5.262-1.984-3.391-3.954-6.791-5.983-10.154-.33-.545-.672-1.083-1-1.628.045-.2.081-.4.126-.6l.338-1.492c.255-1.116.449-2.247.66-3.373.413-2.207.8-4.442,1.391-6.605.043-.16-.223-.211-.259-.045-.47,2.2-1.166,4.373-1.818,6.53-.32,1.061-.662,2.12-.942,3.193-.1.368-.194.737-.288,1.1-2.454-4.021-4.949-8.024-7.639-11.891a5.4,5.4,0,0,0,.267-1.652c.079-.755.172-1.508.261-2.26.2-1.7.4-3.391.644-5.08a98.992,98.992,0,0,1,1.808-9.873c.041-.164-.215-.207-.257-.045-.822,3.244-1.717,6.491-2.331,9.78-.3,1.614-.589,3.234-.8,4.861-.109.814-.2,1.632-.279,2.448-.026.241-.063.49-.095.739-.828-1.168-1.654-2.337-2.521-3.476-2.636-3.468-5.366-6.852-8.123-10.225-.1-.128-.32.02-.213.152a181.7,181.7,0,0,1,12.975,18.948c.755,1.209,1.494,2.43,2.243,3.643-.251-.034-.5-.063-.741-.093-.964-.122-1.942-.184-2.91-.275q-2.91-.27-5.827-.5c-3.886-.31-7.783-.549-11.661-.964-.166-.018-.213.239-.045.257,3.93.45,7.84,1.081,11.754,1.638q2.887.412,5.779.778a22.952,22.952,0,0,0,4.45.457q2.288,3.719,4.582,7.439a8.589,8.589,0,0,0-1.031-.04c-.648-.01-1.3,0-1.942-.006q-1.808,0-3.612,0c-2.5,0-5.007.051-7.51.047-.168,0-.142.259.026.261,2.537.032,5.066.16,7.6.292q1.8.092,3.6.217c.6.041,1.2.091,1.8.128a3.716,3.716,0,0,0,1.585-.061c1.3,2.112,2.6,4.214,3.9,6.329q1.79,2.925,3.636,5.817a46.534,46.534,0,0,0,3.912,5.874C126.255,357.71,126.467,357.625,126.405,357.461Z" transform="translate(-82.382 -303.027)"/><path class="c" d="M102.869,309.547a36.417,36.417,0,0,1-1.031,4.9q-.637,2.5-1.452,4.959a.163.163,0,1,0,.31.1q.768-2.433,1.369-4.916c.4-1.656.66-3.343,1.063-4.995C103.167,309.431,102.889,309.379,102.869,309.547Z" transform="translate(-69.839 -296.766)"/><path class="c" d="M101,315.686a1.922,1.922,0,0,0-1.259-.468c-.725-.1-1.452-.2-2.177-.3-1.35-.184-2.7-.332-4.056-.492-2.812-.328-5.627-.6-8.437-.956-.166-.022-.213.237-.045.257,2.652.324,5.289.725,7.939,1.073,1.3.17,2.594.354,3.894.506.624.073,1.251.138,1.875.209a6.6,6.6,0,0,1,2.14.368C101,315.944,101.09,315.776,101,315.686Z" transform="translate(-84.92 -292.838)"/><path class="c" d="M105.757,326.242c-1.326-.113-2.665-.154-4-.2q-1.008-.033-2.015-.061l-.966-.032a5.945,5.945,0,0,1-1.259-.073c-.184-.047-.2.29-.01.259a5.62,5.62,0,0,1,1.18.038l1.045.063,2.013.121c1.328.081,2.665.158,4,.168C105.9,326.528,105.919,326.256,105.757,326.242Z" transform="translate(-72.766 -280.732)"/><path class="c" d="M106.133,326.536c.152-.753.294-1.51.435-2.266l.818-4.455a.132.132,0,0,0-.259-.046l-.978,4.341c-.164.723-.326,1.446-.476,2.173l-.207,1a2.794,2.794,0,0,0-.121,1.065c.024.12.2.219.288.091A5.454,5.454,0,0,0,106.133,326.536Z" transform="translate(-65.008 -286.791)"/></g></g></g><g transform="translate(41.656 151.664)"><g transform="translate(5.951 15.07)"><path class="e" d="M136.914,345.622l-1.281,21.3L131.841,429.8H67.357l-3.792-62.882-1.281-21.3Z" transform="translate(-62.284 -345.622)"/><path class="c" d="M136.914,345.622l-1.281,21.3H63.565l-1.281-21.3Z" transform="translate(-62.284 -345.622)"/></g><rect class="e" width="86.531" height="21.314"/></g></g><g transform="translate(111.332 783.237)"><ellipse class="f" cx="355.91" cy="31.09" rx="355.91" ry="31.09"/></g><g transform="translate(270.082 224.373)"><g transform="translate(209.873 107.365)"><g transform="translate(4.663 237.508)"><path class="g" d="M304.1,311.43l-5.11,30.641L264.373,529h-5.58l25.17-186.93,3.72-30.641Z" transform="translate(-258.793 -311.43)"/><path class="h" d="M275.252,311.43h16.413l-5.11,30.641H271.533Z" transform="translate(-246.362 -311.43)"/></g><g transform="translate(113.362 237.508)"><path class="g" d="M359.111,529h-5.579l-34.614-186.93-5.11-30.641h16.413l3.719,30.641Z" transform="translate(-313.808 -311.43)"/><path class="h" d="M330.221,311.43l3.719,30.641H318.918l-5.11-30.641Z" transform="translate(-313.808 -311.43)"/></g><g transform="translate(217.186 237.508)"><path class="g" d="M411.658,529h-5.58l-34.614-186.93-5.11-30.641h16.413l3.72,30.641Z" transform="translate(-366.355 -311.43)"/><path class="h" d="M386.488,342.072H371.465l-5.11-30.641h16.413Z" transform="translate(-366.355 -311.43)"/></g><path class="g" d="M510.074,443.129H256.434V416.4h94.95l31.911-225.179H500.4Z" transform="translate(-256.434 -191.224)"/><path class="i" d="M495.3,305.191H256.434v26.725H496.248Z" transform="translate(-256.434 -80.011)"/><path class="i" d="M396.084,443.129H382.258l-9.011-251.905h13.168Z" transform="translate(-142.444 -191.224)"/></g><g transform="translate(0 204.098)"><g transform="translate(158.813 3.77)"><g transform="translate(42.781 228.685)"><path class="j" d="M255.857,518.686c4.912.464,138.611-31.526,142.819-35.867.514-.482-2.126-12.635-6-29.2l-.077-.326c-2.42-10.506-41.465-95.457-41.465-95.457l-86.652,24.257L303.937,460.9s-16.3,11.794-30.276,22.991c-.016.024-.034.028-.03.047-8.632,6.876-16.071,13.052-17.65,15.052C251.9,504.215,250.955,518.263,255.857,518.686Z" transform="translate(-251.957 -357.831)"/><path class="k" d="M255.865,488.6c4.9.466,138.595-31.526,142.821-35.859.512-.492-2.138-12.63-6.012-29.211l-.079-.314c-.889-3.914-6.9-18.191-14.064-34.553-14.26,3.851-65.378,17.715-83.945,23.481l9.344,18.68s-16.3,11.8-30.274,22.993c0,.02-.02.02-.02.039-8.63,6.876-16.081,13.062-17.652,15.05C251.9,474.139,250.947,488.188,255.865,488.6Z" transform="translate(-251.959 -327.748)"/><g transform="translate(0 79.944)"><path class="e" d="M255.706,479.841c5.052.433,138.842-31.926,143.165-36.383,1.648-1.683-1.334-22.8-8.684-45.166l-86.229,20.966s-44.016,34.915-48.232,40.315C251.539,464.963,250.654,479.406,255.706,479.841Z" transform="translate(-252.243 -398.292)"/><g transform="translate(3.773 0.505)"><g transform="translate(0 22.875)"><path class="c" d="M254.467,452.518c22.293-5.975,112.779-27.97,135.269-32.18.184-.036.213.087.034.14-21.967,6.4-112.626,27.666-135.216,32.408C254.078,452.986,254,452.644,254.467,452.518Z" transform="translate(-254.153 -400.166)"/><path class="c" d="M257.826,426.136a18.538,18.538,0,0,1,14.74,2.233c3.523,2.369,6.941,6.074,7.909,10.762.028.134-.217.2-.271.063-3.4-8.466-13.252-14.244-22.311-12.776A.145.145,0,0,1,257.826,426.136Z" transform="translate(-250.674 -395.132)"/><path class="c" d="M275.346,411.507c8.947-2.3,20.12-1.644,27.474,4.349.284.231-.049.632-.348.561a127.652,127.652,0,0,0-27.014-3.768A.581.581,0,0,1,275.346,411.507Z" transform="translate(-233.897 -409.972)"/><path class="c" d="M272.17,413.724c8.947-2.3,20.12-1.646,27.474,4.347.285.233-.049.634-.35.561a127.634,127.634,0,0,0-27.012-3.766A.581.581,0,0,1,272.17,413.724Z" transform="translate(-236.996 -407.81)"/><path class="c" d="M268.993,415.938c8.947-2.3,20.12-1.644,27.474,4.349.284.231-.049.632-.35.559a127.739,127.739,0,0,0-27.012-3.766A.581.581,0,0,1,268.993,415.938Z" transform="translate(-240.097 -405.648)"/><path class="c" d="M265.818,418.154c8.947-2.3,20.118-1.644,27.472,4.347.286.233-.047.634-.348.561A127.637,127.637,0,0,0,265.93,419.3.58.58,0,0,1,265.818,418.154Z" transform="translate(-243.196 -403.486)"/><path class="c" d="M320.214,410.376c10.079-2.407,13.837,13.252,3.74,15.662C313.875,428.445,310.119,412.786,320.214,410.376Z" transform="translate(-195.495 -410.125)"/></g><path class="c" d="M271.87,414.335c6.354,5.078,14.686,7.228,22.147,10.1a1.126,1.126,0,0,0,1.438-1.114.245.245,0,0,0,.219-.326,48.465,48.465,0,0,0-13.708-20.981c-3.748-3.234-10.363-5.532-13.995-.666C264.535,405.954,268.157,411.369,271.87,414.335ZM269.655,407c-1.47-9.982,9.156-4.612,11.823-2.116a52.077,52.077,0,0,1,4.744,5.262,145.45,145.45,0,0,1,8.275,12.076c-3.578-1.636-7.265-2.952-10.9-4.456C279.265,415.973,270.465,412.5,269.655,407Z" transform="translate(-242.015 -398.548)"/><path class="c" d="M312.9,406.423c-2.122-5.69-9.117-5.341-13.621-3.288a48.446,48.446,0,0,0-19.045,16.291.244.244,0,0,0,.119.373,1.127,1.127,0,0,0,1.069,1.474c7.966-.666,16.567-.391,24.093-3.481C309.908,415.986,314.907,411.8,312.9,406.423ZM293.3,417.792c-3.912.423-7.818.652-11.713,1.219a145.334,145.334,0,0,1,11.331-9.271,52.022,52.022,0,0,1,6.03-3.718c3.26-1.646,14.965-3.819,10.754,5.349C307.377,416.426,297.956,417.288,293.3,417.792Z" transform="translate(-228.749 -395.407)"/></g></g></g><path class="c" d="M315.536,566.636l92.836-27.844s-76.52-159.469-74.108-167.582c1.612-5.418,116.345-5.793,149.968-35.986,34.8-31.252,7.706-92.637,7.706-92.637l-96.46-.5s1.656,20.134-2.029,23.263c-2.43,2.088-134.315,13.693-159.57,62.183C210.957,371.553,315.536,566.636,315.536,566.636Z" transform="translate(-230.588 -242.088)"/><path class="c" d="M334.265,371.209c-.417,1.367,1.446,7.1,4.845,15.668l-69.33,85.18c-24.726-56.361-47.969-121.36-35.9-144.51,25.267-48.489,157.134-60.1,159.584-62.183,3.665-3.13,2.013-23.273,2.013-23.273l61.227.316L354.944,367.393C342.692,368.745,334.682,369.8,334.265,371.209Z" transform="translate(-230.591 -242.09)"/><g transform="translate(77.472 8.951)"><g transform="translate(5.025 272.335)"><path class="l" d="M272.492,408.076a57.672,57.672,0,0,1,7.569-2.814c2.677-.911,5.354-1.83,8.048-2.7,5.3-1.705,10.614-3.335,15.969-4.849,10.782-3.049,21.582-6.038,32.441-8.8,5.661-1.438,17.788-4.578,18.541-4.463.362.057.443.662.118.776-10.492,3.756-21.149,6.973-31.8,10.223-10.636,3.242-21.294,6.449-32.078,9.17-2.986.755-5.991,1.425-8.986,2.142a67.482,67.482,0,0,1-9.543,2.045C272.459,408.84,272.154,408.248,272.492,408.076Z" transform="translate(-272.344 -384.453)"/></g><path class="l" d="M448.5,256.544c-.3-3.221-.656-6.433-1.021-9.648-.043-.371-.626-.368-.589.012,1.286,13.044,2.608,26.4.207,39.4a56.183,56.183,0,0,1-17.229,31.22c-19.138,17.846-45.9,23.1-70.83,27.344-14.281,2.43-28.648,4.3-43.063,5.712q-10.592,1.04-21.216,1.7c-7.018.437-14.05.506-21.066.9-2.217.123-4.195,1.136-3.849,3.669a17.679,17.679,0,0,0,1.687,4.43c.747,1.707,1.5,3.41,2.256,5.115q4.223,9.555,8.5,19.09,8.808,19.647,17.867,39.181,17.981,38.784,37.308,76.933,2.395,4.733,4.807,9.462c.1.206.4.018.3-.188Q324.109,472.243,306.1,433.4c-5.949-12.855-11.914-25.7-17.8-38.59q-4.413-9.662-8.775-19.347-2.181-4.843-4.349-9.689l-2.163-4.851c-.6-1.344-2.782-4.564-1.276-5.821,1.006-.84,3.1-.551,4.3-.585,1.867-.055,3.732-.124,5.6-.186q5.317-.178,10.63-.439,10.764-.542,21.5-1.472c14.021-1.215,28-2.991,41.894-5.228,24.777-3.985,51.721-8.482,71.551-25.115a59.6,59.6,0,0,0,19.021-27.737C450.021,282.147,449.659,269.112,448.5,256.544Z" transform="translate(-269.801 -246.621)"/></g></g><g transform="translate(0 178.343)"><path class="j" d="M151.347,423.18c3.489,3.489,126.87,64.112,132.881,63.452.705-.043,6.421-11.086,14-26.324l.15-.3c4.833-9.636,48.726-90.7,48.726-90.7l-76.763-38.863-45.11,78.889s-20.076-1.312-37.981-1.6c-.028.01-.043,0-.053.018-11.033-.207-20.7-.2-23.194.338C157.525,409.5,147.842,419.726,151.347,423.18Z" transform="translate(-149.833 -330.444)"/><path class="k" d="M151.347,395.205c3.491,3.487,126.872,64.118,132.893,63.454.7-.034,6.416-11.086,13.991-26.312l.15-.3c.336-.668.682-1.353,1.045-2.031q.359-.747.767-1.464c.365-.719.759-1.448,1.152-2.175,3.343-6.337,8.832-16.593,14.876-27.822l-78.271-39.449-12.72,22.258s-20.072-1.3-37.979-1.6c-.028.008-.045,0-.055.016-11.029-.2-20.7-.194-23.184.34C157.533,381.543,147.836,391.752,151.347,395.205Z" transform="translate(-149.834 -302.476)"/><g transform="translate(0 49.218)"><path class="e" d="M150.985,385.555c3.616,3.555,127.3,63.954,133.477,63.278,2.341-.245,13.511-18.411,22.114-40.327l-79.79-38.845s-56.169-1.176-62.859.294C157.262,371.438,147.371,382,150.985,385.555Z" transform="translate(-150.214 -341.826)"/><g transform="translate(4.54)"><g transform="translate(0 24.788)"><path class="c" d="M152.934,375.452c20.981,9.616,104.7,50.38,124.715,61.478.162.091.107.205-.063.13-21.005-9.077-104.4-50.516-124.819-61.269C152.335,375.565,152.491,375.249,152.934,375.452Z" transform="translate(-152.511 -360.593)"/><path class="c" d="M162.38,369.312a18.547,18.547,0,0,1,9.933,11.12c1.2,4.072,1.472,9.1-.773,13.333-.065.123-.294.014-.251-.123,2.778-8.692-1.122-19.422-9.035-24.07A.145.145,0,0,1,162.38,369.312Z" transform="translate(-143.079 -366.535)"/><path class="c" d="M185.577,368.916c8.356,3.938,16.546,11.565,18.389,20.871.071.36-.443.456-.626.21a127.678,127.678,0,0,0-18.4-20.128A.581.581,0,0,1,185.577,368.916Z" transform="translate(-121.062 -366.965)"/><path class="c" d="M181.717,368.6c8.356,3.936,16.546,11.565,18.389,20.869.071.362-.443.458-.626.209a127.668,127.668,0,0,0-18.4-20.128A.58.58,0,0,1,181.717,368.6Z" transform="translate(-124.829 -367.276)"/><path class="c" d="M177.856,368.277c8.356,3.938,16.548,11.567,18.389,20.871.073.362-.441.456-.626.209a127.661,127.661,0,0,0-18.4-20.128A.582.582,0,0,1,177.856,368.277Z" transform="translate(-128.595 -367.588)"/><path class="c" d="M174,367.958c8.354,3.938,16.546,11.565,18.389,20.871.071.36-.443.456-.626.209a127.671,127.671,0,0,0-18.4-20.128A.581.581,0,0,1,174,367.958Z" transform="translate(-132.361 -367.899)"/><path class="c" d="M223.7,395.7c9.3,4.574,2.205,19.031-7.107,14.449S214.388,391.119,223.7,395.7Z" transform="translate(-94.23 -341.634)"/></g><path class="c" d="M183.609,368.057c1.656,7.965,6.7,14.933,10.616,21.906a1.128,1.128,0,0,0,1.82.059.245.245,0,0,0,.375-.111,48.48,48.48,0,0,0,2.821-24.905c-.824-4.88-4.454-10.869-10.355-9.437C183.3,356.923,182.64,363.406,183.609,368.057Zm2.972-7.064c5.236-8.625,9.994,2.288,10.458,5.91a52.288,52.288,0,0,1,.3,7.079,145.1,145.1,0,0,1-1.33,14.58c-1.711-3.543-3.713-6.908-5.552-10.383C188.26,374.036,183.694,365.749,186.58,360.993Z" transform="translate(-122.526 -355.354)"/><path class="c" d="M222.989,383.707c2-5.734-3.614-9.927-8.393-11.219a48.461,48.461,0,0,0-25.059.4.243.243,0,0,0-.146.364,1.127,1.127,0,0,0-.119,1.816c6.562,4.568,13.011,10.264,20.778,12.683C214.586,389.166,221.1,389.133,222.989,383.707Zm-22.353-3.744c-3.282-2.17-6.437-4.485-9.8-6.532a145.36,145.36,0,0,1,14.641.087,52.135,52.135,0,0,1,7.016.98c3.56.812,13.963,6.6,4.872,10.98C212.355,387.892,204.549,382.547,200.637,379.963Z" transform="translate(-117.041 -340.052)"/></g></g></g><g transform="translate(75.784)"><path class="c" d="M188.569,482.537l92.562,46.25S353.377,381.9,361.306,372.434c10.567-12.618,148.191,5.2,180.654-35.545,33.569-42.143,4.805-94.476,4.805-94.476L442,242.347s-.31,11.62,5.73,28.606c0,0-119.795-7.127-153.692,25.824C268.019,322.07,188.569,482.537,188.569,482.537Z" transform="translate(-188.569 -238.069)"/><g transform="translate(18.369)"><path class="l" d="M362.777,270.018a180.819,180.819,0,0,0-16.664-10.181,69.306,69.306,0,0,0-12.624-5.1c-3.055-.741-4.394-.964-1.527.389,1.64.776,4.783,2.272,7.706,3.661-.551-.018-1.1-.034-1.624-.061-2.057-.107-4.12-.178-6.178-.231-4.027-.1-8.059-.077-12.088-.1-8.176-.047-16.269.725-24.423,1.134a.168.168,0,0,0,.008.336c8.136-.265,16.312.168,24.455.134,4.033-.016,8.057.1,12.09.174q2.952.056,5.906.1a47.478,47.478,0,0,0,5,.006l2.247,1.065c5.922,2.792,11.833,5.708,17.537,8.921C362.769,270.363,362.945,270.132,362.777,270.018Z" transform="translate(-102.889 -226.557)"/><path class="l" d="M316.025,240.542c1.065,4.944,1.978,9.919,3.217,14.825.567,2.249,1.126,4.536,1.895,6.728.65,1.849,1.658,3.967,3.754,4.448,2.418.551,3.185-1.51,3.055-3.527-.146-2.25-.644-4.519-1.014-6.74-.425-2.563-.856-5.123-1.233-7.694-.188-1.284-.385-2.569-.559-3.857-.043-.324-.2-2.778-.352-3.485-.022.059-.061.115-.138.1l-.085-.014a.168.168,0,0,1-.144-.132c-.018-.194-.014-.233.134-.364a.187.187,0,0,1,.223-.008c.458.271.47.909.6,1.383.354,1.255.715,2.507,1.035,3.77.6,2.363,1.182,4.73,1.7,7.113s1.016,4.764,1.517,7.147c.375,1.782.828,3.661.29,5.461a4.159,4.159,0,0,1-3.956,3.005c.079.164.176.318.243.486.2.49.338,1.01.5,1.512s.322,1.023.45,1.549a4.7,4.7,0,0,1,.117.763c.022.285-.045.559-.02.846a.409.409,0,0,1-.769.247c-.118-.255-.3-.454-.435-.7a4.413,4.413,0,0,1-.324-.834c-.15-.494-.275-.988-.383-1.5s-.241-1-.316-1.508c-.046-.3-.046-.6-.061-.907a5.629,5.629,0,0,1-2.792-1.17,9.462,9.462,0,0,1-2.776-4.578c-.672-2.065-1.174-4.2-1.677-6.307a91.816,91.816,0,0,1-2.592-15.9A.453.453,0,0,1,316.025,240.542Z" transform="translate(-83.433 -240.182)"/><path class="l" d="M341.445,247.581c.362,2.446.561,4.914,1.041,7.344.468,2.379,1.029,4.758,1.729,7.079a25.081,25.081,0,0,0,2.778,6.419,23.678,23.678,0,0,0,4.594,5,40.676,40.676,0,0,0,11.3,6.8,53.967,53.967,0,0,0,6.333,2.089c1.12.292,2.254.528,3.4.713a7.209,7.209,0,0,1,2.733.731.558.558,0,0,1-.083.952c-1.49.67-3.539.2-5.1-.01a37.358,37.358,0,0,1-5.408-1.138,39.47,39.47,0,0,1-10.134-4.679,32.415,32.415,0,0,1-8.358-7.32,24.426,24.426,0,0,1-4.258-10.227,49.764,49.764,0,0,1-1.037-13.734A.24.24,0,0,1,341.445,247.581Z" transform="translate(-58.343 -233.147)"/><g transform="translate(0 227.614)"><path class="l" d="M198.281,355.393a57.906,57.906,0,0,1,7.435,3.152c2.573,1.176,5.149,2.347,7.7,3.564,5.023,2.4,10.008,4.865,14.939,7.439,9.931,5.187,19.835,10.428,29.628,15.878,5.1,2.839,16.075,8.883,16.544,9.486.225.288-.132.782-.447.646-10.207-4.475-20.163-9.452-30.139-14.406-9.96-4.944-19.91-9.929-29.62-15.354-2.689-1.5-5.335-3.078-8-4.614a67.29,67.29,0,0,1-8.342-5.066C197.732,355.924,197.918,355.286,198.281,355.393Z" transform="translate(-197.866 -355.381)"/></g><path class="l" d="M501.249,254.871a.347.347,0,0,0-.694.014c.2,22.748-3.315,48.183-20.823,64.5-19.2,17.891-46.894,20.027-71.819,19.818-14.307-.121-28.586-.484-42.9-.03-14.37.456-28.887,1.162-43.158,2.985a23.534,23.534,0,0,0-14.655,7.008c-3.956,4.084-6.795,9.126-9.713,13.961Q286.7,381.01,276.579,399.289q-20.109,36.327-37.215,74.193-2.125,4.7-4.208,9.417c-.091.207.215.383.312.174q17.379-37.977,37.414-74.663,9.976-18.352,20.634-36.32c3.339-5.629,6.572-11.393,10.294-16.781,3.29-4.762,7.407-9.237,13.11-10.966,3.436-1.041,7.1-1.221,10.658-1.549q5.483-.5,10.972-.9,10.7-.783,21.418-1.172c14.424-.526,28.823-.35,43.249-.089,25.044.454,52.4-.409,73.167-16.35a59.005,59.005,0,0,0,19.3-26.952c3.918-10.814,5.317-22.42,5.58-33.866C501.328,260.6,501.316,257.734,501.249,254.871Z" transform="translate(-161.494 -226.168)"/><path class="l" d="M337.024,305.135c-5.11.091-10.217.3-15.325.476-4.25.142-8.522.1-12.679,1.132-3.865.962-6.937,1.431-10.1,5.754-3.952,5.4-25.457,46.946-34.488,65.341q-3.755,7.649-7.4,15.35c-2.505,5.307-4.724,10.747-7.22,16.056-.093.194.2.358.294.162,2.211-4.44,4.673-8.759,6.957-13.163s4.507-8.852,6.726-13.3q6.722-13.452,13.467-26.893c4.469-8.875,9.9-17.53,14.434-26.371,3.811-7.431,9.01-17.575,12.641-19.079a59.879,59.879,0,0,1,15.815-3.841c5.631-.4,11.266-.739,16.891-1.223A.2.2,0,0,0,337.024,305.135Z" transform="translate(-147.195 -176.798)"/></g></g></g><g transform="translate(128.346)"><g transform="translate(136.23)"><path class="c" d="M414.042,203.133c4.805,18.994,13.774,40.983,9.381,60.806-3.466,15.532-14.9,27.859-27.5,36.857-27.735,19.772-70.091,30.305-97.687,4.414-11.019-10.345-17.658-35.245-5.4-47.376,6.3-6.216,14.724-9.085,22.479-13,10.239-5.127,16.81-12.819,19.75-23.943,5.758-21.669.844-35.662-1.654-57.309-.452-4.019-.326-8.1,2.885-12.224a27.569,27.569,0,0,1,11.177-9.595,27.383,27.383,0,0,1,12.479-4.791c9.622-.95,20.444,5.876,28.841,9.788,8.5,3.967,13.066,8.994,15.538,18.128C407.752,177.586,410.805,190.385,414.042,203.133Z" transform="translate(-282.042 -136.885)"/><path class="c" d="M374.032,200.039c-5.526-17.125-11.381-34.115-17.128-51.16-.034-.1-.2-.069-.168.039,4.323,14.161,8.447,28.365,12.956,42.475,4.418,13.829,9.911,27.743,13.1,41.909,7.164,31.8-22.993,51.546-50.461,55.562-1.251.182-.818,2.152.441,1.926,24-4.286,50.824-18.3,52.7-45.727C386.5,230.062,378.548,214.04,374.032,200.039Z" transform="translate(-237.804 -125.241)"/><path class="c" d="M336.681,149.489a.269.269,0,0,0-.524.119c2.808,17.721,7.745,38.122.891,55.466a45.517,45.517,0,0,1-16.887,20.991c-6.038,4.039-12.981,5.708-19.6,8.48C274.7,245.378,281.919,281.83,304.422,292c.474.213.86-.591.393-.828-16.044-8.152-24.694-27.187-16.467-44.158,6.6-13.619,24.7-13.448,35.7-22.327C346.835,206.286,342.463,174.873,336.681,149.489Z" transform="translate(-284.12 -124.782)"/></g><g transform="translate(0 73.662)"><path class="m" d="M407.978,192.416c-11.875,25.66-52.439,85.182-71.984,87.9-17.292,2.4-60.1-7.548-74.52-15.469-4.773-2.622,2.538-28.822,11.3-42.638,3.213-5.068,6.764-8.449,9.88-7.8,13.908,2.914,32.73,9.778,45.622,10.577,4.562.283,26.535-15.411,65.242-40.9C407.911,174.6,414.666,177.963,407.978,192.416Z" transform="translate(-171.463 -169.7)"/><g transform="translate(32.763 26.569)"><path class="m" d="M287.789,211.871s-34.431-5.325-36.2-5c-1.78.354-1.4,2.869-1.182,4.863a18.519,18.519,0,0,0,1.5,3.311c2.59,5.111,6.959,14.244.02,16.316-9.128,2.725-18.984-17.784-20.021-21.23a11.124,11.124,0,0,1,.273-4.748c1.241-5.617,5.139-13.809,11.77-15.921,9.089-2.9,19.474-1.638,28.565-1.182Z" transform="translate(-231.753 -187.613)"/><path class="c" d="M287.579,211.871s-34.431-5.325-36.2-5c-1.78.354-1.4,2.869-1.182,4.863a18.518,18.518,0,0,0,1.5,3.311c-7.034-3.412-14.791-7.212-19.729-9.662,1.241-5.617,5.139-13.809,11.77-15.921,9.089-2.9,19.474-1.638,28.565-1.182Z" transform="translate(-231.543 -187.613)"/></g><g transform="translate(7.86 10.073)"><path class="m" d="M301.3,264.335c-1.8-.962-11.057-3.695-23.57-8.03-3.363-9.664-12.313-28.132-14.661-33.032-1.681-5.9-8.636-17.549-9.178-17.287-1.014.492-4.6,2.229-9.118,3.989-5.973,2.316-13.566,4.7-19,4.353-2.962-.2-5.256-1.182-6.346-3.406-1.95-4,6.625-8.632,16.3-15.014,13.169-8.707,29.821-18.684,37.972-16.281,12.045,3.549,23.927,18.276,27.968,22.248,4.064,3.973,20.807,12.027,20.807,12.027C319.042,231.969,303.716,265.6,301.3,264.335Z" transform="translate(-219.15 -179.264)"/></g><path class="c" d="M248.191,199.746c-.146-.243-.286-.121-.178.182.348.948,1.837,5.194.913,5.653-1.61.8-11.244-4.4-15.666-5.87-.239-.079-.371.243-.14.3a69.9,69.9,0,0,1,6.495,3.1c2.029,1.008,7.984,4.523,10.01,3.515C250.979,205.96,248.774,200.694,248.191,199.746Z" transform="translate(-197.775 -149.33)"/><path class="c" d="M218.4,212.127c-1.189,1.16-2.505,2.106-3.068,1.571l-.018-.02c-.52-.577.458-1.867,1.648-3.025Z" transform="translate(-215.172 -138.561)"/><path class="e" d="M231.495,246.1c-1.241,1.211-10.677,2.175-14.163,2a1.718,1.718,0,0,1-1.452-1.45c-.079-3.446,1.13-12.92,2.375-14.135.846-.822,4.772-2.869,8.589-5.254,5-3.094,58.672-52.836,59.556-53.073s2.488,1.091,3.288,1.913,2.11,2.484,1.851,3.361c-.281.852-51.352,53.265-54.57,58.184C234.486,241.406,232.34,245.278,231.495,246.1Z" transform="translate(-214.484 -174.166)"/><path class="h" d="M230.5,217.525a1.193,1.193,0,0,1-.476.279,45.5,45.5,0,0,1-8.111-6.516,29.8,29.8,0,0,1-5.023-6.686,1.511,1.511,0,0,1,.368-.658,4.921,4.921,0,0,1,.611-.484c1.144,2.322,4.592,7.967,13.169,13.392A4.153,4.153,0,0,1,230.5,217.525Z" transform="translate(-213.495 -145.581)"/><g transform="translate(14.812 41.418)"><rect class="c" width="3.905" height="23.912" rx="0.73" transform="matrix(0.698, 0.716, -0.716, 0.698, 17.124, 0)"/><rect class="h" width="2.28" height="15.181" rx="0.426" transform="matrix(0.698, 0.716, -0.716, 0.698, 12.195, 5.937)"/><rect class="c" width="0.669" height="2.274" transform="matrix(0.716, -0.698, 0.698, 0.716, 4.912, 13.041)"/></g><path class="m" d="M272.321,237.093c-4.282-1.468-8.1-2.731-10.725-3.517-10.326-3.088-15.058-8.154-19.209-14.2-4.112-6.046-25.15-12.527-14.916-18.881,10.255-6.352,28.563,9.2,30.347,6.522.334-.51.239-1.573-.158-2.952C260.008,208.961,268.958,227.429,272.321,237.093Z" transform="translate(-205.879 -149.978)"/><g transform="translate(177.624 7.949)"><path class="n" d="M305.07,208.435l42.54,17.051s13.434-18.715,19.407-30.12c7.9-15.091,4.151-21.564-15.321-14.015C338.667,186.4,305.07,208.435,305.07,208.435Z" transform="translate(-305.07 -178.189)"/><path class="c" d="M324.021,206.933c.49.1,4.918,1.707,5.2,1.915,1.525-2.241,3.021-4.5,4.57-6.726.775-1.11,1.571-2.213,2.379-3.3.893-1.2,1.843-2.606,2.634-3.665.122-.166.346-.026.239.152-.889,1.478-1.6,2.553-2.377,3.827-.694,1.138-1.417,2.266-2.16,3.373-1.577,2.341-3.153,4.906-4.843,7.166-.13.174-5.293-2.327-5.712-2.594C323.881,207.035,323.944,206.917,324.021,206.933Z" transform="translate(-286.674 -161.702)"/><path class="c" d="M308.174,192.335c6.362,2.053,12.681,4.193,18.913,6.617q4.665,1.814,9.269,3.766c3.066,1.3,6.008,2.922,9.089,4.177.168.067.047.336-.121.259-3.005-1.415-6.236-2.432-9.316-3.679s-6.19-2.49-9.3-3.709c-6.2-2.432-12.4-4.88-18.656-7.172C307.879,192.531,308,192.28,308.174,192.335Z" transform="translate(-302.24 -164.393)"/></g></g><g transform="translate(190.746 82.25)"><path class="n" d="M312.735,309.509l120.86,9.765s-30.932-105.442-55.843-132.059c-11.337-12.114-22.418-10.262-31.807-2.472-2.343,1.948-31.388,38.813-33.85,51.662-2.173,11.355,7.056,23.957,7.056,23.957Z" transform="translate(-311.66 -178.513)"/><g transform="translate(0 25.775)"><path class="c" d="M330.685,191.558c-3.639,5.813-7.6,11.412-11.262,17.184a80.289,80.289,0,0,0-5.1,8.83,22.581,22.581,0,0,0-2.5,9.776,17.3,17.3,0,0,1,.194-5.169,23.659,23.659,0,0,1,1.549-4.953,67.016,67.016,0,0,1,4.953-9.065c1.745-2.628,3.533-5.256,5.384-7.8.3-.9.668-1.786,1.012-2.669a30.7,30.7,0,0,1,1.895-3.748,31.758,31.758,0,0,1-1.4,3.942c-.172.366-.324.711-.474,1.077C326.786,196.446,328.7,193.969,330.685,191.558Z" transform="translate(-311.711 -191.558)"/></g><path class="k" d="M409.475,246.886c-4.8,1.838-9.6,3.734-14.72,4.643a15.628,15.628,0,0,1-4.5.178,6.978,6.978,0,0,1-4.11-1.818c-2.233-2.173-3-5.3-3.5-8.2a104.222,104.222,0,0,1-.85-10.492,4.169,4.169,0,0,0-.04-.514c-.1-2.292-.217-4.584-.454-6.856a46.537,46.537,0,0,0-1.581-8.733,21.312,21.312,0,0,0-3.991-7.824,16.173,16.173,0,0,0-7.093-5.038,24.157,24.157,0,0,0-8.733-1.106,76.979,76.979,0,0,0-12.171,1.64,3.358,3.358,0,0,1-.435.079c-1.679.356-3.339.711-5.019,1.067-4.8,1.008-9.6,2.055-14.5,2.608.1-.138.2-.277.277-.415,4.762-.553,9.444-1.581,14.147-2.588,1.739-.375,3.478-.751,5.236-1.106a3.069,3.069,0,0,1,.415-.079,72.274,72.274,0,0,1,12.033-1.66,25.24,25.24,0,0,1,8.911,1.106,16.9,16.9,0,0,1,7.33,5.177,21.909,21.909,0,0,1,4.051,8,46.534,46.534,0,0,1,1.581,8.832c.217,2.154.336,4.307.435,6.461.02.178.02.356.04.514a104.186,104.186,0,0,0,.83,10.847c.474,2.885,1.245,5.928,3.359,7.982,2.134,2.094,5.434,2.035,8.279,1.561,5.058-.889,9.859-2.746,14.661-4.564Zm-71.624,51.609c-2.193-2-4.722-3.952-7.824-4.268a6.956,6.956,0,0,0-4.367,1.126,16.229,16.229,0,0,0-3.418,2.944,64.3,64.3,0,0,0-6.817,9.682l.4.04a63.9,63.9,0,0,1,6.7-9.464c1.936-2.134,4.5-4.248,7.469-3.932,2.924.3,5.434,2.193,7.587,4.169,3.892,3.655,7.192,7.9,10.847,11.855l.692.059C345.32,306.694,341.922,302.288,337.852,298.494Zm84.21-16.834c-.415.02-.85.059-1.264.1-6.066.652-11.381,4.05-15.787,8.022a117.674,117.674,0,0,0-12.053,13.238c-2.983,3.576-5.928,7.212-9.227,10.472l.573.059c3.221-3.24,6.066-6.777,8.97-10.274a120.867,120.867,0,0,1,11.974-13.218c4.386-3.952,9.622-7.33,15.57-7.982.454-.04.909-.079,1.363-.1C422.141,281.878,422.1,281.779,422.061,281.66ZM398.45,220.587c-5.71.988-10.689,4.367-14.819,8.259-.494.454-.968.929-1.442,1.4l-.435.435c-3.557,3.655-6.718,7.686-9.879,11.657-2.885,3.636-5.73,7.311-8.951,10.65-.119.119-.237.257-.375.375-.771.81-1.6,1.6-2.45,2.371a24.48,24.48,0,0,1-7.429,4.722,16.4,16.4,0,0,1-8.674.672,21.888,21.888,0,0,1-8.061-3.5,45.66,45.66,0,0,1-6.8-5.71c-4.268-4.149-7.963-8.871-12.448-12.863a20.176,20.176,0,0,0-4.821-3.28c-.02.138-.039.3-.059.435a18.571,18.571,0,0,1,4.623,3.142c4.426,3.971,8.121,8.694,12.369,12.9a46.864,46.864,0,0,0,6.876,5.769,21.648,21.648,0,0,0,8.239,3.576,16.768,16.768,0,0,0,8.931-.692,24.663,24.663,0,0,0,7.548-4.841c.929-.85,1.838-1.719,2.687-2.608.138-.119.257-.257.375-.375,3.141-3.319,5.927-6.935,8.753-10.492a143.3,143.3,0,0,1,9.583-11.4,4.512,4.512,0,0,1,.435-.435c.533-.553,1.087-1.106,1.66-1.64,4.11-3.892,9.049-7.271,14.68-8.219C398.529,220.785,398.49,220.686,398.45,220.587Zm-12.8,39.615c-1.9-2.45-4.92-3.576-7.745-4.386-4.762-1.284-9.642-1.857-14.443-2.727a5.056,5.056,0,0,0-.534-.1c-.869-.178-1.739-.336-2.608-.533a47.026,47.026,0,0,1-8.516-2.569,21.757,21.757,0,0,1-7.33-4.841,16.331,16.331,0,0,1-4.189-7.627,24.448,24.448,0,0,1-.1-8.812c.889-5.868,2.885-11.519,4.762-17.17.948-2.865,1.917-5.75,2.786-8.674.04-.138.079-.3.119-.435a75.883,75.883,0,0,0,1.956-8.121,32.376,32.376,0,0,0-.178-13.91l-.3.178a32.127,32.127,0,0,1,.1,13.653,78.918,78.918,0,0,1-2,8.279,2.8,2.8,0,0,0-.138.435c-.85,2.825-1.8,5.651-2.746,8.457-1.877,5.651-3.892,11.3-4.821,17.249a24.889,24.889,0,0,0,.1,8.97,16.737,16.737,0,0,0,4.288,7.864,22.063,22.063,0,0,0,7.508,4.94,46.733,46.733,0,0,0,8.595,2.569c.771.178,1.561.336,2.331.474.178.04.356.059.534.1,4.92.909,9.9,1.462,14.7,2.746,2.806.79,5.75,1.9,7.548,4.228,1.838,2.371,1.4,5.651.613,8.417-1.679,5.71-4.643,10.946-7.33,16.261-2.707,5.3-5.473,10.63-7.291,16.34a27.277,27.277,0,0,0-1.442,8.812,15.607,15.607,0,0,0,.217,2.134l.277.02a13.068,13.068,0,0,1-.237-2.154,26.914,26.914,0,0,1,1.462-8.733c1.818-5.671,4.6-10.986,7.31-16.281,2.687-5.315,5.671-10.531,7.39-16.3a16.082,16.082,0,0,0,.711-4.446A7.033,7.033,0,0,0,385.647,260.2Z" transform="translate(-311.615 -176.769)"/><g transform="translate(12.044 79.296)"><path class="c" d="M345.68,218.646a94.925,94.925,0,0,0-13.991,1.462c-2.292.445-4.546.992-6.8,1.591-1.124.3-2.251.557-3.385.812a14.945,14.945,0,0,1-3.61.462.084.084,0,0,0-.008.168,25.352,25.352,0,0,0,3.442.138,24.653,24.653,0,0,0,3.315-.425c2.328-.429,4.635-.966,6.957-1.419,4.689-.915,9.373-1.828,14.117-2.4C345.935,219.008,345.9,218.636,345.68,218.646Z" transform="translate(-317.807 -218.646)"/><path class="c" d="M349.107,221.724a102.378,102.378,0,0,0-11.543-1.239c-1.938-.091-3.863-.069-5.8,0-.925.034-1.849.085-2.772.148-1.016.069-2.023.275-3.039.328-.107.006-.117.17-.008.168.96-.022,1.928.115,2.887.148s1.93.059,2.895.093c1.93.067,3.859.154,5.791.2,3.867.1,7.716.233,11.576.464C349.3,222.054,349.3,221.756,349.107,221.724Z" transform="translate(-309.942 -216.909)"/></g></g><g transform="translate(174.76 4.506)"><g transform="translate(33.572 46.924)"><path class="m" d="M353.28,196.9c.125,2.185-5.708,18.322-15.174,20.64-3.082.751-7.929-15.9-7.929-15.9l-.638-1.146-8.927-16.067,16.38-18.932,2.412-2.58s2.152,4.558,4.776,10.258c.124.265.247.528.373.812.158.318.31.618.443.921.4.848.81,1.713,1.2,2.584.3.662.591,1.3.877,2.011.308.7.591,1.387.9,2.088C350.844,188.57,353.213,195.978,353.28,196.9Z" transform="translate(-320.612 -162.914)"/><path class="c" d="M344.18,173.173a36.871,36.871,0,0,1-14.641,27.322l-8.927-16.067,16.38-18.932,2.412-2.58S341.556,167.472,344.18,173.173Z" transform="translate(-320.612 -162.914)"/></g><path class="m" d="M305.353,181.792c1.043,32.242,20.472,35.259,27.425,35.026,6.311-.211,27.772-1.731,30.066-33.907s-13.025-41.886-27.484-42.166S304.312,149.55,305.353,181.792Z" transform="translate(-301.976 -137.63)"/><g transform="translate(5.606 33.798)"><path class="c" d="M308.256,160.424a21.186,21.186,0,0,0,2.152-.577,3.6,3.6,0,0,0,2.082-1.008,1.149,1.149,0,0,0-.077-1.4,2.85,2.85,0,0,0-2.839-.512,4.177,4.177,0,0,0-2.539,1.618A1.225,1.225,0,0,0,308.256,160.424Z" transform="translate(-306.116 -155.773)"/><path class="c" d="M321.018,159.65a21.139,21.139,0,0,1-2.2-.34,3.607,3.607,0,0,1-2.179-.777,1.146,1.146,0,0,1-.075-1.4,2.843,2.843,0,0,1,2.764-.816,4.178,4.178,0,0,1,2.7,1.334A1.223,1.223,0,0,1,321.018,159.65Z" transform="translate(-296.795 -156.271)"/><g transform="translate(19.445 8.978)"><g transform="translate(0 0.217)"><path class="c" d="M316.405,162.133c.014-.083.174.1.174.19,0,2.2.368,4.714,2.375,5.38.063.022.059.132-.014.125C316.506,167.561,316.052,164.214,316.405,162.133Z" transform="translate(-316.299 -159.766)"/><path class="c" d="M318.276,160.939c3.523-.379,4.019,6.694.755,7.046C315.818,168.329,315.323,161.255,318.276,160.939Z" transform="translate(-316.281 -160.925)"/></g><path class="c" d="M318.219,161.323c.646.356,1.3,1.02,2.051,1.041.867.026,1.466-.761,1.98-1.513.053-.077.119-.02.126.073.115,1.353-.308,2.782-1.747,3.084-1.314.279-2.349-.856-2.784-2.193C317.764,161.566,317.958,161.179,318.219,161.323Z" transform="translate(-314.809 -160.815)"/></g><g transform="translate(0 9.822)"><g transform="translate(2.651)"><path class="c" d="M311.144,162.332c-.024-.083-.162.117-.154.205.241,2.185.148,4.728-1.776,5.609-.059.026-.046.136.028.12C311.632,167.738,311.721,164.363,311.144,162.332Z" transform="translate(-306.456 -160.198)"/><path class="c" d="M310.353,161.242c-3.543.006-3.268,7.091.014,7.085C313.6,168.319,313.323,161.236,310.353,161.242Z" transform="translate(-307.8 -161.242)"/></g><path class="c" d="M310.2,161.624c-.545.4-1.073,1.1-1.741,1.172-.773.081-1.375-.664-1.9-1.379-.055-.073-.109-.012-.107.081.014,1.357.518,2.748,1.828,2.96,1.2.19,2.023-1.006,2.294-2.367C310.629,161.838,310.424,161.464,310.2,161.624Z" transform="translate(-306.458 -161.103)"/></g><path class="c" d="M319.192,171.241c-.464.571-.9,1.334-1.687,1.494a5.786,5.786,0,0,1-2.409-.279.078.078,0,0,0-.083.124,2.967,2.967,0,0,0,2.908.863,2.345,2.345,0,0,0,1.492-2.13C319.431,171.183,319.26,171.158,319.192,171.241Z" transform="translate(-298.128 -141.71)"/><g transform="translate(12.371 23.799)"><path class="c" d="M312.719,170.966a8.957,8.957,0,0,0,3.574,2.794,4.047,4.047,0,0,0,2.448.162c1.772-.458,1.822-2.083,1.5-3.475a9.641,9.641,0,0,0-.784-2.13A11.6,11.6,0,0,1,312.719,170.966Z" transform="translate(-312.719 -168.316)"/><path class="o" d="M314.528,172.707a4.047,4.047,0,0,0,2.448.162c1.772-.458,1.822-2.083,1.5-3.475C316.579,169.582,314.7,170.862,314.528,172.707Z" transform="translate(-310.954 -167.264)"/></g><g transform="translate(7.793 0.726)"><path class="c" d="M314.043,178.052s-.261,3.3-.172,4.847c.01.144.387.192.913.192.026.006.04.016.061,0a7.352,7.352,0,0,0,6.971-3.159c.1-.158-.107-.306-.241-.2a11.089,11.089,0,0,1-6.593,2.314c-.134-.421.636-5.639.389-5.643a13.433,13.433,0,0,0-3.462,1c.346-6.894,1.792-13.675,2.033-20.543a.211.211,0,0,0-.409-.077c-2.019,7-2.59,14.923-3.13,22.033C310.327,179.7,313.441,178.35,314.043,178.052Z" transform="translate(-310.402 -156.638)"/></g></g><path class="c" d="M360.308,187.016c-3.505-.221-12.6-9.9-12.817-26.844,0,0,1.245,15.2,2.379,17.429s-5.084-5.449-5.449-19.108c0,0-7.585,5.432-14.042,7.216s-10.4,1.707-10.863,1.239,9.043-3.422,11.622-6.372c0,0-17.19,7.911-25.1,8.484-.915.067-1.934-18.753,10.322-26.69s31.6.757,36.784,5.807c0,0,6.113.893,12.724,9.964S364.086,187.255,360.308,187.016Z" transform="translate(-301.752 -139.165)"/><g transform="translate(0 35.628)"><path class="p" d="M323.081,177.41a10.138,10.138,0,0,1-9.245-10.932h0a10.127,10.127,0,1,1,9.245,10.932Zm-7.9-10.82a8.771,8.771,0,1,0,9.47-8.008,8.673,8.673,0,0,0-2.177.089A8.787,8.787,0,0,0,315.186,166.59Z" transform="translate(-293.686 -157.197)"/><path class="p" d="M311.659,177.915c-4.149.2-7.747-4.169-8.022-9.743a12.1,12.1,0,0,1,1.79-7.174,6.308,6.308,0,0,1,10.784-.528,12.082,12.082,0,0,1,2.482,6.965c.259,5.277-2.553,9.771-6.374,10.409A5.608,5.608,0,0,1,311.659,177.915Zm-5.1-16.176a10.749,10.749,0,0,0-1.571,6.368c.237,4.829,3.2,8.623,6.605,8.457s5.983-4.232,5.75-9.063a10.755,10.755,0,0,0-2.187-6.182,5.4,5.4,0,0,0-4.42-2.274,4.443,4.443,0,0,0-.512.055A5.589,5.589,0,0,0,306.56,161.739Z" transform="translate(-303.621 -156.72)"/><path class="p" d="M317.353,163.776l.818-1.079c-1.6-1.213-5.228-2.772-7.567-.008l1.033.873C313.73,161.085,317.207,163.665,317.353,163.776Z" transform="translate(-296.806 -153.342)"/><path class="p" d="M350.075,165.834l1.17-.68c-.318-.543-3.183-5.341-6.226-5.684-2.845-.312-20.883,2.274-21.647,2.385l.194,1.34c5.171-.747,19.1-2.626,21.3-2.379C346.877,161.041,349.307,164.516,350.075,165.834Z" transform="translate(-284.346 -155.004)"/></g><g transform="translate(53.7 37.242)"><path class="m" d="M338.412,177.937a6.714,6.714,0,0,1-1.438.559,4.95,4.95,0,0,1-1.506.219,4.438,4.438,0,0,1-1.917-.375,5.307,5.307,0,0,1-1.322-.79A6.224,6.224,0,0,1,330.8,175.9l.751-8.769s5.807-10.832,10.63-8.877C347.025,160.2,343.506,175.323,338.412,177.937Z" transform="translate(-330.799 -158.014)"/><path class="c" d="M339.647,160.311a.075.075,0,0,1,.045.14c-3.553,1.958-5.105,5.657-6.054,9.411.946-1.513,2.367-2.452,4.376-1.351.1.057.03.221-.077.211a3.359,3.359,0,0,0-3.529,1.6,16.24,16.24,0,0,0-1.4,3.177c-.134.354-.759.247-.678-.152l.02-.091C331.688,168.507,334.593,161.4,339.647,160.311Z" transform="translate(-329.377 -155.774)"/><path class="k" d="M335.819,168.238a1.495,1.495,0,1,1-1.369-1.608A1.493,1.493,0,0,1,335.819,168.238Z" transform="translate(-328.813 -149.611)"/><path class="k" d="M336.795,166.687a1.056,1.056,0,1,1-.968-1.138A1.055,1.055,0,0,1,336.795,166.687Z" transform="translate(-327.007 -150.664)"/></g></g><g transform="translate(81.712 85.117)"><g transform="translate(0 1.568)"><path class="m" d="M393.736,190.8c21.977,34.05,50.894,91.011,35.15,101.929-25.884,17.952-97.721,23.7-114.15,24.35-7.091.279-17.447-46.75-12.28-52.308s80.478-3.7,81.377-8.257c.508-2.582-3.778-25.459-8.854-53.9C369.125,169.821,387.448,181.061,393.736,190.8Z" transform="translate(-213.068 -180.757)"/><g transform="translate(0 78.666)"><path class="m" d="M358.505,223.133s-21.5-1.9-35.622-2.484c-7.878-.326-21.432.322-27.328,2.731-8.82,3.6-43.405,24.3-38.566,32.8,4.38,7.688,31.835-13.868,31.835-13.868s-29.628,19.3-22.651,27.591,34.755-20.193,34.755-20.193-30,20.515-21.45,27.924c6.459,5.6,33.073-18.778,33.073-18.778s-25.66,17.812-19.266,23.856c7.064,6.678,33.044-14.281,33.044-14.281,18.836,12.628,32.971,10.934,42.882,8.532C371.609,276.378,358.505,223.133,358.505,223.133Z" transform="translate(-256.527 -220.571)"/><g transform="translate(10.701 14.392)"><path class="c" d="M293.357,227.868c-3.562,2.14-7.182,4.286-10.541,6.736s-6.637,5.021-9.753,7.773c-7.644,6.751-11.375,12.175-11.106,11.863,6.311-7.326,18.2-16.287,21.562-18.739s6.583-5.06,9.936-7.508C293.538,227.932,293.442,227.817,293.357,227.868Z" transform="translate(-261.943 -227.855)"/><path class="c" d="M295.031,233.926c-4.432,2.932-8.937,5.679-13.238,8.806-4.282,3.114-8.071,6.441-12.126,9.84-.312.263-.069.344.255.093,4.189-3.234,8.308-5.9,12.535-9.085,4.21-3.175,8.328-6.536,12.651-9.555C295.176,233.979,295.1,233.88,295.031,233.926Z" transform="translate(-254.547 -221.943)"/><path class="c" d="M296.853,238.42c-7,4.133-13.228,9.553-19.211,15.016-.3.271.028.342.35.081,6.291-5.111,11.191-9.166,19.008-14.854C297.12,238.574,297,238.333,296.853,238.42Z" transform="translate(-246.738 -217.564)"/></g></g><path class="c" d="M349.123,222.6c-5-.425-10.43-.178-15.574-.371-4.487-.166-8.688-.777-13.056-1.063-8.956-.585-22.169-1.423-31.076,0-6.447,1.027-14.441,6.287-18.982,8.427-.2.095-.043.369.154.3,8.516-3.057,13.659-6.716,21.375-7.824,8.87-1.272,32.014.47,40.933.982,5.22.3,10.976-.235,16.2-.043A.2.2,0,0,0,349.123,222.6Z" transform="translate(-243.047 -142.088)"/></g><g transform="translate(159.315)"><path class="n" d="M386.606,234.792l-45.663-3.918s-3.574-22.756-3.776-35.628c-.265-17.034,6-21.126,19.989-5.621C366.516,200,386.606,234.792,386.606,234.792Z" transform="translate(-337.159 -179.964)"/><path class="c" d="M345.932,214.527c-.482-.13-5.159-.688-5.5-.63-.354-2.687-.672-5.38-1.055-8.063-.19-1.34-.405-2.681-.64-4.015-.257-1.472-.472-3.157-.7-4.458a.142.142,0,1,0-.281.028c.126,1.721.279,3,.4,4.487.107,1.33.247,2.663.413,3.983.354,2.8.608,5.8,1.1,8.579.037.215,5.773.3,6.267.255C346.013,214.683,346.009,214.548,345.932,214.527Z" transform="translate(-336.583 -163.125)"/><path class="c" d="M379.771,207.184c-6.605-1.029-13.21-1.962-19.867-2.6q-4.979-.48-9.972-.808c-3.323-.217-6.68-.095-9.994-.362a.142.142,0,0,0-.012.284c3.321.091,6.664.636,9.976.909s6.649.563,9.97.871c6.633.618,13.272,1.223,19.889,1.992C379.947,207.49,379.949,207.212,379.771,207.184Z" transform="translate(-334.587 -157.083)"/></g></g></g></g><g transform="translate(134.517 441.631)"><rect class="e" width="665.451" height="23.665"/><g transform="translate(23.819 23.671)"><rect class="l" width="617.814" height="23.658"/></g><g transform="translate(14.304 47.329)"><path class="l" d="M98.408,602.842H88.842L116.682,270.8H141.1Z" transform="translate(-88.842 -270.796)"/><path class="c" d="M128.256,270.8,125.4,293.016h-23.4L103.85,270.8Z" transform="translate(-76.008 -270.793)"/></g><g transform="translate(598.893 47.329)"><path class="l" d="M427.4,602.842h9.566L409.125,270.8H384.712Z" transform="translate(-384.712 -270.796)"/><path class="c" d="M384.714,270.8l2.858,22.216h23.4L409.121,270.8Z" transform="translate(-384.709 -270.793)"/></g></g><g transform="translate(263.655 350.025)"><path class="c" d="M182.768,292.079H320.036l-33.341-91.6H149.427Z" transform="translate(-144.555 -200.479)"/><path class="e" d="M180.306,292.079H317.574l-33.341-91.6H146.965Z" transform="translate(-146.957 -200.479)"/><path class="c" d="M146.961,200.482l33.351,91.6h55.521l-76.017-91.6Z" transform="translate(-146.961 -200.476)"/><g transform="translate(8.891 65.631)"><path class="l" d="M151.461,259.665h16.707l14.994-25.97H166.455Z" transform="translate(-151.461 -233.695)"/><path class="e" d="M174.911,233.7v25.976H159.917Z" transform="translate(-143.209 -233.695)"/></g><g transform="translate(102.6 65.631)"><path class="l" d="M198.889,259.665H215.6l14.994-25.97H213.882Z" transform="translate(-198.889 -233.695)"/><path class="c" d="M222.338,233.7v25.976H207.344Z" transform="translate(-190.637 -233.695)"/></g><g transform="translate(159.625 18.164)"><g transform="translate(72.431 68.466)"><rect class="g" width="110.95" height="4.976"/><rect class="h" width="55.843" height="4.976"/></g><path class="g" d="M350.016,283.11H241.887L227.75,209.672H335.878Z" transform="translate(-227.75 -209.672)"/><path class="h" d="M268.535,231.507a5.934,5.934,0,0,1-6.007,6.582,7.327,7.327,0,0,1-7.156-6.582,5.934,5.934,0,0,1,6-6.581A7.327,7.327,0,0,1,268.535,231.507Z" transform="translate(-200.82 -194.787)"/></g></g><g transform="translate(185.701 244.343)"><g transform="translate(0)"><g transform="translate(27.004 5.464)"><path class="c" d="M124.731,327.71l-3.556-.466,18.3-139.253,66.454-36.47,1.725,3.143-64.86,35.6Z" transform="translate(-121.174 -148.035)"/><path class="d" d="M128.719,173.052a5.057,5.057,0,1,0,5.058-5.058A5.058,5.058,0,0,0,128.719,173.052Z" transform="translate(-113.812 -131.961)"/><path class="d" d="M161.591,154.815a5.057,5.057,0,1,0,5.056-5.058A5.057,5.057,0,0,0,161.591,154.815Z" transform="translate(-81.735 -149.757)"/></g><g transform="translate(104.492)"><path class="n" d="M201.813,162.141l-23.769,26.535-10.971-13.55-6.681-8.262,17.822-19.873,8.939,5.74Z" transform="translate(-160.392 -146.992)"/><path class="q" d="M198.514,159.306l-23.769,26.535-10.971-13.55,20.08-22.4Z" transform="translate(-157.092 -144.157)"/><path class="n" d="M232.864,172.905l-41.45,46.259-27.527-35.116,31.063-34.667Z" transform="translate(-156.982 -144.659)"/></g><path class="n" d="M168.837,256.357h-61.33l3.764-19.266h53.8Z" transform="translate(-107.507 -59.069)"/></g></g></g></svg>