<svg xmlns="http://www.w3.org/2000/svg" width="175.403" height="60.688" viewBox="0 0 175.403 60.688"><defs><style>.a{fill:#69a82c;}.a,.b{fill-rule:evenodd;}.b{fill:#b7cb1c;}</style></defs><g transform="translate(-59.619 -109.262)"><path class="a" d="M266.344,157.838h4.623v-16.75h6.394v-4.263H259.95v4.263h6.394v16.75Zm37.855,0h15.1v-4.2H308.822v-16.81H304.2v21.013Zm41.878,0H350.7v-6.3h3.512c4.712,0,8.495-2.521,8.495-7.384v-.06c0-4.293-3.032-7.265-8.045-7.265h-8.586v21.013Zm4.623-10.417V141h3.572c2.312,0,3.752,1.111,3.752,3.182v.06c0,1.8-1.35,3.182-3.662,3.182Z" transform="translate(-128.294 -27.535)"/><path class="a" d="M259.95,215.025h2.39l1.365-3.205h6.278l1.347,3.205H273.8l-5.841-13.371h-2.163l-5.842,13.371Zm4.609-5.272,2.276-5.311,2.295,5.311Zm11.512,5.272h4.95c4.173,0,7.056-2.9,7.056-6.638v-.038c0-3.736-2.883-6.6-7.056-6.6h-4.95v13.276Zm4.95-11.152a4.357,4.357,0,0,1,4.609,4.514v.038a4.327,4.327,0,0,1-4.609,4.476H278.4v-9.028Zm13.409,11.247H296.5l5.5-13.371h-2.522l-3.983,10.2-4-10.2h-2.579l5.519,13.371Zm9.976-.095h2.333V201.748h-2.333v13.276Zm10.526.19c2.788,0,4.742-1.48,4.742-3.964v-.038c0-2.2-1.442-3.205-4.249-3.888-2.561-.607-3.167-1.062-3.167-2.086V205.2c0-.873.8-1.574,2.162-1.574a6.028,6.028,0,0,1,3.6,1.365l1.252-1.764a7.357,7.357,0,0,0-4.817-1.67c-2.637,0-4.534,1.574-4.534,3.85v.038c0,2.447,1.594,3.281,4.419,3.964,2.466.569,3,1.081,3,2.029v.038c0,.986-.91,1.669-2.352,1.669a6.148,6.148,0,0,1-4.192-1.726l-1.4,1.669a8.18,8.18,0,0,0,5.538,2.124Zm13.826.038a6.8,6.8,0,0,0,6.961-6.866v-.038a6.942,6.942,0,0,0-13.883.038v.038a6.739,6.739,0,0,0,6.923,6.828Zm.038-2.162a4.533,4.533,0,0,1-4.514-4.7v-.038a4.486,4.486,0,0,1,4.476-4.684,4.548,4.548,0,0,1,4.514,4.722v.038a4.47,4.47,0,0,1-4.476,4.666Zm9.749,1.934h2.332V210.4H343.8l3.262,4.628h2.769L346.245,210a3.986,3.986,0,0,0,3.149-4.021v-.037a4.012,4.012,0,0,0-1.1-2.864,5.349,5.349,0,0,0-3.831-1.328h-5.917v13.276Zm2.332-6.695v-4.457h3.4c1.725,0,2.75.777,2.75,2.2v.038c0,1.347-1.062,2.219-2.732,2.219Zm14.813,6.695h2.352v-5.291l5.273-7.985h-2.674l-3.756,5.861-3.7-5.861h-2.769l5.273,8.042v5.235ZM259.95,235.064h2.39l1.365-3.205h6.278l1.347,3.205H273.8l-5.841-13.371h-2.163l-5.842,13.371Zm4.609-5.273,2.276-5.31,2.295,5.31Zm17.141,5.273h2.333v-5.406h6.695v-2.123h-6.695v-3.623h7.549v-2.124H281.7v13.276Zm18.07,0H302.1v-4.628h2.921l3.262,4.628h2.769l-3.585-5.026a3.987,3.987,0,0,0,3.149-4.021v-.038a4.011,4.011,0,0,0-1.1-2.864,5.348,5.348,0,0,0-3.831-1.328h-5.917v13.276Zm2.333-6.7v-4.457h3.4c1.725,0,2.75.777,2.75,2.2v.038c0,1.346-1.062,2.219-2.732,2.219Zm17.141,6.7h2.333V221.787h-2.333v13.276Zm17.672.227a6.85,6.85,0,0,0,5.386-2.352l-1.5-1.517a5.188,5.188,0,0,1-3.813,1.707,4.474,4.474,0,0,1-4.381-4.7v-.038a4.468,4.468,0,0,1,4.381-4.684,5.278,5.278,0,0,1,3.718,1.65l1.5-1.726a6.92,6.92,0,0,0-5.2-2.067,6.718,6.718,0,0,0-6.847,6.866v.038a6.677,6.677,0,0,0,6.752,6.827Zm12.324-.227h2.39L353,231.858h6.278l1.346,3.205h2.466l-5.842-13.371h-2.162l-5.841,13.371Zm4.608-5.273,2.276-5.31,2.3,5.31Z" transform="translate(-128.294 -65.341)"/><path class="b" d="M129.221,136.756h14.086a12.891,12.891,0,0,1,12.853,12.853v12.854H129.221Z" transform="translate(-51.899 -27.494)"/><path class="a" d="M129.221,243.354h29.215a8.215,8.215,0,0,1,8.191,8.192v8.192H129.221Z" transform="translate(-51.899 -89.788)"/><path class="a" d="M86.627,144.948v44.3a8.216,8.216,0,0,0,8.192,8.192h8.191V136.756H94.819A8.216,8.216,0,0,0,86.627,144.948Z" transform="translate(-27.008 -27.494)"/></g></svg>